<svg width="40" height="40" viewBox="0 0 40 40" fill="none" xmlns="http://www.w3.org/2000/svg">
<path d="M29.9988 1.66656C33.6807 1.66656 36.6658 4.65166 36.6658 8.33356C36.6656 12.0153 33.6806 14.9996 29.9988 14.9996C28.1458 14.9995 26.4697 14.2435 25.2615 13.023L16.4138 18.1871C16.5764 18.7636 16.6658 19.3711 16.6658 19.9996C16.6658 20.6269 16.5768 21.2336 16.4148 21.8091L25.2673 26.9703C26.4751 25.7534 28.1489 24.9997 29.9988 24.9996C33.6807 24.9996 36.6658 27.9847 36.6658 31.6666C36.6657 35.3484 33.6806 38.3326 29.9988 38.3326C26.3171 38.3324 23.3329 35.3482 23.3328 31.6666C23.3328 31.0354 23.4218 30.4249 23.5857 29.8463L14.7351 24.69C13.5269 25.9099 11.8514 26.6666 9.99878 26.6666C6.31707 26.6663 3.33276 23.6813 3.33276 19.9996C3.33288 16.3179 6.31714 13.3338 9.99878 13.3336C11.851 13.3336 13.527 14.0887 14.7351 15.3082L23.5837 10.1441C23.4215 9.56821 23.3328 8.96132 23.3328 8.33356C23.3328 4.65179 26.3171 1.66678 29.9988 1.66656ZM29.9988 28.3326C28.8437 28.3327 27.8253 28.9204 27.2273 29.813C27.2015 29.8724 27.1737 29.9316 27.1404 29.9888C27.1069 30.0462 27.069 30.1001 27.03 30.1519C26.7977 30.6064 26.6658 31.1211 26.6658 31.6666C26.6659 33.5073 28.1581 34.9994 29.9988 34.9996C31.8397 34.9996 33.3327 33.5074 33.3328 31.6666C33.3328 29.8256 31.8397 28.3326 29.9988 28.3326ZM9.99878 16.6666C8.15809 16.6668 6.66589 18.1589 6.66577 19.9996C6.66577 21.8404 8.15802 23.3333 9.99878 23.3336C11.2033 23.3336 12.2588 22.6942 12.8445 21.7369C12.855 21.717 12.8643 21.6959 12.8757 21.6763C12.8861 21.6586 12.898 21.6418 12.9089 21.6246C13.178 21.1437 13.3328 20.5898 13.3328 19.9996C13.3327 19.409 13.1784 18.8546 12.9089 18.3736C12.8984 18.3569 12.8867 18.3409 12.8767 18.3238C12.8648 18.3033 12.8545 18.2821 12.8435 18.2613C12.2576 17.3048 11.2026 16.6666 9.99878 16.6666ZM29.9988 4.99957C28.158 4.99979 26.6658 6.49274 26.6658 8.33356C26.6658 8.93239 26.8238 9.49436 27.1003 9.98004C27.1067 9.9904 27.1147 9.99977 27.1208 10.0103C27.1295 10.0252 27.1361 10.0412 27.1443 10.0562C27.7281 11.0215 28.7884 11.6664 29.9988 11.6666C31.8396 11.6666 33.3326 10.1744 33.3328 8.33356C33.3328 6.49261 31.8397 4.99957 29.9988 4.99957Z" fill="white"/>
</svg>
