<svg width="40" height="40" viewBox="0 0 40 40" fill="none" xmlns="http://www.w3.org/2000/svg">
<path d="M6.66553 31.6031H9.99886V33.3332H11.952V36.6666H8.66585C7.56128 36.6666 6.66553 35.7708 6.66553 34.6663V31.6031ZM23.285 33.3332V36.6666H16.7127V33.3332H23.285ZM6.66553 21.8261H9.99886V27.9524H6.66553V21.8261ZM29.9989 20.8886H33.3322V27.2493H29.9989V20.8886ZM6.66553 12.0474H9.99886V18.1737H6.66553V12.0474ZM23.1938 3.33325C23.7243 3.33325 24.2332 3.54412 24.6082 3.91919L26.9487 6.25968L24.592 8.61645L22.6421 6.66658H19.452V3.33325H23.1938ZM6.66553 5.33358C6.66553 4.22901 7.56128 3.33325 8.66585 3.33325H12.4077V6.66658H9.99886V8.39673H6.66553V5.33358ZM33.3322 34.6663C33.3322 35.7708 32.4364 36.6666 31.3319 36.6666H28.0457V33.3332H29.9989V31.4859H33.3322V34.6663ZM33.3322 16.6519H29.9989V14.0234L28.049 12.0735L30.4058 9.71671L32.7463 12.0572C33.1213 12.4323 33.3322 12.9412 33.3322 13.4716V16.6519Z" fill="white"/>
</svg>
