<svg width="40" height="40" viewBox="0 0 40 40" fill="none" xmlns="http://www.w3.org/2000/svg">
<path d="M35.0003 19.9999C35.0003 11.7156 28.2846 4.9999 20.0003 4.9999C11.7161 4.9999 5.00032 11.7156 5.00032 19.9999C5.00032 28.2842 11.7161 34.9999 20.0003 34.9999V38.3332C9.8751 38.3332 1.66699 30.1251 1.66699 19.9999C1.66699 9.87468 9.8751 1.66656 20.0003 1.66656C30.1255 1.66656 38.3337 9.87468 38.3337 19.9999C38.3337 30.1251 30.1255 38.3332 20.0003 38.3332V34.9999C28.2846 34.9999 35.0003 28.2842 35.0003 19.9999Z" fill="white"/>
<path d="M23.3369 25.032C26.1551 25.0321 28.7869 26.4405 30.3503 28.7853L31.8086 30.9728L29.7285 32.3595L28.2702 30.172C27.1704 28.5227 25.3193 27.5321 23.3369 27.532H16.6621C14.6798 27.5322 12.8285 28.5227 11.7288 30.172L10.2705 32.3595L8.19043 30.9728L9.64876 28.7853C11.2121 26.4405 13.844 25.0322 16.6621 25.032H23.3369Z" fill="white"/>
<path d="M24.1668 15.0001C24.1668 12.6989 22.3013 10.8334 20.0002 10.8334C17.699 10.8334 15.8335 12.6989 15.8335 15.0001C15.8335 17.3013 17.699 19.1668 20.0002 19.1668V21.6668C16.3183 21.6668 13.3335 18.682 13.3335 15.0001C13.3335 11.3182 16.3183 8.33344 20.0002 8.33344C23.6821 8.33344 26.6668 11.3182 26.6668 15.0001C26.6668 18.682 23.6821 21.6668 20.0002 21.6668V19.1668C22.3013 19.1668 24.1668 17.3013 24.1668 15.0001Z" fill="white"/>
</svg>
