<svg width="40" height="40" viewBox="0 0 40 40" fill="none" xmlns="http://www.w3.org/2000/svg">
<path d="M19.9998 1.66663C30.1249 1.66663 38.3336 9.87456 38.3337 19.9996C38.3337 30.1249 30.125 38.3336 19.9998 38.3336C9.87469 38.3334 1.66675 30.1247 1.66675 19.9996C1.66692 9.87467 9.87479 1.6668 19.9998 1.66663ZM27.7605 13.7438C27.0666 13.1392 26.0127 13.2112 25.408 13.9049L17.9519 22.4606L13.3328 17.8405C12.682 17.1903 11.627 17.1902 10.9763 17.8405C10.3256 18.4913 10.3255 19.548 10.9763 20.1989L18.1218 27.3424L27.9216 16.0953C28.526 15.4015 28.4539 14.3485 27.7605 13.7438Z" fill="white"/>
</svg>
