<svg width="40" height="40" viewBox="0 0 40 40" fill="none" xmlns="http://www.w3.org/2000/svg">
<g clip-path="url(#clip0_3755_27496)">
<path d="M36.6655 18.3329C37.586 18.3329 38.3325 19.0794 38.3325 19.9999C38.3323 20.9201 37.5859 21.6659 36.6655 21.6659H34.9995V33.3329C34.9995 34.6589 34.4723 35.9304 33.5347 36.868C32.5971 37.8057 31.3255 38.3328 29.9995 38.3329H9.99951C8.67352 38.3329 7.40202 37.8056 6.46436 36.868C5.5267 35.9304 4.99954 34.6589 4.99951 33.3329V21.6659H3.33252C2.41224 21.6658 1.66577 20.9201 1.66553 19.9999C1.66553 19.0794 2.41209 18.3329 3.33252 18.3329H36.6655ZM8.33252 33.3329L8.34033 33.4969C8.37815 33.8786 8.54723 34.238 8.8208 34.5116C9.13334 34.824 9.55758 34.9999 9.99951 34.9999H29.9995C30.4412 34.9998 30.8648 34.8238 31.1772 34.5116C31.4898 34.1991 31.6655 33.7749 31.6655 33.3329V21.6659H8.33252V33.3329ZM30.8325 11.6669C32.2132 11.6669 33.3325 12.7862 33.3325 14.1669C33.3323 15.5474 32.2131 16.6669 30.8325 16.6669C29.4519 16.6669 28.3327 15.5474 28.3325 14.1669C28.3325 12.7862 29.4518 11.6669 30.8325 11.6669ZM23.3325 13.3329C24.253 13.3329 24.9995 14.0794 24.9995 14.9999C24.9993 15.9201 24.2528 16.6659 23.3325 16.6659C22.4122 16.6658 21.6658 15.9201 21.6655 14.9999C21.6655 14.0794 22.4121 13.3329 23.3325 13.3329ZM19.2661 1.81628C19.9027 1.65687 20.5652 1.62242 21.2144 1.71863C21.8655 1.81526 22.4909 2.04078 23.0552 2.37976C23.6192 2.71867 24.1115 3.16492 24.5024 3.69421C24.8926 4.22268 25.1744 4.82426 25.3325 5.46179H25.3345L25.6831 6.86023L32.9282 5.04968C33.8211 4.82669 34.7255 5.36971 34.9487 6.26257C35.1715 7.15532 34.6286 8.05891 33.7358 8.2821L7.06885 14.9491C6.1761 15.1719 5.2725 14.6289 5.04932 13.7362C4.82634 12.8433 5.36935 11.9399 6.26221 11.7167L12.7495 10.0936L12.3999 8.68445L12.4009 8.68347C12.2414 8.04891 12.2057 7.38857 12.3003 6.74109C12.3953 6.09129 12.6181 5.46617 12.9546 4.90222C13.2912 4.33823 13.7363 3.84616 14.2632 3.45398C14.79 3.06189 15.3891 2.77764 16.0259 2.61707L16.0327 2.61414L19.2661 1.81433V1.81628ZM37.4995 8.33289C38.4198 8.33306 39.1655 9.07951 39.1655 9.99988C39.1653 10.92 38.4197 11.6657 37.4995 11.6659C36.5792 11.6659 35.8328 10.9201 35.8325 9.99988C35.8325 9.0794 36.579 8.33289 37.4995 8.33289ZM20.7251 5.01648C20.5081 4.98434 20.2865 4.99515 20.0737 5.04871L20.0669 5.05066L16.8335 5.85144L16.8315 5.84949C16.6227 5.90337 16.4265 5.99903 16.2534 6.12781C16.0779 6.2585 15.93 6.42329 15.8179 6.61121C15.7058 6.79905 15.6308 7.00709 15.5991 7.22351C15.5754 7.38581 15.5748 7.55116 15.5991 7.71277L15.6323 7.8739L15.6333 7.88074L15.9829 9.28601L22.4497 7.66882L22.1001 6.26941L22.0981 6.26648C22.0456 6.05357 21.952 5.85214 21.8218 5.67566C21.6914 5.4991 21.5265 5.34925 21.3384 5.23621C21.1505 5.12343 20.9419 5.04867 20.7251 5.01648Z" fill="white"/>
</g>
<defs>
<clipPath id="clip0_3755_27496">
<rect width="40" height="40" fill="white"/>
</clipPath>
</defs>
</svg>
