<svg width="40" height="40" viewBox="0 0 40 40" fill="none" xmlns="http://www.w3.org/2000/svg">
<path d="M31.666 3.3334C34.4274 3.3334 36.666 5.57198 36.666 8.3334V31.6664C36.666 34.4278 34.4274 36.6664 31.666 36.6664H8.33301C5.57161 36.6664 3.33301 34.4278 3.33301 31.6664V20.019C3.33294 20.0128 3.33203 20.0066 3.33203 20.0004C3.33203 19.9939 3.33293 19.9874 3.33301 19.9809V8.3334C3.33301 5.572 5.57161 3.33344 8.33301 3.3334H31.666ZM21.665 21.6664V33.3334H31.666C32.5865 33.3334 33.333 32.5869 33.333 31.6664V21.6664H21.665ZM6.66602 31.6664C6.66602 32.5869 7.41256 33.3334 8.33301 33.3334H18.332V21.6664H6.66602V31.6664ZM21.665 18.3334H33.333V8.3334C33.333 7.41293 32.5865 6.66641 31.666 6.66641H21.665V18.3334ZM8.33301 6.66641C7.41256 6.66644 6.66602 7.41295 6.66602 8.3334V18.3334H18.332V6.66641H8.33301Z" fill="white"/>
</svg>
