<svg width="40" height="40" viewBox="0 0 40 40" fill="none" xmlns="http://www.w3.org/2000/svg">
<g clip-path="url(#clip0_3755_27560)">
<path d="M25.6463 38.584V31.3053L26.2029 30.9342C26.9268 30.4517 27.5153 29.6249 27.9526 28.68C28.3848 27.7462 28.6142 26.8174 28.6899 26.2874L28.8429 25.2148H29.9269C30.022 25.2148 30.0905 25.2065 30.1385 25.2018C30.1631 25.1434 30.1982 25.054 30.2427 24.917C30.2836 24.7908 30.3265 24.6472 30.3794 24.471C30.431 24.299 30.4902 24.1012 30.5584 23.8851C31.197 21.8628 31.5591 19.7912 31.6147 18.3936C31.6221 18.2092 31.6226 18.0414 31.6196 17.8923C31.3881 17.8825 31.1785 17.8361 31.0158 17.7783C30.6269 17.64 29.7625 17.1425 29.8455 16.0937L29.8992 15.1595C30.0702 10.6101 28.7146 7.85474 26.963 6.20768C25.0535 4.41214 22.4793 3.75 20.285 3.75C15.5881 3.75017 13.0406 5.72853 11.6489 8.21452C10.1998 10.8033 9.92815 14.0945 10.189 16.6862C10.2797 17.5897 9.643 18.1523 9.16682 18.3529C8.90281 18.4641 8.53717 18.5253 8.16259 18.4554C8.17424 18.5539 8.18353 18.6569 8.19839 18.763C8.4556 20.6001 9.11302 23.0455 9.36539 23.9111C9.52924 24.4731 9.66068 24.8476 9.7674 25.096C9.78756 25.1429 9.80973 25.181 9.826 25.2148H10.91L11.0565 26.2972C11.2541 27.7565 11.7113 28.7438 12.1893 29.445C12.6776 30.1614 13.2086 30.6161 13.685 31.0449L14.0985 31.4176V38.584C14.0985 39.2743 13.5387 39.8339 12.8485 39.834C12.1581 39.834 11.5985 39.2743 11.5985 38.584V32.5277C11.1703 32.1329 10.6261 31.5896 10.1238 30.8529C9.54857 30.0089 9.04391 28.9357 8.74364 27.5456C8.52776 27.4528 8.30244 27.3154 8.09585 27.098C7.82466 26.8125 7.62914 26.4546 7.46923 26.0824C7.30463 25.6991 7.14227 25.2145 6.9663 24.611C6.70681 23.721 6.00612 21.1333 5.72281 19.1097C5.65145 18.5999 5.60174 18.0945 5.59748 17.6449C5.59368 17.2388 5.62186 16.7096 5.82046 16.2565C5.92744 16.0125 6.13013 15.6864 6.50569 15.4671C6.87801 15.2499 7.27168 15.2267 7.60595 15.2913C7.55833 12.6851 8.00031 9.61576 9.46792 6.99381C11.3161 3.69232 14.7128 1.25018 20.285 1.25C22.9161 1.25 26.1746 2.03502 28.6753 4.38639C31.0439 6.61364 32.5653 10.0904 32.3976 15.1546C32.5241 15.1588 32.657 15.1762 32.7947 15.2181C33.458 15.4196 33.7489 15.9754 33.8657 16.2679C34.1097 16.8793 34.144 17.7138 34.1131 18.4928C34.0471 20.152 33.6352 22.4446 32.9429 24.637C32.8414 24.9583 32.7019 25.438 32.6206 25.6885C32.5237 25.9868 32.3946 26.3475 32.1844 26.6683C31.9462 27.0316 31.6154 27.3293 31.1639 27.5114C31.1028 27.536 31.0386 27.5524 30.9767 27.5716C30.817 28.2155 30.5721 28.9721 30.2215 29.7298C29.7693 30.7068 29.0999 31.7719 28.1463 32.5863V38.584C28.1463 39.2743 27.5867 39.834 26.8963 39.834C26.2061 39.8338 25.6463 39.2743 25.6463 38.584Z" fill="white"/>
</g>
<defs>
<clipPath id="clip0_3755_27560">
<rect width="40" height="40" fill="white"/>
</clipPath>
</defs>
</svg>
