<svg width="40" height="40" viewBox="0 0 40 40" fill="none" xmlns="http://www.w3.org/2000/svg">
<g clip-path="url(#clip0_3755_27639)">
<path d="M19.1628 1.89136C19.6769 1.59338 20.3122 1.59141 20.8279 1.88647L35.3806 10.2214C35.8991 10.5184 36.2185 11.0713 36.2185 11.6687V28.3318C36.2183 28.9289 35.8987 29.4802 35.3806 29.7771L20.8884 38.074C20.631 38.2369 20.327 38.3327 19.9998 38.3328C19.6702 38.3328 19.3638 38.2361 19.1052 38.071L4.61694 29.7771C4.09902 29.4802 3.77927 28.9288 3.77905 28.3318L3.78101 11.6687C3.78111 11.0712 4.10037 10.5183 4.6189 10.2214L19.1335 1.91089C19.1435 1.90481 19.1527 1.89725 19.1628 1.89136ZM7.11206 27.364L18.3328 33.7878V20.9636L7.11206 14.5144V27.364ZM21.6667 20.9656V33.7859L32.8855 27.364V14.5173L21.6667 20.9656ZM8.82397 11.6541L19.9998 18.0769L31.1736 11.655L20.0017 5.25562L8.82397 11.6541Z" fill="white"/>
<circle cx="19.9998" cy="36.6665" r="3.33333" fill="#FF4228"/>
</g>
<defs>
<clipPath id="clip0_3755_27639">
<rect width="40" height="40" fill="white"/>
</clipPath>
</defs>
</svg>
