<svg width="40" height="40" viewBox="0 0 40 40" fill="none" xmlns="http://www.w3.org/2000/svg">
<rect x="2" y="2" width="26" height="26" rx="4.72727" fill="#FF8E2B"/>
<path d="M12.0435 23.8641H9.08838V6.1366H12.0435V23.8641ZM14.9995 6.1366C18.2628 6.1368 20.9087 8.7824 20.9087 12.0458C20.9086 15.309 18.2628 17.9548 14.9995 17.955H12.0444V14.9999H14.9995C16.631 14.9997 17.9535 13.6773 17.9536 12.0458C17.9536 10.4141 16.6311 9.0909 14.9995 9.0907H12.0444V6.1366H14.9995Z" fill="white"/>
<path d="M14.501 33.0005C14.5012 34.0052 15.3292 34.8335 16.334 34.8335H33.001C34.0056 34.8333 34.8338 34.0051 34.834 33.0005V16.3335C34.834 15.3287 34.0057 14.5007 33.001 14.5005C32.1727 14.5005 31.5012 13.8288 31.501 13.0005C31.501 12.1721 32.1725 11.5005 33.001 11.5005C35.6626 11.5007 37.834 13.6718 37.834 16.3335V33.0005C37.8338 35.662 35.6625 37.8333 33.001 37.8335H16.334C13.6723 37.8335 11.5012 35.6621 11.501 33.0005C11.501 32.1721 12.1725 31.5005 13.001 31.5005C13.8293 31.5007 14.501 32.1722 14.501 33.0005Z" fill="#FF8E2B"/>
</svg>
