<svg width="40" height="40" viewBox="0 0 40 40" fill="none" xmlns="http://www.w3.org/2000/svg">
<g clip-path="url(#clip0_4281_84198)">
<path fill-rule="evenodd" clip-rule="evenodd" d="M19.9832 3.31055C20.8675 3.31055 21.7366 3.54508 22.5007 3.99023C23.263 4.43448 23.8949 5.07289 24.3308 5.83984L37.6609 29.166L37.8152 29.4561C38.1531 30.1417 38.3295 30.8977 38.3298 31.665C38.33 32.5421 38.1 33.4053 37.6619 34.165C37.2237 34.9248 36.592 35.555 35.8328 35.9941C35.0735 36.4332 34.2118 36.6651 33.3347 36.666H6.66578V36.665C5.78983 36.6701 4.92749 36.4466 4.16578 36.0137C3.39953 35.5781 2.76128 34.9469 2.31715 34.1855C1.87329 33.4243 1.63845 32.5589 1.63649 31.6777C1.63457 30.7985 1.86587 29.9348 2.30446 29.1729L15.6355 5.83984C16.0715 5.0727 16.7041 4.43454 17.4666 3.99023C18.2306 3.54513 19.099 3.31061 19.9832 3.31055ZM19.9832 6.64355C19.6887 6.64362 19.3998 6.72199 19.1453 6.87012C18.8905 7.01855 18.6783 7.23179 18.533 7.48828L18.531 7.49316L5.19801 30.8262L5.19313 30.833C5.04627 31.0874 4.96986 31.3772 4.97047 31.6709C4.97124 31.9641 5.0485 32.2525 5.19606 32.5059C5.34409 32.7596 5.55785 32.971 5.81324 33.1162C6.06841 33.2612 6.35768 33.3355 6.65113 33.333H33.3308C33.6231 33.3327 33.9117 33.2567 34.1648 33.1104C34.4176 32.9641 34.6272 32.7529 34.7732 32.5C34.9193 32.2467 34.9959 31.9584 34.9959 31.666C34.9957 31.3737 34.9194 31.0862 34.7732 30.833L34.7703 30.8262L21.4363 7.49316L21.4334 7.48828C21.2881 7.23197 21.0775 7.01851 20.823 6.87012C20.5683 6.72169 20.278 6.64355 19.9832 6.64355ZM20.0164 26.667C20.9367 26.667 21.6832 27.4127 21.6834 28.333C21.6834 29.2535 20.9368 30 20.0164 30H19.9998C19.0794 29.9998 18.3338 29.2534 18.3338 28.333C18.3339 27.4128 19.0795 26.6672 19.9998 26.667H20.0164ZM19.9998 13.333C20.9202 13.333 21.6668 14.0795 21.6668 15V21.667C21.6666 22.5873 20.9201 23.333 19.9998 23.333C19.0795 23.3328 18.3339 22.5872 18.3338 21.667V15C18.3338 14.0796 19.0794 13.3332 19.9998 13.333Z" fill="#FF8E2B"/>
<path d="M28.6484 36.4253L23.7739 21.8021C23.7012 21.5838 23.9088 21.3762 24.1271 21.4489L38.7503 26.3234C38.9863 26.402 39.0093 26.7267 38.7869 26.8379L34.1256 29.1686L39.3897 34.4327L36.7577 37.0647L31.4935 31.8006L29.1629 36.4619C29.0517 36.6844 28.727 36.6613 28.6484 36.4253Z" fill="#FF8E2B" stroke="white" stroke-width="1.14255"/>
</g>
<defs>
<clipPath id="clip0_4281_84198">
<rect width="40" height="40" fill="white"/>
</clipPath>
</defs>
</svg>
