<svg width="40" height="40" viewBox="0 0 40 40" fill="none" xmlns="http://www.w3.org/2000/svg">
<path d="M35.0006 20C35.0006 11.7157 28.2848 5.00002 20.0006 5.00002C11.7163 5.00002 5.00057 11.7157 5.00057 20C5.00057 28.2843 11.7163 35 20.0006 35C28.2848 35 35.0006 28.2843 35.0006 20ZM38.3339 20C38.3339 30.1252 30.1258 38.3333 20.0006 38.3333C9.87535 38.3333 1.66724 30.1252 1.66724 20C1.66724 9.8748 9.87535 1.66669 20.0006 1.66669C30.1258 1.66669 38.3339 9.8748 38.3339 20Z" fill="white"/>
<path d="M20 18C21.3807 18 22.5 19.1193 22.5 20.5V27.5C22.5 28.8807 21.3807 30 20 30C18.6193 30 17.5 28.8807 17.5 27.5V20.5C17.5 19.1193 18.6193 18 20 18ZM20 11C21.3806 11.0001 22.4999 12.1194 22.5 13.5C22.4999 14.8806 21.3806 15.9999 20 16H19.9756C18.5949 15.9999 17.4757 14.8807 17.4756 13.5C17.4757 12.1193 18.5949 11.0001 19.9756 11H20Z" fill="white"/>
</svg>
