<svg width="40" height="40" viewBox="0 0 40 40" fill="none" xmlns="http://www.w3.org/2000/svg">
<path d="M24.4957 11.9072C24.4956 9.44278 22.4973 7.44436 20.0328 7.44436C17.5684 7.44447 15.57 9.44285 15.5699 11.9072C15.5699 14.3717 17.5683 16.37 20.0328 16.3701C22.4974 16.3701 24.4957 14.3718 24.4957 11.9072ZM26.7564 11.9072C26.7564 15.6202 23.7457 18.6309 20.0328 18.6309C16.32 18.6308 13.3108 15.6201 13.3108 11.9072C13.3109 8.19449 16.32 5.18535 20.0328 5.18524C23.7456 5.18524 26.7563 8.19443 26.7564 11.9072Z" fill="white"/>
<path d="M11.2558 12.9274C11.2558 15.0045 9.57204 16.6883 7.49498 16.6883C5.41792 16.6883 3.73413 15.0045 3.73413 12.9274C3.73413 10.8504 5.41792 9.16656 7.49498 9.16656C9.57204 9.16656 11.2558 10.8504 11.2558 12.9274Z" fill="white"/>
<path d="M36.2558 12.9058C36.2558 14.9828 34.572 16.6666 32.495 16.6666C30.4179 16.6666 28.7341 14.9828 28.7341 12.9058C28.7341 10.8287 30.4179 9.1449 32.495 9.1449C34.572 9.1449 36.2558 10.8287 36.2558 12.9058Z" fill="white"/>
<path d="M27.0805 28.3332C27.0805 25.3417 24.6554 22.9166 21.6638 22.9166H18.3305C15.3389 22.9166 12.9138 25.3417 12.9138 28.3332V31.6649C12.914 31.8949 13.1005 32.0816 13.3305 32.0816L14.0434 32.08L26.6638 32.0816C26.8937 32.0813 27.0805 31.8949 27.0805 31.6649V28.3332ZM29.5805 31.6649C29.5805 33.2744 28.2765 34.5797 26.6671 34.5816L25.9526 34.5832L14.045 34.58L13.3337 34.5816C11.7218 34.5834 10.414 33.2769 10.4138 31.6649V28.3332C10.4138 23.961 13.9582 20.4166 18.3305 20.4166H21.6638C26.0361 20.4166 29.5805 23.961 29.5805 28.3332V31.6649Z" fill="white"/>
<path d="M3.33048 25.0001H6.66382C7.58429 25.0001 8.3004 24.2343 8.58995 23.3606C9.07334 21.9019 10.1674 20.8436 11.3172 20.1858C11.5264 20.066 11.6638 19.8478 11.6638 19.6067C11.6638 18.9035 11.0938 18.3334 10.3906 18.3334H4.99715C3.1562 18.3334 1.66382 19.8258 1.66382 21.6668V23.3334C1.66382 24.2539 2.41001 25.0001 3.33048 25.0001Z" fill="white"/>
<path d="M36.6637 25.0001H33.3303C32.4098 25.0001 31.6937 24.2343 31.4042 23.3606C30.9208 21.9019 29.8267 20.8436 28.677 20.1858C28.4677 20.066 28.3303 19.8478 28.3303 19.6067C28.3303 18.9035 28.9004 18.3334 29.6035 18.3334H34.997C36.8379 18.3334 38.3303 19.8258 38.3303 21.6668V23.3334C38.3303 24.2539 37.5841 25.0001 36.6637 25.0001Z" fill="white"/>
</svg>
