<svg width="40" height="40" viewBox="0 0 40 40" fill="none" xmlns="http://www.w3.org/2000/svg">
<path d="M28.748 1.87329C29.7836 1.87329 30.623 2.71279 30.623 3.74829V5.00024H31.6709C34.4323 5.00024 36.6709 7.23882 36.6709 10.0002V33.3333C36.6707 36.0945 34.4322 38.3333 31.6709 38.3333H8.33789L8.08105 38.3274C5.4391 38.1937 3.33804 36.0084 3.33789 33.3333V10.0002C3.33789 7.32499 5.43903 5.14081 8.08105 5.00708L8.33789 5.00024H9.37305V3.74829C9.37308 2.71281 10.2126 1.87332 11.248 1.87329C12.2836 1.87329 13.123 2.71279 13.123 3.74829V5.00024H26.873V3.74829C26.8731 2.71281 27.7126 1.87332 28.748 1.87329ZM7.08789 16.8752V33.3333C7.08805 34.0235 7.64766 34.5832 8.33789 34.5833H31.6709C32.3612 34.5833 32.9207 34.0235 32.9209 33.3333V16.8752H7.08789ZM8.33789 8.75024C7.64756 8.75028 7.08789 9.30991 7.08789 10.0002V13.1252H32.9209V10.0002C32.9209 9.30989 32.3613 8.75024 31.6709 8.75024H30.623C30.622 9.78491 29.7829 10.6233 28.748 10.6233C27.7132 10.6233 26.8741 9.78489 26.873 8.75024H13.123C13.122 9.78491 12.2829 10.6233 11.248 10.6233C10.2132 10.6233 9.37407 9.78489 9.37305 8.75024H8.33789Z" fill="white"/>
</svg>
