<svg width="40" height="40" viewBox="0 0 40 40" fill="none" xmlns="http://www.w3.org/2000/svg">
<path d="M33.3318 3.33313C36.093 3.33338 38.3318 5.57186 38.3318 8.33313C38.3317 11.0943 36.093 13.3329 33.3318 13.3331C31.1547 13.3331 29.3033 11.9412 28.6169 9.99915H10.8318C9.72683 9.99915 8.66688 10.4386 7.8855 11.2198C7.1041 12.0013 6.66479 13.0611 6.66479 14.1661C6.6648 15.2712 7.1041 16.331 7.8855 17.1124C8.66688 17.8937 9.72683 18.3331 10.8318 18.3331H29.1648C31.1539 18.3332 33.061 19.1239 34.4675 20.5304C35.8739 21.9369 36.6648 23.8441 36.6648 25.8331C36.6647 27.8221 35.874 29.7294 34.4675 31.1359C33.061 32.5423 31.1538 33.3331 29.1648 33.3331H11.3787C10.6921 35.2747 8.84147 36.6661 6.66479 36.6661C3.90337 36.6661 1.6648 34.4276 1.66479 31.6661C1.66479 28.9047 3.90337 26.6661 6.66479 26.6661C8.84147 26.6662 10.6921 28.0576 11.3787 29.9991H29.1648C30.2698 29.9991 31.3297 29.5598 32.1111 28.7784C32.8922 27.9972 33.3317 26.9379 33.3318 25.8331C33.3318 24.7282 32.8923 23.6682 32.1111 22.8868C31.3297 22.1055 30.2698 21.6662 29.1648 21.6661H10.8318C8.84277 21.6661 6.93555 20.8752 5.52905 19.4689C4.12253 18.0624 3.33179 16.1553 3.33179 14.1661C3.33179 12.177 4.12253 10.2699 5.52905 8.8634C6.93555 7.45702 8.84277 6.66614 10.8318 6.66614H28.6169C29.3035 4.72443 31.155 3.33313 33.3318 3.33313Z" fill="white"/>
</svg>
