<svg width="40" height="40" viewBox="0 0 40 40" fill="none" xmlns="http://www.w3.org/2000/svg">
<path d="M21.6676 23.333H13.3343C11.4934 23.333 10.001 24.8254 10.001 26.6663V29.9997C10.001 31.8406 11.4934 33.333 13.3343 33.333H21.6676C23.5086 33.333 25.001 31.8406 25.001 29.9997V26.6663C25.001 24.8254 23.5086 23.333 21.6676 23.333Z" fill="white"/>
<path d="M33.3343 6.66675H13.3343C11.4934 6.66675 10.001 8.15913 10.001 10.0001V13.3334C10.001 15.1744 11.4934 16.6667 13.3343 16.6667H33.3343C35.1753 16.6667 36.6676 15.1744 36.6676 13.3334V10.0001C36.6676 8.15913 35.1753 6.66675 33.3343 6.66675Z" fill="white"/>
<path d="M1.66772 36.6667V3.33341C1.66772 2.41294 2.41392 1.66675 3.33439 1.66675C4.25487 1.66675 5.00106 2.41294 5.00106 3.33341V36.6667C5.00106 37.5872 4.25487 38.3334 3.33439 38.3334C2.41392 38.3334 1.66772 37.5872 1.66772 36.6667Z" fill="white"/>
</svg>
