<svg width="40" height="40" viewBox="0 0 40 40" fill="none" xmlns="http://www.w3.org/2000/svg">
<g clip-path="url(#clip0_3755_27930)">
<path d="M14.999 40.0002H-0.000976562V34.1669V30.3454C-0.000976562 29.5908 0.298782 28.8671 0.832357 28.3336C0.832357 30.0002 3.33236 33.3333 7.49902 33.3333C11.6657 33.3333 14.1657 30.2809 14.1657 28.3336C14.6993 28.8671 14.999 29.5908 14.999 30.3454V40.0002Z" fill="white"/>
<circle cx="7.49886" cy="25.8333" r="5.83333" fill="white"/>
<path d="M11.6656 28.3332H3.33228L9.00916 7.04494C9.59283 4.85617 11.5751 3.33325 13.8403 3.33325H31.6656C33.5066 3.33325 34.9989 4.82564 34.9989 6.66659V7.49992H38.3323V10.8333H34.9989V11.6666C34.9989 13.5075 33.5066 14.9999 31.6656 14.9999H14.9989L11.6656 28.3332Z" fill="white"/>
</g>
<defs>
<clipPath id="clip0_3755_27930">
<rect width="40" height="40" fill="white"/>
</clipPath>
</defs>
</svg>
