<svg width="40" height="40" viewBox="0 0 40 40" fill="none" xmlns="http://www.w3.org/2000/svg">
<path d="M19.998 1.66656C22.6502 1.66656 25.193 2.72091 27.0684 4.59625C28.9437 6.47161 29.998 9.01441 29.998 11.6666V18.3336H31.665C33.5059 18.3337 34.998 19.8257 34.998 21.6666V33.3336C34.9979 35.1743 33.5058 36.6664 31.665 36.6666H8.33105C6.4904 36.6664 4.99823 35.1742 4.99805 33.3336V21.6666C4.99805 19.8257 6.49028 18.3338 8.33105 18.3336H26.665V11.6666C26.665 9.89846 25.9622 8.20294 24.7119 6.9527C23.4617 5.70248 21.7661 4.99957 19.998 4.99957C18.23 4.99959 16.5344 5.70247 15.2842 6.9527C14.034 8.20293 13.3311 9.89847 13.3311 11.6666C13.3311 12.587 12.5854 13.3334 11.665 13.3336C10.7446 13.3336 9.99805 12.587 9.99805 11.6666C9.99805 9.01442 11.0524 6.47161 12.9277 4.59625C14.8031 2.7209 17.3459 1.66658 19.998 1.66656Z" fill="white"/>
</svg>
