<svg width="40" height="40" viewBox="0 0 40 40" fill="none" xmlns="http://www.w3.org/2000/svg">
<path d="M3.33398 31.6665V24.9999C3.33398 24.0794 4.08018 23.3332 5.00065 23.3332C5.92113 23.3332 6.66732 24.0794 6.66732 24.9999V31.6665C6.66732 32.1086 6.84304 32.5323 7.1556 32.8449C7.46816 33.1575 7.89196 33.3332 8.33398 33.3332H31.6673C32.1093 33.3332 32.5331 33.1575 32.8457 32.8449C33.1583 32.5323 33.334 32.1085 33.334 31.6665V24.9999C33.334 24.0794 34.0802 23.3332 35.0006 23.3332C35.9211 23.3332 36.6673 24.0794 36.6673 24.9999V31.6665C36.6673 32.9926 36.1401 34.264 35.2025 35.2017C34.2648 36.1394 32.9934 36.6665 31.6673 36.6665H8.33398C7.0079 36.6665 5.73651 36.1394 4.79883 35.2017C3.86115 34.264 3.33398 32.9926 3.33398 31.6665Z" fill="white"/>
<path d="M20.0017 3.33319C20.9221 3.33326 21.6687 4.07975 21.6687 5.00018V20.9758L27.156 15.4885C27.8069 14.8376 28.8626 14.8376 29.5134 15.4885C30.164 16.1394 30.1642 17.1941 29.5134 17.8449L21.1892 26.1672C21.109 26.2487 21.021 26.3222 20.9255 26.3859C20.9011 26.4022 20.8754 26.416 20.8503 26.4308C20.8295 26.4432 20.8092 26.4565 20.7878 26.468C20.7622 26.4817 20.7359 26.4937 20.7097 26.506C20.6857 26.5173 20.662 26.5291 20.6375 26.5392C20.6178 26.5474 20.5978 26.5544 20.5779 26.5617C20.5463 26.5734 20.5147 26.5851 20.4822 26.5949C20.4663 26.5997 20.4503 26.6033 20.4343 26.6076C20.3973 26.6176 20.3601 26.6275 20.322 26.6349C20.3146 26.6364 20.307 26.6365 20.2996 26.6379C20.2028 26.6554 20.1035 26.6662 20.0017 26.6662C19.8993 26.6662 19.7992 26.6556 19.7019 26.6379C19.6948 26.6366 19.6875 26.6363 19.6804 26.6349C19.6381 26.6267 19.5966 26.6161 19.5554 26.6047C19.5447 26.6017 19.5339 26.5991 19.5232 26.5959C19.4867 26.585 19.4511 26.5721 19.4158 26.5588C19.3988 26.5524 19.3818 26.5462 19.365 26.5392C19.3415 26.5295 19.3186 26.5187 19.2957 26.508C19.2682 26.4951 19.2405 26.4824 19.2136 26.468C19.1906 26.4556 19.1686 26.4414 19.1462 26.4279C19.1235 26.4143 19.1001 26.4017 19.0779 26.3869C18.9861 26.3257 18.9007 26.2557 18.823 26.1779L10.49 17.8449C9.83916 17.1941 9.83925 16.1393 10.49 15.4885C11.1409 14.8376 12.1956 14.8376 12.8464 15.4885L18.3347 20.9758V5.00018C18.3347 4.07971 19.0812 3.33319 20.0017 3.33319Z" fill="white"/>
</svg>
