<svg width="40" height="40" viewBox="0 0 40 40" fill="none" xmlns="http://www.w3.org/2000/svg">
<path d="M35.0028 20C35.0028 11.7157 28.287 4.99996 20.0028 4.99996C11.7185 4.99996 5.00277 11.7157 5.00277 20C5.00277 28.2842 11.7185 35 20.0028 35C28.287 35 35.0028 28.2842 35.0028 20ZM38.3361 20C38.3361 30.1252 30.128 38.3333 20.0028 38.3333C9.87755 38.3333 1.66943 30.1252 1.66943 20C1.66943 9.87474 9.87755 1.66663 20.0028 1.66663C30.128 1.66663 38.3361 9.87474 38.3361 20Z" fill="white"/>
<path d="M20.019 26.6665C20.9392 26.6667 21.6849 27.4123 21.6851 28.3325C21.6851 29.2529 20.9393 29.9993 20.019 29.9995H20.0024C19.082 29.9995 18.3354 29.253 18.3354 28.3325C18.3356 27.4122 19.0821 26.6665 20.0024 26.6665H20.019ZM16.4917 10.9116C17.8488 10.1142 19.4442 9.82245 20.9956 10.0884C22.5471 10.3545 23.9544 11.1616 24.9683 12.3657C25.9818 13.5697 26.5376 15.0937 26.5356 16.6675L26.5151 17.1343C26.3026 19.4253 24.5598 20.96 23.2935 21.8042C22.5679 22.2879 21.8535 22.6427 21.3276 22.8765C21.0623 22.9944 20.8373 23.0837 20.6763 23.145C20.596 23.1756 20.5304 23.1994 20.4829 23.2163C20.4594 23.2246 20.4408 23.2328 20.4263 23.2378C20.4192 23.2402 20.4126 23.243 20.4077 23.2446C20.4058 23.2452 20.4034 23.2451 20.4019 23.2456L20.3979 23.2476H20.397C19.5238 23.5386 18.5787 23.0661 18.2876 22.1929C17.9975 21.321 18.4677 20.3778 19.3384 20.0854V20.0864L19.3423 20.0854C19.3467 20.0839 19.3551 20.0808 19.3667 20.0767C19.3922 20.0676 19.4345 20.0528 19.4897 20.0317C19.602 19.989 19.7701 19.9218 19.9731 19.8315C20.3844 19.6488 20.921 19.3799 21.4448 19.0308C22.5937 18.2649 23.2021 17.4491 23.2026 16.6675V16.6636C23.2037 15.8766 22.9262 15.1143 22.4194 14.5122C21.9125 13.9101 21.2079 13.5056 20.4321 13.3726C19.6566 13.2397 18.8586 13.386 18.1802 13.7847C17.5017 14.1834 16.9864 14.8099 16.7251 15.5522C16.4196 16.4206 15.4674 16.8782 14.5991 16.5728C13.731 16.2673 13.2754 15.315 13.5806 14.4468C14.103 12.9618 15.1346 11.7093 16.4917 10.9116Z" fill="white"/>
</svg>
