<svg width="40" height="40" viewBox="0 0 40 40" fill="none" xmlns="http://www.w3.org/2000/svg">
<path d="M20.0011 36.6662C29.2059 36.6662 36.6678 29.2043 36.6678 19.9995C36.6678 10.7948 29.2059 3.33289 20.0011 3.33289C10.7964 3.33289 3.33447 10.7948 3.33447 19.9995C3.33447 29.2043 10.7964 36.6662 20.0011 36.6662Z" stroke="#FF4B27" stroke-width="3.33333" stroke-linecap="round" stroke-linejoin="round" stroke-dasharray="1.67 8.33"/>
<path d="M20.0149 25.8329C21.3956 25.8329 22.5149 26.9522 22.5149 28.3329C22.5148 29.7135 21.3956 30.8329 20.0149 30.8329H19.9993C18.6186 30.8329 17.4993 29.7135 17.4993 28.3329C17.4993 26.9522 18.6186 25.8329 19.9993 25.8329H20.0149ZM19.9983 8.33289C21.8391 8.33289 23.3321 9.8251 23.3323 11.6659V18.3329C23.3323 20.1738 21.8392 21.6659 19.9983 21.6659C18.1576 21.6656 16.6653 20.1737 16.6653 18.3329V11.6659C16.6655 9.82525 18.1577 8.33313 19.9983 8.33289Z" fill="#FF4B27"/>
</svg>
