<svg width="40" height="40" viewBox="0 0 40 40" fill="none" xmlns="http://www.w3.org/2000/svg">
<path d="M34.9974 20C34.9974 11.7157 28.2817 5.00002 19.9974 5.00002C11.7131 5.00002 4.9974 11.7157 4.9974 20C4.9974 28.2843 11.7131 35 19.9974 35C28.2817 35 34.9974 28.2843 34.9974 20ZM38.3307 20C38.3307 30.1252 30.1226 38.3333 19.9974 38.3333C9.87217 38.3333 1.66406 30.1252 1.66406 20C1.66406 9.8748 9.87217 1.66669 19.9974 1.66669C30.1226 1.66669 38.3307 9.8748 38.3307 20Z" fill="white"/>
<path d="M19.9961 11.6667C20.9166 11.6667 21.6631 12.4132 21.6631 13.3337V18.3337H26.6631C27.5835 18.3337 28.3299 19.0793 28.3301 19.9997C28.3301 20.9202 27.5836 21.6667 26.6631 21.6667H21.6631V26.6667C21.663 27.5871 20.9165 28.3337 19.9961 28.3337C19.0759 28.3334 18.3302 27.587 18.3301 26.6667V21.6667H13.3301C12.4096 21.6667 11.6631 20.9202 11.6631 19.9997C11.6632 19.0793 12.4097 18.3337 13.3301 18.3337H18.3301V13.3337C18.3301 12.4134 19.0758 11.6669 19.9961 11.6667Z" fill="white"/>
</svg>
