<svg width="40" height="40" viewBox="0 0 40 40" fill="none" xmlns="http://www.w3.org/2000/svg">
<path d="M33.8206 3.82178C34.4714 3.17103 35.5262 3.17095 36.177 3.82178C36.8277 4.47262 36.8277 5.52739 36.177 6.17822L27.3547 15.0005H33.3323C34.2526 15.0006 34.9991 15.7462 34.9993 16.6665C34.9993 17.5869 34.2527 18.3334 33.3323 18.3335H23.3323C23.2772 18.3335 23.2221 18.3301 23.1672 18.3247C23.1287 18.3209 23.0907 18.3145 23.053 18.3081C23.039 18.3057 23.0249 18.304 23.011 18.3013C22.9686 18.293 22.9271 18.2824 22.886 18.271C22.875 18.2679 22.8638 18.2655 22.8528 18.2622C22.8227 18.2532 22.7933 18.2426 22.7639 18.2319C22.7398 18.2232 22.7154 18.2154 22.6917 18.2056C22.659 18.192 22.6275 18.1762 22.5959 18.1606C22.5816 18.1536 22.5672 18.1467 22.553 18.1392C22.5182 18.1207 22.4847 18.1004 22.4514 18.0796C22.437 18.0706 22.4226 18.0617 22.4084 18.0522C22.3867 18.0377 22.366 18.0219 22.345 18.0063C22.3235 17.9905 22.3004 17.9765 22.2795 17.9595L22.1536 17.8452C22.0778 17.7695 22.0096 17.6863 21.9495 17.5972C21.9283 17.5658 21.9097 17.533 21.8909 17.5005C21.8817 17.4847 21.8712 17.4697 21.8625 17.4536C21.8503 17.4308 21.8394 17.4075 21.8284 17.3843C21.815 17.3563 21.8021 17.3281 21.7903 17.2993C21.7813 17.2774 21.7739 17.2551 21.7659 17.2329C21.7565 17.2069 21.7457 17.1814 21.7375 17.1548C21.7104 17.0659 21.6929 16.9748 21.6809 16.8833C21.6717 16.8123 21.6653 16.74 21.6653 16.6665V6.6665C21.6654 5.74613 22.4119 5.00049 23.3323 5.00049C24.2526 5.00057 24.9991 5.74618 24.9993 6.6665V12.6421L33.8206 3.82178Z" fill="white"/>
<path d="M16.6665 21.6663C16.7212 21.6663 16.776 21.6687 16.8306 21.6741C16.8692 21.6778 16.907 21.6853 16.9448 21.6917C16.9588 21.694 16.9729 21.6948 16.9868 21.6975C17.0292 21.7057 17.0707 21.7164 17.1118 21.7278C17.1228 21.7308 17.134 21.7333 17.145 21.7366C17.1825 21.7478 17.2191 21.7609 17.2554 21.7747C17.2699 21.7801 17.2849 21.7844 17.2993 21.7903C17.3411 21.8074 17.3814 21.8275 17.4214 21.8479C17.429 21.8518 17.4372 21.8546 17.4448 21.8586C17.4799 21.8772 17.5128 21.8992 17.5464 21.9202C17.5585 21.9277 17.5715 21.9338 17.5835 21.9417L17.5981 21.9514C17.7332 22.0426 17.8546 22.1527 17.9575 22.2786C18.0483 22.3894 18.1203 22.5104 18.1782 22.636C18.1874 22.6559 18.1981 22.6752 18.2065 22.6956C18.2158 22.718 18.2227 22.7412 18.231 22.7639C18.2415 22.793 18.2522 22.822 18.2612 22.8518C18.2882 22.9415 18.3073 23.0329 18.3188 23.1252C18.3274 23.1935 18.3335 23.2627 18.3335 23.3333V33.3333C18.3335 34.2537 17.587 35.0002 16.6665 35.0002C15.7461 35.0001 15.0005 34.2536 15.0005 33.3333V27.3557L6.17822 36.178C5.52735 36.8289 4.47265 36.8289 3.82178 36.178C3.17097 35.5271 3.17093 34.4724 3.82178 33.8215L12.6431 25.0002H6.6665C5.74614 25.0001 5.00049 24.2536 5.00049 23.3333C5.00051 22.4129 5.74616 21.6664 6.6665 21.6663H16.6665Z" fill="white"/>
</svg>
