<svg width="40" height="40" viewBox="0 0 40 40" fill="none" xmlns="http://www.w3.org/2000/svg">
<path d="M19.9983 1.66656C30.1234 1.66656 38.3321 9.8745 38.3323 19.9996C38.3323 30.1248 30.1235 38.3336 19.9983 38.3336C9.87322 38.3334 1.66528 30.1247 1.66528 19.9996C1.66546 9.87461 9.87333 1.66674 19.9983 1.66656ZM19.9983 4.99957C11.7143 4.99975 4.99847 11.7156 4.99829 19.9996C4.99829 28.2837 11.7142 34.9994 19.9983 34.9996C28.2826 34.9996 34.9983 28.2838 34.9983 19.9996C34.9981 11.7155 28.2825 4.99957 19.9983 4.99957ZM19.9993 8.33356C20.9195 8.3338 21.6652 9.07935 21.6653 9.99957V18.9693L27.4114 21.8423C28.2344 22.2541 28.5681 23.2555 28.1565 24.0787C27.7448 24.9019 26.7435 25.2354 25.9202 24.8238L19.2532 21.4908C18.6886 21.2084 18.3323 20.6308 18.3323 19.9996V9.99957C18.3324 9.0792 19.0789 8.33356 19.9993 8.33356Z" fill="white"/>
</svg>
