<svg width="40" height="40" viewBox="0 0 40 40" fill="none" xmlns="http://www.w3.org/2000/svg">
<path d="M19.998 3.33301C23.2944 3.33301 26.517 4.31122 29.2578 6.14258C31.9984 7.97389 34.136 10.5759 35.3975 13.6211C36.6589 16.6665 36.9878 20.019 36.3447 23.252C35.7016 26.4846 34.1148 29.4545 31.7842 31.7852C29.4534 34.1159 26.4828 35.7025 23.25 36.3457C20.0172 36.9887 16.6654 36.6598 13.6201 35.3984C10.5748 34.137 7.97194 31.9995 6.14062 29.2588C4.68219 27.076 3.7651 24.5878 3.45215 22C3.43861 21.888 3.42631 21.7754 3.41504 21.6631C3.32343 20.7475 4.07785 20.0001 4.99805 20C5.91852 20 6.65469 20.7488 6.76953 21.6621C6.78373 21.775 6.79935 21.8876 6.81641 22C7.10892 23.9262 7.8216 25.7737 8.91309 27.4072C10.378 29.5995 12.4596 31.3083 14.8955 32.3174C17.3317 33.3265 20.0133 33.5915 22.5996 33.0771C25.1857 32.5627 27.5622 31.2931 29.4268 29.4287C31.2915 27.564 32.5617 25.187 33.0762 22.6006C33.5905 20.0144 33.3254 17.3336 32.3164 14.8975C31.3072 12.4613 29.5978 10.3791 27.4053 8.91406C25.2137 7.44973 22.6377 6.66673 20.002 6.66602C16.2398 6.68095 12.6288 8.14979 9.92383 10.7646L9.02246 11.666H13.332C14.2523 11.6662 14.998 12.4127 14.998 13.333C14.998 14.2534 14.2523 14.9998 13.332 15H4.99805C4.94328 15 4.88854 14.9966 4.83398 14.9912C4.79606 14.9875 4.75882 14.9808 4.72168 14.9746C4.70674 14.9721 4.69163 14.9707 4.67676 14.9678C4.63872 14.9603 4.60152 14.9504 4.56445 14.9404C4.54852 14.9361 4.53243 14.9325 4.5166 14.9277C4.48681 14.9187 4.45777 14.908 4.42871 14.8975C4.40628 14.8893 4.38346 14.8822 4.36133 14.873C4.3227 14.8571 4.28515 14.8391 4.24805 14.8203C4.23999 14.8162 4.23163 14.8128 4.22363 14.8086L4.2041 14.7988C4.17529 14.7832 4.14787 14.7653 4.12012 14.748C4.10473 14.7385 4.08936 14.7289 4.07422 14.7188C4.05111 14.7033 4.02911 14.6865 4.00684 14.6699C3.94209 14.6218 3.87809 14.5705 3.81934 14.5117C3.74177 14.4341 3.67245 14.3484 3.61133 14.2568C3.55674 14.1751 3.51124 14.0891 3.47266 14.001C3.46792 13.9902 3.46252 13.9797 3.45801 13.9688C3.45108 13.952 3.44483 13.9349 3.43848 13.918C3.37015 13.7358 3.33203 13.539 3.33203 13.333V5C3.33203 4.07961 4.0777 3.33315 4.99805 3.33301C5.91852 3.33301 6.66504 4.07953 6.66504 5V9.30957L7.58594 8.38867L8.24219 7.7832C11.4857 4.93672 15.6574 3.34937 19.9922 3.33301H19.998Z" fill="white"/>
</svg>
