<svg width="40" height="40" viewBox="0 0 40 40" fill="none" xmlns="http://www.w3.org/2000/svg">
<g clip-path="url(#clip0_3755_27821)">
<path d="M9.34083 5.08309C12.8564 2.57163 17.1466 1.38242 21.4535 1.72534C25.7605 2.06844 29.8087 3.92159 32.8825 6.95809C35.956 9.99439 37.8594 14.0182 38.2552 18.3204C38.6509 22.6228 37.5139 26.9276 35.0456 30.4737C32.5771 34.0199 28.9346 36.5806 24.7624 37.7035C20.6225 38.8176 16.2248 38.4441 12.3324 36.6521C12.0608 36.5534 11.769 36.5273 11.4844 36.5756L5.89356 38.2113C5.88055 38.2151 5.8676 38.2192 5.8545 38.2227C5.30581 38.3683 4.72828 38.3706 4.17807 38.2309C3.62805 38.0911 3.12254 37.8132 2.70997 37.4236C2.2973 37.0336 1.9904 36.5442 1.81967 36.0027C1.64902 35.4614 1.6192 34.8854 1.73341 34.3295L1.78061 34.1505L3.51889 28.781C3.57827 28.4745 3.55302 28.158 3.44076 27.8663C1.60233 23.9966 1.17475 19.6049 2.23796 15.4526C3.30972 11.2672 5.82547 7.59466 9.34083 5.08309ZM21.1898 5.04728C17.6659 4.76657 14.1558 5.7398 11.2793 7.79468C8.40277 9.84961 6.34409 12.8547 5.46713 16.2794C4.64511 19.4898 4.91162 22.8753 6.21257 25.9099L6.48601 26.5121L6.53321 26.6228C6.90065 27.5499 6.98358 28.5655 6.76921 29.5395C6.75773 29.5916 6.74334 29.6433 6.7269 29.6941L5.00977 34.9952L10.6462 33.3481C10.6935 33.3342 10.7427 33.3235 10.791 33.3139C11.5953 33.1544 12.4247 33.1938 13.2064 33.4294L13.5384 33.5434L13.6507 33.5906C16.8538 35.0864 20.4828 35.4029 23.8965 34.4841C27.3102 33.5654 30.2899 31.4708 32.3096 28.5694C34.3291 25.668 35.2586 22.1466 34.9349 18.6264C34.6112 15.1064 33.055 11.8138 30.5404 9.32951C28.0255 6.84516 24.7137 5.32805 21.1898 5.04728Z" fill="white"/>
<circle cx="33.3319" cy="8.33323" r="6.66667" fill="#FFC700"/>
</g>
<defs>
<clipPath id="clip0_3755_27821">
<rect width="40" height="40" fill="white"/>
</clipPath>
</defs>
</svg>
