<svg width="40" height="40" viewBox="0 0 40 40" fill="none" xmlns="http://www.w3.org/2000/svg">
<g clip-path="url(#clip0_3755_27651)">
<path d="M0 25C0 22.5434 0.444583 20.1862 1.25806 18.0073C1.90191 16.2828 3.97066 15.744 5.56396 16.6659C7.15727 17.5877 7.65384 19.6255 7.15797 21.3982C6.83793 22.5423 6.66667 23.7498 6.66667 25V30H0V25ZM33.3333 25C33.3333 23.7498 33.1621 22.5423 32.842 21.3982C32.3462 19.6255 32.8427 17.5877 34.436 16.6659C36.0293 15.744 38.0981 16.2828 38.7419 18.0073C39.5554 20.1862 40 22.5434 40 25V30H33.3333V25ZM20 5C22.4566 5 24.8138 5.44458 26.9927 6.25806C28.7172 6.90191 29.256 8.97066 28.3341 10.564C27.4123 12.1573 25.3745 12.6538 23.6018 12.158C22.4577 11.8379 21.2502 11.6667 20 11.6667C18.7498 11.6667 17.5423 11.8379 16.3982 12.158C14.6255 12.6538 12.5877 12.1573 11.6659 10.564C10.744 8.97066 11.2828 6.90191 13.0073 6.25806C15.1862 5.44458 17.5434 5 20 5Z" fill="#FF8E2B"/>
</g>
<defs>
<clipPath id="clip0_3755_27651">
<rect width="40" height="40" fill="white"/>
</clipPath>
</defs>
</svg>
