<svg width="40" height="40" viewBox="0 0 40 40" fill="none" xmlns="http://www.w3.org/2000/svg">
<path d="M8.33276 16.6665C10.1736 16.6665 11.6666 18.1587 11.6667 19.9995C11.6667 21.8405 10.1737 23.3335 8.33276 23.3335C6.49193 23.3334 4.99976 21.8404 4.99976 19.9995C4.99992 18.1588 6.49203 16.6666 8.33276 16.6665ZM19.9998 16.6665C21.8406 16.6666 23.3326 18.1587 23.3328 19.9995C23.3328 21.8404 21.8406 23.3334 19.9998 23.3335C18.1588 23.3335 16.6667 21.8405 16.6667 19.9995C16.6669 18.1587 18.1589 16.6665 19.9998 16.6665ZM31.6658 16.6665C33.5066 16.6665 34.9996 18.1587 34.9998 19.9995C34.9998 21.8405 33.5067 23.3335 31.6658 23.3335C29.825 23.3333 28.3328 21.8403 28.3328 19.9995C28.3329 18.1588 29.8251 16.6667 31.6658 16.6665Z" fill="white"/>
</svg>
