<svg width="40" height="40" viewBox="0 0 40 40" fill="none" xmlns="http://www.w3.org/2000/svg">
<path d="M23.3342 1.66663C23.3555 1.66663 23.3766 1.66876 23.3977 1.66956C24.1224 1.67683 24.8401 1.82071 25.51 2.09827C26.1992 2.38396 26.8249 2.80344 27.3518 3.33167L33.3284 9.30823L33.5227 9.51038C33.9627 9.99329 34.3166 10.5493 34.5676 11.1539C34.8542 11.8444 35.0011 12.586 35.0002 13.3336V18.3336C35.0001 19.2539 34.2536 19.9996 33.3333 19.9996C32.413 19.9995 31.6674 19.2538 31.6672 18.3336V14.9996H25.0002C24.1163 14.9996 23.2689 14.6481 22.6438 14.0231C22.0188 13.398 21.6672 12.5506 21.6672 11.6666V4.99963H10.0002C9.55822 4.99963 9.13409 5.17536 8.82153 5.48792C8.50897 5.80047 8.33325 6.2246 8.33325 6.66663V33.3336C8.33334 33.7754 8.50925 34.1989 8.82153 34.5114C9.13409 34.8239 9.55822 34.9996 10.0002 34.9996H18.3333C19.2537 34.9996 20.0002 35.7462 20.0002 36.6666C20.0002 37.5871 19.2537 38.3336 18.3333 38.3336H10.0002C8.67424 38.3336 7.40275 37.8064 6.46509 36.8688C5.52749 35.9312 5.00033 34.6596 5.00024 33.3336V6.66663C5.00025 5.34055 5.52741 4.06915 6.46509 3.13147C7.40277 2.19379 8.67416 1.66663 10.0002 1.66663H23.3342ZM25.0002 11.6666H30.9739L25.0002 5.69299V11.6666Z" fill="white"/>
<path d="M25.3418 20.0089C28.8642 20.1875 31.665 23.1003 31.665 26.6671L31.6562 27.0098C31.6012 28.0958 31.2843 29.1122 30.7705 30.0001L35.2334 33.7188L33.0977 36.2813L28.4229 32.3858C27.422 32.9863 26.2513 33.333 24.999 33.3331L24.6553 33.3243C21.2466 33.1513 18.5136 30.4185 18.3408 27.0098L18.332 26.6671C18.3321 22.9852 21.3171 20.0001 24.999 20.0001L25.3418 20.0089ZM24.999 22.5001C22.6979 22.5001 20.8321 24.3659 20.832 26.6671C20.8322 28.9681 22.6979 30.8331 24.999 30.8331C27.2999 30.8329 29.1649 28.968 29.165 26.6671C29.165 24.366 27.3 22.5003 24.999 22.5001Z" fill="white"/>
</svg>
