<svg width="40" height="40" viewBox="0 0 40 40" fill="none" xmlns="http://www.w3.org/2000/svg">
<path d="M19.9994 36.6662C29.2042 36.6662 36.6661 29.2043 36.6661 19.9995C36.6661 10.7948 29.2042 3.33289 19.9994 3.33289C10.7947 3.33289 3.33276 10.7948 3.33276 19.9995C3.33276 29.2043 10.7947 36.6662 19.9994 36.6662Z" fill="#FF4B27"/>
<path d="M20.0168 25.8329C21.3976 25.8329 22.5168 26.9522 22.5168 28.3329C22.5168 29.7135 21.3975 30.8329 20.0168 30.8329H20.0012C18.6205 30.8329 17.5013 29.7135 17.5012 28.3329C17.5012 26.9522 18.6205 25.8329 20.0012 25.8329H20.0168ZM20.0012 8.33289C21.8419 8.33311 23.3341 9.82517 23.3342 11.6659V18.3329C23.3342 20.1736 21.8419 21.6657 20.0012 21.6659C18.1603 21.6659 16.6673 20.1738 16.6672 18.3329V11.6659C16.6673 9.82504 18.1603 8.33289 20.0012 8.33289Z" fill="white"/>
</svg>
