<svg width="40" height="40" viewBox="0 0 40 40" fill="none" xmlns="http://www.w3.org/2000/svg">
<path d="M20.0017 6.66739C23.8796 6.6676 27.6706 7.81912 30.8933 9.97598C33.9146 11.9982 36.3093 14.819 37.8152 18.1176L38.1052 18.7846L38.1267 18.8402C38.4043 19.5884 38.4043 20.4114 38.1267 21.1596C38.1198 21.1781 38.1127 21.197 38.1052 21.2152C36.6266 24.8005 34.1163 27.8667 30.8933 30.0238C27.6706 32.1807 23.8796 33.3322 20.0017 33.3324C16.1235 33.3324 12.3312 32.1809 9.10815 30.0238C5.88525 27.8667 3.37491 24.8004 1.89624 21.2152C1.88873 21.197 1.88161 21.1781 1.87476 21.1596C1.5971 20.4114 1.59716 19.5884 1.87476 18.8402L1.89624 18.7846C3.37489 15.1995 5.8854 12.133 9.10815 9.97598C12.3311 7.819 16.1235 6.66739 20.0017 6.66739ZM20.0017 10.0004C16.7835 10.0004 13.6361 10.9565 10.9617 12.7465C8.30427 14.5252 6.23159 17.0486 5.00171 19.9994C6.23157 22.9506 8.30399 25.4745 10.9617 27.2533C13.6361 29.0433 16.7835 29.9994 20.0017 29.9994C23.2195 29.9992 26.3656 29.0431 29.0398 27.2533C31.6972 25.4746 33.7679 22.9503 34.9978 19.9994C33.7679 17.0489 31.697 14.5251 29.0398 12.7465C26.3656 10.9567 23.2195 10.0006 20.0017 10.0004ZM19.9998 15.0004C22.7612 15.0004 24.9998 17.239 24.9998 20.0004C24.9996 22.7617 22.7611 25.0004 19.9998 25.0004C17.2386 25.0003 15 22.7616 14.9998 20.0004C14.9998 17.239 17.2384 15.0005 19.9998 15.0004Z" fill="white"/>
</svg>
