<svg width="40" height="40" viewBox="0 0 40 40" fill="none" xmlns="http://www.w3.org/2000/svg">
<path d="M13.4828 1.25C13.4828 0.559644 14.0424 0 14.7328 0C15.4228 0.000339828 15.9828 0.559854 15.9828 1.25V5.00325L15.6166 5.36947C14.3725 6.61348 11.8155 8.14533 6.98701 8.42936C6.0475 8.48471 5.11358 8.72305 4.40889 9.39779C3.72247 10.0551 3.0417 11.3319 3.0417 13.9209L3.31188 27.6449L3.31351 27.7213L3.30537 27.7978L3.13935 29.4141L2.49808 36.6748C2.4374 37.3625 1.82997 37.8715 1.14228 37.8109C0.454997 37.7498 -0.0528107 37.1425 0.00784435 36.4551L0.650748 29.1764L0.652375 29.1585L0.811881 27.6172L0.541698 13.9453V13.9209C0.541698 10.9026 1.34491 8.87167 2.68037 7.59277C3.99724 6.33181 5.62376 6.00422 6.84053 5.93262C10.5934 5.71186 12.549 4.67569 13.4828 3.92578V1.25ZM6.91749 14.6997C7.60979 14.7599 8.14816 15.3632 8.21623 16.0548C8.2878 16.7819 8.4297 17.7464 8.67484 18.8802C9.10778 20.8824 9.844 23.327 11.0088 25.7861L11.0251 25.8219L11.0397 25.8577C11.6225 27.3148 12.1439 29.3071 12.2604 31.3314C12.3755 33.3311 12.106 35.5462 10.9079 37.277C10.5149 37.8446 9.7356 37.9857 9.168 37.5928C8.6007 37.1998 8.45953 36.422 8.85224 35.8545C9.59492 34.7817 9.86427 33.2219 9.7637 31.4746C9.68111 30.0399 9.35261 28.6026 8.95967 27.4463C8.20502 30.6898 7.14345 34.5474 6.19437 37.015C5.94636 37.659 5.22233 37.9805 4.57816 37.7327C3.93383 37.4849 3.61256 36.7609 3.86038 36.1165C5.13339 32.8066 6.67323 26.6903 7.2458 23.4342C6.92414 22.4141 6.50805 20.8664 6.18297 19.3197C5.94004 18.1638 5.72274 16.9032 5.65854 15.84C5.61664 15.1459 6.22481 14.6395 6.91749 14.6997Z" fill="white"/>
<path d="M25.3969 1.25C25.3969 0.559644 24.8372 0 24.1469 0C23.4568 0.00034015 22.8969 0.559854 22.8969 1.25V5.00325L23.2631 5.36947C24.5071 6.61348 27.0642 8.14533 31.8926 8.42936C32.8321 8.48471 33.7661 8.72305 34.4708 9.39779C35.1572 10.0551 35.8379 11.3319 35.8379 13.9209L35.5678 27.6449L35.5661 27.7213L35.5743 27.7978L35.7403 29.4141L36.3816 36.6748C36.4422 37.3625 37.0497 37.8715 37.7374 37.8109C38.4246 37.7498 38.9324 37.1425 38.8718 36.4551L38.2289 29.1764L38.2273 29.1585L38.0678 27.6172L38.3379 13.9453V13.9209C38.3379 10.9026 37.5347 8.87167 36.1993 7.59277C34.8824 6.33181 33.2559 6.00422 32.0391 5.93262C28.2863 5.71186 26.3306 4.67569 25.3969 3.92578V1.25ZM31.9621 14.6997C31.2698 14.7599 30.7315 15.3632 30.6634 16.0548C30.5918 16.7819 30.4499 17.7464 30.2048 18.8802C29.7719 20.8824 29.0356 23.327 27.8708 25.7861L27.8545 25.8219L27.8399 25.8577C27.2571 27.3148 26.7357 29.3071 26.6192 31.3314C26.5041 33.3311 26.7736 35.5462 27.9717 37.277C28.3647 37.8446 29.144 37.9857 29.7116 37.5928C30.2789 37.1998 30.4201 36.422 30.0274 35.8545C29.2847 34.7817 29.0154 33.2219 29.1159 31.4746C29.1985 30.0399 29.527 28.6026 29.92 27.4463C30.6746 30.6898 31.7362 34.5474 32.6853 37.015C32.9333 37.659 33.6573 37.9805 34.3015 37.7327C34.9458 37.4849 35.2671 36.7609 35.0193 36.1165C33.7462 32.8066 32.2064 26.6903 31.6338 23.4342C31.9555 22.4141 32.3716 20.8664 32.6967 19.3197C32.9396 18.1638 33.1569 16.9032 33.2211 15.84C33.263 15.1459 32.6548 14.6395 31.9621 14.6997Z" fill="white"/>
<path d="M10.8364 21.6669C12.0046 22.2959 13.8661 23.1765 16.6698 21.6669" stroke="white" stroke-width="1.66667" stroke-linecap="round"/>
<path d="M21.6697 21.6669C22.8379 22.2959 25.5327 23.1765 28.3363 21.6669" stroke="white" stroke-width="1.66667" stroke-linecap="round"/>
<path d="M14.4463 6.63696C14.8956 6.90655 16.1177 7.44571 17.4117 7.44571" stroke="white" stroke-width="0.833333" stroke-linecap="round"/>
<path d="M24.3096 6.77856C23.8603 7.04815 22.6382 7.58732 21.3441 7.58732" stroke="white" stroke-width="0.833333" stroke-linecap="round"/>
</svg>
