<svg width="40" height="40" viewBox="0 0 40 40" fill="none" xmlns="http://www.w3.org/2000/svg">
<path d="M33.3315 31.2126C33.3315 24.0998 27.5651 18.3333 20.4523 18.3333H19.5441C12.4313 18.3333 6.66488 24.0998 6.66488 31.2126L6.6779 31.3053C6.71268 31.4388 6.83355 31.6912 7.23942 32.0475C7.77604 32.5186 8.66703 33.0321 9.96077 33.5026C12.5422 34.4413 16.1541 35 19.9982 35C23.8423 35 27.4542 34.4413 30.0356 33.5026C31.3294 33.0321 32.2204 32.5186 32.757 32.0475C33.2961 31.5742 33.3314 31.2844 33.3315 31.2126ZM36.6649 31.2126C36.6647 32.5879 35.909 33.7157 34.9559 34.5524C33.9992 35.3922 32.6936 36.0835 31.175 36.6357C28.1303 37.7429 24.1106 38.3333 19.9982 38.3333C15.8858 38.3333 11.8661 37.7429 8.82145 36.6357C7.30282 36.0835 5.9972 35.3922 5.04053 34.5524C4.14674 33.7678 3.42598 32.7271 3.33968 31.4665L3.33154 31.2126C3.33154 22.2589 10.5904 15 19.5441 15H20.4523C29.406 15 36.6649 22.2589 36.6649 31.2126Z" fill="white"/>
<circle cx="19.9981" cy="16.6665" r="3.33333" fill="#FF4228"/>
</svg>
