<svg width="40" height="40" viewBox="0 0 40 40" fill="none" xmlns="http://www.w3.org/2000/svg">
<path d="M31.6667 10C31.6667 9.07953 30.9205 8.33333 30 8.33333H10C9.07953 8.33333 8.33333 9.07953 8.33333 10V30C8.33333 30.9205 9.07953 31.6667 10 31.6667H30C30.9205 31.6667 31.6667 30.9205 31.6667 30V10ZM35 30C35 32.7614 32.7614 35 30 35H10C7.23858 35 5 32.7614 5 30V10C5 7.23858 7.23858 5 10 5H30C32.7614 5 35 7.23858 35 10V30Z" fill="white"/>
<path d="M25.4721 13.8379C26.1141 13.1788 27.1694 13.1639 27.8289 13.8054C28.4881 14.4474 28.503 15.5027 27.8615 16.1622L18.755 25.5127C17.9948 26.2925 16.7503 26.3207 15.9555 25.5762L12.1941 22.0492C11.5227 21.4197 11.4884 20.3656 12.1176 19.6941C12.7471 19.0226 13.8013 18.9883 14.4728 19.6176L17.2788 22.2494L25.4721 13.8379Z" fill="white"/>
</svg>
