<svg width="40" height="40" viewBox="0 0 40 40" fill="none" xmlns="http://www.w3.org/2000/svg">
<path d="M19.9987 3.33344C23.295 3.33344 26.5173 4.31132 29.2581 6.14268C31.9988 7.974 34.136 10.5762 35.3975 13.6215C36.6589 16.667 36.9878 20.019 36.3447 23.2521C35.7016 26.4849 34.1149 29.4548 31.7842 31.7856C29.4534 34.1163 26.4835 35.703 23.2506 36.3461C20.0176 36.9892 16.6656 36.6603 13.6201 35.3989C10.5748 34.1374 7.97259 32.0002 6.14128 29.2595C4.30992 26.5187 3.33203 23.2965 3.33203 20.0001C3.33203 19.0796 4.07822 18.3334 4.9987 18.3334C5.91917 18.3334 6.66536 19.0796 6.66536 20.0001C6.66536 22.6372 7.448 25.2147 8.91308 27.4073C10.3781 29.5999 12.46 31.3086 14.8962 32.3178C17.3324 33.3269 20.0133 33.5923 22.5996 33.0779C25.186 32.5634 27.5627 31.2935 29.4274 29.4288C31.2921 27.5641 32.562 25.1874 33.0765 22.601C33.5909 20.0147 33.3255 17.3338 32.3164 14.8976C31.3072 12.4614 29.5985 10.3795 27.4059 8.91449C25.2142 7.45001 22.6379 6.66741 20.002 6.66677C16.2397 6.6817 12.6288 8.15009 9.92383 10.7651L6.17708 14.5118C5.52621 15.1627 4.47119 15.1627 3.82031 14.5118C3.16944 13.8609 3.16944 12.8059 3.82031 12.155L7.58659 8.38877L8.24251 7.7833C11.4861 4.93682 15.6574 3.3498 19.9922 3.33344H19.9987Z" fill="white"/>
<path d="M3.33203 5.0001C3.33203 4.07963 4.07822 3.33344 4.9987 3.33344C5.91917 3.33344 6.66536 4.07963 6.66536 5.0001V11.6668H13.332C14.2525 11.6668 14.9987 12.413 14.9987 13.3334C14.9987 14.2539 14.2525 15.0001 13.332 15.0001H4.9987C4.07822 15.0001 3.33203 14.2539 3.33203 13.3334V5.0001Z" fill="white"/>
<path d="M18.332 11.6667C18.332 10.7462 19.0782 10 19.9987 10C20.9192 10 21.6654 10.7462 21.6654 11.6667V18.9697L27.4108 21.8424C28.2341 22.2541 28.5679 23.2555 28.1562 24.0788C27.7446 24.9021 26.7432 25.2359 25.9199 24.8242L19.2533 21.4909C18.6886 21.2086 18.332 20.6313 18.332 20V11.6667Z" fill="white"/>
</svg>
