<svg width="40" height="40" viewBox="0 0 40 40" fill="none" xmlns="http://www.w3.org/2000/svg">
<g clip-path="url(#clip0_3755_27794)">
<path d="M16.6653 3.33344C22.1881 3.33344 26.6653 7.81059 26.6653 13.3334C26.6653 16.5745 25.122 19.4534 22.7317 21.2807C24.4086 22.0219 25.9513 23.0716 27.2727 24.393C30.0858 27.2061 31.6653 31.0222 31.6653 35.0004C31.6652 35.9207 30.9195 36.6672 29.9993 36.6674C29.0788 36.6674 28.3323 35.9208 28.3323 35.0004C28.3323 31.9065 27.1039 28.9383 24.9163 26.7504C22.7283 24.5625 19.7595 23.3334 16.6653 23.3334C13.5712 23.3335 10.6032 24.5625 8.41528 26.7504C6.22745 28.9383 4.99927 31.9063 4.99927 35.0004C4.9992 35.9208 4.25264 36.6673 3.33228 36.6674C2.41184 36.6674 1.66535 35.9208 1.66528 35.0004C1.66528 31.0222 3.24579 27.2061 6.05884 24.393C7.37992 23.072 8.92157 22.0219 10.5979 21.2807C8.2081 19.4534 6.66528 16.5741 6.66528 13.3334C6.66528 7.81065 11.1425 3.33353 16.6653 3.33344ZM16.6653 6.66644C12.9835 6.66654 9.99927 9.6516 9.99927 13.3334C9.99927 17.0153 12.9835 20.0003 16.6653 20.0004C20.3472 20.0004 23.3323 17.0153 23.3323 13.3334C23.3323 9.65154 20.3472 6.66644 16.6653 6.66644Z" fill="white"/>
<path d="M33.3319 18.3332V21.6666H36.6652V18.3332H39.9985V14.9999H36.6652V11.6666H33.3319V14.9999H29.9985V18.3332H33.3319Z" fill="white"/>
</g>
<defs>
<clipPath id="clip0_3755_27794">
<rect width="40" height="40" fill="white"/>
</clipPath>
</defs>
</svg>
