<svg width="40" height="40" viewBox="0 0 40 40" fill="none" xmlns="http://www.w3.org/2000/svg">
<path d="M36.5756 19.9998C37.5923 19.9998 38.4266 19.1728 38.3253 18.1616C37.9007 13.933 36.0268 9.98141 33.0214 6.97665C30.0159 3.9719 26.0639 2.09891 21.8352 1.67522C20.8222 1.57392 19.9971 2.40827 19.9971 3.42498V18.1598C19.9971 18.6483 20.1911 19.1167 20.5365 19.4621C20.8819 19.8076 21.3504 20.0016 21.8389 20.0016L36.5756 19.9998Z" fill="white"/>
<path d="M12.6683 3.18827C13.5116 2.82055 14.494 3.20618 14.8623 4.04927C15.2304 4.89292 14.8449 5.87676 14.0013 6.24491C11.7557 7.22489 9.78386 8.73952 8.25909 10.6573C6.73441 12.5751 5.7031 14.8373 5.25453 17.2459C4.80598 19.6547 4.95358 22.1375 5.68585 24.4757C6.41814 26.8137 7.71309 28.9365 9.45538 30.659C11.1976 32.3814 13.3348 33.6514 15.681 34.3569C18.0274 35.0624 20.5122 35.1828 22.9157 34.7068C25.3188 34.2307 27.5683 33.1721 29.4684 31.6258C31.3686 30.0793 32.8614 28.0912 33.8157 25.8348C34.1741 24.9871 35.1523 24.5896 36 24.9477C36.8476 25.3061 37.2451 26.2843 36.887 27.132C35.7207 29.8902 33.8955 32.3217 31.5729 34.212C29.2503 36.1021 26.4992 37.3949 23.5618 37.9767C20.6246 38.5583 17.5897 38.4107 14.7223 37.5486C11.8545 36.6863 9.24124 35.1342 7.11163 33.0288C4.98226 30.9235 3.40051 28.3293 2.50551 25.4718C1.61052 22.614 1.42831 19.5796 1.97654 16.6355C2.52479 13.6915 3.78641 10.9262 5.65004 8.58215C7.51368 6.23821 9.92368 4.38596 12.6683 3.18827Z" fill="white"/>
</svg>
