<svg width="40" height="40" viewBox="0 0 40 40" fill="none" xmlns="http://www.w3.org/2000/svg">
<path d="M11.6655 18.3332L12.838 7.78109C13.1193 5.24893 15.2597 3.33325 17.8074 3.33325H22.1903C24.7381 3.33325 26.8784 5.24893 27.1597 7.78109L28.3322 18.3332L32.149 24.6946C32.9 25.9462 33.0665 27.4635 32.605 28.8482L30.975 33.7382C30.4242 35.3906 28.694 36.3404 27.0042 35.9179L26.482 35.7874C24.7292 35.3492 23.6446 33.5942 24.0365 31.8305L24.9989 27.4999L23.3322 23.3332H16.6655L14.9989 27.4999L15.9612 31.8305C16.3532 33.5942 15.2685 35.3492 13.5157 35.7874L12.9935 35.9179C11.3037 36.3404 9.57354 35.3906 9.02274 33.7382L7.39275 28.8482C6.93117 27.4635 7.09773 25.9462 7.8487 24.6946L11.6655 18.3332Z" fill="white"/>
</svg>
