<svg width="40" height="40" viewBox="0 0 40 40" fill="none" xmlns="http://www.w3.org/2000/svg">
<path d="M20 1.66638C30.1252 1.66638 38.3339 9.87426 38.334 19.9994C38.334 30.1246 30.1252 38.3334 20 38.3334C9.8749 38.3332 1.66699 30.1245 1.66699 19.9994C1.6671 9.87435 9.87497 1.66652 20 1.66638ZM20 4.99939C11.7159 4.99953 5.00011 11.7153 5 19.9994C5 28.2836 11.7158 34.9992 20 34.9994C28.2843 34.9994 35 28.2837 35 19.9994C34.9999 11.7152 28.2842 4.99939 20 4.99939ZM15.8828 12.5726C16.2122 12.5773 16.5344 12.6699 16.8164 12.8402L26.0938 18.4047C26.3699 18.5693 26.599 18.8028 26.7578 19.0824C26.9165 19.3619 27 19.678 27 19.9994C27 20.3209 26.9166 20.6369 26.7578 20.9164C26.599 21.1959 26.3699 21.4295 26.0938 21.5941L16.8164 27.1586C16.5343 27.3289 16.2114 27.4206 15.8818 27.4252C15.5524 27.4296 15.228 27.3464 14.9414 27.184C14.6547 27.0214 14.4163 26.7855 14.251 26.5004C14.0857 26.2153 13.9987 25.8914 14 25.5619V14.4349C13.999 14.1055 14.0855 13.7814 14.251 13.4965C14.4164 13.2117 14.6549 12.9762 14.9414 12.8138C15.2281 12.6515 15.5534 12.568 15.8828 12.5726Z" fill="white"/>
</svg>
