<svg width="40" height="40" viewBox="0 0 40 40" fill="none" xmlns="http://www.w3.org/2000/svg">
<path d="M31.666 9.81445C31.6659 9.45339 31.5148 9.08651 31.2119 8.80046C30.9441 8.54758 30.5782 8.37961 30.1751 8.34147L29.9993 8.33333H10.0002C9.52847 8.33333 9.09389 8.51127 8.78768 8.80046C8.4848 9.0865 8.33368 9.45339 8.33358 9.81445V31.8522C8.33368 32.2133 8.4848 32.5802 8.78768 32.8662C9.09389 33.1554 9.52847 33.3333 10.0002 33.3333H29.9993C30.4711 33.3333 30.9057 33.1554 31.2119 32.8662C31.5148 32.5802 31.6659 32.2133 31.666 31.8522V9.81445ZM34.9993 31.8522C34.9992 33.1608 34.4475 34.3952 33.5003 35.2897C32.5563 36.1811 31.2955 36.6667 29.9993 36.6667H10.0002C8.70405 36.6667 7.44327 36.1811 6.49927 35.2897C5.55209 34.3952 5.00035 33.1608 5.00024 31.8522V9.81445C5.00035 8.50588 5.55209 7.27151 6.49927 6.37695C7.44327 5.48553 8.70405 5 10.0002 5H29.9993C31.2955 5 32.5563 5.48553 33.5003 6.37695C34.4475 7.27151 34.9992 8.50588 34.9993 9.81445V31.8522Z" fill="white"/>
<path d="M19.9967 26.6684C22.3012 26.6684 24.5353 27.4647 26.32 28.9226C28.1043 30.3805 29.3304 32.4102 29.79 34.6681C29.9735 35.5695 29.391 36.4491 28.4896 36.6326C27.5883 36.8159 26.7085 36.2334 26.525 35.3321C26.2185 33.8271 25.4016 32.4742 24.2122 31.5024C23.0225 30.5304 21.533 29.9985 19.9967 29.9985C18.4605 29.9985 16.971 30.5304 15.7812 31.5024C14.5918 32.4742 13.7749 33.8271 13.4684 35.3321C13.2849 36.2335 12.4052 36.8159 11.5039 36.6326C10.6025 36.4491 10.02 35.5695 10.2034 34.6681C10.6631 32.4102 11.8892 30.3805 13.6735 28.9226C15.4581 27.4647 17.6923 26.6684 19.9967 26.6684Z" fill="white"/>
<path d="M23.3337 18.3333C23.3337 16.4924 21.8413 15 20.0003 15C18.1594 15 16.667 16.4924 16.667 18.3333C16.667 20.1743 18.1594 21.6667 20.0003 21.6667C21.8413 21.6667 23.3337 20.1743 23.3337 18.3333ZM25.8337 18.3333C25.8337 21.555 23.222 24.1667 20.0003 24.1667C16.7787 24.1667 14.167 21.555 14.167 18.3333C14.167 15.1117 16.7787 12.5 20.0003 12.5C23.222 12.5 25.8337 15.1117 25.8337 18.3333Z" fill="white"/>
</svg>
