<svg width="40" height="40" viewBox="0 0 40 40" fill="none" xmlns="http://www.w3.org/2000/svg">
<path d="M4.99854 33.3332V6.66656C4.99854 5.34048 5.5257 4.06909 6.46338 3.13141C7.40106 2.19373 8.67245 1.66656 9.99853 1.66656H22.3325C23.2527 1.66692 23.9992 2.41297 23.9992 3.33323C23.9992 4.25349 23.2527 4.99955 22.3325 4.9999H9.99853C9.55651 4.9999 9.13271 5.17562 8.82015 5.48818C8.50759 5.80074 8.33187 6.22454 8.33187 6.66656V33.3332C8.33187 33.7753 8.50759 34.1991 8.82015 34.5116C9.13271 34.8242 9.55651 34.9999 9.99853 34.9999H29.9985C30.4406 34.9999 30.8644 34.8242 31.1769 34.5116C31.4895 34.1991 31.6652 33.7753 31.6652 33.3332V20.9992C31.6656 20.0791 32.4116 19.3326 33.3319 19.3326C34.2521 19.3326 34.9982 20.0791 34.9985 20.9992V33.3332C34.9985 34.6593 34.4714 35.9307 33.5337 36.8684C32.596 37.8061 31.3246 38.3332 29.9985 38.3332H9.99853C8.67245 38.3332 7.40106 37.8061 6.46338 36.8684C5.5257 35.9307 4.99854 34.6593 4.99854 33.3332Z" fill="white"/>
<path d="M34.9974 6.87327C34.9973 6.37644 34.8002 5.89971 34.4488 5.5484C34.0975 5.1971 33.6208 4.9999 33.124 4.9999C32.6271 4.9999 32.1505 5.1971 31.7991 5.5484L23.4495 13.9013C23.2514 14.0993 23.1065 14.3453 23.028 14.6142L22.0579 17.9377L25.3831 16.9677C25.6514 16.8891 25.8967 16.7439 26.0944 16.5461L34.4488 8.19814L34.5725 8.06142C34.8461 7.72792 34.9974 7.30836 34.9974 6.87327ZM38.3307 6.87327C38.3307 8.25418 37.782 9.57843 36.8056 10.5549L28.4511 18.9045L28.4495 18.9029C27.8556 19.497 27.1221 19.9321 26.3157 20.1675L21.5322 21.564C21.1021 21.6894 20.6462 21.6963 20.2122 21.5852C19.778 21.474 19.3816 21.2478 19.0647 20.9309C18.7479 20.614 18.5217 20.2175 18.4104 19.7834C18.2994 19.3495 18.3062 18.8935 18.4316 18.4634L19.8281 13.6799L19.9257 13.3804C20.1749 12.6918 20.5714 12.0641 21.0911 11.5445L29.4423 3.19163C30.4188 2.21521 31.7431 1.66656 33.124 1.66656C34.5049 1.66657 35.8291 2.21521 36.8056 3.19163C37.7821 4.16807 38.3306 5.49239 38.3307 6.87327Z" fill="white"/>
<path d="M13.332 28.7716C13.3321 27.0793 13.7192 25.6546 14.6428 24.7748C15.6261 23.8384 16.9594 23.7486 18.2787 24.1883C19.1054 24.4638 19.8888 25.1037 20.171 26.0533C20.3327 26.5975 20.306 27.1636 20.1065 27.7212C20.4516 27.5906 20.8379 27.425 21.2474 27.2202C22.2559 26.716 23.2907 26.4322 24.2533 26.5804C25.2809 26.7385 26.0743 27.365 26.5648 28.3462C26.7999 28.8166 26.6086 29.3883 26.1383 29.6235C25.668 29.8584 25.0962 29.6683 24.861 29.1982C24.6129 28.702 24.3092 28.516 23.9632 28.4628C23.5524 28.3997 22.937 28.5053 22.0993 28.9241C20.9629 29.4923 19.8487 29.8744 19.076 29.9658C18.879 29.989 18.6589 29.9986 18.4448 29.9682C18.2618 29.9423 17.8975 29.8624 17.6301 29.5404C17.3024 29.1456 17.349 28.6881 17.4528 28.4057C17.5468 28.1502 17.7127 27.9397 17.8571 27.7832C18.4173 27.176 18.3983 26.7785 18.3444 26.5965C18.2765 26.368 18.049 26.1194 17.676 25.995C16.7801 25.6966 16.2666 25.8595 15.9573 26.1538C15.5885 26.505 15.2368 27.2899 15.2368 28.7716C15.2368 29.2976 14.8104 29.7239 14.2844 29.7239C13.7584 29.7239 13.332 29.2976 13.332 28.7716Z" fill="white"/>
</svg>
