<svg width="40" height="40" viewBox="0 0 40 40" fill="none" xmlns="http://www.w3.org/2000/svg">
<path d="M24.7039 17.8939C25.6243 17.8939 26.3704 18.6399 26.3704 19.5604C26.3704 20.4808 25.6243 21.2268 24.7039 21.2268L15.2758 21.2268C14.3553 21.2268 13.6093 20.4808 13.6093 19.5603C13.6093 18.6399 14.4126 17.894 15.2756 17.8937C16.5261 17.8933 20.061 17.8939 20.061 17.8939C20.061 17.8939 21.4086 17.8939 22.2721 17.8939C23.2218 17.8939 24.7039 17.8939 24.7039 17.8939Z" fill="white"/>
<path d="M31.6667 10C31.6667 9.07953 30.9205 8.33333 30 8.33333H10C9.07953 8.33333 8.33333 9.07953 8.33333 10V30C8.33333 30.9205 9.07953 31.6667 10 31.6667H30C30.9205 31.6667 31.6667 30.9205 31.6667 30V10ZM35 30C35 32.7614 32.7614 35 30 35H10C7.23858 35 5 32.7614 5 30V10C5 7.23858 7.23858 5 10 5H30C32.7614 5 35 7.23858 35 10V30Z" fill="white"/>
</svg>
