<svg width="40" height="40" viewBox="0 0 40 40" fill="none" xmlns="http://www.w3.org/2000/svg">
<path d="M19.9973 36.6667C17.914 36.6667 15.9626 36.2709 14.1431 35.4792C12.3237 34.6875 10.7404 33.6181 9.39315 32.2709C8.04593 30.9236 6.97648 29.3403 6.18481 27.5209C5.39315 25.7014 4.99731 23.75 4.99731 21.6667H8.33065C8.33065 24.9167 9.46259 27.6736 11.7265 29.9375C13.9904 32.2014 16.7473 33.3334 19.9973 33.3334C23.2473 33.3334 26.0043 32.2014 28.2681 29.9375C30.532 27.6736 31.664 24.9167 31.664 21.6667C31.664 18.4167 30.532 15.6597 28.2681 13.3959C26.0043 11.132 23.2473 10 19.9973 10H19.7473L22.3306 12.5834L19.9973 15L13.3306 8.33335L19.9973 1.66669L22.3306 4.08335L19.7473 6.66669H19.9973C22.0806 6.66669 24.032 7.06252 25.8515 7.85419C27.6709 8.64585 29.2543 9.7153 30.6015 11.0625C31.9487 12.4097 33.0181 13.9931 33.8098 15.8125C34.6015 17.632 34.9973 19.5834 34.9973 21.6667C34.9973 23.75 34.6015 25.7014 33.8098 27.5209C33.0181 29.3403 31.9487 30.9236 30.6015 32.2709C29.2543 33.6181 27.6709 34.6875 25.8515 35.4792C24.032 36.2709 22.0806 36.6667 19.9973 36.6667Z" fill="white"/>
</svg>
