<svg width="40" height="40" viewBox="0 0 40 40" fill="none" xmlns="http://www.w3.org/2000/svg">
<g clip-path="url(#clip0_3755_27532)">
<rect x="2.99805" y="30.9998" width="34" height="9" rx="1" fill="white"/>
<path d="M4.76367 35.5002L10 32.8821L10 34.5002L15 34.5002L15 36.5002L10 36.5002L10 38.1184L4.76367 35.5002Z" fill="#121212"/>
<path d="M35.2363 35.5002L30 32.8821L30 34.5002L25 34.5002L25 36.5002L30 36.5002L30 38.1184L35.2363 35.5002Z" fill="#121212"/>
<path d="M15.4316 20.4093C15.8245 20.8021 16.0458 21.3352 16.0459 21.8907V29.0001H5V21.8907C5.0001 21.3352 5.22046 20.8021 5.61328 20.4093C5.61328 21.6365 7.45444 24.0908 10.5225 24.0909C13.5906 24.0909 15.4316 21.8433 15.4316 20.4093ZM28.3193 2.00012C29.6749 2.00012 30.7744 3.0996 30.7744 4.4552V5.06848H33.2285V7.52258H30.7744V8.13684C30.7743 9.49233 29.6749 10.5909 28.3193 10.5909H16.0469L14.4736 16.8849C14.694 17.4018 14.8164 17.971 14.8164 18.5685C14.8162 20.9404 12.8934 22.8632 10.5215 22.8634C8.14933 22.8634 6.22583 20.9406 6.22559 18.5685C6.22559 16.724 7.38818 15.1508 9.02051 14.5421L11.6367 4.73352C12.0665 3.12193 13.5255 2.00032 15.1934 2.00012H28.3193Z" fill="white"/>
</g>
<defs>
<clipPath id="clip0_3755_27532">
<rect width="40" height="40" fill="white"/>
</clipPath>
</defs>
</svg>
