<svg width="40" height="40" viewBox="0 0 40 40" fill="none" xmlns="http://www.w3.org/2000/svg">
<path d="M15.0002 25.0001C16.8411 25.0002 18.3331 26.4923 18.3333 28.3331V33.3331C18.3333 35.174 16.8411 36.667 15.0002 36.6671H6.66724C4.82629 36.6671 3.33325 35.1741 3.33325 33.3331V28.3331C3.33336 26.4923 4.82635 25.0001 6.66724 25.0001H15.0002ZM33.3333 18.3331C35.1741 18.3331 36.6661 19.8253 36.6663 21.6661V33.3331C36.6663 35.1741 35.1742 36.6661 33.3333 36.6661H25.0002C23.1593 36.6661 21.6663 35.1741 21.6663 33.3331V21.6661C21.6664 19.8253 23.1594 18.3331 25.0002 18.3331H33.3333ZM6.66724 33.3331H15.0002V28.3331H6.66724V33.3331ZM25.0002 33.3331H33.3333V21.6661H25.0002V33.3331ZM15.0002 3.33313C16.841 3.33321 18.3331 4.82539 18.3333 6.66614V18.3331C18.3333 20.174 16.8411 21.6661 15.0002 21.6661H6.66724C4.82629 21.6661 3.33325 20.1741 3.33325 18.3331V6.66614C3.33343 4.82534 4.8264 3.33313 6.66724 3.33313H15.0002ZM6.66724 18.3331H15.0002V6.66614H6.66724V18.3331ZM33.3333 3.33313C35.1741 3.33313 36.6661 4.82534 36.6663 6.66614V11.6661C36.6663 13.5071 35.1742 15.0001 33.3333 15.0001H25.0002C23.1593 15.0001 21.6663 13.5071 21.6663 11.6661V6.66614C21.6664 4.82534 23.1594 3.33313 25.0002 3.33313H33.3333ZM25.0002 11.6661H33.3333V6.66614H25.0002V11.6661Z" fill="white"/>
</svg>
