<svg width="40" height="40" viewBox="0 0 40 40" fill="none" xmlns="http://www.w3.org/2000/svg">
<path d="M37.1511 32.5028C37.1511 33.6874 36.1911 34.6481 35.0066 34.6483H4.29663C3.11224 34.6479 2.15112 33.6873 2.15112 32.5028V28.7987H5.53979V31.2606H24.4919V28.7987L26.9919 28.7977V31.2606H33.7644V20.7606H28.4011V23.6766H25.9011V15.3436H28.4011V18.2616L33.7644 18.2606V8.73132H21.8601V21.7469H11.0183V19.2469H19.3601V8.73132H5.53979V19.2343H8.13452V21.7343H5.53979V24.6415H2.15112V7.48816C2.15156 6.30405 3.11251 5.34307 4.29663 5.34265H35.0066C36.1909 5.34289 37.1507 6.30393 37.1511 7.48816V32.5028Z" fill="white"/>
</svg>
