<svg width="40" height="40" viewBox="0 0 40 40" fill="none" xmlns="http://www.w3.org/2000/svg">
<path d="M30.4861 13.822C31.1369 13.1712 32.1916 13.1712 32.8425 13.822L37.8435 18.822C37.9581 18.9367 38.0551 19.0686 38.1326 19.2126C38.1463 19.2383 38.1583 19.2646 38.1707 19.2908C38.182 19.3147 38.1937 19.3385 38.2039 19.363C38.2112 19.3807 38.2167 19.3989 38.2234 19.4167C38.2915 19.5987 38.3308 19.795 38.3308 20.0007C38.3308 20.2059 38.2912 20.4013 38.2234 20.5828C38.2167 20.6006 38.2111 20.6188 38.2039 20.6365C38.1937 20.6611 38.1819 20.6848 38.1707 20.7087C38.1583 20.7349 38.1463 20.7612 38.1326 20.7869C38.0551 20.9312 37.9583 21.0635 37.8435 21.1785L32.8425 26.1785C32.1917 26.8293 31.1369 26.8293 30.4861 26.1785C29.8353 25.5276 29.8353 24.4729 30.4861 23.822L32.6414 21.6667H7.35522L9.50952 23.822C10.1604 24.4729 10.1604 25.5276 9.50952 26.1785C8.85865 26.8293 7.80394 26.8293 7.15308 26.1785L2.15308 21.1785C2.0997 21.1251 2.05219 21.0679 2.00757 21.0095C1.95382 20.9391 1.90421 20.8654 1.86206 20.7869C1.84833 20.7612 1.83627 20.7349 1.82397 20.7087C1.8127 20.6848 1.80092 20.661 1.79077 20.6365C1.779 20.6079 1.76964 20.5786 1.75952 20.5496C1.75223 20.5287 1.74353 20.5083 1.73706 20.4871C1.7299 20.4635 1.72461 20.4395 1.71851 20.4158C1.6844 20.283 1.66482 20.1442 1.66479 20.0007C1.66479 19.8592 1.68336 19.7218 1.71655 19.5906C1.72314 19.5645 1.72919 19.5382 1.73706 19.5125C1.74355 19.4912 1.75222 19.4708 1.75952 19.45C1.76976 19.4207 1.77885 19.3909 1.79077 19.3621C1.80084 19.3378 1.81281 19.3144 1.82397 19.2908C1.83628 19.2646 1.84832 19.2383 1.86206 19.2126C1.90425 19.1341 1.9538 19.0603 2.00757 18.99C2.05206 18.9318 2.09989 18.8752 2.15308 18.822L7.15308 13.822C7.80395 13.1711 8.85865 13.1711 9.50952 13.822C10.1604 14.4729 10.1604 15.5276 9.50952 16.1785L7.35425 18.3337H32.6404L30.4861 16.1785C29.8353 15.5276 29.8353 14.4729 30.4861 13.822Z" fill="white"/>
<path d="M20.0383 1.66882C20.0703 1.66955 20.1022 1.67115 20.134 1.67371C20.154 1.6753 20.1739 1.6763 20.1936 1.67859C20.2279 1.68258 20.2621 1.68809 20.2961 1.69421C20.3151 1.69762 20.334 1.70091 20.3528 1.70496C20.3856 1.71204 20.418 1.72126 20.4504 1.73035C20.4696 1.73573 20.4891 1.73992 20.5081 1.74597C20.5365 1.75504 20.564 1.76659 20.592 1.77722C20.6136 1.78541 20.6354 1.79259 20.6565 1.80164C20.8459 1.88275 21.0233 2.00052 21.178 2.15515L26.178 7.15515C26.8288 7.80603 26.8288 8.86075 26.178 9.5116C25.5271 10.1624 24.4724 10.1624 23.8215 9.5116L21.6663 7.35632V32.6425L23.8215 30.4882C24.4724 29.8375 25.5272 29.8375 26.178 30.4882C26.8288 31.139 26.8287 32.1937 26.178 32.8446L21.1887 37.8329C21.1476 37.8748 21.1052 37.9156 21.0598 37.953C21.0423 37.9674 21.023 37.9794 21.0051 37.993C20.9332 38.0476 20.858 38.098 20.7776 38.1405C20.771 38.144 20.7637 38.1459 20.7571 38.1493C20.6678 38.195 20.5745 38.2334 20.4768 38.2626C20.4681 38.2652 20.4592 38.267 20.4504 38.2694C20.4071 38.2816 20.3633 38.293 20.3186 38.3016C20.3118 38.303 20.3049 38.3033 20.2981 38.3046C20.2536 38.3126 20.2089 38.3206 20.1633 38.3251C20.1464 38.3267 20.1295 38.3269 20.1125 38.328C20.0754 38.3305 20.038 38.3339 20.0002 38.3339C19.9633 38.3339 19.9263 38.3304 19.8899 38.328C19.8717 38.3268 19.8534 38.3269 19.8352 38.3251C19.7966 38.3213 19.7587 38.3148 19.7209 38.3085C19.707 38.3061 19.6929 38.3044 19.679 38.3016C19.6366 38.2934 19.5951 38.2828 19.554 38.2714C19.5432 38.2684 19.5324 38.2658 19.5217 38.2626C19.4241 38.2334 19.3307 38.195 19.2415 38.1493C19.2361 38.1466 19.2301 38.1452 19.2249 38.1425L19.2053 38.1327C19.1306 38.0921 19.0607 38.0442 18.9934 37.993C18.9757 37.9796 18.957 37.9673 18.9397 37.953C18.8949 37.916 18.8525 37.8763 18.8118 37.8348L13.8215 32.8446C13.1708 32.1937 13.1707 31.139 13.8215 30.4882C14.4724 29.8375 15.5271 29.8375 16.178 30.4882L18.3333 32.6434V7.35632L16.178 9.5116C15.5271 10.1624 14.4724 10.1624 13.8215 9.5116C13.1707 8.86073 13.1707 7.80603 13.8215 7.15515L18.8215 2.15515C18.8971 2.07959 18.9797 2.01104 19.0686 1.95105C19.1037 1.92736 19.1396 1.90538 19.176 1.88464C19.2566 1.83875 19.3417 1.80056 19.4299 1.76843C19.4505 1.76096 19.4707 1.75261 19.4915 1.74597C19.5155 1.73826 19.5401 1.73209 19.5647 1.72546C19.5923 1.71802 19.6199 1.71096 19.6477 1.70496C19.6696 1.70024 19.6919 1.69708 19.7141 1.69324C19.744 1.68804 19.7738 1.68215 19.804 1.67859C19.8292 1.67564 19.8546 1.67454 19.8801 1.67273C19.9075 1.67076 19.9348 1.66945 19.9622 1.66882C19.9747 1.66854 19.9876 1.66687 20.0002 1.66687C20.013 1.66687 20.0257 1.66854 20.0383 1.66882Z" fill="white"/>
</svg>
