<svg width="40" height="40" viewBox="0 0 40 40" fill="none" xmlns="http://www.w3.org/2000/svg">
<path d="M20.0002 30.8334C20.9206 30.8335 21.6671 31.5791 21.6672 32.4994V36.6664C21.6672 37.5868 20.9206 38.3333 20.0002 38.3334C19.0798 38.3334 18.3333 37.5868 18.3333 36.6664V32.4994C18.3334 31.579 19.0798 30.8334 20.0002 30.8334ZM13.3333 6.66638C14.2537 6.66638 15.0002 7.4129 15.0002 8.33337C15 9.25364 14.2536 9.99939 13.3333 9.99939H8.33325C8.04197 9.99946 7.61098 10.1621 7.21997 10.5531C6.82899 10.9441 6.66724 11.3751 6.66724 11.6664V28.3334C6.6674 28.6246 6.82908 29.0558 7.21997 29.4467C7.61094 29.8376 8.04201 29.9993 8.33325 29.9994H13.3333C14.2537 29.9994 15.0002 30.7459 15.0002 31.6664C15.0002 32.5868 14.2537 33.3334 13.3333 33.3334H8.33325C6.95801 33.3333 5.72239 32.6619 4.86353 31.8031C4.00471 30.9443 3.3334 29.7086 3.33325 28.3334V11.6664C3.33325 10.2911 4.00469 9.05556 4.86353 8.19666C5.7224 7.33778 6.95794 6.66644 8.33325 6.66638H13.3333ZM31.6672 6.66638C33.0425 6.66652 34.2781 7.33783 35.137 8.19666C35.9957 9.05555 36.6672 10.2911 36.6672 11.6664V28.3334C36.6671 29.7086 35.9958 30.9443 35.137 31.8031C34.2781 32.6619 33.0424 33.3332 31.6672 33.3334H26.6672C25.7468 33.3334 25.0003 32.5868 25.0002 31.6664C25.0002 30.7459 25.7468 29.9994 26.6672 29.9994H31.6672C31.9585 29.9992 32.3896 29.8375 32.7805 29.4467C33.1714 29.0558 33.3331 28.6246 33.3333 28.3334V11.6664C33.3333 11.3752 33.1714 10.9441 32.7805 10.5531C32.3896 10.1622 31.9585 9.99955 31.6672 9.99939H26.6672C25.7469 9.99939 25.0005 9.25364 25.0002 8.33337C25.0002 7.4129 25.7468 6.66638 26.6672 6.66638H31.6672ZM20.0002 14.1664C20.9207 14.1665 21.6672 14.9129 21.6672 15.8334V24.1664C21.6672 25.0868 20.9206 25.8333 20.0002 25.8334C19.0798 25.8334 18.3333 25.0868 18.3333 24.1664V15.8334C18.3333 14.9129 19.0798 14.1664 20.0002 14.1664ZM20.0002 1.66638C20.9207 1.66646 21.6672 2.41295 21.6672 3.33337V7.49939C21.6672 8.41982 20.9207 9.1663 20.0002 9.16638C19.0798 9.16638 18.3333 8.41986 18.3333 7.49939V3.33337C18.3333 2.4129 19.0798 1.66638 20.0002 1.66638Z" fill="white"/>
</svg>
