<svg width="40" height="40" viewBox="0 0 40 40" fill="none" xmlns="http://www.w3.org/2000/svg">
<path d="M18.8567 0.931702C19.5537 0.221763 20.6978 0.221763 21.3948 0.931702L24.4465 4.04108C24.8534 4.45543 25.4373 4.64501 26.01 4.54889L30.3069 3.82721C31.288 3.66266 32.2131 4.33544 32.3596 5.3194L33.0012 9.62799C33.0868 10.2024 33.4481 10.6992 33.968 10.9581L37.8674 12.9005C38.758 13.3439 39.1114 14.4313 38.6516 15.3135L36.6379 19.1778C36.3698 19.6927 36.3696 20.3065 36.6379 20.8214L38.6516 24.6846C39.1114 25.5669 38.758 26.6542 37.8674 27.0977L33.968 29.0401C33.4481 29.299 33.0868 29.7957 33.0012 30.3702L32.3596 34.6788C32.2131 35.6627 31.288 36.3355 30.3069 36.171L26.01 35.4493C25.4373 35.3532 24.8534 35.5436 24.4465 35.9581L21.3948 39.0665C20.6978 39.7764 19.5537 39.7764 18.8567 39.0665L15.8049 35.9581C15.3981 35.5437 14.8142 35.3532 14.2415 35.4493L9.94458 36.171C8.96345 36.3356 8.03841 35.6628 7.89185 34.6788L7.24927 30.3702C7.16371 29.7957 6.80332 29.299 6.28345 29.0401L2.38306 27.0977C1.49295 26.6541 1.13934 25.5667 1.59888 24.6846L3.61255 20.8214C3.88093 20.3064 3.88086 19.6928 3.61255 19.1778L1.59888 15.3135C1.13941 14.4315 1.49295 13.344 2.38306 12.9005L6.28345 10.9581C6.80332 10.6992 7.16371 10.2024 7.24927 9.62799L7.89185 5.3194C8.03841 4.3354 8.96345 3.66257 9.94458 3.82721L14.2415 4.54889C14.8141 4.64496 15.3981 4.45545 15.8049 4.04108L18.8567 0.931702ZM28.7805 12.1153C27.6089 10.9442 25.7098 10.9439 24.5383 12.1153L15.9651 20.6885L13.2249 17.9483C12.0533 16.7774 10.1541 16.7771 8.98267 17.9483C7.81123 19.1197 7.81152 21.0199 8.98267 22.1915L13.844 27.0518C14.4065 27.6143 15.1696 27.9306 15.9651 27.9307C16.7607 27.9307 17.5236 27.6144 18.0862 27.0518L28.7805 16.3575C29.952 15.1859 29.952 13.2869 28.7805 12.1153Z" fill="#121212"/>
</svg>
