<svg width="40" height="40" viewBox="0 0 40 40" fill="none" xmlns="http://www.w3.org/2000/svg">
<path d="M20.0017 1.66992C20.8763 1.67 21.7348 1.90095 22.4929 2.33691L22.4949 2.33594L34.1619 9.00195L34.1677 9.00684L34.446 9.17969C35.0816 9.60444 35.6138 10.1707 35.9978 10.835C36.4363 11.5939 36.6668 12.4556 36.6677 13.332V26.668C36.6668 27.5445 36.4363 28.4061 35.9978 29.165C35.559 29.9241 34.927 30.5548 34.1677 30.9932L34.1619 30.998L22.4949 37.6641L22.4929 37.6631C21.7348 38.099 20.8763 38.33 20.0017 38.3301C19.1264 38.3301 18.2662 38.0996 17.5076 37.6631V37.6641L5.84155 30.998L5.83472 30.9932C5.07551 30.5548 4.44438 29.924 4.00562 29.165C3.567 28.4061 3.33563 27.5446 3.33472 26.668V13.332L3.34644 13.0029C3.39741 12.2408 3.62203 11.4988 4.00562 10.835C4.44435 10.076 5.07558 9.4452 5.83472 9.00684L5.84155 9.00195L17.5076 2.33594V2.33691C18.2662 1.90032 19.1263 1.66992 20.0017 1.66992ZM20.0017 5.00293C19.7092 5.00293 19.4211 5.08033 19.1677 5.22656L19.1619 5.22949L7.49976 11.8916L7.50171 11.8926C7.24874 12.0386 7.03761 12.2501 6.89136 12.5029C6.74542 12.7558 6.66802 13.043 6.66772 13.335V26.665L6.68237 26.8828C6.71107 27.0983 6.78196 27.3076 6.89136 27.4971C7.03632 27.7477 7.2449 27.9567 7.49487 28.1025L19.1619 34.7686L19.1677 34.7734C19.421 34.9196 19.7093 34.9971 20.0017 34.9971C20.294 34.997 20.5816 34.9195 20.8347 34.7734L20.8416 34.7686L32.5076 28.1025C32.7577 27.9566 32.9671 27.7478 33.1121 27.4971C33.2577 27.2448 33.334 26.9583 33.3347 26.667V13.335L33.3201 13.1172C33.2914 12.9017 33.2214 12.6924 33.1121 12.5029C32.9658 12.25 32.7547 12.0387 32.5017 11.8926V11.8916L20.8416 5.22949L20.8347 5.22656C20.5815 5.08041 20.2941 5.00301 20.0017 5.00293Z" fill="white"/>
<path d="M23.6877 14.9181C25.1793 14.9181 26.3992 15.3891 27.2463 16.2736C28.0923 17.1568 28.5427 18.4278 28.5461 19.9836V19.9845C28.5427 21.5467 28.0924 22.8245 27.2395 23.713C26.3853 24.6027 25.1518 25.0773 23.634 25.0773H21.4514C20.7201 25.0771 20.1272 24.4835 20.1272 23.7521V16.2423C20.1274 15.5111 20.7202 14.9183 21.4514 14.9181H23.6877ZM22.3665 16.8644C22.3272 16.8644 22.2953 16.8964 22.2952 16.9357V23.0597C22.2954 23.0989 22.3272 23.131 22.3665 23.131H23.5413C24.5162 23.1342 25.2129 22.8662 25.6692 22.3644C26.1288 21.8587 26.3781 21.0781 26.3782 19.9845C26.3782 18.8977 26.1286 18.1232 25.675 17.6222C25.2251 17.1253 24.5422 16.8612 23.595 16.8644H22.3665Z" fill="white" stroke="white" stroke-width="0.427646"/>
<path d="M15.2798 14.7861C17.3335 14.7861 18.7315 16.0616 18.7192 17.6992L18.7134 17.918C18.6496 18.79 18.1377 19.4593 17.3853 19.8076C17.8338 19.9539 18.2075 20.1873 18.4897 20.5C18.8851 20.9379 19.0878 21.5116 19.0815 22.1621L19.0776 22.3301C18.9905 24.051 17.3457 25.2137 15.2534 25.2139C13.6378 25.2139 12.3205 24.5456 11.7495 23.4297C11.5627 23.0643 11.6459 22.6966 11.8696 22.4336C12.0875 22.1774 12.4376 22.0176 12.8101 22.0176C13.2691 22.0176 13.6661 22.2624 13.9341 22.5967C14.2357 22.973 14.6461 23.3116 15.2515 23.3076H15.2544C15.7482 23.3107 16.1568 23.1749 16.437 22.9551C16.7136 22.738 16.8734 22.4343 16.8735 22.0703C16.8735 21.7008 16.7175 21.3876 16.4243 21.1611C16.1265 20.931 15.6739 20.7815 15.0776 20.7783V20.7773C14.6035 20.7766 14.2195 20.3932 14.2192 19.9189V19.8662C14.2194 19.3916 14.604 19.0071 15.0786 19.0068C15.5553 19.0068 15.9414 18.873 16.2026 18.6602C16.4603 18.4501 16.6077 18.1549 16.605 17.7979V17.7939C16.6079 17.4414 16.4789 17.1593 16.2573 16.9629C16.0332 16.7642 15.6972 16.6387 15.2661 16.6387C14.7058 16.6388 14.2769 16.8677 14.0122 17.2227C13.749 17.5756 13.3444 17.9688 12.8081 17.9688C12.4915 17.9686 12.195 17.8346 12.0044 17.6162C11.8094 17.3926 11.7266 17.0788 11.8589 16.7568C12.3618 15.5341 13.7053 14.7861 15.2798 14.7861Z" fill="white" stroke="white" stroke-width="0.427646"/>
</svg>
