<svg width="40" height="40" viewBox="0 0 40 40" fill="none" xmlns="http://www.w3.org/2000/svg">
<path d="M33.3326 19.9997C33.3326 16.4635 31.9285 13.0714 29.428 10.571C26.9283 8.07125 23.5376 6.6672 20.0026 6.66634C16.2403 6.68127 12.6294 8.14966 9.92443 10.7646L6.17769 14.5114C5.52682 15.1623 4.47179 15.1623 3.82092 14.5114C3.17005 13.8605 3.17005 12.8055 3.82092 12.1546L7.58719 8.38835L8.24312 7.78288C11.4867 4.93639 15.658 3.34937 19.9928 3.33301H19.9993L20.8261 3.35417C24.9454 3.55862 28.8546 5.28403 31.7848 8.21419C34.9104 11.3398 36.666 15.5794 36.666 19.9997C36.666 20.9201 35.9198 21.6663 34.9993 21.6663C34.0788 21.6663 33.3326 20.9201 33.3326 19.9997Z" fill="white"/>
<path d="M3.33276 4.99967C3.33276 4.0792 4.07896 3.33301 4.99943 3.33301C5.9199 3.33301 6.6661 4.0792 6.6661 4.99967V11.6663H13.3328C14.2532 11.6663 14.9994 12.4125 14.9994 13.333C14.9994 14.2535 14.2532 14.9997 13.3328 14.9997H4.99943C4.07896 14.9997 3.33276 14.2535 3.33276 13.333V4.99967Z" fill="white"/>
<path d="M3.33276 19.9997C3.33276 19.0792 4.07896 18.333 4.99943 18.333C5.9199 18.333 6.6661 19.0792 6.6661 19.9997C6.6661 23.5359 8.07023 26.9279 10.5707 29.4284C13.0701 31.9277 16.4601 33.3301 19.9945 33.3314C23.7574 33.3169 27.3689 31.8501 30.0743 29.2347L33.821 25.488C34.4719 24.8371 35.5269 24.8371 36.1778 25.488C36.8287 26.1388 36.8287 27.1939 36.1778 27.8447L32.4115 31.611L31.7556 32.2165C28.5121 35.063 24.3407 36.65 20.0059 36.6663H19.9994C15.5792 36.6663 11.3396 34.9108 8.21395 31.7852C5.08834 28.6595 3.33276 24.4199 3.33276 19.9997Z" fill="white"/>
<path d="M33.3328 34.9999V28.3332H26.6662C25.7457 28.3332 24.9995 27.587 24.9995 26.6665C24.9995 25.7461 25.7457 24.9999 26.6662 24.9999H34.9995C35.92 24.9999 36.6662 25.7461 36.6662 26.6665V34.9999C36.6662 35.9204 35.92 36.6665 34.9995 36.6665C34.079 36.6665 33.3328 35.9204 33.3328 34.9999Z" fill="white"/>
<path d="M19.9994 21.6663C20.9199 21.6663 21.6661 20.9201 21.6661 19.9997C21.6661 19.0792 20.9199 18.333 19.9994 18.333C19.079 18.333 18.3328 19.0792 18.3328 19.9997C18.3328 20.9201 19.079 21.6663 19.9994 21.6663Z" stroke="white" stroke-width="3.33333" stroke-linecap="round" stroke-linejoin="round"/>
</svg>
