<svg width="40" height="40" viewBox="0 0 40 40" fill="none" xmlns="http://www.w3.org/2000/svg">
<path d="M18.3318 3.3334C26.616 3.3335 33.3318 10.0492 33.3318 18.3334C33.3318 21.8751 32.1023 25.1286 30.0496 27.6947L36.1765 33.8217C36.8272 34.4725 36.8273 35.5273 36.1765 36.1781C35.5257 36.829 34.471 36.8289 33.8201 36.1781L27.6941 30.0522C25.128 32.105 21.8736 33.3334 18.3318 33.3334C10.0475 33.3334 3.3318 26.6177 3.33179 18.3334C3.33179 10.0491 10.0475 3.3334 18.3318 3.3334ZM18.3318 6.66641C11.8885 6.66641 6.66479 11.8901 6.66479 18.3334C6.6648 24.7767 11.8885 30.0004 18.3318 30.0004C24.775 30.0003 29.9978 24.7767 29.9978 18.3334C29.9978 11.8901 24.775 6.66651 18.3318 6.66641Z" fill="white"/>
</svg>
