<svg width="40" height="40" viewBox="0 0 40 40" fill="none" xmlns="http://www.w3.org/2000/svg">
<path d="M4.16805 30C3.70781 30 3.33472 29.6269 3.33472 29.1667V10.8333C3.33472 10.3731 3.70781 10 4.16805 10H5.83472C6.29495 10 6.66805 10.3731 6.66805 10.8333V29.1667C6.66805 29.6269 6.29495 30 5.83472 30H4.16805ZM27.8348 28.8333C27.1887 29.4793 26.1428 29.4839 25.4911 28.8437C24.8311 28.1953 24.8264 27.1333 25.4806 26.4791L30.293 21.6667H15.0014C14.0809 21.6667 13.3347 20.9205 13.3347 20C13.3347 19.0795 14.0809 18.3333 15.0014 18.3333H30.293L25.4953 13.502C24.8537 12.8559 24.8555 11.8126 25.4993 11.1687C26.1448 10.5232 27.1913 10.5232 27.8367 11.1687L36.668 20L27.8348 28.8333Z" fill="white"/>
</svg>
