<svg width="40" height="40" viewBox="0 0 40 40" fill="none" xmlns="http://www.w3.org/2000/svg">
<g clip-path="url(#clip0_3759_28095)">
<path d="M21.3095 -4.99571C22.6873 -5.07579 23.8686 -4.02482 23.9495 -2.64708C23.992 -1.92002 23.8799 -0.327767 23.7884 0.835994C23.7384 1.47173 23.686 2.0736 23.6468 2.51568C23.6272 2.73694 23.6112 2.91931 23.5996 3.04628C23.5951 3.09471 23.5895 3.13511 23.5866 3.16672C23.565 3.67176 23.6023 4.11399 23.6452 4.42649C23.666 4.57843 23.6875 4.69472 23.7021 4.76666C23.9744 5.57123 24.1082 6.59778 24.1904 7.4522C24.2899 8.48609 24.3453 9.64932 24.3776 10.7188C24.4101 11.7944 24.419 12.8065 24.4199 13.5476C24.4203 13.9189 24.4183 14.2245 24.4166 14.4379C24.4158 14.544 24.4157 14.6276 24.415 14.6853L24.7698 21.1176V21.1322C24.8078 21.9069 24.8615 22.5025 24.9017 22.8786L25.5739 23.9398C25.7585 24.2277 25.9156 24.514 26.0491 24.7764L26.0589 24.7943L27.0176 26.7165C27.4319 27.4387 27.658 28.1403 27.7809 28.6501C27.8477 28.9273 27.889 29.1652 27.9144 29.3435C27.9158 29.3538 27.9163 29.3645 27.9176 29.3744L28.0804 29.9441H28.0788C28.4501 31.2086 27.8882 32.7208 26.4544 33.279L26.456 33.2807C26.4519 33.2823 26.4471 33.2823 26.443 33.2839L26.4381 33.2872L26.4365 33.2855C26.1588 33.3925 25.8927 33.4552 25.639 33.4874C25.6212 33.7828 25.5977 34.0545 25.5625 34.3044C25.474 34.9334 25.3102 35.589 24.9668 36.1648C24.5848 36.8049 23.9259 37.4149 22.9795 37.5873C22.8692 37.6074 22.7618 37.6199 22.6588 37.6264C22.4787 37.7884 22.2695 37.9398 22.0208 38.0609C21.6263 38.2529 21.222 38.333 20.8489 38.3327C20.7383 38.3326 20.634 38.3234 20.5364 38.3116C19.9869 38.2557 19.5546 38.0417 19.2246 37.794C18.2669 37.6758 17.6471 37.0536 17.3838 36.7035C17.1967 36.4548 17.0681 36.1983 16.9769 35.9809C16.3879 35.6229 16.0507 35.1107 15.9238 34.8887C15.6573 34.422 15.5251 33.9281 15.4518 33.6013C15.2942 32.8984 15.2206 32.0653 15.1816 31.3666C15.141 30.6374 15.1314 29.9195 15.1312 29.3923C15.1311 29.1264 15.1336 28.9036 15.136 28.7462C15.1373 28.6675 15.1383 28.6047 15.1393 28.5606C15.1398 28.5386 15.139 28.5209 15.1393 28.5085C15.1395 28.5024 15.1408 28.4975 15.1409 28.4939V28.4874L15.1426 28.4434L15.1442 28.4011C15.2583 26.5417 15.6426 24.8116 15.8359 24.0212C15.6372 22.844 15.0467 19.9846 14.4883 17.3497C14.2112 16.0422 13.9476 14.8101 13.7526 13.9057C13.6551 13.4538 13.5739 13.0836 13.5182 12.8266C13.4904 12.6984 13.4695 12.5983 13.4547 12.5303C13.4473 12.4963 13.4406 12.4696 13.4368 12.4522C13.435 12.4438 13.4345 12.437 13.4336 12.4327C13.4331 12.4306 13.4319 12.4278 13.4319 12.4278V12.4262L13.4189 12.3676L13.4092 12.3073C13.1656 10.8525 13.1349 9.68705 13.1748 8.84706C13.1947 8.42756 13.2323 8.0896 13.2692 7.83957C13.2876 7.7147 13.3055 7.61112 13.3213 7.53033C13.3227 7.52305 13.3248 7.51609 13.3262 7.50917C13.3892 7.09347 13.3728 6.69307 13.3343 6.3845C13.315 6.23042 13.2912 6.11118 13.2757 6.04107C13.268 6.00637 13.2628 5.98446 13.261 5.9776C12.7633 4.26332 12.4539 2.39596 12.2682 1.00201C12.1739 0.294253 12.1079 -0.312218 12.0664 -0.74441C12.0456 -0.960899 12.0308 -1.13553 12.0208 -1.25711C12.0159 -1.31749 12.012 -1.36505 12.0094 -1.39871C12.0081 -1.41561 12.0085 -1.42966 12.0078 -1.4394C12.0075 -1.44408 12.0064 -1.44785 12.0062 -1.45079V-1.4573C11.9101 -2.83456 12.9482 -4.02875 14.3255 -4.12494C15.6167 -4.21512 16.7466 -3.3081 16.9622 -2.05951L16.9931 -1.80561C16.9931 -1.80561 16.993 -1.80275 16.9931 -1.80072C16.9935 -1.79574 16.9955 -1.78763 16.9964 -1.77631C16.9982 -1.75241 17.0004 -1.71412 17.0045 -1.66401C17.0077 -1.6252 17.0113 -1.57889 17.0159 -1.52566L14.555 -0.983668C14.6724 0.239833 14.9919 2.97675 15.665 5.29075C15.6731 5.31802 16.0216 6.51108 15.7887 7.94537C15.7887 7.94537 15.4488 9.34751 15.875 11.8939C15.875 11.8939 17.8899 21.151 18.305 23.6192L18.3343 23.8666C18.35 24.1151 18.3263 24.365 18.2676 24.6088C18.0881 25.3417 17.7403 26.9089 17.6393 28.5541C17.6393 28.5541 17.4939 33.9129 18.3799 33.8617C18.3799 33.8617 18.9974 34.0892 18.6907 31.6547C18.6888 31.6298 18.5801 30.194 18.72 30.3005C18.72 30.3005 18.8744 30.4962 18.9267 32.1641C18.9274 32.2102 18.9717 35.392 19.5875 35.3119C19.5875 35.3119 20.2605 35.5884 20.0286 32.0095C20.0267 31.9713 19.9621 30.6293 20.1832 30.5593C20.1923 30.5496 20.4287 30.3192 20.359 32.7403C20.3564 32.7942 20.2113 35.8279 20.8229 35.8279C20.8433 35.8343 21.5005 36.0183 21.3974 32.6752C21.3946 32.6262 21.2682 30.3624 21.7083 30.3917C21.7083 30.3917 22.0791 30.2453 21.9557 32.5938C21.9552 32.6133 21.8938 35.2081 22.3968 35.115C22.4197 35.1262 23.2708 35.5175 23.1601 31.9167C23.1598 31.8992 23.0972 28.4931 23.5817 28.5622C23.5817 28.5622 23.9411 28.4881 24.0944 29.5502C24.1468 29.909 24.2733 30.2611 24.5013 30.5414C24.7517 30.8516 25.1148 31.1194 25.5446 30.9516C25.6715 30.903 25.7284 30.7542 25.6764 30.6309L25.4599 29.8708C25.4584 29.85 25.3819 28.8324 24.8008 27.8738L23.8209 25.9109C23.7126 25.6979 23.5964 25.4888 23.4694 25.2907L22.6702 24.0261C22.5777 23.8803 22.5089 23.7199 22.47 23.5525L22.4407 23.3832C22.3921 22.9793 22.3217 22.2453 22.2731 21.2543L21.9134 14.7406C21.9134 14.7406 22.0258 7.30905 21.2965 5.46165C21.2887 5.43152 21.0251 4.40113 21.0915 3.0121C21.0972 2.95141 21.5138 -1.48294 21.4544 -2.50059L18.9528 -1.95209C18.9537 -1.98068 18.957 -2.00831 18.9577 -2.0351C18.9601 -2.12887 18.961 -2.20545 18.9609 -2.26459C18.9609 -2.29377 18.9597 -2.31648 18.9593 -2.33295C18.959 -2.34484 18.9594 -2.3517 18.9593 -2.35411C18.8788 -3.73247 19.9312 -4.91522 21.3095 -4.99571ZM23.7184 4.84315C23.7193 4.8469 23.72 4.84641 23.72 4.84641L23.7168 4.83339V4.83013L23.7151 4.82851C23.7166 4.83475 23.7177 4.84001 23.7184 4.84315Z" fill="white"/>
</g>
<defs>
<clipPath id="clip0_3759_28095">
<rect width="40" height="40" fill="white"/>
</clipPath>
</defs>
</svg>
