<svg width="40" height="40" viewBox="0 0 40 40" fill="none" xmlns="http://www.w3.org/2000/svg">
<path d="M33.6667 8.75004C33.6667 7.23358 32.7425 6.66701 32.3337 6.66671H8.33309C7.92438 6.66701 7.00008 7.23358 7.00008 8.75004V31.25C7.00008 32.7665 7.92438 33.3331 8.33309 33.3334H32.3337C32.7425 33.3331 33.6667 32.7665 33.6667 31.25V8.75004ZM37.0001 31.25C37.0001 33.8752 35.2387 36.6665 32.3337 36.6667H8.33309C5.42812 36.6665 3.66675 33.8752 3.66675 31.25V8.75004C3.66675 6.12487 5.42812 3.33358 8.33309 3.33337H32.3337C35.2387 3.33358 37.0001 6.12487 37.0001 8.75004V31.25Z" fill="white"/>
<circle cx="15.5356" cy="15.2022" r="2.5" transform="rotate(45 15.5356 15.2022)" fill="#FF8E2B"/>
<path d="M27.8138 24.0511L26.1862 25.9489L14.5195 15.9489L16.1471 14.0511L27.8138 24.0511Z" fill="#FF8E2B"/>
<circle cx="27.2021" cy="25.2022" r="2.5" transform="rotate(45 27.2021 25.2022)" fill="#FF8E2B"/>
<rect x="22" y="10" width="8.33333" height="6.66667" rx="0.833333" fill="white"/>
<rect x="10.3333" y="23.3334" width="10" height="6.66667" rx="0.833333" fill="white"/>
</svg>
