<svg width="40" height="40" viewBox="0 0 40 40" fill="none" xmlns="http://www.w3.org/2000/svg">
<path d="M33.3345 4.99976C36.0956 5.00007 38.3344 7.23863 38.3345 9.99976V29.9998C38.3343 32.7609 36.0956 34.9994 33.3345 34.9998H6.66553C3.90436 34.9995 1.66556 32.761 1.66553 29.9998L1.6665 15.0271C1.66636 15.018 1.66553 15.0089 1.66553 14.9998C1.66553 14.9901 1.66634 14.9801 1.6665 14.9705L1.66748 9.99976C1.66758 7.23842 3.90616 4.99979 6.66748 4.99976H33.3345ZM4.99951 29.9998C4.99961 30.92 5.74536 31.6655 6.66553 31.6658H18.3325V16.6658H5.00049L4.99951 29.9998ZM6.66748 8.33276C5.74707 8.33281 5.00052 9.07933 5.00049 9.99976V13.3328H24.9995C26.3255 13.3328 27.597 13.86 28.5347 14.7976C29.4722 15.7353 29.9995 17.0068 29.9995 18.3328V31.6658H33.3345C34.2546 31.6655 35.0004 30.9199 35.0005 29.9998V9.99976C35.0004 9.07958 34.2546 8.33308 33.3345 8.33276H6.66748ZM21.6655 31.6658H26.6655V18.3328C26.6655 17.8907 26.4898 17.4666 26.1772 17.1541C25.8648 16.8417 25.4413 16.6658 24.9995 16.6658H21.6655V31.6658Z" fill="white"/>
</svg>
