<svg width="40" height="40" viewBox="0 0 40 40" fill="none" xmlns="http://www.w3.org/2000/svg">
<path d="M4.99959 6.66622V11.6662H34.9996V6.66622H4.99959ZM38.3329 11.6662C38.3329 13.5072 36.8405 14.9996 34.9996 14.9996H4.99959C3.15864 14.9996 1.66626 13.5072 1.66626 11.6662V6.66622C1.66626 4.82527 3.15864 3.33289 4.99959 3.33289H34.9996C36.8405 3.33289 38.3329 4.82527 38.3329 6.66622V11.6662Z" fill="white"/>
<path d="M4.99951 31.6666V13.3333C4.99951 12.4128 5.7457 11.6666 6.66618 11.6666C7.58665 11.6666 8.33284 12.4128 8.33284 13.3333V31.6666C8.33284 32.1087 8.50857 32.5324 8.82113 32.845C9.13369 33.1576 9.55748 33.3333 9.99951 33.3333H14.9995C15.92 33.3333 16.6662 34.0795 16.6662 35C16.6662 35.9204 15.92 36.6666 14.9995 36.6666H9.99951C8.67343 36.6666 7.40204 36.1395 6.46436 35.2018C5.52667 34.2641 4.99951 32.9927 4.99951 31.6666ZM31.6662 18.3333V13.3333C31.6662 12.4128 32.4124 11.6666 33.3328 11.6666C34.2533 11.6666 34.9995 12.4128 34.9995 13.3333V18.3333C34.9995 19.2538 34.2533 20 33.3328 20C32.4124 20 31.6662 19.2538 31.6662 18.3333Z" fill="white"/>
<path d="M23.3328 18.3329C24.2533 18.3329 24.9995 19.0791 24.9995 19.9996C24.9995 20.92 24.2533 21.6662 23.3328 21.6662H16.6662C15.7457 21.6662 14.9995 20.92 14.9995 19.9996C14.9995 19.0791 15.7457 18.3329 16.6662 18.3329H23.3328Z" fill="white"/>
<path d="M29.9468 23.2828C30.4349 22.7947 31.2262 22.7949 31.7144 23.2828L34.2144 25.7828C34.7025 26.271 34.7025 27.0623 34.2144 27.5504L31.7144 30.0504C31.2262 30.5384 30.4349 30.5385 29.9468 30.0504C29.4589 29.5623 29.4588 28.7709 29.9468 28.2828L30.313 27.9166H23.3306C22.6404 27.9164 22.0806 27.3568 22.0806 26.6666C22.0806 25.9765 22.6404 25.4169 23.3306 25.4166H30.313L29.9468 25.0504C29.4589 24.5623 29.4588 23.7709 29.9468 23.2828Z" fill="white"/>
<path d="M23.2834 29.9492C23.7716 29.4611 24.5629 29.4611 25.051 29.9492C25.5391 30.4374 25.5392 31.2287 25.051 31.7168L24.6848 32.083H31.6672C32.3576 32.083 32.9172 32.6427 32.9172 33.333C32.9172 34.0233 32.3576 34.583 31.6672 34.583H24.6848L25.051 34.9492C25.5391 35.4374 25.5392 36.2287 25.051 36.7168C24.5629 37.2048 23.7716 37.2049 23.2834 36.7168L20.7834 34.2168C20.2953 33.7287 20.2955 32.9374 20.7834 32.4492L23.2834 29.9492Z" fill="white"/>
</svg>
