<svg width="40" height="40" viewBox="0 0 40 40" fill="none" xmlns="http://www.w3.org/2000/svg">
<path d="M20.0039 3.33289C29.2085 3.33303 36.6699 10.7952 36.6699 19.9999C36.6697 29.2043 29.2084 36.6657 20.0039 36.6659C10.7993 36.6659 3.33716 29.2044 3.33691 19.9999C3.33691 10.7951 10.7992 3.33289 20.0039 3.33289ZM26.1826 15.4872C25.5318 14.8363 24.4761 14.8364 23.8252 15.4872L18.3369 20.9755L16.1826 18.8212C15.5318 18.1703 14.4761 18.1704 13.8252 18.8212C13.1747 19.472 13.1746 20.5268 13.8252 21.1776L17.1592 24.5106C17.8101 25.1614 18.8648 25.1615 19.5156 24.5106L26.1826 17.8446C26.8333 17.1938 26.8333 16.138 26.1826 15.4872Z" fill="#0995FF"/>
</svg>
