<svg width="40" height="40" viewBox="0 0 40 40" fill="none" xmlns="http://www.w3.org/2000/svg">
<path d="M20.0014 36.6665C29.2061 36.6665 36.668 29.2045 36.668 19.9998C36.668 10.795 29.2061 3.33313 20.0014 3.33313C10.7966 3.33313 3.33472 10.795 3.33472 19.9998C3.33472 29.2045 10.7966 36.6665 20.0014 36.6665Z" fill="#FF7700"/>
<path d="M35.0013 20.0002C35.0013 11.7159 28.2856 5.0002 20.0013 5.0002C11.717 5.0002 5.0013 11.7159 5.0013 20.0002C5.0013 28.2845 11.717 35.0002 20.0013 35.0002C28.2856 35.0002 35.0013 28.2845 35.0013 20.0002ZM38.3346 20.0002C38.3346 30.1254 30.1265 38.3335 20.0013 38.3335C9.87608 38.3335 1.66797 30.1254 1.66797 20.0002C1.66797 9.87498 9.87608 1.66687 20.0013 1.66687C30.1265 1.66687 38.3346 9.87498 38.3346 20.0002Z" fill="white"/>
<path d="M15.0015 20.0002L18.3348 23.3335L25.0015 16.6669" stroke="white" stroke-width="3.33333" stroke-linecap="round" stroke-linejoin="round"/>
</svg>
