<svg width="40" height="40" viewBox="0 0 40 40" fill="none" xmlns="http://www.w3.org/2000/svg">
<path d="M18.2503 30.0001L26.4885 21.7619C27.1394 21.1111 27.1394 20.0558 26.4885 19.4049L26.4288 19.3453C25.778 18.6944 24.7227 18.6944 24.0718 19.3453L18.2087 25.2084L15.8872 22.8869C15.2363 22.2361 14.172 22.2451 13.5212 22.8959C12.8703 23.5468 12.8613 24.6111 13.5122 25.2619L18.2503 30.0001ZM10.0003 36.6668C9.08366 36.6668 8.29894 36.3404 7.64616 35.6876C6.99338 35.0348 6.66699 34.2501 6.66699 33.3334V6.66677C6.66699 5.7501 6.99338 4.96538 7.64616 4.3126C8.29894 3.65982 9.08366 3.33344 10.0003 3.33344H21.9529C22.837 3.33344 23.6848 3.68462 24.31 4.30975L32.3573 12.3571C32.9825 12.9822 33.3337 13.8301 33.3337 14.7141V33.3334C33.3337 34.2501 33.0073 35.0348 32.3545 35.6876C31.7017 36.3404 30.917 36.6668 30.0003 36.6668H10.0003ZM21.667 15.0001V6.66677H10.0003V33.3334H30.0003V15.0001H21.667Z" fill="white"/>
</svg>
