<svg width="40" height="40" viewBox="0 0 40 40" fill="none" xmlns="http://www.w3.org/2000/svg">
<g clip-path="url(#clip0_3755_27598)">
<path d="M20.2017 0.83313C26.5521 0.833329 31.7013 5.98129 31.7017 12.3322C31.7017 12.9594 31.6492 13.5745 31.5522 14.173L31.5669 14.2023L31.4468 14.7716C30.8766 17.4796 29.3865 20.0365 27.5757 22.3322C25.7557 24.6393 23.5341 26.7799 21.3716 28.6534C20.5698 29.348 19.3718 29.3376 18.5835 28.6212V28.6193C14.2631 24.6878 11.2938 20.737 9.78955 17.215L9.7915 17.213C9.43889 16.4618 9.16587 15.669 8.98193 14.8439L8.98096 14.8448C8.97421 14.8177 8.96845 14.7936 8.96436 14.7736C8.96027 14.7535 8.95689 14.7351 8.95459 14.7218V14.7169L8.85986 14.2267L8.85693 14.2052L8.85205 14.1827C8.75374 13.5809 8.70264 12.9624 8.70264 12.3322C8.70298 5.98162 13.8511 0.833473 20.2017 0.83313ZM20.2017 4.16614C15.692 4.16643 12.0359 7.8225 12.0356 12.3322C12.0357 12.7765 12.0719 13.2129 12.1411 13.6388L12.2329 14.1124C12.3677 14.7192 12.5672 15.2989 12.8267 15.8429L12.8413 15.8741L12.856 15.9064C14.0292 18.6531 16.3837 21.9473 20.0171 25.4015C21.8084 23.7975 23.5387 22.0685 24.9585 20.2687C26.5565 18.243 27.6896 16.2176 28.1421 14.2657V14.254L28.1812 14.0685C28.3025 13.5072 28.3686 12.9261 28.3687 12.3322C28.3684 7.82268 24.7116 4.16634 20.2017 4.16614ZM19.9976 7.50012C22.4138 7.50012 24.3726 9.45888 24.3726 11.8751C24.3724 14.2913 22.4137 16.2501 19.9976 16.2501C17.5815 16.2499 15.6227 14.2911 15.6226 11.8751C15.6226 9.45899 17.5815 7.5003 19.9976 7.50012ZM8.94971 14.6886C8.94948 14.6868 8.94989 14.6849 8.94971 14.6837L8.94775 14.6808C8.94798 14.6822 8.94919 14.6854 8.94971 14.6886ZM12.2427 14.1681C12.2421 14.1644 12.2415 14.1599 12.2407 14.1554L12.2378 14.1437C12.2395 14.1532 12.2416 14.1615 12.2427 14.1681ZM19.9976 10.0001C18.9622 10.0003 18.1226 10.8397 18.1226 11.8751C18.1227 12.9104 18.9623 13.7499 19.9976 13.7501C21.033 13.7501 21.8724 12.9105 21.8726 11.8751C21.8726 10.8396 21.0331 10.0001 19.9976 10.0001Z" fill="white"/>
<path d="M8.27612 23.6456C6.67076 24.2791 5.47796 25.0035 4.71362 25.7277C3.95312 26.4485 3.72339 27.0578 3.72339 27.5245C3.72356 27.976 3.93669 28.5568 4.63647 29.2462C5.34253 29.9417 6.44958 30.6456 7.9519 31.2716C9.85537 32.0647 12.2672 32.6795 14.9998 33.0245V29.8029L26.0105 35.3087L14.9998 38.9796V36.381C11.8457 36.0163 8.99054 35.3149 6.67163 34.3488C4.92792 33.6222 3.40715 32.7141 2.29761 31.6212C1.18236 30.5225 0.390559 29.137 0.390381 27.5245C0.390381 25.8531 1.23955 24.4273 2.41968 23.3087C3.59577 22.1941 5.20646 21.2728 7.05347 20.5441L8.27612 23.6456ZM33.4324 20.7443C35.147 21.4698 36.6413 22.3737 37.7322 23.4601C38.8295 24.5532 39.6062 25.9284 39.6062 27.5245C39.6059 30.4725 37.0469 32.6161 34.1648 33.9767C33.1879 34.4378 32.1053 34.8448 30.9421 35.1935L29.9851 32.0001C31.0127 31.6921 31.9366 31.3422 32.7419 30.962C35.442 29.6874 36.2719 28.3681 36.2722 27.5245C36.2722 27.0773 36.0642 26.5034 35.3806 25.8224C34.6906 25.135 33.6073 24.4372 32.1335 23.8136L33.4324 20.7443Z" fill="white"/>
</g>
<defs>
<clipPath id="clip0_3755_27598">
<rect width="40" height="40" fill="white"/>
</clipPath>
</defs>
</svg>
