<svg width="40" height="40" viewBox="0 0 40 40" fill="none" xmlns="http://www.w3.org/2000/svg">
<g clip-path="url(#clip0_3755_27435)">
<path d="M4.99951 33.3333V6.66663C4.99951 5.34054 5.52667 4.06915 6.46436 3.13147C7.40204 2.19379 8.67343 1.66663 9.99951 1.66663H18.3328C19.253 1.66698 19.9995 2.41304 19.9995 3.33329C19.9995 4.25355 19.253 4.99961 18.3328 4.99996H9.99951C9.55748 4.99996 9.13369 5.17568 8.82113 5.48824C8.50857 5.8008 8.33284 6.2246 8.33284 6.66663V33.3333C8.33284 33.7753 8.50857 34.1991 8.82113 34.5117C9.13369 34.8242 9.55748 35 9.99951 35H29.9995C30.4415 35 30.8653 34.8242 31.1779 34.5117C31.4905 34.1991 31.6662 33.7753 31.6662 33.3333V25C31.6665 24.0798 32.4126 23.3333 33.3328 23.3333C34.2531 23.3333 34.9992 24.0798 34.9995 25V33.3333C34.9995 34.6594 34.4723 35.9308 33.5347 36.8684C32.597 37.8061 31.3256 38.3333 29.9995 38.3333H9.99951C8.67343 38.3333 7.40204 37.8061 6.46436 36.8684C5.52667 35.9308 4.99951 34.6594 4.99951 33.3333Z" fill="white"/>
<path d="M14.9994 23.7498C15.6898 23.7498 16.2494 24.3094 16.2494 24.9998C16.2494 25.6901 15.6898 26.2498 14.9994 26.2498H13.3328C12.6424 26.2498 12.0828 25.6901 12.0828 24.9998C12.0828 24.3094 12.6424 23.7498 13.3328 23.7498H14.9994Z" fill="white"/>
<path d="M23.3328 28.7498C24.0231 28.7498 24.5828 29.3094 24.5828 29.9998C24.5828 30.6901 24.0231 31.2498 23.3328 31.2498H13.3328C12.6424 31.2498 12.0828 30.6901 12.0828 29.9998C12.0828 29.3094 12.6424 28.7498 13.3328 28.7498H23.3328Z" fill="white"/>
<path d="M25.8328 23.7498C26.5232 23.7498 27.0828 24.3094 27.0828 24.9998C27.0828 25.6901 26.5232 26.2498 25.8328 26.2498H19.9995C19.3092 26.2498 18.7495 25.6901 18.7495 24.9998C18.7495 24.3094 19.3092 23.7498 19.9995 23.7498H25.8328Z" fill="white"/>
<path d="M31.8086 1.66663C32.3025 1.66663 32.703 2.06723 32.7031 2.56116V4.01721C33.2943 4.17844 33.8552 4.41269 34.374 4.71252C34.3772 4.70924 34.3805 4.70601 34.3838 4.70276L35.4375 3.64807C35.7868 3.2988 36.3538 3.29884 36.7031 3.64807L38.0732 5.01819C38.4226 5.36751 38.4225 5.93448 38.0732 6.28381L37.0195 7.33752C37.0126 7.34444 37.0042 7.35042 36.9971 7.35706C37.2828 7.86024 37.5077 8.40195 37.6641 8.97229H39.1055C39.5995 8.97229 39.9999 9.37285 40 9.86682V11.8053C39.9998 12.2992 39.5994 12.6998 39.1055 12.6998H37.6719C37.5118 13.2923 37.2768 13.8536 36.9775 14.3737C36.9795 14.3756 36.9815 14.3776 36.9834 14.3795L38.0381 15.4332C38.3874 15.7825 38.3874 16.3495 38.0381 16.6989L36.667 18.069C36.3176 18.4181 35.7516 18.4182 35.4023 18.069L34.3486 17.0153C34.3447 17.0113 34.3407 17.0065 34.3369 17.0026C33.8271 17.2932 33.2782 17.5218 32.6992 17.6793C32.7011 17.7028 32.7031 17.7266 32.7031 17.7506V19.2418C32.7031 19.7358 32.3026 20.1364 31.8086 20.1364H29.8711C29.3771 20.1363 28.9766 19.7358 28.9766 19.2418V17.7506C28.9766 17.7277 28.9768 17.7048 28.9785 17.6823C28.3962 17.5243 27.8435 17.2951 27.3311 17.0026C27.3275 17.0063 27.3249 17.0116 27.3213 17.0153L26.2676 18.069C25.9182 18.4183 25.3513 18.4183 25.002 18.069L23.6318 16.6989C23.2826 16.3495 23.2825 15.7825 23.6318 15.4332L24.6855 14.3795C24.6879 14.3772 24.69 14.374 24.6924 14.3717C24.3939 13.8524 24.1608 13.2913 24.001 12.6998H22.5625C22.0687 12.6998 21.6682 12.2991 21.668 11.8053V9.86682C21.668 9.3729 22.0686 8.97236 22.5625 8.97229H24.0078C24.1667 8.39308 24.3964 7.84339 24.6885 7.33362L23.6387 6.28381C23.2894 5.93448 23.2894 5.36749 23.6387 5.01819L25.0088 3.64807C25.3581 3.2988 25.9251 3.29884 26.2744 3.64807L27.3252 4.69983C27.8389 4.4058 28.3925 4.1739 28.9766 4.01526V2.56116C28.9767 2.06725 29.3772 1.66666 29.8711 1.66663H31.8086ZM30.8369 7.49475C28.9844 7.49478 27.4825 8.99672 27.4824 10.8492C27.4828 12.7015 28.9846 14.2027 30.8369 14.2028C32.689 14.2024 34.1901 12.7013 34.1904 10.8492C34.1904 8.99691 32.6892 7.49509 30.8369 7.49475Z" fill="white"/>
</g>
<defs>
<clipPath id="clip0_3755_27435">
<rect width="40" height="40" fill="white"/>
</clipPath>
</defs>
</svg>
