<svg width="40" height="40" viewBox="0 0 40 40" fill="none" xmlns="http://www.w3.org/2000/svg">
<path d="M15 7.5C16.3807 7.5 17.5 8.61929 17.5 10C17.5 11.3807 16.3807 12.5 15 12.5C13.6193 12.5 12.5 11.3807 12.5 10C12.5 8.61929 13.6193 7.5 15 7.5Z" fill="#C6C6C6"/>
<path d="M25 7.5C26.3807 7.5 27.5 8.61929 27.5 10C27.5 11.3807 26.3807 12.5 25 12.5C23.6193 12.5 22.5 11.3807 22.5 10C22.5 8.61929 23.6193 7.5 25 7.5Z" fill="#C6C6C6"/>
<path d="M15 17.5C16.3807 17.5 17.5 18.6193 17.5 20C17.5 21.3807 16.3807 22.5 15 22.5C13.6193 22.5 12.5 21.3807 12.5 20C12.5 18.6193 13.6193 17.5 15 17.5Z" fill="#C6C6C6"/>
<path d="M15 27.5C16.3807 27.5 17.5 28.6193 17.5 30C17.5 31.3807 16.3807 32.5 15 32.5C13.6193 32.5 12.5 31.3807 12.5 30C12.5 28.6193 13.6193 27.5 15 27.5Z" fill="#C6C6C6"/>
<path d="M25 17.5C26.3807 17.5 27.5 18.6193 27.5 20C27.5 21.3807 26.3807 22.5 25 22.5C23.6193 22.5 22.5 21.3807 22.5 20C22.5 18.6193 23.6193 17.5 25 17.5Z" fill="#C6C6C6"/>
<path d="M25 27.5C26.3807 27.5 27.5 28.6193 27.5 30C27.5 31.3807 26.3807 32.5 25 32.5C23.6193 32.5 22.5 31.3807 22.5 30C22.5 28.6193 23.6193 27.5 25 27.5Z" fill="#C6C6C6"/>
</svg>
