<svg width="40" height="40" viewBox="0 0 40 40" fill="none" xmlns="http://www.w3.org/2000/svg">
<path d="M20.0017 3.33289C29.2063 3.33306 36.6677 10.7952 36.6677 19.9999C36.6675 29.2044 29.2062 36.6657 20.0017 36.6659C10.7971 36.6659 3.33489 29.2045 3.33472 19.9999C3.33472 10.7951 10.797 3.33289 20.0017 3.33289ZM26.1794 15.4872C25.5286 14.8364 24.4729 14.8364 23.822 15.4872L18.3337 20.9755L16.1794 18.8212C15.5286 18.1704 14.4729 18.1703 13.822 18.8212C13.1717 19.472 13.1716 20.5269 13.822 21.1776L17.156 24.5106C17.8068 25.1615 18.8616 25.1614 19.5125 24.5106L26.1794 17.8446C26.8303 17.1937 26.8303 16.1381 26.1794 15.4872Z" fill="#FF672B"/>
</svg>
