<svg width="40" height="40" viewBox="0 0 40 40" fill="none" xmlns="http://www.w3.org/2000/svg">
<path d="M31.6677 3.33313C34.4291 3.33313 36.6677 5.57171 36.6677 8.33313V31.6661C36.6677 34.3412 34.5673 36.5263 31.9255 36.6603L31.6677 36.6661H8.33472L8.07788 36.6603C5.52126 36.5308 3.47125 34.4805 3.34155 31.924L3.33472 31.6661V8.33313C3.33472 5.57171 5.57329 3.33313 8.33472 3.33313H31.6677ZM9.02515 33.3331H30.9773L20.0007 22.3566L9.02515 33.3331ZM6.66772 30.9767L17.6443 19.9991L6.66772 9.02258V30.9767ZM22.3582 19.9991L33.3347 30.9757V9.02356L22.3582 19.9991ZM20.0007 17.6427L30.9783 6.66614H9.02417L20.0007 17.6427Z" fill="white"/>
</svg>
