<svg width="40" height="40" viewBox="0 0 40 40" fill="none" xmlns="http://www.w3.org/2000/svg">
<path d="M2.91846 38.3335C2.27151 38.3335 1.73934 37.8421 1.67497 37.2121L1.66846 37.0835V31.3885H5.00179V35.0002H8.61344V38.3335H2.91846ZM25.6968 35.0002V38.3335H14.3068V35.0002H25.6968ZM31.3901 38.3335V35.0002H35.0018V31.3885H38.3351V37.0835L38.3286 37.2121C38.2686 37.7998 37.8014 38.267 37.2137 38.327L37.0851 38.3335H31.3901ZM5.00179 14.3052V25.6952H1.66846V14.3052H5.00179ZM38.3351 14.3052V25.6952H35.0018V14.3052H38.3351ZM8.61344 1.66687V5.0002H5.00179V8.61186H1.66846V2.91687C1.66846 2.22651 2.2281 1.66687 2.91846 1.66687H8.61344ZM37.0851 1.66687C37.7755 1.66687 38.3351 2.22651 38.3351 2.91687V8.61186H35.0018V5.0002H31.3901V1.66687H37.0851ZM25.6968 1.66687V5.0002H14.3068V1.66687H25.6968Z" fill="white"/>
</svg>
