<svg width="40" height="40" viewBox="0 0 40 40" fill="none" xmlns="http://www.w3.org/2000/svg">
<g clip-path="url(#clip0_3755_27826)">
<path d="M30.0014 34.1709V23.3343H35.9389L36.0398 23.318C36.2264 23.26 36.324 23.046 36.2449 22.8672L36.1912 22.7825L21.2091 5.47458C20.571 4.73739 19.4269 4.73729 18.7889 5.47458L3.81165 22.7825C3.64887 22.9712 3.74558 23.2505 3.96302 23.318L4.06393 23.3343H9.9998V34.2522C9.9998 34.7137 10.3751 35.0872 10.8364 35.0856L29.1713 35.0042C29.5726 35.0024 29.9077 34.717 29.9851 34.3385L30.0014 34.1709ZM33.3348 34.1709C33.3346 36.4646 31.4798 38.3273 29.186 38.3375L10.8527 38.4189C8.54422 38.4292 6.66647 36.5607 6.66647 34.2522V26.6676H4.06393C0.923258 26.6675 -0.763008 22.9765 1.29212 20.6015L16.2677 3.29359C18.1735 1.09122 21.5424 1.02225 23.5398 3.08688L23.7286 3.29196L38.7107 20.5999C40.7664 22.9747 39.0798 26.6674 35.9389 26.6676H33.3348V34.1709Z" fill="white"/>
</g>
<defs>
<clipPath id="clip0_3755_27826">
<rect width="40" height="40" fill="white"/>
</clipPath>
</defs>
</svg>
