<svg width="40" height="40" viewBox="0 0 40 40" fill="none" xmlns="http://www.w3.org/2000/svg">
<path d="M20 1.66656C22.6522 1.66657 25.195 2.72089 27.0703 4.59625C28.9457 6.47161 30 9.01441 30 11.6666V18.3336H31.667C33.5078 18.3337 35 19.8257 35 21.6666V33.3336C34.9998 35.1742 33.5077 36.6664 31.667 36.6666H8.33301C6.49232 36.6664 5.00018 35.1742 5 33.3336V21.6666C5 19.8257 6.49221 18.3337 8.33301 18.3336H10V11.6666C10 9.01441 11.0543 6.47161 12.9297 4.59625C14.8051 2.72089 17.3478 1.66656 20 1.66656ZM20 4.99957C18.2319 4.99957 16.5364 5.70246 15.2861 6.9527C14.0359 8.20294 13.333 9.89846 13.333 11.6666V18.3336H26.667V11.6666C26.667 9.89846 25.9641 8.20294 24.7139 6.9527C23.4636 5.70246 21.7681 4.99957 20 4.99957Z" fill="#FF8E2B"/>
</svg>
