<svg width="40" height="40" viewBox="0 0 40 40" fill="none" xmlns="http://www.w3.org/2000/svg">
<g clip-path="url(#clip0_3755_27289)">
<circle cx="20.0015" cy="20.0001" r="20" fill="#121212"/>
<path d="M27.5017 13.0311C27.5017 13.99 27.1707 14.9831 26.5086 16.0105C25.8465 17.0151 25.1159 17.8598 24.3168 18.5448C22.1935 20.3712 21.2937 20.4283 21.0539 22.6886C20.9397 23.766 20.3784 25.4626 18.8716 25.4626C18.1866 25.4626 17.6159 25.2114 17.1592 24.7091C16.7255 24.2069 16.5086 23.5333 16.5086 22.6886C16.5086 21.8438 16.714 21.0562 17.125 20.3256C17.5588 19.5722 18.0725 18.9101 18.6661 18.3393C19.2597 17.7457 19.8533 17.1749 20.4469 16.627C21.9081 15.3028 22.6387 14.1041 22.6387 13.0311C22.6387 12.3233 22.3419 11.7525 21.7483 11.3187C21.1775 10.8621 20.5154 10.6338 19.762 10.6338C19.0314 10.6338 18.3807 10.8621 17.8099 11.3187C17.262 11.7525 16.7369 12.1977 16.2346 12.6543C15.7551 13.0881 15.2072 13.305 14.5907 13.305C13.9743 13.305 13.472 13.0996 13.0839 12.6886C12.6958 12.2548 12.5017 11.7525 12.5017 11.1817C12.5017 10.1087 13.2437 9.02422 14.7277 7.92833C16.2118 6.8096 17.8442 6.25024 19.625 6.25024C21.9538 6.25024 23.8487 6.90093 25.3099 8.2023C26.7711 9.50367 27.5017 11.1133 27.5017 13.0311ZM18.8031 27.3804C19.6022 27.3804 20.23 27.6429 20.6866 28.168C21.1433 28.6703 21.3716 29.2982 21.3716 30.0516C21.3716 30.805 21.109 31.49 20.5839 32.1064C20.0588 32.7 19.3967 32.9968 18.5976 32.9968C17.8213 32.9968 17.2049 32.7343 16.7483 32.2091C16.3145 31.684 16.0976 31.0448 16.0976 30.2913C16.0976 29.5379 16.3487 28.8644 16.851 28.2708C17.3761 27.6772 18.0268 27.3804 18.8031 27.3804Z" fill="white"/>
</g>
<defs>
<clipPath id="clip0_3755_27289">
<rect width="40" height="40" fill="white"/>
</clipPath>
</defs>
</svg>
