<svg width="40" height="40" viewBox="0 0 40 40" fill="none" xmlns="http://www.w3.org/2000/svg">
<path fill-rule="evenodd" clip-rule="evenodd" d="M20.001 28C21.1054 28.0001 22.0009 28.8956 22.001 30V36.667C22.0008 37.7713 21.1053 38.6669 20.001 38.667C18.8965 38.667 18.0012 37.7714 18.001 36.667V30C18.001 28.8955 18.8964 28 20.001 28ZM11.5869 25.5869C12.3679 24.8059 13.634 24.806 14.415 25.5869C15.1959 26.368 15.196 27.6341 14.415 28.415L9.58203 33.248C8.80104 34.0288 7.53489 34.0288 6.75391 33.248C5.9731 32.4671 5.97316 31.2009 6.75391 30.4199L11.5869 25.5869ZM25.585 25.5859C26.3659 24.8051 27.632 24.8053 28.4131 25.5859L33.2461 30.4189C34.0271 31.2 34.0271 32.466 33.2461 33.2471C32.465 34.0281 31.199 34.0281 30.418 33.2471L25.585 28.4141C24.8043 27.633 24.804 26.3669 25.585 25.5859ZM10.001 18C11.1054 18.0002 12.0009 18.8956 12.001 20C12.001 21.1045 11.1054 21.9998 10.001 22H3.33398C2.22941 22 1.33398 21.1046 1.33398 20C1.33405 18.8955 2.22946 18 3.33398 18H10.001ZM36.668 18C37.7722 18.0003 38.6679 18.8957 38.668 20C38.668 21.1044 37.7723 21.9997 36.668 22H30.001C28.8964 22 28.001 21.1046 28.001 20C28.001 18.8955 28.8964 18 30.001 18H36.668ZM6.75391 6.75293C7.53496 5.97188 8.80098 5.97188 9.58203 6.75293L14.415 11.5859C15.196 12.367 15.1961 13.633 14.415 14.4141C13.634 15.1949 12.3679 15.195 11.5869 14.4141L6.75391 9.58105C5.97292 8.80007 5.97304 7.53399 6.75391 6.75293ZM30.418 6.75293C31.199 5.97194 32.465 5.97204 33.2461 6.75293C34.0271 7.53398 34.0271 8.80002 33.2461 9.58105L28.4131 14.4141C27.632 15.1948 26.3659 15.195 25.585 14.4141C24.8042 13.6331 24.8043 12.367 25.585 11.5859L30.418 6.75293ZM20.001 1.33301C21.1054 1.33314 22.001 2.2295 22.001 3.33398V10.001C22.0005 11.1051 21.1052 12.0008 20.001 12.001C18.8967 12.001 18.0014 11.1052 18.001 10.001V3.33398C18.001 2.22941 18.8964 1.33301 20.001 1.33301Z" fill="white"/>
</svg>
