<svg width="40" height="40" viewBox="0 0 40 40" fill="none" xmlns="http://www.w3.org/2000/svg">
<path d="M35.0006 20.0001C35.0006 11.7158 28.2848 5.00008 20.0006 5.00008C11.7163 5.00008 5.00057 11.7158 5.00057 20.0001C5.00057 28.2843 11.7163 35.0001 20.0006 35.0001C28.2848 35.0001 35.0006 28.2843 35.0006 20.0001ZM38.3339 20.0001C38.3339 30.1253 30.1258 38.3334 20.0006 38.3334C9.87535 38.3334 1.66724 30.1253 1.66724 20.0001C1.66724 9.87486 9.87535 1.66675 20.0006 1.66675C30.1258 1.66675 38.3339 9.87486 38.3339 20.0001Z" fill="#FF642B"/>
<path d="M20 23C21.3807 23 22.5 21.8807 22.5 20.5V13.5C22.5 12.1193 21.3807 11 20 11C18.6193 11 17.5 12.1193 17.5 13.5V20.5C17.5 21.8807 18.6193 23 20 23ZM20 30C21.3806 29.9999 22.4999 28.8806 22.5 27.5C22.4999 26.1194 21.3806 25.0001 20 25H19.9756C18.5949 25.0001 17.4757 26.1193 17.4756 27.5C17.4757 28.8807 18.5949 29.9999 19.9756 30H20Z" fill="#FF642B"/>
</svg>
