<svg width="40" height="40" viewBox="0 0 40 40" fill="none" xmlns="http://www.w3.org/2000/svg">
<path d="M35.7719 10.2604C36.5482 9.76622 37.5789 9.99525 38.0733 10.7715C38.5675 11.5478 38.3385 12.5785 37.5623 13.0729L22.5769 22.6172C22.558 22.6292 22.5394 22.6417 22.52 22.653C21.7574 23.0959 20.8904 23.3283 20.0086 23.3284C19.1266 23.3284 18.2598 23.0959 17.4972 22.653C17.4777 22.6417 17.4576 22.6293 17.4386 22.6172L2.43859 13.0729C1.6622 12.5787 1.43341 11.548 1.92752 10.7715C2.42174 9.99509 3.45245 9.76629 4.22895 10.2604L19.1801 19.7754C19.4322 19.9197 19.718 19.9951 20.0086 19.9951C20.2983 19.995 20.5823 19.919 20.8338 19.7754L35.7719 10.2604Z" fill="white"/>
<path d="M35.0001 10C35.0001 9.07952 34.2539 8.33333 33.3334 8.33333H6.66675C5.74627 8.33333 5.00008 9.07952 5.00008 10V30C5.00008 30.9205 5.74627 31.6667 6.66675 31.6667H33.3334C34.2539 31.6667 35.0001 30.9205 35.0001 30V10ZM38.3334 30C38.3334 32.7614 36.0948 35 33.3334 35H6.66675C3.90532 35 1.66675 32.7614 1.66675 30V10C1.66675 7.23858 3.90532 5 6.66675 5H33.3334C36.0948 5 38.3334 7.23858 38.3334 10V30Z" fill="white"/>
</svg>
