<svg width="40" height="40" viewBox="0 0 40 40" fill="none" xmlns="http://www.w3.org/2000/svg">
<path d="M33.823 3.82141C34.4738 3.17095 35.5287 3.17088 36.1794 3.82141C36.8303 4.47228 36.8303 5.52796 36.1794 6.17883L31.7537 10.6036C33.1129 11.0986 34.3615 11.8873 35.4041 12.9298C37.2794 14.8052 38.3337 17.348 38.3337 20.0001C38.3337 22.6522 37.2794 25.1951 35.4041 27.0704C33.5287 28.9456 30.9857 30.0001 28.3337 30.0001H25.0007C24.0803 30 23.3337 29.2536 23.3337 28.3331C23.3338 27.4128 24.0804 26.6662 25.0007 26.6661H28.3337C30.1019 26.6661 31.7974 25.9633 33.0476 24.713C34.2977 23.4628 35.0007 21.7681 35.0007 20.0001C35.0007 18.232 34.2979 16.5365 33.0476 15.2863C31.9534 14.1921 30.5184 13.5167 28.9919 13.3654L24.0242 18.3341H26.6677C27.5881 18.3342 28.3336 19.0798 28.3337 20.0001C28.3337 20.9205 27.5881 21.667 26.6677 21.6671H20.6912L6.17944 36.1788C5.52864 36.8295 4.47384 36.8294 3.823 36.1788C3.17212 35.528 3.17212 34.4723 3.823 33.8214L18.8123 18.8312C18.8187 18.8246 18.8252 18.8181 18.8318 18.8116L33.823 3.82141ZM17.5007 10.0001C18.4211 10.0001 19.1675 10.7459 19.1677 11.6661C19.1677 12.5866 18.4212 13.3331 17.5007 13.3331H11.6677L11.2058 13.3497C10.1297 13.4245 9.08537 13.7598 8.16382 14.3292C7.11073 14.9801 6.25755 15.9104 5.70386 17.0177C5.15018 18.125 4.91788 19.3657 5.02905 20.5988C5.14027 21.8315 5.59114 23.0098 6.33374 24.0001C6.88576 24.7364 6.73689 25.7809 6.00073 26.3331C5.26437 26.8852 4.21994 26.7354 3.66772 25.9991C2.55379 24.5137 1.8756 22.7478 1.70874 20.8986C1.54196 19.0489 1.89384 17.1885 2.72437 15.5275C3.55487 13.8668 4.83142 12.4705 6.41089 11.4943C7.9906 10.518 9.81068 10.0001 11.6677 10.0001H17.5007Z" fill="white"/>
</svg>
