<svg width="40" height="40" viewBox="0 0 40 40" fill="none" xmlns="http://www.w3.org/2000/svg">
<path d="M20.0017 3.3334C29.2063 3.33361 36.6677 10.7958 36.6677 20.0004C36.6676 29.2049 29.2062 36.6662 20.0017 36.6664C10.7971 36.6664 3.33488 29.205 3.33472 20.0004C3.33472 10.7957 10.797 3.3334 20.0017 3.3334ZM26.1824 13.8217C25.5316 13.1709 24.4768 13.1711 23.8259 13.8217L20.0037 17.643L16.1824 13.8217C15.5316 13.1709 14.4768 13.1711 13.8259 13.8217C13.1751 14.4726 13.1751 15.5273 13.8259 16.1781L17.6472 19.9994L13.8259 23.8217C13.1751 24.4726 13.1751 25.5273 13.8259 26.1781C14.4768 26.8288 15.5316 26.8289 16.1824 26.1781L20.0037 22.3559L23.8259 26.1781C24.4768 26.8288 25.5316 26.8289 26.1824 26.1781C26.8329 25.5273 26.833 24.4725 26.1824 23.8217L22.3601 19.9994L26.1824 16.1781C26.8329 15.5273 26.833 14.4725 26.1824 13.8217Z" fill="white"/>
</svg>
