<svg width="40" height="40" viewBox="0 0 40 40" fill="none" xmlns="http://www.w3.org/2000/svg">
<g clip-path="url(#clip0_3755_27664)">
<path d="M37.0818 30.8333C37.0818 28.302 35.0298 26.25 32.4984 26.25H9.16512C6.63381 26.25 4.58179 28.302 4.58179 30.8333C4.58179 33.3646 6.63381 35.4167 9.16512 35.4167H32.4984C35.0298 35.4167 37.0818 33.3646 37.0818 30.8333ZM39.5818 30.8333C39.5818 34.7453 36.4105 37.9167 32.4984 37.9167H9.16512C5.2531 37.9167 2.08179 34.7453 2.08179 30.8333C2.08179 26.9213 5.2531 23.75 9.16512 23.75H32.4984C36.4105 23.75 39.5818 26.9213 39.5818 30.8333Z" fill="white"/>
<path d="M34.9983 25.0002H31.665V10.0002H18.3316V25.0002H14.9983V8.51908C14.9983 7.49633 15.8278 6.66687 16.8505 6.66687H33.1461C34.1688 6.66687 34.9983 7.49634 34.9983 8.51908V25.0002Z" fill="white"/>
<path d="M21.665 8.33313H28.3317V14.9998H21.665V8.33313Z" fill="white"/>
<path d="M31.6651 30.8335C31.6651 30.6034 31.4786 30.4169 31.2485 30.4169C31.0183 30.4169 30.8318 30.6034 30.8318 30.8335C30.8318 31.0637 31.0183 31.2502 31.2485 31.2502C31.4786 31.2502 31.6651 31.0637 31.6651 30.8335ZM34.1651 30.8335C34.1651 32.4444 32.8593 33.7502 31.2485 33.7502C29.6376 33.7502 28.3318 32.4444 28.3318 30.8335C28.3318 29.2227 29.6376 27.9169 31.2485 27.9169C32.8593 27.9169 34.1651 29.2227 34.1651 30.8335Z" fill="white"/>
<path d="M11.6651 30.8335C11.6651 30.6034 11.4786 30.4169 11.2485 30.4169C11.0183 30.4169 10.8318 30.6034 10.8318 30.8335C10.8318 31.0637 11.0183 31.2502 11.2485 31.2502C11.4786 31.2502 11.6651 31.0637 11.6651 30.8335ZM14.1651 30.8335C14.1651 32.4444 12.8593 33.7502 11.2485 33.7502C9.63762 33.7502 8.33179 32.4444 8.33179 30.8335C8.33179 29.2227 9.63762 27.9169 11.2485 27.9169C12.8593 27.9169 14.1651 29.2227 14.1651 30.8335Z" fill="white"/>
<path d="M21.6651 30.8335C21.6651 30.6034 21.4786 30.4169 21.2485 30.4169C21.0183 30.4169 20.8318 30.6034 20.8318 30.8335C20.8318 31.0637 21.0183 31.2502 21.2485 31.2502C21.4786 31.2502 21.6651 31.0637 21.6651 30.8335ZM24.1651 30.8335C24.1651 32.4444 22.8593 33.7502 21.2485 33.7502C19.6376 33.7502 18.3318 32.4444 18.3318 30.8335C18.3318 29.2227 19.6376 27.9169 21.2485 27.9169C22.8593 27.9169 24.1651 29.2227 24.1651 30.8335Z" fill="white"/>
</g>
<defs>
<clipPath id="clip0_3755_27664">
<rect width="40" height="40" fill="white"/>
</clipPath>
</defs>
</svg>
