<svg width="40" height="40" viewBox="0 0 40 40" fill="none" xmlns="http://www.w3.org/2000/svg">
<path d="M32.1545 5.48938C32.8054 4.83851 33.8601 4.83851 34.511 5.48938L37.8333 8.81067C37.8749 8.8515 37.9142 8.89459 37.9514 8.93958C37.9699 8.96192 37.986 8.98586 38.0032 9.00891C38.0197 9.03119 38.0366 9.05318 38.052 9.07629C38.0621 9.09143 38.0717 9.1068 38.0813 9.12219C38.1289 9.19876 38.1705 9.27921 38.2053 9.3634C38.2123 9.3802 38.2185 9.39721 38.2249 9.41418C38.2935 9.5966 38.3323 9.7937 38.3323 10.0001C38.3323 10.15 38.3108 10.2946 38.2737 10.4327C38.2694 10.4487 38.2657 10.4648 38.261 10.4806C38.2524 10.5091 38.2417 10.5367 38.2317 10.5646C38.2225 10.5901 38.2138 10.6157 38.2034 10.6407C38.1972 10.6556 38.1904 10.6701 38.1838 10.6847C38.1689 10.7178 38.1542 10.751 38.137 10.7833C38.1216 10.8121 38.1041 10.8396 38.0872 10.8673C38.0756 10.8862 38.0644 10.9054 38.052 10.924C38.041 10.9404 38.0284 10.9557 38.0168 10.9718C37.965 11.0438 37.9088 11.1141 37.844 11.1788L34.511 14.5128C33.8602 15.1631 32.8053 15.1631 32.1545 14.5128C31.5037 13.8619 31.5037 12.8063 32.1545 12.1554L32.6438 11.6661H7.35474L7.84399 12.1554C8.49487 12.8063 8.49487 13.8619 7.84399 14.5128C7.1931 15.1634 6.13737 15.1636 5.48657 14.5128L2.15454 11.1788C2.00755 11.0318 1.89529 10.8636 1.8147 10.6847C1.80805 10.67 1.80042 10.6557 1.79419 10.6407C1.68781 10.3848 1.6473 10.1079 1.67407 9.83606C1.67606 9.81569 1.68015 9.79566 1.68286 9.77551C1.69495 9.68634 1.712 9.59751 1.73853 9.51086C1.74523 9.48896 1.75439 9.46792 1.76196 9.44641C1.77172 9.41867 1.78097 9.39069 1.79224 9.3634C1.80395 9.33507 1.81809 9.30792 1.8313 9.2804C1.84135 9.25943 1.84962 9.23753 1.8606 9.21692C1.86272 9.21293 1.86528 9.20917 1.86743 9.2052L1.94067 9.08313C1.97174 9.03608 2.00492 8.98981 2.04126 8.94543C2.07672 8.90205 2.11495 8.86099 2.15454 8.82141L5.48657 5.48938C6.13744 4.83851 7.19312 4.83853 7.84399 5.48938C8.49453 6.14013 8.49439 7.19401 7.84399 7.84485L7.35474 8.33411H32.6438L32.1545 7.84485C31.504 7.19397 31.5038 6.14016 32.1545 5.48938Z" fill="white"/>
<path d="M36.667 18.3339C37.109 18.3339 37.5341 18.5096 37.8467 18.8221C38.1589 19.1346 38.3349 19.5581 38.335 19.9999V33.3339C38.3349 33.7758 38.1591 34.2001 37.8467 34.5126C37.5341 34.8251 37.109 34.9999 36.667 34.9999H3.33203C2.41217 34.9993 1.66619 34.2538 1.66602 33.3339V20.0243C1.66589 20.0162 1.66504 20.008 1.66504 19.9999C1.66515 19.0796 2.41076 18.334 3.33105 18.3339H36.667ZM5 31.6678H35.001V21.6659H31.667V24.9999C31.667 25.9204 30.9215 26.6659 30.001 26.6659C29.0806 26.6658 28.335 25.9203 28.335 24.9999V21.6659H25.001V24.9999C25.001 25.9202 24.2552 26.6656 23.335 26.6659C22.4145 26.6659 21.668 25.9204 21.668 24.9999V21.6659H18.334V23.3339C18.3337 24.2541 17.5883 24.9999 16.668 24.9999C15.7477 24.9999 15.0022 24.2541 15.002 23.3339V21.6659H11.667V24.9999C11.667 25.9204 10.9215 26.6659 10.001 26.6659C9.08061 26.6658 8.33496 25.9203 8.33496 24.9999V21.6659H5V31.6678Z" fill="white"/>
</svg>
