<svg width="40" height="40" viewBox="0 0 40 40" fill="none" xmlns="http://www.w3.org/2000/svg">
<path d="M9.34083 5.08339C12.8564 2.57194 17.1466 1.38273 21.4535 1.72565C25.7605 2.06874 29.8087 3.92189 32.8825 6.95839C35.956 9.99469 37.8594 14.0185 38.2552 18.3207C38.6509 22.6231 37.5139 26.9279 35.0456 30.474C32.5771 34.0202 28.9346 36.5809 24.7624 37.7038C20.6225 38.8179 16.2248 38.4444 12.3324 36.6524C12.0608 36.5537 11.769 36.5276 11.4844 36.5759L5.89356 38.2116C5.88055 38.2154 5.8676 38.2196 5.8545 38.223C5.30581 38.3686 4.72828 38.3709 4.17807 38.2312C3.62805 38.0914 3.12254 37.8135 2.70997 37.4239C2.2973 37.0339 1.9904 36.5445 1.81967 36.003C1.64902 35.4617 1.6192 34.8857 1.73341 34.3298L1.78061 34.1508L3.51889 28.7813C3.57827 28.4748 3.55302 28.1583 3.44076 27.8666C1.60233 23.9969 1.17475 19.6052 2.23796 15.4529C3.30972 11.2675 5.82547 7.59497 9.34083 5.08339ZM21.1898 5.04759C17.6659 4.76688 14.1558 5.74011 11.2793 7.79498C8.40277 9.84992 6.34409 12.855 5.46713 16.2797C4.64511 19.4901 4.91162 22.8757 6.21257 25.9102L6.48601 26.5124L6.53321 26.6231C6.90065 27.5502 6.98358 28.5658 6.76921 29.5398C6.75773 29.5919 6.74334 29.6436 6.7269 29.6944L5.00977 34.9955L10.6462 33.3484C10.6935 33.3345 10.7427 33.3238 10.791 33.3142C11.5953 33.1547 12.4247 33.1941 13.2064 33.4297L13.5384 33.5437L13.6507 33.5909C16.8538 35.0867 20.4828 35.4032 23.8965 34.4844C27.3102 33.5657 30.2899 31.4711 32.3096 28.5697C34.3291 25.6683 35.2586 22.1469 34.9349 18.6267C34.6112 15.1067 33.055 11.8141 30.5404 9.32981C28.0255 6.84547 24.7137 5.32836 21.1898 5.04759Z" fill="white"/>
<path d="M20.0154 26.667C20.9359 26.667 21.6824 27.4135 21.6824 28.334C21.6821 29.2543 20.9357 30 20.0154 30H19.9988C19.0786 29.9998 18.333 29.2541 18.3328 28.334C18.3328 27.4136 19.0785 26.6672 19.9988 26.667H20.0154ZM16.489 10.9121C17.8461 10.1147 19.4416 9.82292 20.9929 10.0889C22.5442 10.3551 23.9518 11.1622 24.9656 12.3662C25.9789 13.5702 26.5349 15.0943 26.533 16.668L26.5115 17.1348C26.2989 19.4257 24.5571 20.9605 23.2908 21.8047C22.5652 22.2884 21.8509 22.6432 21.325 22.877C21.0596 22.9949 20.8346 23.0842 20.6736 23.1455C20.5934 23.1761 20.5277 23.1999 20.4802 23.2168C20.4567 23.2252 20.4372 23.2333 20.4226 23.2383C20.4156 23.2407 20.4098 23.2435 20.405 23.2451C20.4028 23.2459 20.3999 23.2455 20.3982 23.2461L20.3953 23.248H20.3933C19.5201 23.539 18.575 23.0665 18.2839 22.1934C17.9938 21.3214 18.4647 20.3781 19.3357 20.0859V20.0869L19.3386 20.0859C19.343 20.0844 19.3514 20.0813 19.363 20.0771C19.3886 20.0681 19.4314 20.0534 19.4871 20.0322C19.5994 19.9894 19.7672 19.9224 19.9705 19.832C20.3818 19.6492 20.9183 19.3805 21.4421 19.0312C22.5909 18.2654 23.1994 17.4495 23.2 16.668V16.6641C23.201 15.8771 22.9235 15.1148 22.4167 14.5127C21.9098 13.9105 21.2053 13.5061 20.4294 13.373C19.6537 13.2401 18.8551 13.3864 18.1765 13.7852C17.4981 14.1839 16.9827 14.8105 16.7214 15.5527C16.416 16.4208 15.4646 16.8784 14.5964 16.5732C13.7283 16.2678 13.2717 15.3155 13.5769 14.4473C14.0994 12.9621 15.1317 11.7098 16.489 10.9121Z" fill="white"/>
</svg>
