<svg width="40" height="40" viewBox="0 0 40 40" fill="none" xmlns="http://www.w3.org/2000/svg">
<path d="M22.8271 1.26318C23.5103 1.16562 24.1443 1.63967 24.2422 2.32275C24.508 4.18424 24.2361 6.29361 23.9932 7.52393C27.2677 11.7566 28.7749 15.6058 29.6719 17.8481C31.1035 21.4271 31.3035 23.3773 31.1885 25.1675C31.2569 25.5937 31.4689 26.3055 31.8311 27.2573C32.2022 28.2327 32.6917 29.3705 33.2295 30.5483C34.3045 32.9026 35.5489 35.3665 36.3672 36.9155C36.6897 37.5259 36.4571 38.2825 35.8467 38.605C35.2364 38.9272 34.4798 38.6945 34.1572 38.0845C33.3223 36.5041 32.0558 33.9949 30.9561 31.5864C30.4065 30.3829 29.8918 29.1913 29.4941 28.146C29.108 27.131 28.7925 26.1554 28.6963 25.4243C28.6818 25.3138 28.6821 25.2135 28.6885 25.1265L28.7158 24.5991C28.7502 23.3292 28.5406 21.7509 27.3506 18.7759C26.4355 16.4883 24.9688 12.7414 21.6992 8.64404C21.4522 8.33438 21.3417 7.91207 21.4443 7.4917C21.6656 6.58615 22.0142 4.41184 21.7666 2.67725C21.669 1.99396 22.1439 1.36101 22.8271 1.26318ZM13.7666 1.84424C14.1285 1.2566 14.8995 1.07329 15.4873 1.43506C16.075 1.79699 16.2573 2.56795 15.8955 3.15576L14.4746 5.46533C13.9012 6.41694 13.3945 7.96264 13.6172 9.43213C13.8097 10.7009 14.5674 12.0843 16.7666 13.0464L17.2266 13.2339L17.2871 13.2563L17.3438 13.2856C17.9602 13.5938 19.2748 14.5165 19.8721 16.0044C20.5484 17.4454 21.777 19.2256 23.5322 20.981C23.7952 21.2439 24.2052 21.6825 24.6084 22.1714C24.9014 22.5267 25.2248 22.9491 25.4854 23.3726L25.7217 23.7935L25.7607 23.8735L25.79 23.9565C26.0454 24.7227 26.584 26.6738 26.7373 28.5122C26.8441 29.7935 27.502 31.5046 29.0811 33.2583L29.4092 33.6099L29.4229 33.6226L32.2646 36.644C32.7372 37.1467 32.7134 37.9367 32.2109 38.4097C31.7082 38.8828 30.9175 38.8587 30.4443 38.356L27.6016 35.3364V35.3354C25.4685 33.1293 24.4152 30.7604 24.2451 28.7202C24.1197 27.2151 23.6737 25.5526 23.4443 24.8384C23.2869 24.5494 23.0116 24.1657 22.6797 23.7632C22.3309 23.3402 21.9754 22.9593 21.7646 22.7485C20.339 21.3228 19.1941 19.849 18.3633 18.4712C17.7823 19.5875 17.0502 20.7319 16.2969 21.7983C14.9572 23.6949 13.4546 25.4815 12.3486 26.6489L12.3467 26.647C11.5782 27.5078 10.7523 27.9451 9.96387 28.1411C9.21848 28.3264 8.51775 28.2808 8.24316 28.2808C6.30547 28.2808 4.79152 28.5616 3.92676 28.7778C3.25735 28.9447 2.57955 28.537 2.41211 27.8677C2.24487 27.1981 2.6518 26.5196 3.32129 26.3521C4.35151 26.0945 6.07 25.7808 8.24316 25.7808C8.70089 25.7808 8.99353 25.8055 9.36035 25.7144C9.67353 25.6364 10.067 25.4585 10.5029 24.9624L10.5186 24.9458L10.5332 24.9282C11.5592 23.8453 12.9851 22.1522 14.2539 20.356C15.3832 18.7573 16.3175 17.1758 16.7793 15.9126C16.5532 15.7165 16.3491 15.5867 16.2422 15.5308C14.7735 14.962 13.6638 14.2085 12.8555 13.3423C12.7371 13.733 12.5703 14.131 12.3398 14.521C11.5748 15.8157 10.116 18.4268 9.45312 20.9458L9.44629 20.9653L9.44141 20.9858C9.39746 21.1323 9.39994 21.1612 9.31934 21.4634C9.26118 21.6814 9.17002 21.981 9.01172 22.2798C8.84867 22.5874 8.59712 22.9293 8.20117 23.187C7.79771 23.4494 7.32917 23.5688 6.83203 23.5688C6.27768 23.5689 5.62155 23.5916 5.02734 23.6147C4.45948 23.6368 3.90457 23.6616 3.62402 23.6616C2.93382 23.6614 2.37402 23.1019 2.37402 22.4116C2.37446 21.7217 2.93409 21.1618 3.62402 21.1616C3.83993 21.1616 4.30839 21.1419 4.92969 21.1177C5.5202 21.0947 6.21445 21.0692 6.81934 21.0688C6.84216 21.0163 6.87238 20.9385 6.9043 20.8188C6.92473 20.7422 6.94259 20.6679 6.96582 20.5728C6.98677 20.487 7.01347 20.3763 7.0459 20.2681C7.80866 17.4002 9.41728 14.5536 10.1885 13.2485C10.6102 12.5345 10.6461 11.7402 10.5645 11.2485C9.84927 6.95645 12.0821 4.19437 12.9717 3.1333C12.9734 3.13125 12.9748 3.1285 12.9766 3.12646L13.7666 1.84424Z" fill="white"/>
</svg>
