<svg width="40" height="40" viewBox="0 0 40 40" fill="none" xmlns="http://www.w3.org/2000/svg">
<path d="M25.4163 8.33313C24.833 8.33313 24.3399 8.13174 23.9372 7.72896C23.5344 7.32618 23.333 6.83313 23.333 6.2498C23.333 5.66646 23.5344 5.17341 23.9372 4.77063C24.3399 4.36785 24.833 4.16646 25.4163 4.16646C25.9997 4.16646 26.4927 4.36785 26.8955 4.77063C27.2983 5.17341 27.4997 5.66646 27.4997 6.2498C27.4997 6.83313 27.2983 7.32618 26.8955 7.72896C26.4927 8.13174 25.9997 8.33313 25.4163 8.33313ZM25.4163 35.8331C24.833 35.8331 24.3399 35.6317 23.9372 35.229C23.5344 34.8262 23.333 34.3331 23.333 33.7498C23.333 33.1665 23.5344 32.6734 23.9372 32.2706C24.3399 31.8678 24.833 31.6665 25.4163 31.6665C25.9997 31.6665 26.4927 31.8678 26.8955 32.2706C27.2983 32.6734 27.4997 33.1665 27.4997 33.7498C27.4997 34.3331 27.2983 34.8262 26.8955 35.229C26.4927 35.6317 25.9997 35.8331 25.4163 35.8331ZM32.083 14.1665C31.4997 14.1665 31.0066 13.9651 30.6038 13.5623C30.2011 13.1595 29.9997 12.6665 29.9997 12.0831C29.9997 11.4998 30.2011 11.0067 30.6038 10.604C31.0066 10.2012 31.4997 9.9998 32.083 9.9998C32.6663 9.9998 33.1594 10.2012 33.5622 10.604C33.9649 11.0067 34.1663 11.4998 34.1663 12.0831C34.1663 12.6665 33.9649 13.1595 33.5622 13.5623C33.1594 13.9651 32.6663 14.1665 32.083 14.1665ZM32.083 29.9998C31.4997 29.9998 31.0066 29.7984 30.6038 29.3956C30.2011 28.9928 29.9997 28.4998 29.9997 27.9165C29.9997 27.3331 30.2011 26.8401 30.6038 26.4373C31.0066 26.0345 31.4997 25.8331 32.083 25.8331C32.6663 25.8331 33.1594 26.0345 33.5622 26.4373C33.9649 26.8401 34.1663 27.3331 34.1663 27.9165C34.1663 28.4998 33.9649 28.9928 33.5622 29.3956C33.1594 29.7984 32.6663 29.9998 32.083 29.9998ZM34.583 22.0831C33.9997 22.0831 33.5066 21.8817 33.1038 21.479C32.7011 21.0762 32.4997 20.5831 32.4997 19.9998C32.4997 19.4165 32.7011 18.9234 33.1038 18.5206C33.5066 18.1179 33.9997 17.9165 34.583 17.9165C35.1663 17.9165 35.6594 18.1179 36.0622 18.5206C36.4649 18.9234 36.6663 19.4165 36.6663 19.9998C36.6663 20.5831 36.4649 21.0762 36.0622 21.479C35.6594 21.8817 35.1663 22.0831 34.583 22.0831ZM19.9997 36.6665C17.6941 36.6665 15.5275 36.229 13.4997 35.354C11.4719 34.479 9.70801 33.2915 8.20801 31.7915C6.70801 30.2915 5.52051 28.5276 4.64551 26.4998C3.77051 24.472 3.33301 22.3053 3.33301 19.9998C3.33301 17.6942 3.77051 15.5276 4.64551 13.4998C5.52051 11.472 6.70801 9.70813 8.20801 8.20813C9.70801 6.70813 11.4719 5.52063 13.4997 4.64563C15.5275 3.77063 17.6941 3.33313 19.9997 3.33313V6.66646C16.2774 6.66646 13.1247 7.95813 10.5413 10.5415C7.95801 13.1248 6.66634 16.2776 6.66634 19.9998C6.66634 23.722 7.95801 26.8748 10.5413 29.4581C13.1247 32.0415 16.2774 33.3331 19.9997 33.3331V36.6665Z" fill="white"/>
<path d="M18.333 11.6667C18.333 10.7462 19.0792 10 19.9997 10C20.9201 10 21.6663 10.7462 21.6663 11.6667V18.9697L27.4118 21.8424C28.2351 22.2541 28.5689 23.2555 28.1572 24.0788C27.7456 24.9021 26.7442 25.2359 25.9209 24.8242L19.2542 21.4909C18.6896 21.2086 18.333 20.6313 18.333 20V11.6667Z" fill="white"/>
</svg>
