<svg width="40" height="40" viewBox="0 0 40 40" fill="none" xmlns="http://www.w3.org/2000/svg">
<path d="M9.34083 5.08339C12.8564 2.57194 17.1466 1.38273 21.4535 1.72565C25.7605 2.06874 29.8087 3.92189 32.8825 6.95839C35.956 9.99469 37.8594 14.0185 38.2552 18.3207C38.6509 22.6231 37.5139 26.9279 35.0456 30.474C32.5771 34.0202 28.9346 36.5809 24.7624 37.7038C20.6225 38.8179 16.2248 38.4444 12.3324 36.6524C12.0608 36.5537 11.769 36.5276 11.4844 36.5759L5.89356 38.2116C5.88055 38.2154 5.8676 38.2196 5.8545 38.223C5.30581 38.3686 4.72828 38.3709 4.17807 38.2312C3.62805 38.0914 3.12254 37.8135 2.70997 37.4239C2.2973 37.0339 1.9904 36.5445 1.81967 36.003C1.64902 35.4617 1.6192 34.8857 1.73341 34.3298L1.78061 34.1508L3.51889 28.7813C3.57827 28.4748 3.55302 28.1583 3.44076 27.8666C1.60233 23.9969 1.17475 19.6052 2.23796 15.4529C3.30972 11.2675 5.82547 7.59497 9.34083 5.08339ZM21.1898 5.04759C17.6659 4.76688 14.1558 5.74011 11.2793 7.79498C8.40276 9.84992 6.34409 12.855 5.46713 16.2797C4.64511 19.4901 4.91162 22.8757 6.21257 25.9102L6.48601 26.5124L6.53321 26.6231C6.90065 27.5502 6.98358 28.5658 6.76921 29.5398C6.75773 29.5919 6.74334 29.6436 6.7269 29.6944L5.00977 34.9955L10.6462 33.3484C10.6935 33.3345 10.7427 33.3238 10.791 33.3142C11.5953 33.1547 12.4247 33.1941 13.2064 33.4297L13.5384 33.5437L13.6507 33.5909C16.8538 35.0867 20.4828 35.4032 23.8965 34.4844C27.3102 33.5657 30.2899 31.4711 32.3096 28.5697C34.3291 25.6683 35.2586 22.1469 34.9349 18.6267C34.6112 15.1067 33.055 11.8141 30.5404 9.32981C28.0255 6.84547 24.7137 5.32836 21.1898 5.04759Z" fill="white"/>
<path d="M20.0168 24.9996C20.9371 24.9998 21.6829 25.7462 21.6829 26.6666C21.6827 27.5868 20.937 28.3323 20.0168 28.3326H20.0002C19.0799 28.3326 18.3334 27.5869 18.3333 26.6666C18.3333 25.7461 19.0798 24.9996 20.0002 24.9996H20.0168ZM20.0002 11.6666C20.9207 11.6666 21.6672 12.4131 21.6672 13.3336V19.9996C21.6672 20.92 20.9207 21.6665 20.0002 21.6666C19.0798 21.6666 18.3333 20.92 18.3333 19.9996V13.3336C18.3333 12.4131 19.0798 11.6666 20.0002 11.6666Z" fill="white"/>
</svg>
