<svg width="40" height="40" viewBox="0 0 40 40" fill="none" xmlns="http://www.w3.org/2000/svg">
<path d="M10.4348 19.9998C10.0376 19.9998 9.69555 19.7194 9.61765 19.3299L9.25163 17.4998C8.91829 17.3609 8.60579 17.2151 8.31413 17.0623C8.02246 16.9095 7.72385 16.722 7.41829 16.4998L5.63217 17.0541C5.26275 17.1688 4.863 17.0141 4.66689 16.6807L3.68609 15.0134C3.48256 14.6674 3.55463 14.2254 3.85756 13.962L5.25163 12.7498C5.19607 12.3887 5.16829 12.0276 5.16829 11.6665C5.16829 11.3054 5.19607 10.9442 5.25163 10.5831L3.85756 9.37089C3.55464 9.10748 3.48256 8.66554 3.68609 8.31954L4.66689 6.65218C4.863 6.31879 5.26275 6.16417 5.63217 6.27881L7.41829 6.83313C7.72385 6.61091 8.02246 6.42341 8.31413 6.27063C8.60579 6.11785 8.91829 5.97202 9.25163 5.83313L9.61765 4.00303C9.69555 3.61351 10.0376 3.33313 10.4348 3.33313H12.4018C12.799 3.33313 13.141 3.61351 13.2189 4.00303L13.585 5.83313C13.9183 5.97202 14.2308 6.11785 14.5225 6.27063C14.8141 6.42341 15.1127 6.61091 15.4183 6.83313L17.2044 6.27881C17.5738 6.16417 17.9736 6.31879 18.1697 6.65218L19.1505 8.31954C19.354 8.66554 19.282 9.10748 18.979 9.37089L17.585 10.5831C17.6405 10.9442 17.6683 11.3054 17.6683 11.6665C17.6683 12.0276 17.6405 12.3887 17.585 12.7498L18.979 13.962C19.282 14.2254 19.354 14.6674 19.1505 15.0134L18.1697 16.6807C17.9736 17.0141 17.5738 17.1688 17.2044 17.0541L15.4183 16.4998C15.1127 16.722 14.8141 16.9095 14.5225 17.0623C14.2308 17.2151 13.9183 17.3609 13.585 17.4998L13.2189 19.3299C13.141 19.7194 12.799 19.9998 12.4018 19.9998H10.4348ZM11.4183 14.9998C12.335 14.9998 13.1197 14.6734 13.7725 14.0206C14.4252 13.3679 14.7516 12.5831 14.7516 11.6665C14.7516 10.7498 14.4252 9.96507 13.7725 9.3123C13.1197 8.65952 12.335 8.33313 11.4183 8.33313C10.5016 8.33313 9.7169 8.65952 9.06413 9.3123C8.41135 9.96507 8.08496 10.7498 8.08496 11.6665C8.08496 12.5831 8.41135 13.3679 9.06413 14.0206C9.7169 14.6734 10.5016 14.9998 11.4183 14.9998ZM25.342 38.3331C24.949 38.3331 24.6095 38.0586 24.5271 37.6744L23.9183 34.8331C23.4461 34.6665 23.0086 34.4651 22.6058 34.229C22.203 33.9928 21.8072 33.722 21.4183 33.4165L18.7239 34.2922C18.351 34.4133 17.944 34.2582 17.7465 33.9195L16.0982 31.0939C15.897 30.749 15.9687 30.3098 16.2693 30.0469L18.4183 28.1665C18.3627 27.6665 18.335 27.1665 18.335 26.6665C18.335 26.1665 18.3627 25.6665 18.4183 25.1665L16.2693 23.2861C15.9687 23.0231 15.897 22.5839 16.0982 22.239L17.7465 19.4134C17.944 19.0747 18.351 18.9196 18.7239 19.0408L21.4183 19.9165C21.8072 19.6109 22.203 19.3401 22.6058 19.104C23.0086 18.8679 23.4461 18.6665 23.9183 18.4998L24.5271 15.6585C24.6095 15.2743 24.949 14.9998 25.342 14.9998H28.6613C29.0542 14.9998 29.3938 15.2743 29.4761 15.6585L30.085 18.4998C30.5572 18.6665 30.9947 18.8679 31.3975 19.104C31.8002 19.3401 32.1961 19.6109 32.585 19.9165L35.2794 19.0408C35.6523 18.9196 36.0592 19.0747 36.2568 19.4134L37.9051 22.239C38.1063 22.5839 38.0345 23.0231 37.734 23.2861L35.585 25.1665C35.6405 25.6665 35.6683 26.1665 35.6683 26.6665C35.6683 27.1665 35.6405 27.6665 35.585 28.1665L37.734 30.0469C38.0345 30.3098 38.1063 30.749 37.9051 31.0939L36.2568 33.9195C36.0592 34.2582 35.6523 34.4133 35.2794 34.2922L32.585 33.4165C32.1961 33.722 31.8002 33.9928 31.3975 34.229C30.9947 34.4651 30.5572 34.6665 30.085 34.8331L29.4761 37.6744C29.3938 38.0586 29.0542 38.3331 28.6613 38.3331H25.342ZM27.0016 31.6665C28.3905 31.6665 29.5711 31.1803 30.5433 30.2081C31.5155 29.2359 32.0016 28.0553 32.0016 26.6665C32.0016 25.2776 31.5155 24.097 30.5433 23.1248C29.5711 22.1526 28.3905 21.6665 27.0016 21.6665C25.6127 21.6665 24.4322 22.1526 23.46 23.1248C22.4877 24.097 22.0016 25.2776 22.0016 26.6665C22.0016 28.0553 22.4877 29.2359 23.46 30.2081C24.4322 31.1803 25.6127 31.6665 27.0016 31.6665Z" fill="white"/>
</svg>
