<svg width="40" height="40" viewBox="0 0 40 40" fill="none" xmlns="http://www.w3.org/2000/svg">
<path d="M23.3342 1.66656C23.3555 1.66657 23.3766 1.6687 23.3977 1.66949C24.1224 1.67677 24.8401 1.82065 25.51 2.09821C26.1992 2.3839 26.8249 2.80338 27.3518 3.3316L33.3284 9.30817L33.5227 9.51031C33.9627 9.99323 34.3166 10.5492 34.5676 11.1539C34.8542 11.8444 35.0011 12.586 35.0002 13.3336V33.3336C35.0002 34.6595 34.473 35.9311 33.5354 36.8687C32.5977 37.8063 31.3263 38.3336 30.0002 38.3336H10.0002C8.67424 38.3336 7.40275 37.8063 6.46509 36.8687C5.52749 35.9311 5.00033 34.6595 5.00024 33.3336V6.66656C5.00025 5.34048 5.52741 4.06909 6.46509 3.13141C7.40277 2.19373 8.67416 1.66656 10.0002 1.66656H23.3342ZM10.0002 4.99957C9.55822 4.99957 9.13409 5.1753 8.82153 5.48785C8.50897 5.80041 8.33325 6.22454 8.33325 6.66656V33.3336C8.33334 33.7753 8.50925 34.1988 8.82153 34.5113C9.13409 34.8239 9.55822 34.9996 10.0002 34.9996H30.0002C30.4423 34.9996 30.8664 34.8239 31.179 34.5113C31.4912 34.1988 31.6671 33.7753 31.6672 33.3336V14.9996H25.0002C24.1163 14.9995 23.2689 14.6481 22.6438 14.023C22.0188 13.3979 21.6672 12.5506 21.6672 11.6666V4.99957H10.0002ZM25.0002 11.6666H30.9739L25.0002 5.69293V11.6666Z" fill="white"/>
<path d="M18.3335 30.0001V20.0001C18.3335 19.0796 19.0797 18.3334 20.0002 18.3334C20.9206 18.3334 21.6668 19.0796 21.6668 20.0001V30.0001C21.6668 30.9206 20.9206 31.6668 20.0002 31.6668C19.0797 31.6668 18.3335 30.9206 18.3335 30.0001Z" fill="white"/>
<path d="M23.8216 23.8216C24.4725 23.1707 25.5275 23.1707 26.1784 23.8216C26.8293 24.4725 26.8293 25.5275 26.1784 26.1784L21.1784 31.1784C20.5275 31.8292 19.4725 31.8292 18.8217 31.1784L13.8217 26.1784C13.1708 25.5275 13.1708 24.4725 13.8217 23.8216C14.4725 23.1707 15.5275 23.1707 16.1784 23.8216L20 27.6432L23.8216 23.8216Z" fill="white"/>
</svg>
