<svg width="40" height="40" viewBox="0 0 40 40" fill="none" xmlns="http://www.w3.org/2000/svg">
<path d="M3.33398 21.6666C3.33398 19.8257 4.82637 18.3333 6.66732 18.3333H33.334C35.1749 18.3333 36.6673 19.8257 36.6673 21.6666V31.6666C36.6673 33.5076 35.1749 34.9999 33.334 34.9999C33.334 32.2385 31.0954 29.9999 28.334 29.9999C25.5726 29.9999 23.334 32.2385 23.334 34.9999H16.6673C16.6673 32.2385 14.4287 29.9999 11.6673 29.9999C8.90589 29.9999 6.66732 32.2385 6.66732 34.9999C4.82637 34.9999 3.33398 33.5076 3.33398 31.6666V21.6666Z" fill="white"/>
<path d="M15.0006 35.0001C15.0006 36.841 13.5083 38.3334 11.6673 38.3334C9.82637 38.3334 8.33398 36.841 8.33398 35.0001C8.33398 33.1591 9.82637 31.6667 11.6673 31.6667C13.5083 31.6667 15.0006 33.1591 15.0006 35.0001Z" fill="white"/>
<path d="M31.6672 35.0001C31.6672 36.841 30.1748 38.3334 28.3338 38.3334C26.4929 38.3334 25.0005 36.841 25.0005 35.0001C25.0005 33.1591 26.4929 31.6667 28.3338 31.6667C30.1748 31.6667 31.6672 33.1591 31.6672 35.0001Z" fill="white"/>
<path d="M16.3497 20.7143H10.0005L14.3257 4.49467C14.7704 2.82704 16.2807 1.66672 18.0066 1.66672H31.5878C32.9904 1.66672 34.1275 2.80377 34.1275 4.2064V4.84132H36.6672V7.381H34.1275V8.01592C34.1275 9.41855 32.9904 10.5556 31.5878 10.5556H18.8894L16.3497 20.7143Z" fill="white"/>
</svg>
