<svg width="40" height="40" viewBox="0 0 40 40" fill="none" xmlns="http://www.w3.org/2000/svg">
<path d="M29.9996 38.3333C29.0791 38.3333 28.3329 37.5871 28.3329 36.6666V31.6666H11.6663C10.7496 31.6666 9.96487 31.3402 9.31209 30.6875C8.65931 30.0347 8.33293 29.25 8.33293 28.3333V11.6666H3.33293C2.41245 11.6666 1.66626 10.9204 1.66626 9.99996C1.66626 9.07948 2.41245 8.33329 3.33293 8.33329H8.33293V3.33329C8.33293 2.41282 9.07912 1.66663 9.99959 1.66663C10.9201 1.66663 11.6663 2.41282 11.6663 3.33329V28.3333H36.6663C37.5867 28.3333 38.3329 29.0795 38.3329 30C38.3329 30.9204 37.5867 31.6666 36.6663 31.6666H31.6663V36.6666C31.6663 37.5871 30.9201 38.3333 29.9996 38.3333ZM28.3329 25V11.6666H14.9996V8.33329H28.3329C29.2496 8.33329 30.0343 8.65968 30.6871 9.31246C31.3399 9.96524 31.6663 10.75 31.6663 11.6666V25H28.3329Z" fill="white"/>
</svg>
