<svg width="40" height="40" viewBox="0 0 40 40" fill="none" xmlns="http://www.w3.org/2000/svg">
<path d="M31.6669 10.0008C31.6669 8.67488 31.1396 7.4033 30.2021 6.46566C29.2645 5.52812 27.9928 5.00101 26.6669 5.00081C25.3408 5.00081 24.0679 5.52794 23.1301 6.46566L9.17669 20.7056C9.16979 20.7126 9.16256 20.7198 9.15553 20.7267C8.37168 21.498 7.74834 22.4168 7.32122 23.4302C6.89405 24.4439 6.6714 25.5332 6.66693 26.6333C6.66249 27.7331 6.87641 28.8227 7.29518 29.8397C7.71409 30.8569 8.33047 31.7815 9.10833 32.5594C9.88604 33.337 10.8095 33.9537 11.8264 34.3726C12.8436 34.7915 13.9344 35.0053 15.0344 35.0008C16.1343 34.9963 17.2224 34.7736 18.2359 34.3465C19.2497 33.9193 20.1695 33.2947 20.941 32.5106L34.9026 18.2625C35.5467 17.6052 36.6019 17.5943 37.2594 18.2381C37.9168 18.8823 37.928 19.9374 37.2838 20.5949L23.3189 34.8462L23.3173 34.8494C22.2372 35.9473 20.9491 36.8198 19.5299 37.4178C18.1108 38.0157 16.5873 38.3279 15.0475 38.3341C13.5075 38.3404 11.9809 38.0417 10.5569 37.4552C9.13298 36.8688 7.83885 36.0051 6.74993 34.9162C5.66118 33.8273 4.79887 32.533 4.2125 31.1092C3.62613 29.6853 3.32732 28.1586 3.33359 26.6186C3.33996 25.0788 3.65199 23.5552 4.24993 22.1362C4.84797 20.7172 5.72059 19.4304 6.81829 18.3504L20.762 4.12028L20.7734 4.10889C22.3362 2.54605 24.4567 1.66748 26.6669 1.66748C28.8768 1.66768 30.9962 2.54623 32.5588 4.10889C34.1215 5.67165 35.0002 7.79083 35.0003 10.0008C35.0003 12.211 34.1217 14.3315 32.5588 15.8944L32.5572 15.8927L18.5468 30.1912L18.5354 30.2043C17.5978 31.1417 16.3261 31.6689 15.0003 31.6691C13.6741 31.6691 12.4013 31.1419 11.4635 30.2043C10.5257 29.2664 9.99863 27.9937 9.99863 26.6675C9.99868 25.3468 10.5217 24.0803 11.4521 23.1437L25.4755 8.83382C26.1198 8.17657 27.1749 8.16521 27.8323 8.80941C28.4897 9.45366 28.4993 10.5088 27.8551 11.1662L13.8316 25.4761L13.8202 25.4891C13.5078 25.8017 13.332 26.2255 13.332 26.6675C13.332 27.1094 13.5079 27.5332 13.8202 27.8459C14.1329 28.1585 14.5581 28.3358 15.0003 28.3358C15.3869 28.3356 15.7601 28.201 16.0566 27.9582L16.1786 27.8459L30.1907 13.549L30.2021 13.536C31.1395 12.5983 31.6669 11.3267 31.6669 10.0008Z" fill="#30A6FF"/>
</svg>
