<svg width="40" height="40" viewBox="0 0 40 40" fill="none" xmlns="http://www.w3.org/2000/svg">
<path d="M19.9983 2.50012C28.2825 2.50012 34.9982 9.21591 34.9983 17.5001V34.1671C34.9982 36.0079 33.5061 37.5 31.6653 37.5001H24.9983C23.1575 37.5 21.6654 36.0079 21.6653 34.1671V18.3331C21.665 17.4129 20.9186 16.6671 19.9983 16.6671C19.078 16.6672 18.3325 17.4129 18.3323 18.3331V34.1671C18.3322 36.008 16.8392 37.5001 14.9983 37.5001H8.33228C6.4914 37.5001 4.9984 36.008 4.99829 34.1671V17.5001C4.99836 9.21597 11.7141 2.50022 19.9983 2.50012ZM8.33228 34.1671H14.9983V30.0001H8.33228V34.1671ZM24.9983 30.0001V34.1671H31.6653V30.0001H24.9983ZM19.9983 5.83313C13.5551 5.83323 8.33234 11.0569 8.33228 17.5001V26.6661H14.9983V18.3331C14.9985 15.572 17.2371 13.3332 19.9983 13.3331C22.7596 13.3331 24.9981 15.5719 24.9983 18.3331V26.6661H31.6653V17.5001C31.6652 11.0569 26.4416 5.83313 19.9983 5.83313Z" fill="white"/>
</svg>
