<svg width="40" height="40" viewBox="0 0 40 40" fill="none" xmlns="http://www.w3.org/2000/svg">
<path d="M23.4766 31.0361C25.1688 32.7009 25.1687 35.3987 23.4766 37.0635L23.46 37.0791C21.7675 38.7439 19.0245 38.7439 17.332 37.0791L4.16797 24.209C5.37424 24.6659 7.62715 24.8306 9.16211 23.5508L9.17578 23.5371C9.31454 23.4314 9.44764 23.3168 9.5752 23.1914L12.5391 20.2764L23.4766 31.0361ZM16.1895 3.62012C14.8771 5.29124 14.9994 7.70156 16.5576 9.23438L19.6475 12.2744L9.06543 22.6836C7.373 24.3484 4.62998 24.3483 2.9375 22.6836C1.24511 21.0188 1.2451 18.3211 2.9375 16.6562L16.1895 3.62012ZM17.2188 2.94238C18.8959 1.26344 21.6389 1.23899 23.3467 2.8877L32.8047 12.0244C33.8108 12.9967 34.2317 14.333 34.0654 15.6104L34.3975 15.2783L34.9404 14.7344L38.335 18.0127L37.2236 19.126L34.96 16.9395L31.7666 20.1387L34.0303 22.3252L32.9199 23.4385L29.5254 20.1592L30.0801 19.6025L30.4004 19.2822C29.105 19.4688 27.7386 19.0797 26.7324 18.1074L17.2744 8.9707C15.5675 7.3209 15.5424 4.62221 17.2188 2.94238Z" fill="white"/>
</svg>
