<svg width="40" height="40" viewBox="0 0 40 40" fill="none" xmlns="http://www.w3.org/2000/svg">
<path d="M3.33472 31.6667V9.16667C3.33472 8.24619 4.08091 7.5 5.00138 7.5C5.92186 7.5 6.66805 8.24619 6.66805 9.16667V31.6699C6.66843 31.6723 6.66913 31.6772 6.6713 31.6846C6.67629 31.7013 6.69026 31.7361 6.72176 31.7887C6.78804 31.8993 6.92617 32.0705 7.18888 32.2819C7.72407 32.7124 8.61855 33.187 9.92163 33.6214C12.5179 34.4868 16.1451 35 20.0014 35C23.8577 35 27.4849 34.4868 30.0811 33.6214C31.3842 33.187 32.2787 32.7124 32.8139 32.2819C33.0766 32.0705 33.2147 31.8993 33.281 31.7887C33.3125 31.7361 33.3265 31.7013 33.3315 31.6846C33.3336 31.6772 33.3343 31.6723 33.3347 31.6699V9.16667C33.3347 8.24619 34.0809 7.5 35.0014 7.5C35.9219 7.5 36.668 8.24619 36.668 9.16667V31.6667C36.668 33.0421 35.8466 34.1191 34.9037 34.8779C33.9455 35.649 32.6449 36.2808 31.1358 36.7838C28.106 37.7938 24.1016 38.3333 20.0014 38.3333C15.9012 38.3333 11.8968 37.7938 8.86694 36.7838C7.35783 36.2808 6.05721 35.649 5.09904 34.8779C4.21495 34.1665 3.43794 33.1753 3.34448 31.9206L3.33472 31.6667Z" fill="white"/>
<circle cx="20.0015" cy="9.16687" r="2.5" fill="#FF4228"/>
<path d="M20.0015 14.9998C28.2857 14.9998 35.0015 12.3881 35.0015 9.16646C35.0015 5.9448 28.2857 3.33313 20.0015 3.33313C11.7172 3.33313 5.00146 5.9448 5.00146 9.16646C5.00146 12.3881 11.7172 14.9998 20.0015 14.9998Z" stroke="#FF4228" stroke-width="3.33333" stroke-linecap="round" stroke-linejoin="round"/>
</svg>
