<svg width="40" height="40" viewBox="0 0 40 40" fill="none" xmlns="http://www.w3.org/2000/svg">
<path d="M17.1487 1.88593C21.291 1.23332 25.5321 2.02169 29.1643 4.11737C29.961 4.57739 30.235 5.59573 29.7756 6.39276C29.3156 7.18959 28.2964 7.4627 27.4993 7.00311C24.5276 5.28857 21.0572 4.64413 17.6682 5.17792C14.2791 5.71186 11.1749 7.39248 8.87427 9.93768C6.57376 12.483 5.21452 15.7406 5.02466 19.1662C4.83494 22.5918 5.826 25.98 7.8313 28.7639C9.83659 31.5474 12.736 33.5599 16.0452 34.465C19.3545 35.37 22.8749 35.1133 26.0178 33.7375C29.1608 32.3616 31.7376 29.949 33.3176 26.9035C34.8975 23.8581 35.3845 20.3629 34.6995 17.0012C34.5157 16.0994 35.0986 15.2194 36.0002 15.0353C36.902 14.8518 37.7821 15.4335 37.9661 16.3351C38.8033 20.4442 38.2058 24.7163 36.2747 28.4387C34.3435 32.1608 31.1952 35.1096 27.3538 36.7912C23.5126 38.4725 19.2108 38.7858 15.1663 37.6799C11.1216 36.5736 7.57717 34.1145 5.12622 30.7121C2.67526 27.3095 1.4646 23.1686 1.69653 18.9816C1.92859 14.7947 3.58976 10.8133 6.40161 7.70233C9.21342 4.5916 13.0066 2.53858 17.1487 1.88593ZM35.4895 5.48846C36.1403 4.83767 37.1951 4.83776 37.8459 5.48846C38.4968 6.13933 38.4968 7.19403 37.8459 7.84491L21.1799 24.5119C20.5291 25.1628 19.4734 25.1628 18.8225 24.5119L13.8225 19.5119C13.1719 18.8611 13.172 17.8063 13.8225 17.1555C14.4734 16.5046 15.5291 16.5046 16.1799 17.1555L20.0012 20.9767L35.4895 5.48846Z" fill="#4CAF50"/>
</svg>
