<svg width="40" height="40" viewBox="0 0 40 40" fill="none" xmlns="http://www.w3.org/2000/svg">
<path d="M6.66943 1.66663C7.58974 1.66683 8.33545 2.41327 8.33545 3.33362V31.6666H36.6694C37.5897 31.6669 38.3354 32.4133 38.3354 33.3336C38.3353 34.2539 37.5896 34.9994 36.6694 34.9996H8.33545V36.6666C8.33545 37.587 7.58974 38.3334 6.66943 38.3336C5.74896 38.3336 5.00244 37.5871 5.00244 36.6666V34.9996H3.33545C2.41515 34.9995 1.66954 34.2539 1.66943 33.3336C1.66943 32.4132 2.41508 31.6667 3.33545 31.6666H5.00244V3.33362C5.00244 2.41314 5.74896 1.66663 6.66943 1.66663Z" fill="white"/>
<path d="M31.6694 21.6662L35.0028 18.3329V36.6662C35.0028 37.5867 34.2566 38.3329 33.3361 38.3329C32.4156 38.3329 31.6694 37.5867 31.6694 36.6662V21.6662Z" fill="white"/>
<path d="M22.5027 4.99976L19.1694 8.3331L1.80857 8.3331C0.8881 8.3331 0.14191 7.58691 0.14191 6.66644C0.141911 5.74596 0.888102 4.99977 1.80858 4.99977L22.5027 4.99976Z" fill="white"/>
<path d="M35.0047 6.87272C35.0046 6.37589 34.8075 5.89917 34.4562 5.54785C34.1048 5.19655 33.6282 4.99935 33.1313 4.99935C32.6344 4.99935 32.1578 5.19655 31.8064 5.54785L23.4568 13.9007V13.9023C23.2587 14.1003 23.1138 14.3447 23.0353 14.6136L22.0652 17.9372L25.3904 16.9671C25.6587 16.8885 25.904 16.7433 26.1017 16.5456L34.4562 8.19759L34.5799 8.06087C34.8534 7.72737 35.0047 7.30781 35.0047 6.87272ZM38.338 6.87272C38.338 8.25363 37.7894 9.57788 36.8129 10.5544V10.556L28.4585 18.904L28.4568 18.9023C27.8629 19.4964 27.1294 19.9315 26.323 20.167V20.1686L21.5395 21.5635C21.1095 21.6889 20.6535 21.6958 20.2195 21.5846C19.7854 21.4734 19.389 21.2472 19.0721 20.9303C18.7552 20.6134 18.529 20.217 18.4178 19.7829C18.3067 19.3489 18.3135 18.8929 18.4389 18.4629L19.8354 13.6794L19.9331 13.3799C20.1822 12.6912 20.5787 12.0635 21.0984 11.5439L29.4497 3.19108C30.4261 2.21466 31.7504 1.66602 33.1313 1.66602C34.5122 1.66602 35.8365 2.21466 36.8129 3.19108C37.7894 4.16752 38.338 5.49184 38.338 6.87272Z" fill="white"/>
</svg>
