<svg width="40" height="40" viewBox="0 0 40 40" fill="none" xmlns="http://www.w3.org/2000/svg">
<g clip-path="url(#clip0_5191_220)">
<path d="M31.5088 27.1982L31.6503 26.9993C31.9766 26.5409 31.8695 25.9046 31.4111 25.5784C30.9527 25.2525 30.3163 25.3594 29.9901 25.8176L29.5626 26.4183C29.1234 27.0354 28.9359 27.7931 29.0262 28.5417C30.0163 28.4995 30.9328 28.0072 31.5088 27.1982ZM34.2244 29.1311C33.3176 30.405 31.9958 31.2966 30.511 31.6763C30.7843 31.9731 31.088 32.2447 31.4217 32.4823L33.2582 33.7894C34.0082 34.3232 34.1834 35.3638 33.6496 36.1137C33.1158 36.8632 32.0751 37.0388 31.3253 36.5051L29.4888 35.198C28.2895 34.3443 27.3272 33.2223 26.6619 31.9393L23.4393 32.021C22.4982 32.0444 21.5745 31.7623 20.8074 31.2165C18.8493 29.8229 18.392 27.1052 19.7854 25.147L22.1213 21.8651C23.0478 20.5634 24.1004 19.3553 25.2642 18.2606L27.0404 16.5901C27.9522 15.7321 27.8506 14.254 26.8306 13.528C25.993 12.9321 24.891 12.861 23.9833 13.3434L22.7149 14.0168C20.6002 15.141 18.6657 16.5759 16.9751 18.2722L14.1265 21.1293C12.3327 22.9287 9.50068 23.1685 7.4305 21.6955C4.81357 19.8329 4.49514 16.0654 6.7622 13.7901L9.71941 10.8225C10.461 10.0784 10.798 9.02195 10.6236 7.98596C10.4708 7.07831 11.0826 6.21879 11.9902 6.06587C12.8979 5.91303 13.7574 6.5248 13.9103 7.4325C14.2635 9.53005 13.5815 11.6693 12.0799 13.1759L9.12365 16.1421C8.31002 16.9585 8.42439 18.3114 9.36341 18.9798C10.1062 19.508 11.1225 19.4216 11.766 18.7759L14.6133 15.9179C16.5386 13.9861 18.7431 12.3543 21.1514 11.0741L22.4185 10.3997C24.4411 9.32467 26.8973 9.48428 28.7635 10.8123C31.4974 12.7582 31.7679 16.7191 29.3237 19.0183L27.5474 20.6888C26.5437 21.633 25.6361 22.6753 24.837 23.798L22.5011 27.0799C22.1752 27.5383 22.2821 28.1747 22.7403 28.5008C22.9198 28.6283 23.1364 28.6932 23.3565 28.6877L25.6842 28.6283C25.5803 27.1607 25.9864 25.6944 26.8469 24.4854L27.2744 23.8847C28.6681 21.9267 31.3858 21.4693 33.344 22.8627C35.3022 24.2565 35.7598 26.9739 34.366 28.9322L34.2244 29.1311Z" fill="white"/>
</g>
<defs>
<clipPath id="clip0_5191_220">
<rect width="40" height="40" fill="white"/>
</clipPath>
</defs>
</svg>
