<svg width="40" height="40" viewBox="0 0 40 40" fill="none" xmlns="http://www.w3.org/2000/svg">
<path d="M24.1678 8.33316L9.16821 8.33365C8.70803 8.33367 8.33498 8.70668 8.3349 9.16686L8.33362 17.5002C8.33355 17.9605 8.70667 18.3337 9.16696 18.3337H24.1679C24.6281 18.3337 25.0012 17.9606 25.0012 17.5003V9.16649C25.0012 8.70624 24.6281 8.33314 24.1678 8.33316Z" fill="white"/>
<path d="M30.8347 23.3331L20.8346 23.3334C20.3744 23.3334 20.0014 23.7064 20.0013 24.1666L20.0001 30.833C20.0001 31.2933 20.3732 31.6665 20.8335 31.6665H30.8347C31.295 31.6665 31.6681 31.2934 31.6681 30.8331V24.1665C31.6681 23.7062 31.295 23.3331 30.8347 23.3331Z" fill="white"/>
<path d="M15 36.6669H25" stroke="white" stroke-width="3.33333"/>
<path d="M5.0022 34.9999H10.0032V38.3329H5.0022C3.16132 38.3328 1.66821 36.8407 1.66821 34.9999L1.67017 29.9999H5.00317L5.0022 34.9999ZM38.3352 34.9999C38.3352 36.8408 36.8422 38.3329 35.0012 38.3329H30.0012V34.9999H35.0012V29.9999H38.3352V34.9999ZM5.0022 23.3329H1.66821V14.9999H5.0022V23.3329ZM38.3352 23.3329H35.0012V14.9999H38.3352V23.3329ZM10.0032 4.99988H5.0022L5.00317 9.99988H1.67017L1.66821 4.99988C1.66841 3.15925 3.16148 1.66703 5.0022 1.66687H10.0032V4.99988ZM35.0012 1.66687C36.842 1.66687 38.335 3.1591 38.3352 4.99988V9.99988H35.0012V4.99988H30.0012V1.66687H35.0012ZM25.0012 4.99988H15.0012V1.66687H25.0012V4.99988Z" fill="white"/>
</svg>
