<svg width="40" height="40" viewBox="0 0 40 40" fill="none" xmlns="http://www.w3.org/2000/svg">
<path d="M4.86841 3.33386C5.7887 3.33026 6.53744 4.07369 6.54126 4.99402L6.65845 33.3339H34.8752C35.7956 33.334 36.5413 34.0805 36.5413 35.0009C36.5411 35.9211 35.7955 36.6667 34.8752 36.6669H6.65845C4.82304 36.6667 3.33301 35.182 3.32544 33.3466L3.20825 5.00671C3.20485 4.0866 3.94821 3.33769 4.86841 3.33386ZM30.4866 13.8221C31.1374 13.1713 32.1931 13.1713 32.844 13.8221C33.4945 14.473 33.4946 15.5278 32.844 16.1786L24.51 24.5116C23.8591 25.1625 22.8044 25.1625 22.1536 24.5116L16.6653 19.0233L12.844 22.8456C12.1931 23.4965 11.1374 23.4965 10.4866 22.8456C9.83574 22.1947 9.83571 21.139 10.4866 20.4882L15.4866 15.4882L15.6135 15.3749C16.2681 14.841 17.2338 14.878 17.844 15.4882L23.3323 20.9764L30.4866 13.8221Z" fill="white"/>
</svg>
