<svg width="40" height="40" viewBox="0 0 40 40" fill="none" xmlns="http://www.w3.org/2000/svg">
<path d="M25.0002 3.33344C25.0225 3.33344 25.0448 3.33419 25.0669 3.33506C25.7909 3.34229 26.5068 3.48773 27.1763 3.76475C27.8667 4.05049 28.4943 4.46942 29.022 4.99847L35.0002 10.9767L35.1938 11.1785C35.6332 11.6619 35.9852 12.2191 36.2355 12.824C36.521 13.514 36.6681 14.2534 36.6668 15.0001V31.6668C36.6668 32.9928 36.1397 34.2642 35.202 35.2019C34.2643 36.1396 32.9929 36.6668 31.6668 36.6668H8.3335C7.00741 36.6668 5.73602 36.1396 4.79834 35.2019C3.86066 34.2642 3.3335 32.9928 3.3335 31.6668V8.33343C3.3335 7.00736 3.86066 5.73596 4.79834 4.79828C5.73602 3.8606 7.00742 3.33344 8.3335 3.33344H25.0002ZM8.3335 6.66677C7.89147 6.66677 7.46767 6.84249 7.15511 7.15505C6.84255 7.46761 6.66683 7.89141 6.66683 8.33343V31.6668C6.66683 32.1088 6.84255 32.5326 7.15511 32.8451C7.46767 33.1577 7.89147 33.3334 8.3335 33.3334H31.6668C32.1088 33.3334 32.5326 33.1577 32.8452 32.8451C33.1578 32.5326 33.3335 32.1088 33.3335 31.6668V16.6668H26.6668C25.7828 16.6668 24.9352 16.3153 24.3101 15.6902C23.6849 15.0651 23.3335 14.2175 23.3335 13.3334V6.66677H8.3335ZM26.6668 13.3334H32.6434L26.6668 7.35687V13.3334Z" fill="white"/>
</svg>
