<svg width="40" height="40" viewBox="0 0 40 40" fill="none" xmlns="http://www.w3.org/2000/svg">
<path d="M28.3328 10C28.3875 9.99999 28.4423 10.0025 28.4968 10.0078C28.5146 10.0095 28.532 10.0133 28.5496 10.0156C28.5878 10.0206 28.626 10.0256 28.6638 10.0332C28.6757 10.0356 28.6872 10.0394 28.699 10.042C28.7398 10.0512 28.7808 10.06 28.821 10.0723C28.8476 10.0804 28.8732 10.0912 28.8992 10.1006C28.9213 10.1086 28.9437 10.116 28.9656 10.125C28.9944 10.1368 29.0226 10.1497 29.0505 10.1631C29.0737 10.1742 29.0971 10.1851 29.1199 10.1973C29.152 10.2145 29.1828 10.2337 29.2136 10.2529C29.2261 10.2607 29.2394 10.2672 29.2517 10.2754C29.3455 10.3374 29.4323 10.4091 29.5115 10.4883L29.6257 10.6143C29.6367 10.6277 29.6455 10.6426 29.656 10.6562C29.7432 10.7703 29.8171 10.8948 29.8728 11.0293C29.8812 11.0495 29.8877 11.0704 29.8953 11.0908C29.9615 11.2705 29.9998 11.4643 29.9998 11.667V28.333C29.9998 29.2535 29.2532 30 28.3328 30C27.4124 29.9998 26.6667 29.2534 26.6667 28.333V15.6895L12.8445 29.5117C12.1936 30.1624 11.1389 30.1624 10.488 29.5117C9.83722 28.8609 9.83733 27.8062 10.488 27.1553L24.3103 13.333H11.6667C10.7464 13.333 9.99993 12.5873 9.99976 11.667C9.99976 10.7465 10.7463 10 11.6667 10H28.3328Z" fill="white"/>
</svg>
