<svg width="40" height="40" viewBox="0 0 40 40" fill="none" xmlns="http://www.w3.org/2000/svg">
<path d="M31.6637 10.0005C27.7979 10.0005 23.2814 7.77285 20.181 5.06724C20.1298 5.02376 20.0643 5.00051 19.9971 5.00051C19.9296 5.00051 19.8645 5.02504 19.8131 5.06887L19.8115 5.06724C16.7293 7.75457 12.1972 10.0005 8.3304 10.0005V21.6672C8.3304 25.3933 9.61474 28.1024 11.6409 30.1779C13.7128 32.2999 16.6363 33.834 19.9906 34.9924C20.0027 34.9966 20.016 34.9993 20.028 35.0038C23.3698 33.8375 26.2851 32.303 28.3532 30.1812C30.3787 28.103 31.6637 25.3936 31.6637 21.6672V10.0005ZM34.9971 21.6672C34.9971 26.274 33.3653 29.816 30.7409 32.5086C28.1618 35.1547 24.6978 36.9082 21.112 38.1581L21.099 38.1629C20.3854 38.4047 19.6117 38.396 18.9033 38.1418V38.1434C18.8935 38.14 18.8838 38.1354 18.874 38.132C18.8715 38.1311 18.8684 38.1313 18.8659 38.1304V38.1288C15.2838 36.8879 11.8297 35.1424 9.25651 32.507C6.62906 29.816 4.99707 26.2738 4.99707 21.6672V10.0005C4.99727 9.11672 5.34869 8.26868 5.97363 7.64374C6.59872 7.01885 7.44652 6.66717 8.3304 6.66717L8.86589 6.64764C11.5945 6.44677 15.0863 4.77146 17.6338 2.54608L17.6484 2.53469C18.3033 1.97523 19.1358 1.66718 19.9971 1.66718C20.8584 1.66718 21.6908 1.97523 22.3457 2.53469L22.3603 2.54608C25.0929 4.93509 28.8686 6.66717 31.6637 6.66717C32.5476 6.66717 33.3954 7.01885 34.0205 7.64374C34.6455 8.26868 34.9969 9.11673 34.9971 10.0005V21.6672Z" fill="white"/>
<path d="M23.8187 15.4879C24.4696 14.837 25.5246 14.837 26.1755 15.4879C26.8264 16.1387 26.8264 17.1937 26.1755 17.8446L19.5088 24.5113C18.858 25.1622 17.8029 25.1622 17.1521 24.5113L13.8187 21.178C13.1678 20.5271 13.1678 19.4721 13.8187 18.8212C14.4696 18.1703 15.5246 18.1703 16.1755 18.8212L18.3304 20.9761L23.8187 15.4879Z" fill="white"/>
</svg>
