<svg width="40" height="40" viewBox="0 0 40 40" fill="none" xmlns="http://www.w3.org/2000/svg">
<path d="M19.9998 6.66663C20.9202 6.66663 21.6667 7.32991 21.6667 8.14807V18.3336H31.8523C32.6703 18.3338 33.3336 19.0794 33.3337 19.9996C33.3337 20.92 32.6704 21.6665 31.8523 21.6666H21.6667V31.8522C21.6666 32.6702 20.9201 33.3336 19.9998 33.3336C19.0796 33.3334 18.3339 32.6701 18.3337 31.8522V21.6666H8.14819C7.33005 21.6666 6.66675 20.9201 6.66675 19.9996C6.66692 19.0794 7.33016 18.3337 8.14819 18.3336H18.3337V8.14807C18.3338 7.33003 19.0795 6.66682 19.9998 6.66663Z" fill="white"/>
</svg>
