<svg width="40" height="40" viewBox="0 0 40 40" fill="none" xmlns="http://www.w3.org/2000/svg">
<path d="M20.0215 18.8057C20.9706 18.8058 21.7402 19.5753 21.7402 20.5244V27.3994C21.7402 28.3485 20.9706 29.118 20.0215 29.1182C19.0723 29.1182 18.3028 28.3486 18.3027 27.3994V20.5244C18.3027 19.5752 19.0722 18.8057 20.0215 18.8057ZM20.0215 12.5C21.287 12.5002 22.3125 13.5264 22.3125 14.792C22.3123 16.0574 21.2869 17.0828 20.0215 17.083C18.7559 17.083 17.7297 16.0575 17.7295 14.792C17.7295 13.5263 18.7558 12.5 20.0215 12.5Z" fill="#FFED65"/>
<path d="M9.34376 5.08248C12.8593 2.57102 17.1495 1.38181 21.4564 1.72473C25.7635 2.06782 29.8116 3.92098 32.8854 6.95748C35.9589 9.99378 37.8623 14.0176 38.2581 18.3198C38.6538 22.6222 37.5168 26.927 35.0485 30.4731C32.5801 34.0193 28.9376 36.58 24.7653 37.7029C20.6254 38.817 16.2277 38.4434 12.3353 36.6515C12.0638 36.5527 11.7719 36.5267 11.4873 36.575L5.89649 38.2107C5.88348 38.2145 5.87053 38.2186 5.85743 38.2221C5.30874 38.3677 4.73121 38.37 4.181 38.2303C3.63098 38.0905 3.12547 37.8126 2.7129 37.423C2.30023 37.033 1.99333 36.5436 1.8226 36.0021C1.65195 35.4608 1.62213 34.8848 1.73634 34.3289L1.78354 34.1499L3.52182 28.7804C3.5812 28.4739 3.55595 28.1574 3.44369 27.8657C1.60526 23.996 1.17768 19.6043 2.24089 15.4519C3.31265 11.2666 5.8284 7.59405 9.34376 5.08248ZM21.1927 5.04667C17.6688 4.76596 14.1587 5.73919 11.2822 7.79407C8.40569 9.849 6.34702 12.8541 5.47006 16.2788C4.64804 19.4892 4.91455 22.8747 6.2155 25.9093L6.48894 26.5115L6.53614 26.6222C6.90358 27.5493 6.98651 28.5649 6.77214 29.5389C6.76066 29.591 6.74626 29.6427 6.72983 29.6935L5.0127 34.9946L10.6491 33.3474C10.6964 33.3336 10.7456 33.3229 10.794 33.3133C11.5982 33.1538 12.4277 33.1932 13.2093 33.4288L13.5413 33.5428L13.6537 33.59C16.8567 35.0858 20.4857 35.4022 23.8994 34.4835C27.3131 33.5648 30.2929 31.4702 32.3125 28.5688C34.332 25.6674 35.2616 22.146 34.9378 18.6258C34.6141 15.1057 33.0579 11.8132 30.5433 9.3289C28.0284 6.84455 24.7166 5.32744 21.1927 5.04667Z" fill="#FFED65"/>
</svg>
