<svg width="40" height="40" viewBox="0 0 40 40" fill="none" xmlns="http://www.w3.org/2000/svg">
<path d="M4.16821 26.6674C4.62845 26.6674 5.0022 27.0402 5.0022 27.5004V31.6674C5.00233 32.1093 5.17803 32.5327 5.49048 32.8452C5.80298 33.1576 6.22632 33.3334 6.66821 33.3334H10.8352C11.2953 33.3335 11.6681 33.7064 11.6682 34.1664V35.8334C11.6682 36.2936 11.2954 36.6673 10.8352 36.6674H6.66821C5.34227 36.6674 4.07068 36.1401 3.13306 35.2026C2.19549 34.265 1.66834 32.9933 1.66821 31.6674V27.5004C1.66821 27.0403 2.0411 26.6676 2.50122 26.6674H4.16821ZM37.5022 26.6674C37.9624 26.6675 38.3352 27.0402 38.3352 27.5004V31.6674C38.3351 32.9933 37.8079 34.265 36.8704 35.2026C35.9327 36.1401 34.6612 36.6674 33.3352 36.6674H29.1682C28.7081 36.6673 28.3352 36.2936 28.3352 35.8334V34.1664C28.3353 33.7064 28.7082 33.3336 29.1682 33.3334H33.3352C33.7772 33.3334 34.2014 33.1577 34.5139 32.8452C34.8262 32.5327 35.0021 32.1091 35.0022 31.6674V27.5004C35.0022 27.0402 35.375 26.6674 35.8352 26.6674H37.5022ZM26.6682 11.6674C28.5092 11.6674 30.0022 13.1595 30.0022 15.0004V25.0004C30.0021 26.8413 28.5091 28.3334 26.6682 28.3334H13.3352C11.4943 28.3334 10.0023 26.8413 10.0022 25.0004V15.0004C10.0022 13.1595 11.4943 11.6674 13.3352 11.6674H26.6682ZM13.3352 25.0004H26.6682V15.0004H13.3352V25.0004ZM10.8352 3.33344C11.2953 3.33351 11.6681 3.70631 11.6682 4.16644V5.83344C11.6682 6.29362 11.2954 6.66637 10.8352 6.66644H6.66821C6.22645 6.66649 5.80295 6.84247 5.49048 7.15472C5.17793 7.46727 5.00221 7.89143 5.0022 8.33344V12.5004C5.00205 12.9605 4.62836 13.3334 4.16821 13.3334H2.50122C2.04119 13.3333 1.66836 12.9605 1.66821 12.5004V8.33344C1.66823 7.0074 2.19543 5.73594 3.13306 4.79828C4.0707 3.86064 5.3422 3.33348 6.66821 3.33344H10.8352ZM33.3352 3.33344C34.6613 3.33346 35.9327 3.86062 36.8704 4.79828C37.808 5.73594 38.3352 7.00738 38.3352 8.33344V12.5004C38.3351 12.9605 37.9623 13.3334 37.5022 13.3334H35.8352C35.3751 13.3334 35.0023 12.9605 35.0022 12.5004V8.33344C35.0022 7.89144 34.8265 7.46727 34.5139 7.15472C34.2014 6.84219 33.7772 6.66647 33.3352 6.66644H29.1682C28.7081 6.66632 28.3352 6.29359 28.3352 5.83344V4.16644C28.3353 3.70634 28.7081 3.33356 29.1682 3.33344H33.3352Z" fill="white"/>
</svg>
