<svg width="40" height="40" viewBox="0 0 40 40" fill="none" xmlns="http://www.w3.org/2000/svg">
<path d="M1.66553 30.0001V8.33343C1.66553 7.00735 2.19269 5.73596 3.13037 4.79828C4.06805 3.8606 5.33944 3.33344 6.66553 3.33344H13.215L13.5259 3.3432C14.2461 3.38807 14.949 3.58894 15.5864 3.93239C16.3151 4.32507 16.9362 4.89153 17.3914 5.58278L18.731 7.56683L18.7407 7.58311C18.894 7.81592 19.1034 8.0071 19.3494 8.13812C19.5953 8.26904 19.8701 8.33607 20.1486 8.33343H33.3322C34.6583 8.33343 35.9297 8.8606 36.8673 9.79828C37.805 10.736 38.3322 12.0074 38.3322 13.3334V30.0001C38.3322 31.3262 37.805 32.5976 36.8673 33.5353C35.9297 34.4729 34.6583 35.0001 33.3322 35.0001H6.66553C5.33944 35.0001 4.06805 34.4729 3.13037 33.5353C2.19269 32.5976 1.66553 31.3262 1.66553 30.0001ZM4.99886 30.0001C4.99886 30.4421 5.17458 30.8659 5.48714 31.1785C5.7997 31.491 6.2235 31.6668 6.66553 31.6668H33.3322C33.7742 31.6668 34.198 31.491 34.5106 31.1785C34.8231 30.8659 34.9989 30.4421 34.9989 30.0001V13.3334C34.9989 12.8914 34.8231 12.4676 34.5106 12.155C34.237 11.8815 33.8782 11.7127 33.4966 11.6749L33.3322 11.6668H20.1649C19.3345 11.6721 18.5152 11.4712 17.7821 11.0808C17.0495 10.6907 16.4262 10.1234 15.9673 9.43207L14.618 7.43337L14.6066 7.41709C14.455 7.18683 14.2487 6.99785 14.006 6.86696C13.8241 6.7689 13.6256 6.70528 13.4217 6.67979L13.215 6.66677H6.66553C6.2235 6.66677 5.7997 6.84249 5.48714 7.15505C5.17458 7.46761 4.99886 7.89141 4.99886 8.33343V30.0001Z" fill="white"/>
</svg>
