<svg width="40" height="40" viewBox="0 0 40 40" fill="none" xmlns="http://www.w3.org/2000/svg">
<path d="M19.9993 11.6666C24.6015 11.6668 28.3323 15.3974 28.3323 19.9996C28.3322 22.236 27.4507 24.2675 26.0168 25.7643L25.7258 26.0524C24.2327 27.4653 22.2172 28.3326 19.9993 28.3326C15.3969 28.3326 11.6654 24.6019 11.6653 19.9996C11.6653 15.3973 15.3969 11.6666 19.9993 11.6666ZM16.5842 24.3805C17.5264 25.1159 18.7115 25.5553 19.9993 25.5553C21.5765 25.5552 22.9964 24.9012 24.011 23.8424C24.9693 22.842 25.5549 21.4917 25.5549 19.9996C25.5549 18.8589 25.21 17.7988 24.6204 16.9166L16.5842 24.3805ZM19.9993 14.444C16.931 14.444 14.4436 16.9314 14.4436 19.9996C14.4436 21.0265 14.7225 21.9879 15.2083 22.8131L23.1584 15.4313C22.2613 14.8096 21.1733 14.444 19.9993 14.444Z" fill="white"/>
<path d="M31.6676 6.66663C31.6676 5.74615 30.9214 4.99996 30.001 4.99996H10.001C9.0805 4.99996 8.33431 5.74615 8.33431 6.66663V33.3333C8.33431 34.2538 9.0805 35 10.001 35H30.001C30.9214 35 31.6676 34.2538 31.6676 33.3333V6.66663ZM35.001 33.3333C35.001 36.0947 32.7624 38.3333 30.001 38.3333H10.001C7.23955 38.3333 5.00098 36.0947 5.00098 33.3333V6.66663C5.00098 3.9052 7.23955 1.66663 10.001 1.66663H30.001C32.7624 1.66663 35.001 3.9052 35.001 6.66663V33.3333Z" fill="white"/>
</svg>
