<svg width="40" height="40" viewBox="0 0 40 40" fill="none" xmlns="http://www.w3.org/2000/svg">
<path d="M19.9995 28.333C21.8405 28.333 23.3325 29.826 23.3325 31.667C23.3323 33.5077 21.8403 35 19.9995 35C18.1587 35 16.6667 33.5077 16.6665 31.667C16.6665 29.826 18.1586 28.333 19.9995 28.333ZM19.9995 16.667C21.8405 16.667 23.3325 18.159 23.3325 20C23.3325 21.8409 21.8405 23.333 19.9995 23.333C18.1586 23.333 16.6665 21.8409 16.6665 20C16.6665 18.159 18.1586 16.667 19.9995 16.667ZM19.9995 4.99997C21.8404 4.99997 23.3324 6.49216 23.3325 8.33298C23.3325 10.1739 21.8405 11.667 19.9995 11.667C18.1586 11.667 16.6665 10.1739 16.6665 8.33298C16.6667 6.49217 18.1587 4.99998 19.9995 4.99997Z" fill="white"/>
</svg>
