<svg width="40" height="40" viewBox="0 0 40 40" fill="none" xmlns="http://www.w3.org/2000/svg">
<g clip-path="url(#clip0_3755_27690)">
<path d="M28.0225 12.3541C28.0224 17.1403 24.5912 21.3336 19.9984 21.3336C15.4326 21.3336 12.0117 17.3388 12.0117 12.5218H14.6777C14.6777 16.1502 17.1744 18.666 19.9984 18.666C22.7952 18.6659 25.3548 16.0132 25.3548 12.3541H28.0225Z" fill="white"/>
<path d="M31.6667 33.3331C31.6667 29.6512 28.6819 26.6665 25 26.6665H15C11.3181 26.6665 8.33333 29.6512 8.33333 33.3331V36.6665H31.6667V33.3331ZM35 39.9998H5V33.3331C5 27.8103 9.47715 23.3331 15 23.3331H25C30.5228 23.3331 35 27.8103 35 33.3331V39.9998Z" fill="white"/>
<path d="M19.9968 1.66687C20.6142 1.66697 21.115 2.16762 21.115 2.78503V3.33386H21.4783C25.0783 3.33386 27.9968 6.25237 27.9968 9.85242V11.6678H28.6667C29.2187 11.6683 29.6658 12.1148 29.6658 12.6669C29.6657 13.2189 29.2187 13.6655 28.6667 13.6659H11.3328C10.7806 13.6658 10.3338 13.2191 10.3337 12.6669C10.3337 12.1146 10.7805 11.6679 11.3328 11.6678H11.9968V9.85242C11.9968 6.25237 14.9153 3.33387 18.5154 3.33386H18.8787V2.78503C18.8787 2.16756 19.3794 1.66687 19.9968 1.66687Z" fill="white"/>
</g>
<defs>
<clipPath id="clip0_3755_27690">
<rect width="40" height="40" fill="white"/>
</clipPath>
</defs>
</svg>
