<svg width="40" height="40" viewBox="0 0 40 40" fill="none" xmlns="http://www.w3.org/2000/svg">
<path d="M35.0024 31.3157V8.68452C35.0024 6.64968 33.3529 5.00012 31.318 5.00012H17.5024V15.6251H23.4126C25.4967 15.6251 27.3623 16.9179 28.0941 18.8694C28.5186 20.0013 28.5186 21.2487 28.0941 22.3806C27.3623 24.3321 25.4967 25.625 23.4125 25.625H17.5024V35.0001H31.318C33.3529 35.0001 35.0024 33.3506 35.0024 31.3157Z" fill="white"/>
<path d="M5.41919 9.58386C5.41919 7.05256 7.47162 5.00012 10.0029 5.00012H20.1689L18.9617 14.6449L21.7693 14.0211C25.9941 13.0823 30.0017 16.2973 30.0017 20.6251C30.0017 24.9529 25.9941 28.1679 21.7693 27.2291L18.9934 26.6127L20.1934 35.0001H10.0029C7.47162 35.0001 5.41919 32.9477 5.41919 30.4164V9.58386ZM7.91919 30.4164C7.91919 31.567 8.85233 32.5001 10.0029 32.5001H17.3113L16.3249 25.6007C16.1818 24.5977 17.0201 23.7503 17.9949 23.8417L18.1914 23.8734L22.3113 24.7889C24.9748 25.3808 27.5017 23.3536 27.5017 20.6251C27.5017 17.8966 24.9748 15.8694 22.3113 16.4613L18.1829 17.3793C17.1392 17.6109 16.1813 16.7385 16.314 15.6776L17.3369 7.50012H10.0029C8.85234 7.50012 7.91919 8.43327 7.91919 9.58386V30.4164Z" fill="white"/>
</svg>
