<svg width="40" height="40" viewBox="0 0 40 40" fill="none" xmlns="http://www.w3.org/2000/svg">
<g clip-path="url(#clip0_3755_27925)">
<path d="M15.0005 40.0002H0.000488281V34.1669V30.3454C0.000488281 29.5908 0.300247 28.8671 0.833822 28.3336C0.833822 30.0002 3.33382 33.3333 7.50049 33.3333C11.6672 33.3333 14.1672 30.2809 14.1672 28.3336C14.7007 28.8671 15.0005 29.5908 15.0005 30.3454V40.0002Z" fill="white"/>
<circle cx="7.50057" cy="25.8333" r="5.83333" fill="white"/>
<path d="M23.9194 24.083L15.7648 15.8193C13.4974 13.5216 13.5096 9.82454 15.7922 7.54184C18.1071 5.22675 21.8681 5.25159 24.1523 7.59704L32.0542 15.711C33.2845 16.9743 33.318 18.9773 32.1307 20.281L31.4389 21.0406L33.9034 23.285L31.6591 25.7496L29.1945 23.5051L28.7565 23.9861C27.4699 25.3989 25.2615 25.4431 23.9194 24.083Z" fill="#AFAFAF"/>
<path d="M11.6673 28.3332H3.33398L9.01087 7.04494C9.59454 4.85617 11.5768 3.33325 13.842 3.33325H31.6673C33.5083 3.33325 35.0006 4.82564 35.0006 6.66659V7.49992H38.334V10.8333H35.0006V11.6666C35.0006 13.5075 33.5083 14.9999 31.6673 14.9999H15.0007L11.6673 28.3332Z" fill="white"/>
</g>
<defs>
<clipPath id="clip0_3755_27925">
<rect width="40" height="40" fill="white"/>
</clipPath>
</defs>
</svg>
