<svg width="40" height="40" viewBox="0 0 40 40" fill="none" xmlns="http://www.w3.org/2000/svg">
<path d="M5.00277 6.66622V11.6662H35.0028V6.66622H5.00277ZM38.3361 11.6662C38.3361 13.5072 36.8437 14.9996 35.0028 14.9996H5.00277C3.16182 14.9996 1.66943 13.5072 1.66943 11.6662V6.66622C1.66943 4.82527 3.16182 3.33289 5.00277 3.33289H35.0028C36.8437 3.33289 38.3361 4.82527 38.3361 6.66622V11.6662Z" fill="white"/>
<path d="M5.00293 31.6666V13.3333C5.00293 12.4128 5.74912 11.6666 6.6696 11.6666C7.59007 11.6666 8.33626 12.4128 8.33626 13.3333V31.6666C8.33626 32.1087 8.51198 32.5324 8.82454 32.845C9.1371 33.1576 9.5609 33.3333 10.0029 33.3333H15.0029C15.9234 33.3333 16.6696 34.0795 16.6696 35C16.6696 35.9204 15.9234 36.6666 15.0029 36.6666H10.0029C8.67685 36.6666 7.40545 36.1395 6.46777 35.2018C5.53009 34.2641 5.00293 32.9927 5.00293 31.6666ZM31.6696 18.3333V13.3333C31.6696 12.4128 32.4158 11.6666 33.3363 11.6666C34.2567 11.6666 35.0029 12.4128 35.0029 13.3333V18.3333C35.0029 19.2538 34.2567 20 33.3363 20C32.4158 20 31.6696 19.2538 31.6696 18.3333Z" fill="white"/>
<path d="M23.3363 18.3329C24.2567 18.3329 25.0029 19.0791 25.0029 19.9996C25.0029 20.92 24.2567 21.6662 23.3363 21.6662H16.6696C15.7491 21.6662 15.0029 20.92 15.0029 19.9996C15.0029 19.0791 15.7491 18.3329 16.6696 18.3329H23.3363Z" fill="white"/>
<path d="M37.8478 26.1779L26.6694 37.3563L19.6577 30.3446L22.0145 27.9878L26.6694 32.6428L35.491 23.8212L37.8478 26.1779Z" fill="white"/>
</svg>
