<svg width="40" height="40" viewBox="0 0 40 40" fill="none" xmlns="http://www.w3.org/2000/svg">
<path d="M35.0164 3.3335C35.0656 3.33398 35.1148 3.3365 35.1638 3.34131C35.1816 3.34304 35.199 3.34684 35.2166 3.34912C35.2547 3.3541 35.293 3.35907 35.3308 3.3667C35.3427 3.36909 35.3542 3.37285 35.366 3.37549C35.4068 3.38465 35.4478 3.39349 35.488 3.40576C35.5146 3.41388 35.5402 3.42469 35.5662 3.43408C35.5883 3.44208 35.6107 3.44953 35.6326 3.4585C35.6614 3.47032 35.6896 3.48322 35.7175 3.49658C35.7407 3.50766 35.7641 3.51855 35.7869 3.53076C35.819 3.54798 35.8498 3.5672 35.8806 3.58643C35.8931 3.59421 35.9064 3.60074 35.9187 3.60889C36.1484 3.76084 36.3375 3.96873 36.4685 4.2124C36.4823 4.23802 36.4943 4.26437 36.5066 4.29053C36.5178 4.31421 36.5297 4.33754 36.5398 4.36182C36.5517 4.39063 36.5608 4.4204 36.571 4.44971C36.5784 4.47057 36.587 4.49097 36.5935 4.51221C36.6014 4.53801 36.6074 4.56425 36.614 4.59033C36.6472 4.7216 36.6667 4.85889 36.6667 5.00049V15.0005C36.6666 15.9207 35.9209 16.6662 35.0007 16.6665C34.0804 16.6665 33.3339 15.9208 33.3337 15.0005V9.02295L24.5115 17.8452C23.8606 18.4959 22.8058 18.4959 22.155 17.8452C21.5042 17.1944 21.5043 16.1397 22.155 15.4888L30.9773 6.6665H25.0007C24.0804 6.6665 23.3339 5.92081 23.3337 5.00049C23.3337 4.08001 24.0803 3.3335 25.0007 3.3335H35.0164Z" fill="white"/>
<path d="M15.4905 22.1547C16.1414 21.504 17.1961 21.5039 17.8469 22.1547C18.4977 22.8055 18.4976 23.8602 17.8469 24.5111L9.02466 33.3334H15.0022C15.9226 33.3335 16.6692 34.0799 16.6692 35.0004C16.669 35.9207 15.9225 36.6663 15.0022 36.6664H5.0022L4.8313 36.6586C4.78769 36.6541 4.74494 36.6458 4.70239 36.6381C4.69529 36.6368 4.688 36.6365 4.68091 36.6351C4.63856 36.6269 4.59704 36.6163 4.55591 36.6049C4.54518 36.6019 4.53436 36.5993 4.52368 36.5961C4.49119 36.5863 4.4596 36.5745 4.42798 36.5629C4.40574 36.5547 4.38351 36.5466 4.36157 36.5375C4.34405 36.5302 4.32703 36.5219 4.30981 36.514C4.27771 36.4994 4.24542 36.485 4.21411 36.4681C4.19105 36.4557 4.16912 36.4415 4.14673 36.4281C4.124 36.4145 4.10056 36.4019 4.07837 36.3871C3.89556 36.2651 3.73865 36.1078 3.61646 35.9252C3.59872 35.8987 3.5827 35.8714 3.56665 35.8441C3.55532 35.8249 3.54304 35.8062 3.53247 35.7865C3.52026 35.7637 3.50937 35.7404 3.49829 35.7172C3.48493 35.6892 3.47202 35.661 3.46021 35.6322C3.45124 35.6103 3.44379 35.588 3.43579 35.5658C3.4264 35.5398 3.41559 35.5142 3.40747 35.4877C3.39666 35.4523 3.38852 35.4162 3.38013 35.3802C3.37617 35.3633 3.37087 35.3466 3.36743 35.3295C3.36016 35.2933 3.35568 35.2566 3.35083 35.2201C3.34134 35.1482 3.33522 35.0749 3.33521 35.0004V25.0004C3.33521 24.0799 4.08172 23.3334 5.0022 23.3334C5.92261 23.3335 6.66919 24.0799 6.66919 25.0004V30.976L15.4905 22.1547Z" fill="white"/>
</svg>
