<svg width="40" height="40" viewBox="0 0 40 40" fill="none" xmlns="http://www.w3.org/2000/svg">
<path fill-rule="evenodd" clip-rule="evenodd" d="M34.3668 1.79501C35.4268 0.734997 37.1456 0.734997 38.2057 1.79501C39.2654 2.85498 39.2655 4.57294 38.2057 5.6329L23.8385 19.9991L38.2057 34.3663C39.2657 35.4263 39.2657 37.1452 38.2057 38.2052C37.1456 39.2652 35.4268 39.2652 34.3668 38.2052L19.9996 23.838L5.63339 38.2052C4.57342 39.2649 2.85546 39.2649 1.7955 38.2052C0.735486 37.1452 0.735486 35.4263 1.7955 34.3663L16.1617 19.9991L1.7955 5.6329C0.735494 4.5729 0.735511 2.85502 1.7955 1.79501C2.85551 0.734997 4.57338 0.734997 5.63339 1.79501L19.9996 16.1612L34.3668 1.79501Z" fill="white"/>
</svg>
