<svg width="40" height="40" viewBox="0 0 40 40" fill="none" xmlns="http://www.w3.org/2000/svg">
<path d="M26.6654 35C25.7449 35 24.9987 34.2538 24.9987 33.3333V30H19.9987C19.0782 30 18.332 29.2538 18.332 28.3333V13.3333H14.9987V16.6667C14.9987 17.5871 14.2525 18.3333 13.332 18.3333H4.9987C4.07822 18.3333 3.33203 17.5871 3.33203 16.6667V6.66666C3.33203 5.74619 4.07822 5 4.9987 5H13.332C14.2525 5 14.9987 5.74619 14.9987 6.66667V10H24.9987V6.66667C24.9987 5.74619 25.7449 5 26.6654 5H34.9987C35.9192 5 36.6654 5.74619 36.6654 6.66667V16.6667C36.6654 17.5871 35.9192 18.3333 34.9987 18.3333H26.6654C25.7449 18.3333 24.9987 17.5871 24.9987 16.6667V13.3333H21.6654V26.6667H24.9987V23.3333C24.9987 22.4129 25.7449 21.6667 26.6654 21.6667H34.9987C35.9192 21.6667 36.6654 22.4129 36.6654 23.3333V33.3333C36.6654 34.2538 35.9192 35 34.9987 35H26.6654ZM28.332 15H33.332V8.33333H28.332V15ZM28.332 31.6667H33.332V25H28.332V31.6667ZM6.66536 15H11.6654V8.33333H6.66536V15Z" fill="white"/>
</svg>
