<svg width="40" height="40" viewBox="0 0 40 40" fill="none" xmlns="http://www.w3.org/2000/svg">
<path d="M10.0027 35V32.8027H13.336V35H31.6693V9.99996H27.7061V6.66663H31.6693C33.5103 6.66663 35.0027 8.15901 35.0027 9.99996V35C35.0027 36.8409 33.5103 38.3333 31.6693 38.3333H13.336C11.4951 38.3333 10.0027 36.8409 10.0027 35Z" fill="white"/>
<path d="M25.0061 1.66663C26.8464 1.66719 28.3389 3.15924 28.3391 4.99963V29.9996C28.3391 31.8402 26.8466 33.3331 25.0061 33.3336H6.67114C4.83019 33.3336 3.33716 31.8406 3.33716 29.9996V9.02307C3.33735 8.13932 3.68882 7.29157 4.31372 6.66663L8.33716 2.64319C8.96222 2.01812 9.81061 1.66669 10.6946 1.66663H25.0061ZM12.9202 11.2506H6.67114V29.9996H25.0061V4.99963H12.9202V11.2506ZM6.9436 8.75061H10.4202V5.27405L6.9436 8.75061Z" fill="white"/>
</svg>
