<svg width="40" height="40" viewBox="0 0 40 40" fill="none" xmlns="http://www.w3.org/2000/svg">
<path d="M34.792 31.4574C35.8273 31.4576 36.6669 32.2971 36.667 33.3324C36.667 34.3679 35.8274 35.2073 34.792 35.2074H10C8.96447 35.2074 8.125 34.368 8.125 33.3324C8.12508 32.297 8.96451 31.4574 10 31.4574H34.792ZM34.792 18.1254C35.8273 18.1256 36.667 18.965 36.667 20.0004C36.6668 21.0356 35.8272 21.8752 34.792 21.8754H23.542C22.5066 21.8754 21.6672 21.0358 21.667 20.0004C21.667 18.9649 22.5065 18.1254 23.542 18.1254H34.792ZM34.792 8.33342C35.8273 8.33365 36.667 9.17303 36.667 10.2084C36.667 11.2438 35.8273 12.0832 34.792 12.0834H23.542C22.5065 12.0834 21.667 11.2439 21.667 10.2084C21.667 9.17289 22.5065 8.33342 23.542 8.33342H34.792Z" fill="white"/>
<path d="M17.5158 9.78228L11.6782 20.1603C11.3065 20.8211 10.3551 20.8211 9.98345 20.1603L4.1458 9.78228C3.78125 9.13419 4.24958 8.33341 4.99317 8.33341L16.6685 8.33341C17.412 8.33341 17.8804 9.13419 17.5158 9.78228Z" fill="white"/>
</svg>
