<svg width="40" height="40" viewBox="0 0 40 40" fill="none" xmlns="http://www.w3.org/2000/svg">
<path d="M35.0032 3.33344C35.0579 3.33343 35.1127 3.33589 35.1672 3.34125C35.185 3.34298 35.2024 3.34678 35.22 3.34906C35.2582 3.35404 35.2964 3.35901 35.3342 3.36664C35.3461 3.36903 35.3576 3.37279 35.3694 3.37543C35.4102 3.38459 35.4513 3.39343 35.4915 3.4057C35.5137 3.41249 35.5351 3.42146 35.5569 3.42914C35.5846 3.43889 35.6126 3.44815 35.6399 3.45941C35.6631 3.46901 35.6856 3.48006 35.7083 3.49066C35.7358 3.5035 35.7634 3.51627 35.7903 3.5307C35.8064 3.53934 35.8214 3.54987 35.8372 3.55902C35.8696 3.57784 35.9024 3.59642 35.9338 3.61761C36.0694 3.70902 36.191 3.81952 36.2942 3.94574C36.346 4.00907 36.3908 4.07639 36.4319 4.14496C36.4737 4.21467 36.5118 4.28689 36.5432 4.36273C36.5516 4.38295 36.5581 4.40379 36.5657 4.42426C36.6319 4.60393 36.6702 4.79774 36.6702 5.00043V15.0004C36.67 15.9208 35.9236 16.6664 35.0032 16.6664C34.0828 16.6664 33.3363 15.9207 33.3362 15.0004V9.02386L17.8489 24.5121L15.4915 22.1547L30.9807 6.66644H25.0032C24.0828 6.66637 23.3363 5.92074 23.3362 5.00043C23.3362 4.08 24.0828 3.33351 25.0032 3.33344H35.0032Z" fill="white"/>
<path d="M3.33521 31.6668V13.3334C3.33521 12.0074 3.86237 10.736 4.80005 9.79828C5.73773 8.8606 7.00912 8.33344 8.3352 8.33344H18.3352V11.6668H8.3352C7.89318 11.6668 7.46938 11.8425 7.15682 12.155C6.84426 12.4676 6.66854 12.8914 6.66854 13.3334V31.6668C6.66854 32.1088 6.84426 32.5326 7.15682 32.8451C7.46938 33.1577 7.89318 33.3334 8.3352 33.3334H26.6685C27.1106 33.3334 27.5344 33.1577 27.8469 32.8451C28.1595 32.5326 28.3352 32.1088 28.3352 31.6668V21.6668H31.6685V31.6668C31.6685 32.9928 31.1414 34.2642 30.2037 35.2019C29.266 36.1396 27.9946 36.6668 26.6685 36.6668H8.3352C7.00912 36.6668 5.73773 36.1396 4.80005 35.2019C3.86237 34.2642 3.33521 32.9928 3.33521 31.6668Z" fill="white"/>
</svg>
