<svg width="40" height="40" viewBox="0 0 40 40" fill="none" xmlns="http://www.w3.org/2000/svg">
<path d="M5.00122 33.3333V6.66663C5.00122 5.34054 5.52838 4.06915 6.46606 3.13147C7.40375 2.19379 8.67514 1.66663 10.0012 1.66663H22.3352C23.2554 1.66698 24.0019 2.41304 24.0019 3.33329C24.0019 4.25355 23.2554 4.99961 22.3352 4.99996H10.0012C9.55919 4.99996 9.1354 5.17568 8.82283 5.48824C8.51027 5.8008 8.33455 6.2246 8.33455 6.66663V33.3333C8.33455 33.7753 8.51027 34.1991 8.82283 34.5117C9.1354 34.8242 9.55919 35 10.0012 35H30.0012C30.4432 35 30.867 34.8242 31.1796 34.5117C31.4922 34.1991 31.6679 33.7753 31.6679 33.3333V20.9993C31.6682 20.0791 32.4143 19.3326 33.3346 19.3326C34.2548 19.3326 35.0009 20.0791 35.0012 20.9993V33.3333C35.0012 34.6594 34.4741 35.9308 33.5364 36.8684C32.5987 37.8061 31.3273 38.3333 30.0012 38.3333H10.0012C8.67514 38.3333 7.40375 37.8061 6.46606 36.8684C5.52838 35.9308 5.00122 34.6594 5.00122 33.3333Z" fill="white"/>
<path d="M34.9998 6.87272C34.9997 6.37589 34.8026 5.89917 34.4513 5.54785C34.0999 5.19655 33.6233 4.99935 33.1264 4.99935C32.6296 4.99935 32.1529 5.19655 31.8016 5.54785L23.4519 13.9007V13.9023C23.2538 14.1003 23.1089 14.3447 23.0304 14.6136L22.0603 17.9372L25.3855 16.9671C25.6539 16.8885 25.8991 16.7433 26.0968 16.5456L34.4513 8.19759L34.575 8.06087C34.8485 7.72737 34.9998 7.30781 34.9998 6.87272ZM38.3331 6.87272C38.3331 8.25363 37.7845 9.57788 36.8081 10.5544V10.556L28.4536 18.904L28.4519 18.9023C27.858 19.4964 27.1245 19.9315 26.3182 20.167V20.1686L21.5346 21.5635C21.1046 21.6889 20.6486 21.6958 20.2146 21.5846C19.7805 21.4734 19.3841 21.2472 19.0672 20.9303C18.7503 20.6134 18.5241 20.217 18.4129 19.7829C18.3018 19.3489 18.3086 18.8929 18.434 18.4629L19.8305 13.6794L19.9282 13.3799C20.1773 12.6912 20.5739 12.0635 21.0935 11.5439L29.4448 3.19108C30.4213 2.21466 31.7455 1.66602 33.1264 1.66602C34.5073 1.66602 35.8316 2.21466 36.8081 3.19108C37.7845 4.16752 38.3331 5.49184 38.3331 6.87272Z" fill="white"/>
<path d="M15.0011 23.7498C15.6915 23.7498 16.2511 24.3094 16.2511 24.9998C16.2511 25.6901 15.6915 26.2498 15.0011 26.2498H13.3345C12.6441 26.2498 12.0845 25.6901 12.0845 24.9998C12.0845 24.3094 12.6441 23.7498 13.3345 23.7498H15.0011Z" fill="white"/>
<path d="M23.3345 28.7498C24.0248 28.7498 24.5845 29.3094 24.5845 29.9998C24.5845 30.6901 24.0248 31.2498 23.3345 31.2498H13.3345C12.6441 31.2498 12.0845 30.6901 12.0845 29.9998C12.0845 29.3094 12.6441 28.7498 13.3345 28.7498H23.3345Z" fill="white"/>
<path d="M25.8346 23.7498C26.5249 23.7498 27.0846 24.3094 27.0846 24.9998C27.0846 25.6901 26.5249 26.2498 25.8346 26.2498H20.0012C19.3109 26.2498 18.7512 25.6901 18.7512 24.9998C18.7512 24.3094 19.3109 23.7498 20.0012 23.7498H25.8346Z" fill="white"/>
</svg>
