<svg width="40" height="40" viewBox="0 0 40 40" fill="none" xmlns="http://www.w3.org/2000/svg">
<path d="M20.0015 3.55652C23.5603 3.55669 26.4446 6.44102 26.4448 9.99988C26.4448 11.5359 25.9061 12.9455 25.0093 14.0526L29.5894 21.9032C29.7234 21.8949 29.8585 21.8895 29.9946 21.8895C33.5538 21.8895 36.4398 24.7747 36.4399 28.3339C36.4397 31.893 33.5538 34.7792 29.9946 34.7792C27.1128 34.7791 24.6733 32.8867 23.8491 30.2772H15.9683C15.1276 32.8062 12.7443 34.6302 9.93311 34.6307C6.41997 34.6307 3.57124 31.7834 3.5708 28.2704C3.5708 24.757 6.4197 21.9081 9.93311 21.9081C10.0875 21.9081 10.2405 21.9158 10.3921 21.9266L14.9878 14.0477C14.0936 12.9415 13.5571 11.5334 13.5571 9.99988C13.5574 6.44091 16.4424 3.55652 20.0015 3.55652ZM29.9946 24.7772C28.031 24.7773 26.4381 26.3703 26.438 28.3339C26.4382 30.2974 28.0311 31.8894 29.9946 31.8895C31.9582 31.8895 33.551 30.2974 33.5513 28.3339C33.5512 26.3702 31.9583 24.7772 29.9946 24.7772ZM9.93311 24.7596C7.99468 24.7596 6.42236 26.332 6.42236 28.2704C6.4228 30.2084 7.99495 31.7792 9.93311 31.7792C11.8707 31.7785 13.4415 30.208 13.4419 28.2704C13.4419 26.3324 11.871 24.7603 9.93311 24.7596ZM13.5884 23.0653C14.878 23.9732 15.8151 25.3472 16.1538 26.9432H23.7026C24.0612 25.3127 25.0358 23.9135 26.3716 23.0038L22.2983 16.0204C21.5847 16.2928 20.8109 16.4442 20.0015 16.4442C19.1899 16.4442 18.4139 16.2922 17.6987 16.0184L13.5884 23.0653ZM20.0015 6.44421C18.0379 6.44421 16.4451 8.03641 16.4448 9.99988C16.4448 11.9636 18.0378 13.5565 20.0015 13.5565C21.965 13.5563 23.5571 11.9635 23.5571 9.99988C23.5569 8.03651 21.9648 6.44438 20.0015 6.44421Z" fill="white"/>
</svg>
