<svg width="40" height="40" viewBox="0 0 40 40" fill="none" xmlns="http://www.w3.org/2000/svg">
<path d="M35.0008 19.9997C35.0008 11.7154 28.2851 4.99971 20.0008 4.99971C11.7165 4.99971 5.00081 11.7154 5.00081 19.9997C5.00081 28.284 11.7165 34.9997 20.0008 34.9997C28.2851 34.9997 35.0008 28.284 35.0008 19.9997ZM38.3341 19.9997C38.3341 30.1249 30.126 38.333 20.0008 38.333C9.87559 38.333 1.66748 30.1249 1.66748 19.9997C1.66748 9.87449 9.87559 1.66638 20.0008 1.66638C30.126 1.66638 38.3341 9.87449 38.3341 19.9997Z" fill="white"/>
<path d="M16.6689 13.3339C17.5892 13.3341 18.335 14.0805 18.335 15.0009V25.0009C18.3347 25.921 17.5891 26.6667 16.6689 26.6669C15.7486 26.6669 15.0022 25.9211 15.002 25.0009V15.0009C15.002 14.0804 15.7485 13.3339 16.6689 13.3339ZM23.335 13.3339C24.2554 13.3339 25.002 14.0804 25.002 15.0009V25.0009C25.0017 25.9211 24.2553 26.6669 23.335 26.6669C22.4147 26.6668 21.6692 25.9211 21.6689 25.0009V15.0009C21.6689 14.0804 22.4146 13.334 23.335 13.3339Z" fill="white"/>
</svg>
