<svg width="40" height="40" viewBox="0 0 40 40" fill="none" xmlns="http://www.w3.org/2000/svg">
<path d="M3.33594 31.6672V8.33386C3.33594 7.00778 3.8631 5.73639 4.80078 4.79871C5.73846 3.86102 7.00985 3.33386 8.33594 3.33386H20.0026C20.9231 3.33386 21.6693 4.08005 21.6693 5.00053C21.6693 5.921 20.9231 6.6672 20.0026 6.6672H8.33594C7.89391 6.6672 7.47011 6.84292 7.15755 7.15548C6.84499 7.46804 6.66927 7.89183 6.66927 8.33386V31.6672C6.66927 32.1092 6.84499 32.533 7.15755 32.8456C7.47011 33.1581 7.89391 33.3339 8.33594 33.3339H31.6693C32.1113 33.3339 32.5351 33.1581 32.8477 32.8456C33.1602 32.533 33.3359 32.1092 33.3359 31.6672V20.0005C33.3359 19.0801 34.0821 18.3339 35.0026 18.3339C35.9231 18.3339 36.6693 19.0801 36.6693 20.0005V31.6672C36.6693 32.9933 36.1421 34.2647 35.2044 35.2023C34.2667 36.14 32.9953 36.6672 31.6693 36.6672H8.33594C7.00985 36.6672 5.73846 36.14 4.80078 35.2023C3.8631 34.2647 3.33594 32.9933 3.33594 31.6672Z" fill="white"/>
<path d="M13.3359 16.6668C13.3359 15.7463 14.0821 15.0001 15.0026 15.0001C15.9231 15.0001 16.6693 15.7463 16.6693 16.6668V23.3335H23.3359C24.2564 23.3335 25.0026 24.0796 25.0026 25.0001C25.0026 25.9206 24.2564 26.6668 23.3359 26.6668H15.0026C14.0821 26.6668 13.3359 25.9206 13.3359 25.0001V16.6668Z" fill="white"/>
<path d="M35.0037 3.33386C35.0581 3.33387 35.1125 3.33636 35.1667 3.34167C35.1842 3.34337 35.2013 3.34726 35.2185 3.34949C35.2573 3.35452 35.2962 3.35929 35.3347 3.36707C35.3472 3.36958 35.3594 3.37306 35.3718 3.37585C35.4118 3.38489 35.4516 3.39509 35.491 3.4071C35.5118 3.41347 35.532 3.42144 35.5525 3.42859C35.5818 3.43881 35.6116 3.44793 35.6404 3.45984C35.6647 3.46989 35.688 3.4819 35.7117 3.49304C35.7378 3.50534 35.7642 3.5174 35.7898 3.53113C35.8112 3.5426 35.8315 3.55587 35.8523 3.56824C35.8773 3.5831 35.9031 3.59688 35.9275 3.61316C35.9521 3.62959 35.9751 3.64821 35.9988 3.66589C36.0196 3.68143 36.0411 3.69613 36.0613 3.71277C36.2711 3.88535 36.4371 4.10843 36.5427 4.36316C36.55 4.3808 36.5556 4.39904 36.5623 4.41687C36.6304 4.59875 36.6707 4.7952 36.6707 5.00085V13.3339C36.6706 14.2542 35.924 15.0008 35.0037 15.0009C34.0832 15.0009 33.3367 14.2543 33.3367 13.3339V9.02332L16.1814 26.1786C15.5305 26.8294 14.4758 26.8295 13.825 26.1786C13.1742 25.5277 13.1741 24.473 13.825 23.8221L30.9802 6.66687H26.6707C25.7503 6.66687 25.0039 5.92112 25.0037 5.00085C25.0037 4.08038 25.7502 3.33386 26.6707 3.33386H35.0037Z" fill="white"/>
</svg>
