<svg width="40" height="40" viewBox="0 0 40 40" fill="none" xmlns="http://www.w3.org/2000/svg">
<path fill-rule="evenodd" clip-rule="evenodd" d="M7.87646 27.5756C10.3868 27.5756 12.4223 29.6111 12.4224 32.1215C12.4224 34.6318 10.3868 36.6674 7.87646 36.6674C5.36609 36.6673 3.33057 34.6318 3.33057 32.1215C3.33058 29.6111 5.3661 27.5756 7.87646 27.5756ZM19.0728 4.34705C19.7366 4.34705 20.3803 4.57925 20.8911 5.0033C21.4011 5.42686 21.7471 6.01589 21.8696 6.66736L23.3657 14.5756L23.3892 14.6801C23.4536 14.9205 23.5804 15.1408 23.7573 15.3177C23.9596 15.52 24.2184 15.6562 24.4995 15.7094L32.4038 17.2045C33.0565 17.3264 33.6475 17.6732 34.0718 18.184C34.4957 18.6946 34.7278 19.3377 34.728 20.0013C34.728 20.6652 34.4958 21.3089 34.0718 21.8197C33.6475 22.3306 33.0575 22.6773 32.4048 22.7992L32.4038 22.7982L24.4995 24.2943C24.2185 24.3474 23.9596 24.4837 23.7573 24.6859C23.5804 24.8628 23.4537 25.0832 23.3892 25.3236L23.3657 25.4281L21.8696 33.3324C21.7477 33.9851 21.4019 34.5761 20.8911 35.0004C20.3803 35.4245 19.7367 35.6566 19.0728 35.6566C18.409 35.6565 17.7661 35.4244 17.2554 35.0004C16.7446 34.5761 16.3978 33.9861 16.2759 33.3334V33.3324L14.7808 25.4281C14.7276 25.1471 14.5914 24.8881 14.3892 24.6859C14.2122 24.509 13.9919 24.3822 13.7515 24.3177L13.647 24.2943L5.7417 22.7982V22.7992C5.08893 22.6773 4.49898 22.3306 4.07471 21.8197C3.65068 21.3089 3.41846 20.6652 3.41846 20.0013C3.41865 19.3377 3.65076 18.6946 4.07471 18.184C4.44606 17.7369 4.94438 17.415 5.50049 17.2601L5.7417 17.2045L13.647 15.7094L13.7515 15.6859C13.992 15.6214 14.2122 15.4947 14.3892 15.3177C14.5914 15.1155 14.7277 14.8566 14.7808 14.5756L16.2769 6.66736C16.3993 6.01589 16.7454 5.42686 17.2554 5.0033C17.766 4.57937 18.409 4.34715 19.0728 4.34705ZM7.87646 30.6068C7.03969 30.6068 6.36183 31.2847 6.36182 32.1215C6.36182 32.9582 7.03968 33.6371 7.87646 33.6371C8.71326 33.6371 9.39209 32.9583 9.39209 32.1215C9.39208 31.2847 8.71325 30.6068 7.87646 30.6068ZM19.0728 7.19568L17.5776 15.1039C17.4183 15.9472 17.0077 16.7226 16.4009 17.3295C15.8698 17.8606 15.2097 18.2415 14.4878 18.4349L14.1753 18.5062L6.26709 20.0013H6.26416L6.26709 20.0023L14.1753 21.4974L14.4878 21.5687C15.2096 21.7621 15.8698 22.1432 16.4009 22.6742C17.0077 23.281 17.4183 24.0566 17.5776 24.8998L19.0728 32.808V32.8109L19.0737 32.808L20.5688 24.8998L20.6401 24.5873C20.8336 23.8655 21.2145 23.2053 21.7456 22.6742C22.3525 22.0674 23.1279 21.6567 23.9712 21.4974L31.8794 20.0023L31.8823 20.0013H31.8794L23.9712 18.5062C23.1279 18.3469 22.3525 17.9363 21.7456 17.3295C21.2146 16.7984 20.8336 16.1382 20.6401 15.4164L20.5688 15.1039L19.0737 7.19568L19.0728 7.19275V7.19568ZM32.1196 3.3324C32.9563 3.3324 33.635 4.01142 33.6353 4.84802V6.36365H35.1528C35.9895 6.36369 36.6683 7.04267 36.6685 7.87927C36.6685 8.71604 35.9896 9.39485 35.1528 9.3949H33.6353V10.9086C33.6353 11.7454 32.9564 12.4242 32.1196 12.4242C31.283 12.424 30.604 11.7453 30.604 10.9086V9.3949H29.0923C28.2555 9.3949 27.5767 8.71607 27.5767 7.87927C27.5769 7.04265 28.2556 6.36365 29.0923 6.36365H30.604V4.84802C30.6042 4.01152 31.2831 3.33257 32.1196 3.3324Z" fill="white"/>
</svg>
