<svg width="40" height="40" viewBox="0 0 40 40" fill="none" xmlns="http://www.w3.org/2000/svg">
<rect x="3.33643" y="3.33289" width="33.3333" height="33.3333" rx="10" fill="#0995FF"/>
<path d="M20.001 9.99976C20.9213 9.99995 21.668 10.7464 21.668 11.6667V18.3328H28.334C29.2543 18.3329 30 19.0794 30 19.9998C30 20.9201 29.2543 21.6666 28.334 21.6667H21.668V28.3337C21.6677 29.2539 20.9211 29.9996 20.001 29.9998C19.0807 29.9998 18.3342 29.254 18.334 28.3337V21.6667H11.667C10.7466 21.6666 10 20.9202 10 19.9998C10 19.0793 10.7466 18.3329 11.667 18.3328H18.334V11.6667C18.334 10.7463 19.0805 9.99976 20.001 9.99976Z" fill="white"/>
</svg>
