<svg width="40" height="40" viewBox="0 0 40 40" fill="none" xmlns="http://www.w3.org/2000/svg">
<path d="M20.0022 1.66638C30.1271 1.66664 38.3351 9.87442 38.3352 19.9994C38.3352 30.1245 30.1272 38.3331 20.0022 38.3334C9.87698 38.3334 1.66821 30.1246 1.66821 19.9994C1.66832 9.87426 9.87705 1.66638 20.0022 1.66638ZM20.0022 4.99939C11.718 4.99939 5.00231 11.7152 5.0022 19.9994C5.0022 28.2837 11.7179 34.9994 20.0022 34.9994C28.2863 34.9991 35.0022 28.2835 35.0022 19.9994C35.0021 11.7154 28.2862 4.99964 20.0022 4.99939ZM24.6663 13.0004C25.9549 13.0004 27.0002 14.0447 27.0002 15.3334V24.6664C27.0002 25.955 25.9549 27.0004 24.6663 27.0004H15.3333C14.0446 27.0003 13.0002 25.955 13.0002 24.6664V15.3334C13.0002 14.0447 14.0446 13.0004 15.3333 13.0004H24.6663Z" fill="white"/>
</svg>
