<svg width="40" height="40" viewBox="0 0 40 40" fill="none" xmlns="http://www.w3.org/2000/svg">
<path d="M24.8577 7.21863C25.969 7.21894 27.0159 7.74536 27.6799 8.6366L29.9944 11.744H32.8811C35.8707 11.7443 38.2952 14.1675 38.2952 17.1571V29.6786C38.2949 32.6681 35.8706 35.0914 32.8811 35.0917H7.12329C4.1337 35.0914 1.70928 32.6662 1.70923 29.6766V17.1552C1.70978 14.166 4.13405 11.7423 7.12329 11.7421H9.39478L11.9895 8.52722C12.6575 7.70017 13.6637 7.21884 14.7268 7.21863H24.8577ZM14.7268 10.4706C14.646 10.4708 14.5696 10.5073 14.5188 10.5702L11.6624 14.1083C11.21 14.6682 10.5287 14.9939 9.80884 14.994H7.12329C5.92966 14.9943 4.96173 15.9616 4.96118 17.1552V29.6766C4.96123 30.8706 5.92934 31.8395 7.12329 31.8397H32.8811C34.0749 31.8395 35.043 30.8724 35.0432 29.6786V17.1571C35.0432 15.9631 34.0751 14.9962 32.8811 14.996L29.5579 14.994C28.8053 14.9938 28.0964 14.6385 27.6467 14.035L25.0725 10.578C25.0221 10.5103 24.942 10.4709 24.8577 10.4706H14.7268ZM20.0002 15.8553C23.6821 15.8553 26.6672 18.8404 26.6672 22.5223C26.6671 26.2041 23.682 29.1884 20.0002 29.1884C16.3186 29.1882 13.3344 26.204 13.3342 22.5223C13.3342 18.8405 16.3185 15.8555 20.0002 15.8553ZM20.0002 19.1884C18.1594 19.1885 16.6672 20.6815 16.6672 22.5223C16.6674 24.363 18.1595 25.8552 20.0002 25.8553C21.8411 25.8553 23.3341 24.3631 23.3342 22.5223C23.3342 20.6814 21.8412 19.1884 20.0002 19.1884Z" fill="white"/>
</svg>
