<svg width="40" height="40" viewBox="0 0 40 40" fill="none" xmlns="http://www.w3.org/2000/svg">
<path d="M33.3306 6.66672C35.1714 6.66672 36.6634 8.15893 36.6636 9.99973V21.6667C36.6636 23.0483 35.823 24.2325 34.6255 24.738C35.873 25.8079 36.6646 27.3944 36.6646 29.1667C36.6645 32.3883 34.0522 34.9997 30.8306 34.9997C27.6092 34.9995 24.9976 32.3882 24.9976 29.1667C24.9976 27.5339 25.6694 26.0586 26.7505 24.9997H13.2485C14.3294 26.0588 15.0005 27.534 15.0005 29.1667C15.0005 32.3893 12.3881 35.0017 9.16553 35.0017C5.94317 35.0014 3.33058 32.3891 3.33057 29.1667C3.33057 27.395 4.1211 25.8081 5.36768 24.738C4.17074 24.2322 3.33057 23.0478 3.33057 21.6667V9.99973C3.33074 8.15903 4.82288 6.66689 6.66357 6.66672H33.3306ZM30.8306 27.2575C29.7767 27.2578 28.9214 28.1128 28.9214 29.1667C28.9215 30.2206 29.7767 31.0756 30.8306 31.0759C31.8846 31.0759 32.7397 30.2208 32.7397 29.1667C32.7397 28.1126 31.8847 27.2575 30.8306 27.2575ZM9.16553 27.2575C8.11131 27.2578 7.25635 28.1124 7.25635 29.1667C7.25636 30.221 8.11132 31.0757 9.16553 31.0759C10.2199 31.0759 11.0747 30.2211 11.0747 29.1667C11.0747 28.1123 10.2199 27.2575 9.16553 27.2575Z" fill="white"/>
</svg>
