<svg width="40" height="40" viewBox="0 0 40 40" fill="none" xmlns="http://www.w3.org/2000/svg">
<path d="M20.0015 3.33289C29.2061 3.33306 36.6675 10.7952 36.6675 19.9999C36.6673 29.2044 29.2059 36.6657 20.0015 36.6659C10.7968 36.6659 3.33465 29.2045 3.33447 19.9999C3.33447 10.7951 10.7967 3.33289 20.0015 3.33289ZM20.0015 6.66589C12.6377 6.66589 6.66748 12.6361 6.66748 19.9999C6.66766 27.3635 12.6378 33.3329 20.0015 33.3329C27.365 33.3327 33.3343 27.3634 33.3345 19.9999C33.3345 12.6362 27.3651 6.66607 20.0015 6.66589ZM26.6675 18.3329C27.5879 18.333 28.3335 19.0795 28.3335 19.9999C28.3333 20.9201 27.5877 21.6658 26.6675 21.6659H13.3335C12.4134 21.6656 11.6677 20.92 11.6675 19.9999C11.6675 19.0796 12.4132 18.3331 13.3335 18.3329H26.6675Z" fill="white"/>
</svg>
