<svg width="40" height="40" viewBox="0 0 40 40" fill="none" xmlns="http://www.w3.org/2000/svg">
<path d="M18.2534 6.58655C19.0344 5.80561 20.3005 5.80583 21.0815 6.58655C21.8625 7.36761 21.8625 8.63367 21.0815 9.41467L12.8276 17.6666H31.3364C32.4405 17.6672 33.3364 18.5624 33.3364 19.6666C33.3364 20.7709 32.4405 21.6661 31.3364 21.6666H12.8276L21.0815 29.9205C21.8625 30.7016 21.8625 31.9676 21.0815 32.7487C20.3005 33.5287 19.0342 33.5293 18.2534 32.7487L6.5874 21.0807C6.57158 21.0649 6.55766 21.0471 6.54248 21.0309C6.46639 20.9495 6.39526 20.8634 6.3335 20.7701C6.32299 20.7543 6.31421 20.7374 6.3042 20.7213C6.28124 20.6844 6.25836 20.6474 6.23779 20.609C6.21676 20.5697 6.19839 20.5293 6.18018 20.4889C6.1725 20.4719 6.16395 20.4553 6.15674 20.4381C6.13957 20.397 6.12515 20.355 6.11084 20.3131C6.1036 20.2919 6.09492 20.2712 6.08838 20.2496C6.07909 20.2191 6.07274 20.1878 6.06494 20.1569C6.05636 20.1228 6.04636 20.089 6.03955 20.0543C6.03465 20.0294 6.03178 20.0042 6.02783 19.9791C6.01185 19.8773 6.00244 19.773 6.00244 19.6666C6.00245 19.5684 6.01121 19.472 6.0249 19.3776C6.02987 19.3434 6.03379 19.309 6.04053 19.275C6.04622 19.2463 6.05413 19.2183 6.06104 19.1901C6.07011 19.1529 6.07812 19.1154 6.08936 19.0787C6.09374 19.0645 6.10029 19.0509 6.10498 19.0367C6.14103 18.9278 6.18543 18.821 6.24072 18.7184C6.25134 18.6987 6.26365 18.68 6.2749 18.6608C6.29338 18.6291 6.31118 18.5969 6.33154 18.566L6.34326 18.5485C6.36687 18.5135 6.39274 18.4802 6.41846 18.4469C6.43036 18.4315 6.4412 18.4152 6.45361 18.4C6.47582 18.3729 6.50034 18.3478 6.52393 18.3219C6.54493 18.2988 6.56512 18.2749 6.5874 18.2526L18.2534 6.58655Z" fill="white"/>
</svg>
