<svg width="40" height="40" viewBox="0 0 40 40" fill="none" xmlns="http://www.w3.org/2000/svg">
<path d="M10.333 1.66663C11.2535 1.66663 12 2.41314 12 3.33362V8.33362H27C28.3261 8.33362 29.5975 8.86078 30.5352 9.79846C31.4727 10.7361 32 12.0076 32 13.3336V28.3336H37C37.9204 28.3336 38.6668 29.0793 38.667 29.9996C38.667 30.9201 37.9205 31.6666 37 31.6666H32V36.6666C32 37.5871 31.2535 38.3336 30.333 38.3336C29.4127 38.3334 28.667 37.587 28.667 36.6666V31.6666H13.667C12.341 31.6666 11.0695 31.1394 10.1318 30.2018C9.19415 29.2641 8.66699 27.9927 8.66699 26.6666V11.6666H3.66699C2.74652 11.6666 2 10.9201 2 9.99963C2.0002 9.07933 2.74664 8.33362 3.66699 8.33362H8.66699V3.33362C8.66699 2.41325 9.41268 1.6668 10.333 1.66663ZM12 26.6666C12 27.1087 12.1757 27.5328 12.4883 27.8453C12.8008 28.1578 13.225 28.3336 13.667 28.3336H28.667V13.3336C28.667 12.8917 28.4912 12.4675 28.1787 12.1549C27.8661 11.8423 27.442 11.6666 27 11.6666H12V26.6666Z" fill="white"/>
</svg>
