<svg width="40" height="40" viewBox="0 0 40 40" fill="none" xmlns="http://www.w3.org/2000/svg">
<g clip-path="url(#clip0_3755_27483)">
<path d="M22.9996 16.6666H17.1663C16.8901 16.6666 16.6663 16.8905 16.6663 17.1666V25.6666C16.6663 26.0786 17.1366 26.3138 17.4663 26.0666L22.9996 21.9166C23.2094 21.7592 23.3329 21.5123 23.3329 21.25V17C23.3329 16.8159 23.1837 16.6666 22.9996 16.6666Z" fill="white"/>
<path d="M22.7996 25.4L17.1275 29.6541C16.884 29.8366 16.8588 30.1925 17.0739 30.4076L19.7639 33.0976C19.8941 33.2278 20.1051 33.2278 20.2353 33.0976L23.2353 30.0976C23.2978 30.0351 23.3329 29.9503 23.3329 29.8619V25.6666C23.3329 25.3919 23.0193 25.2351 22.7996 25.4Z" fill="white"/>
<path d="M6.66626 39.1662V34.1662C6.66626 33.706 7.03936 33.3329 7.49959 33.3329H15.2483C15.6267 33.3329 15.9939 33.4617 16.2894 33.6981L18.9584 35.8333C19.5671 36.3203 20.4321 36.3203 21.0407 35.8333L23.7097 33.6981C24.0053 33.4617 24.3724 33.3329 24.7509 33.3329H32.4996C32.9598 33.3329 33.3329 33.706 33.3329 34.1662V39.1662C33.3329 39.6265 32.9598 39.9996 32.4996 39.9996H7.49959C7.03936 39.9996 6.66626 39.6265 6.66626 39.1662Z" fill="white"/>
<rect x="11.6663" y="-0.000244141" width="16.6667" height="5" rx="0.833333" fill="white"/>
<path d="M13.333 8.66622C13.333 8.48212 13.4822 8.33289 13.6663 8.33289H26.333C26.5171 8.33289 26.6663 8.48212 26.6663 8.66622V11.6662C26.6663 12.5867 25.9201 13.3329 24.9997 13.3329H14.9997C14.0792 13.3329 13.333 12.5867 13.333 11.6662V8.66622Z" fill="white"/>
<circle cx="33.3329" cy="21.6664" r="1.66667" fill="white"/>
<circle cx="33.3329" cy="29.9996" r="1.66667" fill="white"/>
<circle cx="28.3329" cy="28.3333" r="1.66667" fill="white"/>
</g>
<defs>
<clipPath id="clip0_3755_27483">
<rect width="40" height="40" fill="white"/>
</clipPath>
</defs>
</svg>
