<svg width="40" height="40" viewBox="0 0 40 40" fill="none" xmlns="http://www.w3.org/2000/svg">
<path d="M33.8228 3.82193C34.4736 3.17106 35.5293 3.17106 36.1802 3.82193C36.8308 4.4728 36.8309 5.52758 36.1802 6.17838L31.7622 10.5954C34.5627 12.6991 36.7599 15.523 38.105 18.7848L38.1265 18.8405C38.4041 19.5886 38.404 20.4117 38.1265 21.1598C38.1196 21.1783 38.1125 21.1982 38.105 21.2165C37.0343 23.8128 35.4166 26.1486 33.3638 28.0651C31.3108 29.9816 28.8693 31.4349 26.2056 32.3249C23.5418 33.2147 20.7169 33.5209 17.9243 33.2233C15.5571 32.9709 13.26 32.2881 11.1431 31.2145L6.18018 36.1784C5.52938 36.8292 4.47463 36.829 3.82373 36.1784C3.17286 35.5275 3.17286 34.4728 3.82373 33.8219L33.8228 3.82193ZM25.7427 16.6149C26.3529 17.6494 26.678 18.838 26.6675 20.0583C26.6522 21.806 25.9502 23.4776 24.7144 24.7135C23.4785 25.9493 21.8076 26.6512 20.0601 26.6667C18.8399 26.6773 17.6506 26.3518 16.6157 25.7419L13.6499 28.7077C15.1213 29.3321 16.6805 29.7376 18.2778 29.9079C20.5953 30.1548 22.9394 29.9013 25.1499 29.1628C27.3603 28.4242 29.3868 27.219 31.0903 25.6286C32.7795 24.0516 34.111 22.1314 34.9995 19.9987C33.8203 17.1694 31.8683 14.7387 29.3784 12.9792L25.7427 16.6149ZM10.0923 9.36002C13.7782 7.19717 18.0704 6.30063 22.314 6.8063C23.2276 6.91527 23.8804 7.74326 23.772 8.65689C23.6629 9.57048 22.834 10.2234 21.9204 10.1149C18.3996 9.69531 14.837 10.4396 11.7788 12.234C8.73825 14.0183 6.36232 16.7443 5.00732 19.9977C5.55999 21.3237 6.28485 22.5715 7.16553 23.7067C7.72945 24.4339 7.59659 25.4814 6.86963 26.0456C6.14248 26.6091 5.09681 26.4765 4.53271 25.7497C3.45646 24.3625 2.57036 22.8366 1.90088 21.2135C1.8934 21.1954 1.88623 21.1763 1.87939 21.1579C1.60184 20.4098 1.6018 19.5866 1.87939 18.8385L1.90088 18.7838L2.22119 18.0495C3.89243 14.4225 6.63698 11.3876 10.0923 9.36002ZM19.1392 23.2184C19.4275 23.2957 19.7272 23.3363 20.0308 23.3336C20.9045 23.3259 21.74 22.9749 22.3579 22.3571C22.9758 21.7391 23.3269 20.9029 23.3345 20.029C23.3371 19.7254 23.2975 19.4257 23.2202 19.1374L19.1392 23.2184Z" fill="white"/>
</svg>
