<svg width="40" height="40" viewBox="0 0 40 40" fill="none" xmlns="http://www.w3.org/2000/svg">
<path d="M27.1582 2.15479C27.8091 1.50391 28.8638 1.50391 29.5146 2.15479L36.1611 8.80029C36.4754 9.10342 36.6719 9.52839 36.6719 9.99951C36.6718 10.4655 36.4793 10.8856 36.1709 11.188L29.5146 17.8442C28.8638 18.495 27.809 18.4951 27.1582 17.8442C26.5075 17.1934 26.5075 16.1386 27.1582 15.4878L30.9805 11.6655H8.33691C7.41654 11.6656 6.66966 12.4123 6.66992 13.3325C6.67027 14.557 6.67187 15.7904 6.67188 16.6655V18.3325C6.67185 19.2529 5.92527 19.9994 5.00488 19.9995C4.08455 19.9994 3.33889 19.2529 3.33887 18.3325V16.6655C3.33887 15.7909 3.33726 14.5572 3.33691 13.3325C3.33646 10.5711 5.5756 8.33258 8.33691 8.33252H30.9795L27.1582 4.51123C26.5074 3.86044 26.5076 2.80568 27.1582 2.15479Z" fill="white"/>
<path d="M35.0039 20.0001C35.9242 20.0003 36.6699 20.7468 36.6699 21.6671V26.6671C36.6698 29.4285 34.431 31.667 31.6699 31.6671H9.02734L12.8486 35.4884C13.4992 36.1393 13.4994 37.1941 12.8486 37.8448C12.1978 38.4957 11.1421 38.4957 10.4912 37.8448L3.8252 31.1788C3.74727 31.1009 3.67755 31.015 3.61621 30.923C3.61481 30.9209 3.61272 30.9192 3.61133 30.9171L3.53809 30.795C3.53579 30.7908 3.53351 30.7866 3.53125 30.7823C3.52028 30.7617 3.512 30.7398 3.50195 30.7189C3.48875 30.6913 3.4746 30.6642 3.46289 30.6359C3.45321 30.6124 3.44509 30.5884 3.43652 30.5646C3.42698 30.5381 3.4174 30.5116 3.40918 30.4845C3.3993 30.4519 3.39163 30.4189 3.38379 30.3859C3.37923 30.3666 3.37303 30.3477 3.36914 30.3282C3.3608 30.2866 3.35572 30.2444 3.35059 30.2023C3.34257 30.136 3.33691 30.0686 3.33691 30.0001C3.33692 29.9296 3.34209 29.8603 3.35059 29.7921C3.36846 29.649 3.404 29.5077 3.45898 29.3722L3.46777 29.3517C3.47311 29.3391 3.47972 29.327 3.48535 29.3146C3.52245 29.2324 3.56509 29.1518 3.61621 29.0753C3.63265 29.0507 3.65126 29.0277 3.66895 29.004C3.71634 28.9407 3.76762 28.879 3.8252 28.8214L10.4912 22.1544C11.1421 21.5036 12.1978 21.5036 12.8486 22.1544C13.4995 22.8053 13.4995 23.861 12.8486 24.5118L9.02734 28.3331H31.6699C32.5904 28.333 33.3368 27.5873 33.3369 26.6671V21.6671C33.3369 20.7466 34.0834 20.0001 35.0039 20.0001Z" fill="white"/>
</svg>
