<svg width="40" height="40" viewBox="0 0 40 40" fill="none" xmlns="http://www.w3.org/2000/svg">
<path d="M26.6646 29.9995C27.585 29.9995 28.3315 30.746 28.3315 31.6665C28.3315 32.5869 27.585 33.3335 26.6646 33.3335H4.99756C4.07723 33.3333 3.33156 32.5869 3.33154 31.6665C3.33154 30.7461 4.07721 29.9997 4.99756 29.9995H26.6646ZM35.0142 29.9995C35.9346 29.9995 36.6812 30.746 36.6812 31.6665C36.6811 32.5869 35.9346 33.3335 35.0142 33.3335H34.9976C34.0772 33.3333 33.3316 32.5869 33.3315 31.6665C33.3315 30.7461 34.0772 29.9997 34.9976 29.9995H35.0142ZM26.6646 18.3335C27.5849 18.3335 28.3314 19.0792 28.3315 19.9995C28.3315 20.92 27.585 21.6665 26.6646 21.6665H4.99756C4.07721 21.6664 3.33154 20.9199 3.33154 19.9995C3.33171 19.0793 4.07732 18.3336 4.99756 18.3335H26.6646ZM35.0142 18.3335C35.9345 18.3335 36.681 19.0792 36.6812 19.9995C36.6812 20.92 35.9346 21.6665 35.0142 21.6665H34.9976C34.0772 21.6664 33.3315 20.9199 33.3315 19.9995C33.3317 19.0793 34.0773 18.3336 34.9976 18.3335H35.0142ZM26.6646 6.6665C27.585 6.66653 28.3315 7.41304 28.3315 8.3335C28.3313 9.25378 27.5849 9.99949 26.6646 9.99951H4.99756C4.07734 9.99936 3.33175 9.2537 3.33154 8.3335C3.33154 7.41312 4.07721 6.66666 4.99756 6.6665H26.6646ZM35.0142 6.6665C35.9346 6.66653 36.6812 7.41304 36.6812 8.3335C36.6809 9.25378 35.9345 9.99949 35.0142 9.99951H34.9976C34.0773 9.99936 33.3318 9.2537 33.3315 8.3335C33.3315 7.41312 34.0772 6.66666 34.9976 6.6665H35.0142Z" fill="white"/>
</svg>
