<svg width="40" height="40" viewBox="0 0 40 40" fill="none" xmlns="http://www.w3.org/2000/svg">
<path d="M28.3315 5.00012C29.252 5.00012 29.9985 5.74664 29.9985 6.66711V29.3097L33.8198 25.4884C34.4706 24.8376 35.5254 24.8378 36.1763 25.4884C36.8271 26.1393 36.8271 27.194 36.1763 27.8448L29.5103 34.5118C29.4312 34.5909 29.3441 34.6618 29.2505 34.7238C29.2382 34.7319 29.2249 34.7384 29.2124 34.7462C29.1816 34.7655 29.1508 34.7846 29.1187 34.8019C29.0959 34.8141 29.0725 34.825 29.0493 34.8361C29.0213 34.8494 28.9932 34.8623 28.9644 34.8741C28.9425 34.8831 28.9201 34.8906 28.8979 34.8986C28.8719 34.908 28.8464 34.9187 28.8198 34.9269C28.7796 34.9392 28.7386 34.948 28.6978 34.9572C28.686 34.9598 28.6745 34.9636 28.6626 34.9659C28.6247 34.9736 28.5866 34.9785 28.5483 34.9835C28.5308 34.9858 28.5134 34.9896 28.4956 34.9913C28.3865 35.0021 28.2766 35.0021 28.1675 34.9913C28.1501 34.9896 28.133 34.9858 28.1157 34.9835C28.0769 34.9785 28.038 34.9737 27.9995 34.9659C27.989 34.9638 27.9787 34.9605 27.9683 34.9581C27.9254 34.9486 27.8825 34.9389 27.8403 34.9259C27.8261 34.9215 27.8124 34.916 27.7983 34.9113C27.7633 34.8994 27.7282 34.8874 27.6938 34.8732C27.6696 34.8631 27.6462 34.8511 27.6226 34.84C27.5964 34.8277 27.5701 34.8156 27.5444 34.8019C27.523 34.7904 27.5027 34.7772 27.4819 34.7648C27.4569 34.7499 27.4311 34.7362 27.4067 34.7198C27.3821 34.7034 27.3591 34.6848 27.3354 34.6671C27.2724 34.6199 27.2102 34.5692 27.1528 34.5118L20.4868 27.8448C19.836 27.194 19.836 26.1393 20.4868 25.4884C21.1377 24.8376 22.1924 24.8376 22.8433 25.4884L26.6655 29.3107V6.66711C26.6655 5.74675 27.4112 5.0003 28.3315 5.00012Z" fill="white"/>
<path d="M11.7017 5.00208C11.7339 5.00279 11.7661 5.00437 11.7983 5.00696C11.8176 5.0085 11.8369 5.00964 11.856 5.01184C11.8916 5.01595 11.927 5.02203 11.9624 5.02844C11.98 5.03164 11.9977 5.03446 12.0151 5.03821C12.0483 5.04533 12.081 5.05443 12.1138 5.0636C12.133 5.06898 12.1525 5.07318 12.1714 5.07922C12.2044 5.08975 12.2366 5.10272 12.269 5.11536C12.2849 5.12155 12.3013 5.12628 12.3169 5.13293C12.5076 5.21409 12.6867 5.33278 12.8423 5.4884L19.5083 12.1544C20.1592 12.8053 20.1592 13.861 19.5083 14.5118C18.8575 15.1623 17.8026 15.1624 17.1519 14.5118L13.3306 10.6906V33.3331C13.3306 34.2536 12.584 35.0001 11.6636 35.0001C10.7431 35.0001 9.99658 34.2536 9.99658 33.3331V10.6906L6.17529 14.5118C5.52451 15.1624 4.46967 15.1623 3.81885 14.5118C3.16797 13.861 3.16797 12.8053 3.81885 12.1544L10.4849 5.4884C10.5606 5.41265 10.6438 5.3444 10.7329 5.2843C10.767 5.26127 10.802 5.24008 10.8374 5.21985C10.8901 5.18971 10.9444 5.16217 11.0005 5.13782C11.0042 5.1362 11.0075 5.13355 11.0112 5.13196C11.0541 5.11372 11.0984 5.09877 11.1431 5.08411C11.1464 5.08301 11.1495 5.08127 11.1528 5.0802C11.1798 5.07154 11.2074 5.06505 11.2349 5.05774C11.2602 5.05099 11.2854 5.04374 11.311 5.03821C11.3343 5.03321 11.3578 5.02953 11.3813 5.02551C11.4096 5.02066 11.4379 5.0162 11.4663 5.01282C11.4925 5.00973 11.5189 5.00784 11.5454 5.00598C11.5721 5.00408 11.5987 5.0027 11.6255 5.00208C11.6381 5.00179 11.6509 5.00012 11.6636 5.00012C11.6763 5.00012 11.689 5.00179 11.7017 5.00208Z" fill="white"/>
</svg>
