<svg width="40" height="40" viewBox="0 0 40 40" fill="none" xmlns="http://www.w3.org/2000/svg">
<path d="M19.9983 5C20.058 5 20.1169 5.00364 20.175 5.00977C20.6507 5.03499 21.1167 5.16096 21.5403 5.38184C21.9786 5.61052 22.3541 5.93844 22.6516 6.33203L22.6545 6.3291L37.6545 24.6787C37.6807 24.7107 37.706 24.7444 37.7297 24.7783C37.9947 25.1568 38.1786 25.5859 38.2688 26.0391C38.3589 26.4926 38.3545 26.9616 38.2542 27.4131C38.1538 27.8644 37.9594 28.2904 37.6858 28.6631C37.4122 29.0355 37.0638 29.3474 36.6633 29.5781L36.6584 29.5811L22.4739 37.6816H22.4729C21.719 38.111 20.8659 38.3378 19.9983 38.3379C19.1305 38.3378 18.2767 38.1112 17.5227 37.6816H17.5217L3.33813 29.5811L3.32349 29.5732L3.32544 29.5713C2.92971 29.3402 2.58518 29.0311 2.3147 28.6611C2.04435 28.2913 1.85133 27.8699 1.75122 27.4229C1.65122 26.9759 1.64489 26.5122 1.73169 26.0625C1.81871 25.6124 1.99841 25.1835 2.25806 24.8057L2.34106 24.6963L17.3411 6.3291L17.342 6.33203C17.6398 5.93769 18.0182 5.61081 18.4573 5.38184C18.8797 5.16161 19.3442 5.03544 19.8186 5.00977C19.8776 5.00344 19.9376 5 19.9983 5ZM21.6653 34.3047L34.9954 26.6904L21.6653 10.3828V34.3047ZM5.01001 26.6953L18.3313 34.3037V10.3857L5.01001 26.6953Z" fill="white"/>
<circle cx="19.9998" cy="6.66646" r="3.33333" fill="#FF4228"/>
</svg>
