<svg width="40" height="40" viewBox="0 0 40 40" fill="none" xmlns="http://www.w3.org/2000/svg">
<path d="M23.2489 36.349C22.1955 36.5574 21.1088 36.6662 19.9997 36.6662C18.8905 36.6662 17.8038 36.5574 16.7504 36.349L17.9412 30.3301C18.6045 30.4613 19.2925 30.5308 19.9997 30.5308C20.7068 30.5308 21.3948 30.4613 22.0581 30.3301L23.2489 36.349ZM11.2406 25.8487C12.0103 26.9984 13.0008 27.9889 14.1505 28.7586L10.7375 33.8582C8.92122 32.6422 7.35698 31.078 6.14103 29.2618L11.2406 25.8487ZM33.8583 29.2618C32.6424 31.078 31.0781 32.6422 29.2619 33.8582L25.8489 28.7586C26.9985 27.9889 27.989 26.9984 28.7587 25.8487L33.8583 29.2618ZM3.33301 19.9995C3.33301 18.8904 3.44187 17.8037 3.65026 16.7503L9.66914 17.9411C9.53794 18.6044 9.46847 19.2924 9.46847 19.9995C9.46847 20.7067 9.53794 21.3947 9.66914 22.058L3.65026 23.2488C3.44187 22.1954 3.33301 21.1087 3.33301 19.9995ZM30.5309 19.9995C30.5309 19.2924 30.4614 18.6044 30.3302 17.9411L36.3491 16.7503C36.5575 17.8037 36.6663 18.8904 36.6663 19.9995C36.6663 21.1087 36.5575 22.1954 36.3491 23.2488L30.3302 22.058C30.4614 21.3947 30.5309 20.7067 30.5309 19.9995ZM14.1505 11.2405C13.0008 12.0102 12.0103 13.0007 11.2406 14.1504L6.14103 10.7373C7.35698 8.9211 8.92122 7.35686 10.7375 6.14091L14.1505 11.2405ZM29.2619 6.14091C31.0781 7.35686 32.6424 8.9211 33.8583 10.7373L28.7587 14.1504C27.989 13.0007 26.9985 12.0102 25.8489 11.2405L29.2619 6.14091ZM19.9997 3.33289C21.1088 3.33289 22.1955 3.44175 23.2489 3.65014L22.0581 9.66902C21.3948 9.53782 20.7068 9.46834 19.9997 9.46834C19.2925 9.46834 18.6045 9.53782 17.9412 9.66902L16.7504 3.65014C17.8038 3.44175 18.8905 3.33289 19.9997 3.33289Z" fill="url(#paint0_linear_3755_27521)"/>
<defs>
<linearGradient id="paint0_linear_3755_27521" x1="5.3434" y1="19.9995" x2="33.6386" y2="19.9996" gradientUnits="userSpaceOnUse">
<stop offset="0.543269" stop-color="#FF672B"/>
<stop offset="0.567308" stop-color="#FF672B" stop-opacity="0.23"/>
</linearGradient>
</defs>
</svg>
