<svg width="40" height="40" viewBox="0 0 40 40" fill="none" xmlns="http://www.w3.org/2000/svg">
<path d="M19.9951 1.66656C30.1202 1.66656 38.3289 9.8745 38.3291 19.9996C38.3291 30.1248 30.1203 38.3336 19.9951 38.3336C9.87007 38.3334 1.66211 30.1247 1.66211 19.9996C1.66228 9.87463 9.87018 1.66677 19.9951 1.66656ZM13.1152 25.8336C13.5556 27.7756 14.2074 29.4417 15.0039 30.7672C16.5182 33.2867 18.322 34.2856 19.9951 34.2857C21.6684 34.2857 23.4729 33.287 24.9873 30.7672C25.7839 29.4417 26.4356 27.7756 26.876 25.8336H13.1152ZM6.17188 25.8336C7.69817 29.4459 10.5998 32.3345 14.2197 33.8463C12.5258 31.9465 11.2475 29.18 10.5615 25.8336H6.17188ZM29.4287 25.8336C28.7429 29.1798 27.4652 31.9465 25.7715 33.8463C29.3913 32.3345 32.2921 29.4457 33.8184 25.8336H29.4287ZM5.84961 14.9996C5.29678 16.5635 4.99515 18.2463 4.99512 19.9996C4.99512 21.4454 5.20029 22.8437 5.58203 24.1666H10.2773C10.0941 22.8471 9.99512 21.4531 9.99512 19.9996C9.99513 18.2362 10.1394 16.5608 10.4062 14.9996H5.84961ZM12.9424 14.9996C12.6564 16.5228 12.4951 18.1981 12.4951 19.9996C12.4951 21.4782 12.6044 22.8721 12.8008 24.1666H27.1904C27.3868 22.8721 27.4951 21.4781 27.4951 19.9996C27.4951 18.1982 27.3348 16.5228 27.0488 14.9996H12.9424ZM29.585 14.9996C29.8518 16.5608 29.9951 18.2362 29.9951 19.9996L29.9824 20.8961C29.9511 22.0282 29.8591 23.1207 29.7139 24.1666H34.4092C34.7909 22.8437 34.9951 21.4454 34.9951 19.9996C34.9951 18.2462 34.6935 16.5636 34.1406 14.9996H29.585ZM14.2197 6.15192C10.8824 7.54549 8.15714 10.1111 6.55566 13.3336H10.7461C11.4646 10.3595 12.668 7.89187 14.2197 6.15192ZM19.9951 5.71442C18.3219 5.71455 16.5182 6.71325 15.0039 9.23297C14.3236 10.365 13.7484 11.7451 13.3203 13.3336H26.6709C26.2428 11.7451 25.6676 10.365 24.9873 9.23297C23.4729 6.71301 21.6684 5.71442 19.9951 5.71442ZM25.7705 6.15192C27.3224 7.89186 28.5255 10.3594 29.2441 13.3336H33.4355C31.834 10.1108 29.1082 7.54544 25.7705 6.15192Z" fill="white"/>
</svg>
