<svg width="40" height="40" viewBox="0 0 40 40" fill="none" xmlns="http://www.w3.org/2000/svg">
<path d="M4.73267 18.5926C4.72952 18.6198 4.72497 18.6658 4.72128 18.726C4.71383 18.8479 4.71034 19.0221 4.72779 19.2208C4.76429 19.6365 4.88212 20.0582 5.13144 20.3683C5.1339 20.3712 5.13659 20.3745 5.13958 20.378C5.15548 20.397 5.17971 20.4254 5.20956 20.4611C5.26916 20.5323 5.35481 20.6351 5.46021 20.7622C5.67199 21.0175 5.96488 21.372 6.28541 21.768C6.9152 22.5461 7.68176 23.518 8.15878 24.2111L11.5947 29.0711C11.5959 29.0728 11.596 29.075 11.5979 29.0776C11.6047 29.0869 11.6159 29.1017 11.6305 29.1215C11.6597 29.1612 11.7049 29.2212 11.7639 29.2989C11.8822 29.4547 12.0576 29.6814 12.2831 29.9581C12.7355 30.5132 13.3841 31.266 14.1663 32.0529C15.7564 33.6525 17.763 35.2518 19.7164 35.7947C19.7364 35.7958 19.7842 35.7985 19.8564 35.7849C20.0087 35.7563 20.3402 35.6523 20.7825 35.2364L20.8004 35.2202L20.8199 35.2039L21.7883 34.3722C22.1166 34.0623 22.5884 33.5946 23.0286 33.1287C23.4879 32.6425 23.8564 32.2206 24.0149 31.9877C25.1983 30.2553 27.1954 26.6493 28.3101 20.2462C28.5391 18.9302 30.3835 18.9528 30.6458 20.2104L30.6506 20.2299C30.7554 20.7813 30.7831 21.1215 30.8004 23.4819L30.8622 24.5317C30.8948 24.9717 30.9322 25.4108 30.955 25.575C31.1838 27.2147 31.9021 31.6157 33.8749 37.131C34.0781 37.6996 33.7826 38.3256 33.2141 38.5291C32.6453 38.7325 32.0195 38.4354 31.816 37.8667C30.0662 32.9747 29.2677 28.9253 28.9238 26.7794C27.8766 29.8768 26.6921 31.9419 25.8215 33.2166C25.5527 33.6116 25.0726 34.1505 24.6187 34.631C24.1482 35.129 23.6445 35.6306 23.2841 35.9705L23.245 36.0063L22.2424 36.864C21.5293 37.523 20.8406 37.826 20.2616 37.935C19.9729 37.9893 19.7262 37.9925 19.5357 37.9773C19.4409 37.9697 19.3596 37.9574 19.2948 37.9448C19.2628 37.9385 19.2344 37.9329 19.2102 37.9269C19.198 37.9238 19.1862 37.9199 19.176 37.9171C19.1711 37.9158 19.1658 37.9151 19.1614 37.9139C19.1593 37.9132 19.1569 37.9128 19.1549 37.9122L19.1516 37.9106C19.1516 37.9105 19.1495 37.9094 19.15 37.9073C16.613 37.2087 14.2629 35.2518 12.6152 33.5942C11.7704 32.7444 11.0728 31.9358 10.5872 31.34C10.3441 31.0418 10.1525 30.7956 10.0208 30.6222C9.95497 30.5356 9.90462 30.4665 9.86939 30.4187C9.85205 30.3952 9.83828 30.3766 9.8287 30.3634C9.82398 30.3569 9.82005 30.3509 9.81731 30.3471C9.81597 30.3453 9.8149 30.3434 9.81405 30.3422L9.81243 30.3406L9.80754 30.3341L6.37167 25.4724L6.36353 25.4611C5.94179 24.8469 5.22005 23.9301 4.58456 23.145C4.27078 22.7573 3.9851 22.4093 3.77727 22.1586C3.67372 22.0338 3.58949 21.9334 3.5315 21.864C3.50271 21.8296 3.4799 21.8023 3.46477 21.7843C3.45721 21.7753 3.45066 21.7677 3.44687 21.7631C3.44522 21.7612 3.44446 21.7593 3.44361 21.7583L3.42571 21.7387C2.79891 20.9591 2.60467 20.0523 2.54843 19.4129C2.51957 19.0842 2.52447 18.7982 2.53704 18.5926C2.54334 18.4894 2.55259 18.4045 2.55982 18.3419C2.56205 18.3226 2.56438 18.3048 2.56633 18.2898C2.59143 17.7724 2.71738 16.7334 2.81047 16.0372C2.86804 15.5856 2.89094 15.1365 2.87232 14.6928L2.83977 13.4298C2.83516 13.0061 2.83539 12.5932 2.83814 12.2335C2.84091 11.8722 2.84525 11.5601 2.84954 11.3383C2.85168 11.2275 2.8546 11.139 2.85605 11.0779C2.85676 11.0477 2.85726 11.0241 2.85768 11.0079V10.9819C2.87139 10.2755 3.13141 9.74807 3.42408 9.39335C3.56602 9.22137 3.71049 9.09691 3.8261 9.01086C3.88402 8.96778 3.93628 8.93278 3.97909 8.9067C4.00061 8.8936 4.02089 8.88183 4.03769 8.87252C4.04597 8.86793 4.05345 8.86322 4.06047 8.85949C4.06384 8.85771 4.06717 8.8562 4.07024 8.85461L4.07512 8.85298L4.07838 8.85136C4.07845 8.85132 4.07887 8.85092 4.08001 8.85298C4.31474 8.72419 4.55728 8.66533 4.68059 8.63977C4.87488 8.5995 5.07922 8.57492 5.25025 8.55839C5.42544 8.54146 5.58875 8.53143 5.70598 8.52584C5.7649 8.52303 5.81434 8.52208 5.84921 8.52095C5.8544 8.52079 5.85929 8.52109 5.86386 8.52095L7.32057 8.42004L7.34172 8.41841L7.34498 8.42004C7.34622 8.41998 7.34782 8.41851 7.34986 8.41841C7.35413 8.41821 7.36015 8.41876 7.36777 8.41841C7.38309 8.41773 7.40516 8.41628 7.43287 8.41516C7.48865 8.41291 7.56863 8.40987 7.66562 8.40702C7.85965 8.40133 8.12822 8.3961 8.4192 8.39726C8.70802 8.3984 9.03211 8.40606 9.33554 8.42818C9.5918 8.44688 9.89528 8.48335 10.164 8.55351L10.1656 8.55188L10.1705 8.55351C10.1725 8.55395 10.1749 8.55465 10.177 8.55513C10.1813 8.55612 10.1868 8.55722 10.1917 8.55839C10.2014 8.56073 10.2123 8.56338 10.2242 8.56653C10.2318 8.56853 10.2402 8.57066 10.2486 8.57304L10.247 8.57466C10.2663 8.58007 10.2887 8.58505 10.3121 8.59257C10.3778 8.61373 10.4611 8.64443 10.5546 8.6886C10.7393 8.77586 10.9864 8.92466 11.2105 9.17362C11.7181 9.73742 11.8948 10.5551 11.6077 11.5402C11.4386 12.1201 10.8302 12.453 10.2503 12.284C9.67068 12.1148 9.33761 11.5079 9.50644 10.9282C9.54465 10.7971 9.55188 10.7083 9.55364 10.6547C9.48061 10.6412 9.35689 10.624 9.17603 10.6108C8.9413 10.5937 8.67149 10.5858 8.40943 10.5848C8.14973 10.5837 7.90808 10.5893 7.73072 10.5945C7.64228 10.5971 7.56973 10.5991 7.52076 10.601C7.49663 10.602 7.4776 10.6037 7.46542 10.6043H7.44915L7.44752 10.6027L6.00546 10.7036L5.97942 10.7052H5.94687C5.94109 10.7053 5.93173 10.7064 5.9192 10.7068C5.89404 10.7076 5.85646 10.7095 5.81015 10.7117C5.71605 10.7162 5.58968 10.7236 5.46021 10.7361C5.3273 10.749 5.21022 10.764 5.12493 10.7817C5.12118 10.7825 5.11697 10.7826 5.11353 10.7833L5.11191 10.7866C5.09785 10.8036 5.04771 10.8651 5.04517 11.0275V11.047C5.04508 11.0506 5.04373 11.0561 5.04355 11.0633C5.04317 11.0782 5.04261 11.1009 5.04192 11.13C5.04054 11.1882 5.03911 11.2734 5.03704 11.3807C5.03288 11.5959 5.02833 11.9001 5.02564 12.2514C5.02295 12.6044 5.02289 13.0021 5.02727 13.4054L5.05657 14.5952C5.08124 15.1774 5.05257 15.7566 4.98007 16.3221L4.97844 16.3269C4.87567 17.0955 4.75834 18.0804 4.74732 18.4314L4.7457 18.503L4.7343 18.5682C4.73372 18.5724 4.73404 18.5808 4.73267 18.5926ZM19.7652 35.811L19.775 35.8126L19.762 35.8094L19.7652 35.811Z" fill="white"/>
<path d="M34.7626 1.84744C35.1215 1.36509 35.8027 1.26282 36.2876 1.61957C36.7739 1.97755 36.8781 2.66142 36.5204 3.14789L35.6398 2.5001L36.5204 3.14952H36.5187L36.5171 3.15115C36.5162 3.15235 36.5165 3.15466 36.5155 3.15603C36.5135 3.15874 36.5099 3.16081 36.5073 3.16417C36.5023 3.17088 36.4966 3.17942 36.4894 3.18858C36.4748 3.20735 36.4558 3.23218 36.4325 3.2602C36.3855 3.31646 36.3201 3.39041 36.2372 3.47667C36.0717 3.64883 35.8319 3.87284 35.5145 4.10492C34.8777 4.57047 33.9251 5.07161 32.6467 5.24913L32.6125 5.25401L32.5783 5.25564L29.4256 5.49652H29.411L29.3947 5.49815H29.398C29.395 5.49834 29.3874 5.49893 29.3768 5.49978C29.3549 5.50154 29.3179 5.50526 29.2678 5.51117C29.1662 5.52315 29.012 5.54431 28.8218 5.58441C28.4375 5.6655 27.9223 5.81653 27.3944 6.08897C26.3702 6.6175 25.2695 7.60995 24.9562 9.61111L24.953 9.63227L24.1896 13.9356V13.9389C24.131 14.2643 24.0446 14.5897 23.9243 14.9122L23.9227 14.9155C23.7143 15.4683 23.2885 16.498 22.7443 17.339L22.7085 17.3927C22.6978 17.4084 22.6789 17.4355 22.6548 17.4724C22.6067 17.5464 22.5334 17.6628 22.4416 17.8191C22.2578 18.132 21.9997 18.6064 21.7173 19.2286C21.2227 20.3186 20.6552 21.86 20.2818 23.7875L20.1353 24.6355C20.1019 24.855 20.0765 25.0267 19.9741 25.4054L19.9676 25.433L19.9579 25.4591L19.4875 26.9028L19.4859 26.9011C19.2187 27.7241 18.2252 28.0351 17.5392 27.5213L17.536 27.5196C16.8635 27.0131 14.4929 25.2503 12.5327 24.0903L12.51 24.0772L12.4888 24.0626L13.0894 23.1495L12.4872 24.0626L12.4855 24.061L12.4823 24.0593C12.4798 24.0577 12.4765 24.0555 12.4725 24.0528C12.4639 24.0471 12.4518 24.0386 12.4367 24.0284C12.4065 24.008 12.364 23.9781 12.3098 23.9405C12.2009 23.865 12.0452 23.7564 11.8557 23.6166C11.4773 23.3376 10.9568 22.9351 10.3843 22.4383C9.25673 21.4597 7.85172 20.0509 6.96796 18.4441L6.96959 18.4425C6.62571 17.8165 6.82202 17.0481 7.38463 16.6521C7.70777 16.424 8.76577 15.5609 9.3817 13.4864L9.52493 13.003L9.98391 12.798C10.0711 12.759 10.2317 12.6538 10.399 12.4822C10.5648 12.3119 10.6761 12.1402 10.7245 12.0134C10.729 12.0017 10.7296 11.9902 10.7326 11.9809C10.6895 11.9534 10.6141 11.9137 10.4885 11.8718C9.9157 11.6806 9.60577 11.0597 9.79674 10.4868C9.98795 9.91399 10.6089 9.60405 11.1818 9.79503C11.8536 10.0191 12.4377 10.4131 12.7394 11.045C13.0404 11.6756 12.95 12.3139 12.7671 12.7931C12.5852 13.2697 12.2797 13.6872 11.9663 14.0089C11.7801 14.2001 11.5658 14.3761 11.3413 14.5281C10.7493 16.2654 9.88928 17.3395 9.23196 17.9558C9.93632 19.0153 10.9192 20.006 11.8182 20.7862C12.3383 21.2375 12.8123 21.6032 13.1545 21.8556C13.3251 21.9813 13.4618 22.0791 13.5549 22.1437C13.6014 22.1759 13.6377 22.1998 13.6607 22.2153C13.6663 22.2191 13.6712 22.2223 13.6753 22.225C15.1139 23.0788 16.7294 24.2169 17.8062 25.0001L17.8664 24.8178C17.9343 24.5646 17.9452 24.4827 17.9722 24.3051V24.3035C18.3647 21.748 19.0914 19.7202 19.7251 18.3237C20.042 17.6253 20.3363 17.0834 20.5552 16.7107C20.6647 16.5243 20.7567 16.38 20.8221 16.2794C20.8546 16.2295 20.881 16.1904 20.9003 16.1622C20.9048 16.1555 20.9079 16.1481 20.9116 16.1427C21.2212 15.6627 21.5 15.0655 21.701 14.5818L21.8752 14.144C21.9462 13.953 21.9993 13.7553 22.0363 13.5499L22.7948 9.27256L22.8924 8.75824C23.441 6.26739 24.966 4.87978 26.3918 4.14398C27.1361 3.76001 27.8466 3.55441 28.3693 3.44412C28.6319 3.38871 28.8517 3.35708 29.0106 3.33832C29.0899 3.32897 29.1551 3.32259 29.2027 3.31879C29.2263 3.3169 29.2463 3.31485 29.2613 3.31391C29.2688 3.31344 29.2756 3.31419 29.2808 3.31391C29.2832 3.31377 29.2854 3.31238 29.2873 3.31228H29.2922L32.3749 3.07628C33.2172 2.9538 33.8276 2.62862 34.2238 2.33897C34.4248 2.19202 34.5699 2.05509 34.66 1.96137C34.7049 1.91464 34.7363 1.87859 34.7528 1.85883C34.7569 1.85394 34.7603 1.85025 34.7626 1.84744Z" fill="white"/>
</svg>
