<svg width="40" height="40" viewBox="0 0 40 40" fill="none" xmlns="http://www.w3.org/2000/svg">
<g clip-path="url(#clip0_3755_27416)">
<path d="M9.99943 24.4238V29.9693C7.49943 29.9693 5.56878 30.2836 4.30907 28.8865C3.68395 28.1931 3.33276 27.2528 3.33276 26.2723V17.0299C3.33276 16.0494 3.68395 15.109 4.30907 14.4157C4.9342 13.7224 5.78204 13.3329 6.6661 13.3329H33.3328C34.2168 13.3329 35.0647 13.7224 35.6898 14.4157C36.3149 15.109 36.6661 16.0494 36.6661 17.0299V26.2723C36.6661 27.2528 36.3149 28.1931 35.6898 28.8865C34.4883 30.219 33.3328 29.9693 29.9994 29.9693V24.4238" fill="white"/>
<path d="M31.6661 14.9996C31.6661 15.92 30.9199 16.6662 29.9994 16.6662C29.079 16.6662 28.3328 15.92 28.3328 14.9996V6.66622H11.6661V14.9996C11.6661 15.92 10.9199 16.6662 9.99943 16.6662C9.07896 16.6662 8.33276 15.92 8.33276 14.9996V6.42859C8.33276 5.51748 8.75791 4.70676 9.40373 4.1532C10.0416 3.60652 10.858 3.33289 11.6661 3.33289H28.3328C29.1409 3.33289 29.9573 3.60652 30.5951 4.1532C31.241 4.70676 31.6661 5.51749 31.6661 6.42859V14.9996Z" fill="white"/>
<path d="M28.3328 26.6662H11.6661V36.4286C11.6662 36.5506 11.7078 36.6288 11.7361 36.6662H28.2628C28.291 36.6288 28.3327 36.5506 28.3328 36.4286V26.6662ZM31.6661 36.4286C31.6659 38.1849 30.3756 39.9995 28.3328 39.9995H11.6661C9.62324 39.9995 8.33299 38.1849 8.33276 36.4286V24.9996C8.33276 24.0791 9.07896 23.3329 9.99943 23.3329H29.9994C30.9199 23.3329 31.6661 24.0791 31.6661 24.9996V36.4286Z" fill="white"/>
</g>
<defs>
<clipPath id="clip0_3755_27416">
<rect width="40" height="40" fill="white"/>
</clipPath>
</defs>
</svg>
