<svg width="40" height="40" viewBox="0 0 40 40" fill="none" xmlns="http://www.w3.org/2000/svg">
<g clip-path="url(#clip0_3755_27920)">
<circle cx="9.09158" cy="29.0942" r="9.09427" fill="white"/>
<rect x="25.2969" y="1.80295" width="15.3788" height="15.3788" transform="rotate(17.0674 25.2969 1.80295)" fill="white"/>
<path d="M22.7065 9.36737L23.1216 12.6906L25.6909 10.1223L28.1206 7.69257L27.3745 11.0471L26.2534 16.092L31.2993 17.2141L33.8716 17.7853L31.5679 19.0656L27.0288 21.5861L30.9438 24.0334L33.9019 25.883H25.9077L27.3179 29.1721L28.644 32.2658L25.8433 30.3986L22.7007 28.3039L21.2339 30.7502L20.2954 32.3137L19.481 30.6828L17.9858 27.6935L13.062 31.0617L10.6978 32.6789L11.5415 29.9406L12.9019 25.5236L11.2036 25.8635L8.63525 26.3771L10.2065 24.2824L11.5337 22.5119L7.83447 20.3976L4.56299 18.5285H11.9595L10.1382 15.341L8.9751 13.3058L11.2495 13.8742L15.0688 14.8283L14.0415 9.68768L13.3931 6.44745L19.3687 12.423L20.7944 9.09686L22.2485 5.70331L22.7065 9.36737Z" fill="white" stroke="#FF4F3B" stroke-width="2.00107"/>
<path d="M22.7065 9.87595L23.1216 13.1992L25.6909 10.6308L28.1206 8.20114L27.3745 11.5556L26.2534 16.6006L31.2993 17.7226L33.8716 18.2939L31.5679 19.5742L27.0288 22.0947L30.9438 24.542L33.9019 26.3916H25.9077L27.3179 29.6806L28.644 32.7744L25.8433 30.9072L22.7007 28.8125L21.2339 31.2588L20.2954 32.8222L19.481 31.1914L17.9858 28.2021L13.062 31.5703L10.6978 33.1875L11.5415 30.4492L12.9019 26.0322L11.2036 26.372L8.63525 26.8857L10.2065 24.791L11.5337 23.0205L7.83447 20.9062L4.56299 19.0371H11.9595L10.1382 15.8496L8.9751 13.8144L11.2495 14.3828L15.0688 15.3369L14.0415 10.1963L13.3931 6.95602L19.3687 12.9316L20.7944 9.60544L22.2485 6.21188L22.7065 9.87595Z" fill="white" stroke="#FF4F3B" stroke-width="2.00107"/>
</g>
<defs>
<clipPath id="clip0_3755_27920">
<rect width="40" height="40" fill="white"/>
</clipPath>
</defs>
</svg>
