<svg width="40" height="40" viewBox="0 0 40 40" fill="none" xmlns="http://www.w3.org/2000/svg">
<path d="M31.6662 6.66663C31.6662 5.74615 30.92 4.99996 29.9995 4.99996H9.99951C9.07904 4.99996 8.33285 5.74615 8.33284 6.66663V33.3333C8.33284 34.2538 9.07904 35 9.99951 35H29.9995C30.92 35 31.6662 34.2538 31.6662 33.3333V6.66663ZM34.9995 33.3333C34.9995 36.0947 32.7609 38.3333 29.9995 38.3333H9.99951C7.23809 38.3333 4.99951 36.0947 4.99951 33.3333V6.66663C4.99951 3.9052 7.23809 1.66663 9.99951 1.66663H29.9995C32.7609 1.66663 34.9995 3.9052 34.9995 6.66663V33.3333Z" fill="white"/>
<path d="M17.1438 27.0828C17.8012 27.0829 18.3341 27.6425 18.3342 28.3328C18.3342 29.0231 17.8012 29.5827 17.1438 29.5828H12.8577C12.2003 29.5826 11.6672 29.023 11.6672 28.3328C11.6673 27.6426 12.2004 27.083 12.8577 27.0828H17.1438ZM26.303 19.116C26.7679 18.6278 27.5216 18.6278 27.9866 19.116C28.4514 19.6041 28.4514 20.3954 27.9866 20.8835L25.3733 23.6277C24.5984 24.4412 23.3415 24.4412 22.5667 23.6277L21.5413 22.5505C21.0763 22.0624 21.0763 21.2711 21.5413 20.783C22.0062 20.2948 22.7589 20.2948 23.2239 20.783L23.97 21.5652L26.303 19.116ZM16.8264 20.4158C17.4838 20.4158 18.0167 20.9755 18.0168 21.6658C18.0168 22.3561 17.4839 22.9158 16.8264 22.9158H12.8577C12.2003 22.9156 11.6672 22.356 11.6672 21.6658C11.6674 20.9757 12.2004 20.416 12.8577 20.4158H16.8264ZM26.303 12.449C26.7679 11.9609 27.5217 11.9608 27.9866 12.449C28.4514 12.9371 28.4514 13.7284 27.9866 14.2166L25.3733 16.9607C24.5984 17.7742 23.3415 17.7742 22.5667 16.9607L21.5413 15.8835C21.0763 15.3954 21.0763 14.6041 21.5413 14.116C22.0062 13.6279 22.759 13.6279 23.2239 14.116L23.97 14.8982L26.303 12.449ZM18.4133 13.7498C19.0708 13.7498 19.6047 14.3094 19.6047 14.9998C19.6047 15.6901 19.0708 16.2498 18.4133 16.2498H12.8577C12.2003 16.2496 11.6672 15.69 11.6672 14.9998C11.6673 14.3095 12.2003 13.7499 12.8577 13.7498H18.4133Z" fill="white"/>
</svg>
