<svg width="40" height="40" viewBox="0 0 40 40" fill="none" xmlns="http://www.w3.org/2000/svg">
<path d="M24.4644 3.33344C25.2588 3.33344 25.9433 3.89424 26.0991 4.67328L26.4976 6.66644H34.9976C35.918 6.66644 36.6645 7.41301 36.6646 8.33344C36.6646 9.25391 35.918 10.0004 34.9976 10.0004H33.23L31.7583 33.5414C31.6483 35.298 30.1921 36.6663 28.4321 36.6664H11.563C9.8031 36.6662 8.34681 35.2979 8.23682 33.5414L6.76514 10.0004H4.99756C4.07713 10.0004 3.33057 9.25388 3.33057 8.33344C3.33062 7.41304 4.07716 6.6665 4.99756 6.66644H13.4976L13.896 4.67328C14.0518 3.89424 14.7363 3.33344 15.5308 3.33344H24.4644ZM10.105 10.0004L11.563 33.3334H28.4321L29.8901 10.0004H10.105Z" fill="white"/>
</svg>
