<svg width="40" height="40" viewBox="0 0 40 40" fill="none" xmlns="http://www.w3.org/2000/svg">
<path d="M18.335 3.3335C23.8637 3.33353 28.6934 6.32542 31.2949 10.7778L33.9678 8.36475C34.6268 7.76994 35.6368 7.79565 36.2646 8.42334C36.9377 9.09636 36.9119 10.1958 36.208 10.8364L32.7051 14.0229C33.1141 15.3883 33.3349 16.835 33.335 18.3335C33.335 21.8749 32.1061 25.1288 30.0537 27.6948L36.1807 33.8218C36.8314 34.4726 36.8313 35.5274 36.1807 36.1782C35.5298 36.8289 34.4741 36.829 33.8232 36.1782L27.6973 30.0522C25.1311 32.1051 21.8767 33.3335 18.335 33.3335C10.0509 33.3333 3.33496 26.6176 3.33496 18.3335C3.33519 10.0495 10.051 3.33371 18.335 3.3335ZM21.1787 24.5122C20.5278 25.1629 19.4731 25.163 18.8223 24.5122L13.334 19.0239L8.2627 24.2192C10.2875 27.6768 14.039 30.0003 18.335 30.0005C24.7782 30.0004 30.002 24.7768 30.002 18.3335C30.0019 17.7444 29.9573 17.1657 29.873 16.6001L21.1787 24.5122ZM18.335 6.66748C11.892 6.66769 6.6682 11.8905 6.66797 18.3335C6.66797 19.1546 6.75368 19.9558 6.91504 20.729L12.1553 15.4888L12.2822 15.3745C12.9368 14.8406 13.9025 14.8786 14.5127 15.4888L20.001 20.9771L28.749 13.0767C26.8259 9.27537 22.8862 6.66752 18.335 6.66748Z" fill="#FF8E2B"/>
</svg>
