<svg width="40" height="40" viewBox="0 0 40 40" fill="none" xmlns="http://www.w3.org/2000/svg">
<g clip-path="url(#clip0_3755_27420)">
<path d="M25.2493 -0.083252C27.1544 -0.083252 28.7039 1.43833 28.7483 3.33276H30.0002C32.7617 3.33276 35.0002 5.57134 35.0002 8.33276V33.3328C35.0002 36.0941 32.7616 38.3328 30.0002 38.3328H10.0002C7.239 38.3326 5.00031 36.094 5.00024 33.3328V8.33276C5.00024 5.57144 7.23896 3.33293 10.0002 3.33276H11.2522C11.2965 1.43843 12.8453 -0.0830873 14.7502 -0.083252H25.2493ZM10.0002 6.66577C9.07991 6.66594 8.33423 7.41239 8.33423 8.33276V33.3328C8.3343 34.2531 9.07995 34.9996 10.0002 34.9998H30.0002C30.9207 34.9998 31.6672 34.2532 31.6672 33.3328V8.33276C31.6672 7.41229 30.9207 6.66577 30.0002 6.66577H28.7502V6.91675C28.7499 8.8494 27.182 10.4158 25.2493 10.4158H14.7502C12.8176 10.4156 11.2506 8.8493 11.2502 6.91675V6.66577H10.0002ZM14.7502 6.91675H25.2493V3.41577H14.7502V6.91675Z" fill="white"/>
<path d="M20.0026 26.4323C20.6928 26.4325 21.2526 26.992 21.2526 27.6823C21.2526 28.3725 20.6928 28.932 20.0026 28.9323H13.3359C12.6456 28.9323 12.0859 28.3726 12.0859 27.6823C12.0859 26.9919 12.6456 26.4323 13.3359 26.4323H20.0026Z" fill="white"/>
<path d="M20.0026 18.0985C20.693 18.0985 21.2526 18.6582 21.2526 19.3485C21.2526 20.0389 20.693 20.5985 20.0026 20.5985H13.3359C12.6456 20.5985 12.0859 20.0389 12.0859 19.3485C12.0859 18.6582 12.6456 18.0985 13.3359 18.0985H20.0026Z" fill="white"/>
<path d="M28.2645 16.2437C28.6515 15.7429 29.37 15.6502 29.8709 16.037C30.3718 16.4241 30.4647 17.1442 30.0776 17.6451L27.5142 20.9621C27.0236 21.5962 26.0662 21.5944 25.5773 20.9589L24.0946 19.0318C23.7086 18.5301 23.8028 17.8113 24.3045 17.4254C24.8061 17.0396 25.5249 17.1324 25.911 17.6337L26.5474 18.4621L28.2645 16.2437Z" fill="white"/>
<path d="M27.5281 25.8538C27.9772 25.405 28.705 25.4049 29.1541 25.8538C29.6027 26.3029 29.603 27.0318 29.1541 27.4807L28.3005 28.3342L29.1541 29.1877C29.6025 29.6368 29.6028 30.3648 29.1541 30.8137C28.705 31.2626 27.9762 31.2625 27.5271 30.8137L26.6736 29.9602L25.821 30.8137C25.3721 31.2627 24.6432 31.2624 24.1941 30.8137C23.7453 30.3647 23.7454 29.6368 24.1941 29.1877L25.0476 28.3342L24.1941 27.4807C23.745 27.0317 23.7451 26.3029 24.1941 25.8538C24.6431 25.4049 25.371 25.405 25.8201 25.8538L26.6736 26.7073L27.5281 25.8538Z" fill="white"/>
</g>
<defs>
<clipPath id="clip0_3755_27420">
<rect width="40" height="40" fill="white"/>
</clipPath>
</defs>
</svg>
