<svg width="40" height="40" viewBox="0 0 40 40" fill="none" xmlns="http://www.w3.org/2000/svg">
<path d="M35.0001 20.0002C35.0001 11.7159 28.2843 5.0002 20.0001 5.0002C11.7158 5.0002 5.00008 11.7159 5.00008 20.0002C5.00008 28.2845 11.7158 35.0002 20.0001 35.0002C28.2843 35.0002 35.0001 28.2845 35.0001 20.0002ZM38.3334 20.0002C38.3334 30.1254 30.1253 38.3335 20.0001 38.3335C9.87486 38.3335 1.66675 30.1254 1.66675 20.0002C1.66675 9.87498 9.87486 1.66687 20.0001 1.66687C30.1253 1.66687 38.3334 9.87498 38.3334 20.0002Z" fill="#595959"/>
<path d="M25.4084 13.9045C26.0131 13.2108 27.0664 13.1387 27.7603 13.7434C28.454 14.3481 28.526 15.4014 27.9214 16.0952L18.1216 27.342L10.9764 20.1984C10.3256 19.5476 10.3256 18.4909 10.9764 17.84C11.6272 17.1897 12.6824 17.1897 13.3332 17.84L17.9523 22.4608L25.4084 13.9045Z" fill="#595959"/>
</svg>
