<svg width="40" height="40" viewBox="0 0 40 40" fill="none" xmlns="http://www.w3.org/2000/svg">
<path d="M9.34254 5.08339C12.8581 2.57194 17.1483 1.38273 21.4552 1.72565C25.7623 2.06874 29.8104 3.92189 32.8842 6.95839C35.9577 9.99469 37.8611 14.0185 38.2569 18.3207C38.6526 22.6231 37.5156 26.9279 35.0473 30.474C32.5788 34.0202 28.9364 36.5809 24.7641 37.7038C20.6242 38.8179 16.2265 38.4444 12.3341 36.6524C12.0626 36.5537 11.7707 36.5276 11.4861 36.5759L5.89527 38.2116C5.88226 38.2154 5.86931 38.2196 5.85621 38.223C5.30752 38.3686 4.72999 38.3709 4.17978 38.2312C3.62976 38.0914 3.12425 37.8135 2.71168 37.4239C2.29901 37.0339 1.99211 36.5445 1.82138 36.003C1.65072 35.4617 1.62091 34.8857 1.73512 34.3298L1.78232 34.1508L3.5206 28.7813C3.57998 28.4748 3.55473 28.1583 3.44247 27.8666C1.60404 23.9969 1.17646 19.6052 2.23967 15.4529C3.31143 11.2675 5.82718 7.59497 9.34254 5.08339ZM21.1915 5.04759C17.6676 4.76688 14.1575 5.74011 11.281 7.79498C8.40447 9.84992 6.3458 12.855 5.46884 16.2797C4.64681 19.4901 4.91333 22.8757 6.21428 25.9102L6.48772 26.5124L6.53492 26.6231C6.90236 27.5502 6.98529 28.5658 6.77092 29.5398C6.75944 29.5919 6.74504 29.6436 6.72861 29.6944L5.01148 34.9955L10.6479 33.3484C10.6952 33.3345 10.7444 33.3238 10.7927 33.3142C11.597 33.1547 12.4264 33.1941 13.2081 33.4297L13.5401 33.5437L13.6524 33.5909C16.8555 35.0867 20.4845 35.4032 23.8982 34.4844C27.3119 33.5657 30.2916 31.4711 32.3113 28.5697C34.3308 25.6683 35.2603 22.1469 34.9366 18.6267C34.6129 15.1067 33.0567 11.8141 30.5421 9.32981C28.0272 6.84547 24.7154 5.32836 21.1915 5.04759Z" fill="white"/>
</svg>
