<svg width="40" height="40" viewBox="0 0 40 40" fill="none" xmlns="http://www.w3.org/2000/svg">
<path d="M26.3761 12.3605C26.1818 12.1932 26.1818 11.8922 26.3761 11.725C28.2858 10.0812 29.8834 8.10668 31.0925 5.89606L31.6288 4.91531C31.8185 4.5685 32.3166 4.56855 32.5062 4.9154L33.0424 5.89618C34.2511 8.10723 35.849 10.0819 37.7593 11.7253C37.9535 11.8924 37.9535 12.1931 37.7593 12.3602C35.849 14.0035 34.2511 15.9782 33.0424 18.1893L32.5062 19.17C32.3166 19.5169 31.8185 19.5169 31.6288 19.1701L31.0925 18.1894C29.8834 15.9788 28.2858 14.0042 26.3761 12.3605Z" fill="#FF8E2B"/>
<path d="M4.14611 21.0805C3.91436 20.881 3.91436 20.5221 4.14611 20.3226L6.71978 18.1073C8.99717 16.147 10.9025 13.7922 12.3444 11.1558L15.2839 5.78116C15.4736 5.43435 15.9717 5.4344 16.1613 5.78125L19.0971 11.1517C20.5404 13.7918 22.4484 16.1497 24.7293 18.112L27.2988 20.3225C27.5307 20.522 27.5307 20.8811 27.2988 21.0806L24.7293 23.2911C22.4484 25.2533 20.5404 27.6113 19.0971 30.2514L16.1613 35.6218C15.9717 35.9687 15.4736 35.9687 15.2839 35.6219L12.3444 30.2472C10.9025 27.6109 8.99717 25.2561 6.71978 23.2958L4.14611 21.0805Z" fill="#FF8E2B"/>
</svg>
