<svg width="40" height="40" viewBox="0 0 40 40" fill="none" xmlns="http://www.w3.org/2000/svg">
<g clip-path="url(#clip0_3755_27892)">
<path d="M25.2488 -0.0830078C27.1537 -0.0828446 28.7033 1.43879 28.7478 3.33301H29.9998C32.7609 3.33317 34.9995 5.57188 34.9998 8.33301V33.333C34.9998 36.0943 32.761 38.3328 29.9998 38.333H9.99976C7.23833 38.333 4.99976 36.0944 4.99976 33.333V8.33301C4.99999 5.57178 7.23847 3.33301 9.99976 3.33301H11.2517C11.2961 1.4388 12.8439 -0.0828325 14.7488 -0.0830078H25.2488ZM9.99976 6.66699C9.07942 6.66699 8.33299 7.41273 8.33276 8.33301V33.333C8.33276 34.2535 9.07928 35 9.99976 35H29.9998C30.9201 34.9998 31.6658 34.2534 31.6658 33.333V8.33301C31.6655 7.41283 30.9199 6.66716 29.9998 6.66699H28.7498V6.91699C28.7494 8.84955 27.1814 10.4168 25.2488 10.417H14.7488C12.8162 10.4168 11.2501 8.84954 11.2498 6.91699V6.66699H9.99976ZM14.7488 6.91699H25.2488V3.41602H14.7488V6.91699Z" fill="white"/>
<path d="M24.0108 17.9298C24.6941 17.2464 25.8013 17.2465 26.4847 17.9298C27.1681 18.6132 27.1681 19.7203 26.4847 20.4038L19.486 27.4041C18.8026 28.0875 17.6939 28.0875 17.0104 27.4041L13.5111 23.9047C12.8277 23.2213 12.8277 22.1126 13.5111 21.4291C14.1944 20.7461 15.3017 20.7461 15.9851 21.4291L18.2474 23.6899L24.0108 17.9298Z" fill="white"/>
</g>
<defs>
<clipPath id="clip0_3755_27892">
<rect width="40" height="40" fill="white"/>
</clipPath>
</defs>
</svg>
