<svg width="40" height="40" viewBox="0 0 40 40" fill="none" xmlns="http://www.w3.org/2000/svg">
<path d="M18.3335 3.33337C23.8624 3.33337 28.692 6.32514 31.2935 10.7777L33.9673 8.36462C34.6264 7.76967 35.6363 7.79535 36.2642 8.42322C36.9372 9.09627 36.9115 10.1957 36.2075 10.8363L32.7036 14.0238C33.1124 15.3889 33.3335 16.8353 33.3335 18.3334C33.3335 21.8752 32.1051 25.1295 30.0522 27.6957L36.1782 33.8217C36.8291 34.4725 36.8291 35.5272 36.1782 36.1781C35.5274 36.829 34.4727 36.829 33.8218 36.1781L27.6958 30.0521C25.1296 32.1049 21.8753 33.3334 18.3335 33.3334C10.0492 33.3334 3.3335 26.6176 3.3335 18.3334C3.3335 10.0491 10.0492 3.33337 18.3335 3.33337ZM21.1782 24.5121C20.5274 25.1626 19.4726 25.1627 18.8218 24.5121L13.3335 19.0238L8.26123 24.2201C10.2862 27.6773 14.0377 30.0004 18.3335 30.0004C24.7768 30.0004 30.0005 24.7767 30.0005 18.3334C30.0005 17.7446 29.9548 17.1663 29.8706 16.601L21.1782 24.5121ZM18.3335 6.66638C11.8902 6.66638 6.6665 11.8901 6.6665 18.3334C6.6665 19.1545 6.75219 19.9557 6.91357 20.7289L12.1548 15.4886L12.2817 15.3744C12.9364 14.8405 13.902 14.8785 14.5122 15.4886L20.0005 20.9769L28.7485 13.0765C26.8257 9.2745 22.8852 6.66638 18.3335 6.66638Z" fill="white"/>
</svg>
