<svg width="40" height="40" viewBox="0 0 40 40" fill="none" xmlns="http://www.w3.org/2000/svg">
<path d="M19.997 3.33344C23.2933 3.33344 26.5156 4.31132 29.2564 6.14268C31.9971 7.974 34.1343 10.5762 35.3957 13.6215C36.6572 16.667 36.9861 20.019 36.343 23.2521C35.6999 26.4849 34.1132 29.4548 31.7825 31.7856C29.4517 34.1163 26.4818 35.703 23.2489 36.3461C20.0159 36.9892 16.6638 36.6603 13.6184 35.3989C10.5731 34.1374 7.97088 32.0002 6.13957 29.2595C4.30821 26.5187 3.33032 23.2965 3.33032 20.0001C3.33032 19.0796 4.07651 18.3334 4.99699 18.3334C5.91746 18.3334 6.66366 19.0796 6.66366 20.0001C6.66366 22.6372 7.44629 25.2147 8.91138 27.4073C10.3764 29.5999 12.4583 31.3086 14.8944 32.3178C17.3307 33.3269 20.0116 33.5923 22.5979 33.0779C25.1843 32.5634 27.561 31.2935 29.4257 29.4288C31.2904 27.5641 32.5603 25.1874 33.0748 22.601C33.5891 20.0147 33.3238 17.3338 32.3147 14.8976C31.3055 12.4614 29.5968 10.3795 27.4042 8.91449C25.2125 7.45001 22.6362 6.66741 20.0002 6.66677C16.238 6.6817 12.6271 8.15009 9.92212 10.7651L6.17537 14.5118C5.5245 15.1627 4.46948 15.1627 3.8186 14.5118C3.16773 13.8609 3.16773 12.8059 3.8186 12.155L7.58488 8.38877L8.2408 7.7833C11.4844 4.93682 15.6557 3.3498 19.9905 3.33344H19.997Z" fill="white"/>
<path d="M3.33032 8.33323C3.33032 7.41276 4.07651 6.66656 4.99699 6.66656C5.91746 6.66656 6.66366 7.41276 6.66366 8.33323V11.6666H9.99699C10.9175 11.6666 11.6637 12.4128 11.6637 13.3332C11.6637 14.2537 10.9175 14.9999 9.99699 14.9999H4.99699C4.07651 14.9999 3.33032 14.2537 3.33032 13.3332V8.33323Z" fill="white"/>
<path d="M22.5671 13.7956C22.5671 12.3902 21.4284 11.2503 20.0231 11.25C18.6176 11.25 17.4775 12.39 17.4775 13.7956C17.4779 15.2008 18.6178 16.3395 20.0231 16.3395C21.4281 16.3392 22.5667 15.2006 22.5671 13.7956ZM25.0671 13.7956C25.0667 16.5813 22.8089 18.8392 20.0231 18.8395C17.2371 18.8395 14.9779 16.5815 14.9775 13.7956C14.9775 11.0093 17.2369 8.75 20.0231 8.75C22.8091 8.75034 25.0671 11.0095 25.0671 13.7956Z" fill="white"/>
<path d="M23.7471 26.1897C23.7467 24.3821 22.2815 22.9169 20.474 22.9166H19.5202C17.7126 22.9169 16.2474 24.3821 16.2471 26.1897V27.0816L23.7471 27.0832V26.1897ZM26.2471 27.202C26.247 28.5158 25.1829 29.5816 23.8691 29.5832L16.1315 29.5816C14.8155 29.5831 13.7471 28.5164 13.7471 27.2004V26.1897C13.7474 23.0014 16.3319 20.4169 19.5202 20.4166H20.474C23.6622 20.4169 26.2467 23.0014 26.2471 26.1897V27.202Z" fill="white"/>
</svg>
