<svg width="40" height="40" viewBox="0 0 40 40" fill="none" xmlns="http://www.w3.org/2000/svg">
<path d="M31.6677 3.33344C34.4291 3.33344 36.6677 5.57202 36.6677 8.33344V31.6664C36.6677 34.4279 34.4291 36.6664 31.6677 36.6664H8.33472C5.57329 36.6664 3.33472 34.4279 3.33472 31.6664V8.33344C3.33473 5.57202 5.5733 3.33344 8.33472 3.33344H31.6677ZM8.33472 6.66644C7.41425 6.66644 6.66774 7.41297 6.66772 8.33344V31.6664C6.66772 32.5869 7.41424 33.3334 8.33472 33.3334H31.6677C32.5882 33.3334 33.3347 32.5869 33.3347 31.6664V8.33344C33.3347 7.41297 32.5882 6.66644 31.6677 6.66644H8.33472ZM26.6677 25.0004C27.5882 25.0004 28.3347 25.747 28.3347 26.6674C28.3345 27.5877 27.588 28.3334 26.6677 28.3334H18.3347C17.4144 28.3334 16.668 27.5877 16.6677 26.6674C16.6677 25.7469 17.4142 25.0004 18.3347 25.0004H26.6677ZM23.3347 18.3334C24.255 18.3336 25.0007 19.0801 25.0007 20.0004C25.0006 20.9206 24.2549 21.6663 23.3347 21.6664H13.3347C12.4144 21.6664 11.6679 20.9208 11.6677 20.0004C11.6677 19.08 12.4142 18.3334 13.3347 18.3334H23.3347ZM26.6677 11.6664C27.5882 11.6664 28.3347 12.413 28.3347 13.3334C28.3347 14.2539 27.5882 15.0004 26.6677 15.0004H15.0007C14.0804 15.0002 13.3347 14.2538 13.3347 13.3334C13.3348 12.4131 14.0805 11.6666 15.0007 11.6664H26.6677Z" fill="white"/>
</svg>
