<svg width="40" height="40" viewBox="0 0 40 40" fill="none" xmlns="http://www.w3.org/2000/svg">
<g clip-path="url(#clip0_3755_27269)">
<rect x="1.6665" y="1.66663" width="36.6667" height="36.6667" rx="6.66667" fill="#828282"/>
<path d="M19.9995 7.5C24.6018 7.5 28.3333 11.2308 28.3335 15.833C28.3335 20.4354 24.6019 24.167 19.9995 24.167H15.8335V32.5H11.6665V7.5H19.9995ZM15.8335 20H19.9995C22.3007 20 24.1665 18.1342 24.1665 15.833C24.1663 13.532 22.3006 11.667 19.9995 11.667H15.8335V20Z" fill="white"/>
<rect x="1.6665" y="1.66663" width="36.6667" height="36.6667" rx="6.66667" fill="#828282"/>
<path d="M19.9995 7.5C24.6018 7.5 28.3333 11.2308 28.3335 15.833C28.3335 20.4354 24.6019 24.167 19.9995 24.167H15.8335V32.5H11.6665V7.5H19.9995ZM15.8335 20H19.9995C22.3007 20 24.1665 18.1342 24.1665 15.833C24.1663 13.532 22.3006 11.667 19.9995 11.667H15.8335V20Z" fill="white"/>
</g>
<defs>
<clipPath id="clip0_3755_27269">
<rect width="40" height="40" fill="white"/>
</clipPath>
</defs>
</svg>
