<svg width="40" height="40" viewBox="0 0 40 40" fill="none" xmlns="http://www.w3.org/2000/svg">
<path d="M26.4094 33.5592C27.2414 33.1659 28.2356 33.5222 28.6292 34.3541C29.0224 35.1862 28.6672 36.1804 27.8352 36.5739C23.4479 38.6486 18.4157 38.8988 13.844 37.2701C12.9774 36.9611 12.5247 36.007 12.8333 35.1403C13.1423 34.2735 14.0972 33.8217 14.9641 34.1305C18.7043 35.4627 22.8201 35.2565 26.4094 33.5592ZM4.052 25.1383C4.89607 24.7718 5.87753 25.1586 6.24438 26.0026C7.08663 27.9401 8.32937 29.678 9.88989 31.1022C10.5693 31.7226 10.6174 32.7769 9.99731 33.4567C9.37681 34.1366 8.32173 34.1846 7.64185 33.5641C5.73459 31.8234 4.21711 29.6988 3.18774 27.3307C2.82096 26.4866 3.20789 25.5052 4.052 25.1383ZM20.0022 1.66663C23.5588 1.66609 27.0386 2.70073 30.0178 4.64319C32.997 6.58579 35.3483 9.35243 36.7825 12.6071C38.2166 15.862 38.6731 19.4654 38.0959 22.9752C37.5188 26.4846 35.933 29.7505 33.5325 32.3746C32.9113 33.0536 31.8562 33.101 31.177 32.4801C30.4982 31.8589 30.4516 30.8047 31.0725 30.1256C33.0368 27.9784 34.3347 25.3048 34.8069 22.4332C35.2789 19.5619 34.9059 16.6147 33.7327 13.9518C32.5594 11.2888 30.636 9.02468 28.1985 7.43518C25.7608 5.84571 22.9123 4.99915 20.0022 4.99963C19.082 4.99964 18.3355 4.25384 18.3352 3.33362C18.3352 2.41328 19.0818 1.66679 20.0022 1.66663ZM20.0022 8.33362C20.9225 8.33376 21.6681 9.07935 21.6682 9.99963V18.9694L27.4143 21.8424C28.2374 22.2541 28.571 23.2555 28.1594 24.0787C27.7477 24.902 26.7464 25.2355 25.9231 24.8239L19.2561 21.4908C18.6916 21.2085 18.3352 20.6308 18.3352 19.9996V9.99963C18.3353 9.07926 19.0818 8.33362 20.0022 8.33362ZM2.58521 14.2711C2.87282 13.3968 3.81537 12.9201 4.6897 13.2076C5.56396 13.4952 6.0396 14.4378 5.7522 15.3121C5.27422 16.7651 5.0213 18.2836 5.0022 19.8131C4.99035 20.7331 4.23472 21.4699 3.3147 21.4586C2.39446 21.4469 1.6577 20.6904 1.66919 19.7701C1.6926 17.9012 2.00117 16.0467 2.58521 14.2711ZM8.13013 6.02698C8.83171 5.43119 9.88292 5.51586 10.4788 6.21741C11.0745 6.9189 10.9887 7.97016 10.2874 8.56604C9.81586 8.96649 9.36893 9.39564 8.95044 9.8512C8.32787 10.5289 7.27384 10.5751 6.59595 9.95276C5.91808 9.33008 5.87368 8.27517 6.49634 7.59729C7.00781 7.04049 7.55387 6.51642 8.13013 6.02698Z" fill="white"/>
</svg>
