<svg width="40" height="40" viewBox="0 0 40 40" fill="none" xmlns="http://www.w3.org/2000/svg">
<path d="M25.4166 8.33337C24.8333 8.33337 24.3402 8.13199 23.9374 7.72921C23.5346 7.32643 23.3333 6.83337 23.3333 6.25004C23.3333 5.66671 23.5346 5.17365 23.9374 4.77087C24.3402 4.3681 24.8333 4.16671 25.4166 4.16671C25.9999 4.16671 26.493 4.3681 26.8958 4.77087C27.2985 5.17365 27.4999 5.66671 27.4999 6.25004C27.4999 6.83337 27.2985 7.32643 26.8958 7.72921C26.493 8.13199 25.9999 8.33337 25.4166 8.33337ZM25.4166 35.8334C24.8333 35.8334 24.3402 35.632 23.9374 35.2292C23.5346 34.8264 23.3333 34.3334 23.3333 33.75C23.3333 33.1667 23.5346 32.6737 23.9374 32.2709C24.3402 31.8681 24.8333 31.6667 25.4166 31.6667C25.9999 31.6667 26.493 31.8681 26.8958 32.2709C27.2985 32.6737 27.4999 33.1667 27.4999 33.75C27.4999 34.3334 27.2985 34.8264 26.8958 35.2292C26.493 35.632 25.9999 35.8334 25.4166 35.8334ZM32.0833 14.1667C31.4999 14.1667 31.0069 13.9653 30.6041 13.5625C30.2013 13.1598 29.9999 12.6667 29.9999 12.0834C29.9999 11.5 30.2013 11.007 30.6041 10.6042C31.0069 10.2014 31.4999 10 32.0833 10C32.6666 10 33.1596 10.2014 33.5624 10.6042C33.9652 11.007 34.1666 11.5 34.1666 12.0834C34.1666 12.6667 33.9652 13.1598 33.5624 13.5625C33.1596 13.9653 32.6666 14.1667 32.0833 14.1667ZM32.0833 30C31.4999 30 31.0069 29.7987 30.6041 29.3959C30.2013 28.9931 29.9999 28.5 29.9999 27.9167C29.9999 27.3334 30.2013 26.8403 30.6041 26.4375C31.0069 26.0348 31.4999 25.8334 32.0833 25.8334C32.6666 25.8334 33.1596 26.0348 33.5624 26.4375C33.9652 26.8403 34.1666 27.3334 34.1666 27.9167C34.1666 28.5 33.9652 28.9931 33.5624 29.3959C33.1596 29.7987 32.6666 30 32.0833 30ZM34.5833 22.0834C33.9999 22.0834 33.5069 21.882 33.1041 21.4792C32.7013 21.0764 32.4999 20.5834 32.4999 20C32.4999 19.4167 32.7013 18.9237 33.1041 18.5209C33.5069 18.1181 33.9999 17.9167 34.5833 17.9167C35.1666 17.9167 35.6596 18.1181 36.0624 18.5209C36.4652 18.9237 36.6666 19.4167 36.6666 20C36.6666 20.5834 36.4652 21.0764 36.0624 21.4792C35.6596 21.882 35.1666 22.0834 34.5833 22.0834ZM19.9999 36.6667C17.6944 36.6667 15.5277 36.2292 13.4999 35.3542C11.4721 34.4792 9.70825 33.2917 8.20825 31.7917C6.70825 30.2917 5.52075 28.5278 4.64575 26.5C3.77075 24.4723 3.33325 22.3056 3.33325 20C3.33325 17.6945 3.77075 15.5278 4.64575 13.5C5.52075 11.4723 6.70825 9.70837 8.20825 8.20837C9.70825 6.70837 11.4721 5.52087 13.4999 4.64587C15.5277 3.77087 17.6944 3.33337 19.9999 3.33337V6.66671C16.2777 6.66671 13.1249 7.95837 10.5416 10.5417C7.95825 13.125 6.66659 16.2778 6.66659 20C6.66659 23.7223 7.95825 26.875 10.5416 29.4584C13.1249 32.0417 16.2777 33.3334 19.9999 33.3334V36.6667Z" fill="#FF8E2B"/>
<path d="M26.6667 18.3334C27.5872 18.3334 28.3334 19.0796 28.3334 20C28.3334 20.9205 27.5872 21.6667 26.6667 21.6667H13.3334C12.4129 21.6667 11.6667 20.9205 11.6667 20C11.6667 19.0796 12.4129 18.3334 13.3334 18.3334H26.6667Z" fill="#FF8E2B"/>
</svg>
