<svg width="40" height="40" viewBox="0 0 40 40" fill="none" xmlns="http://www.w3.org/2000/svg">
<g clip-path="url(#clip0_3755_27553)">
<path d="M11.9801 6.88456C11.9803 6.0789 12.2601 5.13548 12.8574 4.34875C13.5311 3.46147 14.644 2.74572 16.1191 2.74556L16.5488 2.7537C16.6493 2.75852 16.7594 2.76906 16.8776 2.78137C17.0008 2.57239 17.1479 2.36306 17.3301 2.16288C18.1767 1.23266 19.3738 0.83313 20.6536 0.83313L20.8848 0.83964C21.4539 0.870165 22.2203 1.0176 22.9469 1.42069C23.5972 1.78164 24.2845 2.40765 24.6461 3.31848C24.8066 3.30278 24.9699 3.29244 25.1361 3.29244C25.728 3.29244 26.6162 3.42367 27.4473 3.92232C28.2245 4.38886 28.9384 5.19084 29.1839 6.31002C29.2918 6.30337 29.3998 6.297 29.5078 6.297L29.7422 6.30351C30.3201 6.33528 31.0915 6.49038 31.819 6.92688C32.7805 7.50391 33.6468 8.59508 33.6468 10.1642V29.6189L33.6452 29.6759C33.5669 31.4023 32.8794 33.7711 31.0491 35.7387C29.1517 37.7785 26.2298 39.1665 22.1299 39.1665C19.6757 39.1664 16.1165 38.7258 13.4596 36.4256C12.9827 36.0489 12.4854 35.4646 12.0192 34.7947C11.4916 34.0367 10.8948 33.0147 10.2923 31.6892L10.2825 31.6713L5.91242 21.8341L5.84081 21.6746L5.79198 21.507C5.64526 20.9934 5.4714 20.1215 5.66503 19.1339C5.87825 18.0468 6.51124 16.9815 7.68651 16.2433C8.28841 15.8653 9.29384 15.4991 10.4469 15.6053C10.9729 15.6538 11.4923 15.7979 11.9801 16.0447V6.88456ZM14.4801 23.0434C14.4801 23.2901 14.1928 23.3961 14.0293 23.2534L13.9691 23.1769L11.7474 19.1795C10.8731 17.6505 9.45132 18.0876 9.01626 18.3608C7.89633 19.0642 8.0138 20.1826 8.19595 20.8201L12.5677 30.6557C13.6606 33.06 14.6627 34.2074 15.027 34.4806C16.994 36.229 19.8328 36.6664 22.1299 36.6665C29.1222 36.6665 31.0353 32.021 31.1468 29.562V10.1642C31.1468 9.07136 30.0543 8.79703 29.5078 8.797C28.1963 8.797 27.8688 9.61795 27.8688 10.4376V18.0874L27.8574 18.198C27.8062 18.4467 27.5858 18.6342 27.3219 18.6342L27.2113 18.6228C26.9982 18.5791 26.8303 18.411 26.7864 18.198L26.7751 18.0874V7.158C26.7749 6.06533 25.6825 5.79244 25.1361 5.79244C23.8249 5.79246 23.4972 6.70254 23.4971 7.158V18.0874L23.4857 18.198C23.4345 18.4467 23.214 18.6342 22.9502 18.6342L22.8395 18.6228C22.6266 18.579 22.4585 18.411 22.4147 18.198L22.4033 18.0874V4.69869C22.4029 3.60663 21.2003 3.33332 20.6536 3.33313C19.1242 3.33313 18.8521 4.24313 18.8519 4.69869V18.2241L18.8437 18.3071C18.8053 18.4935 18.6396 18.6342 18.4417 18.6342L18.3587 18.6261C18.1992 18.5932 18.0743 18.4666 18.0413 18.3071L18.0316 18.2241V6.88456C18.0313 5.35502 16.9809 5.24561 16.1191 5.24556C14.9156 5.24586 14.4804 6.33802 14.4801 6.88456V23.0434Z" fill="white"/>
</g>
<defs>
<clipPath id="clip0_3755_27553">
<rect width="40" height="40" fill="white"/>
</clipPath>
</defs>
</svg>
