<svg width="40" height="40" viewBox="0 0 40 40" fill="none" xmlns="http://www.w3.org/2000/svg">
<path d="M4.99707 23.3326C5.9174 23.3328 6.66309 24.0793 6.66309 24.9996V31.6676C6.66348 32.5879 7.40979 33.3343 8.33008 33.3346H14.998C15.9185 33.3346 16.6649 34.0802 16.665 35.0006C16.665 35.9211 15.9185 36.6676 14.998 36.6676H8.33008C5.56885 36.6673 3.33047 34.4288 3.33008 31.6676V24.9996C3.33008 24.0792 4.0766 23.3326 4.99707 23.3326ZM35.0029 23.3326C35.9234 23.3326 36.6699 24.0792 36.6699 24.9996V31.6676C36.6695 34.4288 34.4312 36.6673 31.6699 36.6676H25.002C24.0815 36.6676 23.335 35.9211 23.335 35.0006C23.3351 34.0802 24.0815 33.3346 25.002 33.3346H31.6699C32.5902 33.3343 33.3365 32.5879 33.3369 31.6676V24.9996C33.3369 24.0793 34.0826 23.3328 35.0029 23.3326ZM27.0068 10.0182C28.6879 10.1886 30 11.6075 30 13.3336V26.6666L29.9824 27.0065C29.8233 28.5757 28.5761 29.823 27.0068 29.9821L26.667 29.9996H13.333C11.6071 29.9995 10.188 28.6875 10.0176 27.0065L10 26.6666V13.3336C10 11.4928 11.4922 9.99981 13.333 9.99963H26.667L27.0068 10.0182ZM13.333 26.6666H26.667V13.3336H13.333V26.6666ZM14.998 3.33167C15.9184 3.33167 16.6648 4.07739 16.665 4.99768C16.665 5.91816 15.9185 6.66467 14.998 6.66467H8.33008C7.40975 6.665 6.66341 7.41134 6.66309 8.33167V14.9996C6.66309 15.92 5.9174 16.6665 4.99707 16.6666C4.0766 16.6666 3.33008 15.9201 3.33008 14.9996V8.33167C3.33041 5.57039 5.5688 3.33199 8.33008 3.33167H14.998ZM31.6699 3.33167C34.4312 3.33199 36.6696 5.57039 36.6699 8.33167V14.9996C36.6699 15.9201 35.9234 16.6666 35.0029 16.6666C34.0826 16.6665 33.3369 15.92 33.3369 14.9996V8.33167C33.3366 7.41134 32.5903 6.665 31.6699 6.66467H25.002C24.0815 6.66467 23.335 5.91816 23.335 4.99768C23.3351 4.07734 24.0816 3.33167 25.002 3.33167H31.6699Z" fill="#FF8E2B"/>
</svg>
