<svg width="40" height="40" viewBox="0 0 40 40" fill="none" xmlns="http://www.w3.org/2000/svg">
<path d="M3.33276 26.5147C3.33276 25.6779 4.01112 24.9995 4.84792 24.9995H5.15095C5.98774 24.9995 6.6661 25.6779 6.6661 26.5147V33.3329H13.4843C14.3211 33.3329 14.9994 34.0112 14.9994 34.848V35.1511C14.9994 35.9879 14.3211 36.6662 13.4843 36.6662H6.36307C4.68948 36.6662 3.33276 35.3095 3.33276 33.6359V26.5147ZM33.3328 26.5147C33.3328 25.6779 34.0111 24.9995 34.8479 24.9995H35.1509C35.9877 24.9995 36.6661 25.6779 36.6661 26.5147V33.6359C36.6661 35.3095 35.3094 36.6662 33.6358 36.6662H26.5146C25.6778 36.6662 24.9994 35.9879 24.9994 35.1511V34.848C24.9994 34.0112 25.6778 33.3329 26.5146 33.3329H33.3328V26.5147ZM3.33276 6.36319C3.33276 4.6896 4.68948 3.33289 6.36307 3.33289H13.4843C14.3211 3.33289 14.9994 4.01124 14.9994 4.84804V5.15107C14.9994 5.98786 14.3211 6.66622 13.4843 6.66622H6.6661V13.4844C6.6661 14.3212 5.98774 14.9996 5.15094 14.9996H4.84791C4.01112 14.9996 3.33276 14.3212 3.33276 13.4844V6.36319ZM33.3328 6.66622H26.5146C25.6778 6.66622 24.9994 5.98786 24.9994 5.15107V4.84804C24.9994 4.01124 25.6778 3.33289 26.5146 3.33289H33.6358C35.3094 3.33289 36.6661 4.6896 36.6661 6.36319V13.4844C36.6661 14.3212 35.9877 14.9996 35.1509 14.9996H34.8479C34.0111 14.9996 33.3328 14.3212 33.3328 13.4844V6.66622Z" fill="white"/>
</svg>
