<svg width="40" height="40" viewBox="0 0 40 40" fill="none" xmlns="http://www.w3.org/2000/svg">
<path d="M20.0039 3.33289C29.2085 3.33303 36.6699 10.7952 36.6699 19.9999C36.6697 29.2043 29.2084 36.6657 20.0039 36.6659C10.7993 36.6659 3.33716 29.2044 3.33691 19.9999C3.33691 10.7951 10.7992 3.33289 20.0039 3.33289ZM20.0039 6.66589C12.6401 6.66589 6.66992 12.6361 6.66992 19.9999C6.67017 27.3635 12.6403 33.3329 20.0039 33.3329C27.3674 33.3327 33.3367 27.3634 33.3369 19.9999C33.3369 12.6362 27.3676 6.66604 20.0039 6.66589ZM20.0029 11.6659C20.9233 11.666 21.6689 12.4125 21.6689 13.3329V18.3329H26.6689C27.5894 18.3329 28.3359 19.0794 28.3359 19.9999C28.3357 20.9201 27.5893 21.6659 26.6689 21.6659H21.6689V26.6659C21.6689 27.5863 20.9233 28.3327 20.0029 28.3329C19.0826 28.3327 18.3359 27.5863 18.3359 26.6659V21.6659H13.3359C12.4158 21.6657 11.6692 20.92 11.6689 19.9999C11.6689 19.0795 12.4156 18.3331 13.3359 18.3329H18.3359V13.3329C18.3359 12.4125 19.0826 11.6661 20.0029 11.6659Z" fill="white"/>
</svg>
