<svg width="40" height="40" viewBox="0 0 40 40" fill="none" xmlns="http://www.w3.org/2000/svg">
<g clip-path="url(#clip0_3755_27262)">
<path d="M11.6682 0.237671C12.457 0.237796 13.0968 0.877612 13.0969 1.66638C13.0969 2.45528 12.4571 3.09594 11.6682 3.09607H8.80981C8.43132 3.09635 8.06868 3.24638 7.80103 3.51404C7.53337 3.78171 7.38332 4.14432 7.38306 4.52283V10.8353L9.22876 8.98962C9.78662 8.43239 10.6906 8.43216 11.2483 8.98962C11.8061 9.54752 11.8062 10.4532 11.2483 11.0111L6.96313 15.2963C6.40544 15.854 5.50057 15.8536 4.94263 15.2963L0.655518 11.0111C0.0978693 10.4533 0.0980301 9.54751 0.655518 8.98962C1.21337 8.43177 2.1191 8.43185 2.677 8.98962L4.52466 10.8373V4.52283C4.52492 3.38656 4.97802 2.298 5.78149 1.49451C6.58497 0.691029 7.67355 0.237952 8.80981 0.237671H11.6682Z" fill="white"/>
<path d="M34.0298 25.2374C34.4534 25.2318 34.8576 25.4157 35.1333 25.7374L39.4185 30.7374C39.9318 31.3364 39.863 32.2376 39.2642 32.7511C38.6652 33.2645 37.7639 33.1947 37.2505 32.5958L35.4751 30.5255V35.4767C35.4749 36.613 35.0227 37.7024 34.2192 38.506C33.4157 39.3095 32.3263 39.7626 31.1899 39.7628H28.3315C27.5428 39.7625 26.9028 39.1219 26.9028 38.3331C26.9029 37.5444 27.5429 36.9047 28.3315 36.9044H31.1899C31.5684 36.9042 31.931 36.754 32.1987 36.4865C32.4665 36.2187 32.6175 35.8553 32.6177 35.4767V30.7042L31.1108 32.5656C30.6144 33.1783 29.7161 33.2726 29.103 32.7765C28.4899 32.2802 28.395 31.3819 28.8911 30.7687L32.939 25.7687C33.2058 25.4391 33.6058 25.2434 34.0298 25.2374Z" fill="white"/>
<path d="M10.6203 19.4259L13.5318 13.6022C13.8184 13.0288 14.4044 12.6666 15.0454 12.6666H16.9995V9.66663C16.9995 8.00977 18.3426 6.66663 19.9995 6.66663C21.6563 6.66663 22.9995 8.00977 22.9995 9.66663V12.6666H24.8998C25.5685 12.6666 26.1745 13.0605 26.4462 13.6715L29.447 20.4224C29.8042 21.2262 29.8676 22.13 29.6259 22.9758L28.5181 26.8534C28.2114 27.9267 27.2304 28.6666 26.1142 28.6666H25.2019C23.5755 28.6666 22.3821 27.1382 22.7766 25.5603L24 20.6666L22.6923 16.8205H17.6154L16 20.6666L17.2234 25.5603C17.6179 27.1382 16.4245 28.6666 14.7981 28.6666H13.9519C12.8048 28.6666 11.8048 27.8859 11.5266 26.773L10.3364 22.0123C10.1193 21.1439 10.22 20.2266 10.6203 19.4259Z" fill="white"/>
</g>
<defs>
<clipPath id="clip0_3755_27262">
<rect width="40" height="40" fill="white"/>
</clipPath>
</defs>
</svg>
