<svg width="40" height="40" viewBox="0 0 40 40" fill="none" xmlns="http://www.w3.org/2000/svg">
<path d="M36.6526 26.6666C37.5728 26.6594 38.3248 27.3997 38.3323 28.3199C38.3374 28.9666 38.154 29.6016 37.8049 30.1461C37.4559 30.6901 36.9559 31.1211 36.3665 31.3863L22.0725 37.8843L22.0696 37.8853C21.4218 38.1785 20.7181 38.3296 20.0071 38.3297C19.296 38.3296 18.5924 38.1786 17.9446 37.8853L17.9436 37.8843L3.60864 31.3668L3.59888 31.3619C3.02041 31.0941 2.53036 30.666 2.18774 30.1285C1.8453 29.591 1.66376 28.966 1.66528 28.3287C1.66797 27.4086 2.41694 26.6643 3.33716 26.6666C4.25692 26.6693 4.99909 27.4167 4.99731 28.3365L19.3186 34.8482H19.3206C19.5363 34.9458 19.7703 34.9966 20.0071 34.9966C20.2434 34.9966 20.4773 34.9454 20.6926 34.8482L34.9924 28.3492L34.9993 28.3463C34.9921 27.4259 35.7322 26.6738 36.6526 26.6666ZM36.6526 18.3336C37.5729 18.3264 38.325 19.0665 38.3323 19.9869C38.3373 20.6337 38.1541 21.2686 37.8049 21.813C37.4559 22.3571 36.956 22.7881 36.3665 23.0533L22.0725 29.5504L22.0696 29.5523C21.4218 29.8455 20.7181 29.9966 20.0071 29.9966C19.296 29.9966 18.5924 29.8456 17.9446 29.5523L17.9436 29.5504L3.60864 23.0338L3.59888 23.0289C3.0204 22.7611 2.53038 22.333 2.18774 21.7955C1.8452 21.2579 1.66371 20.6321 1.66528 19.9947C1.66812 19.0747 2.41703 18.3313 3.33716 18.3336C4.25693 18.3363 4.99912 19.0837 4.99731 20.0035L19.3186 26.5152H19.3206C19.5363 26.6127 19.7704 26.6636 20.0071 26.6636C20.2434 26.6636 20.4773 26.6124 20.6926 26.5152L34.9924 20.0162L34.9993 20.0132C34.9921 19.0929 35.7322 18.3408 36.6526 18.3336ZM19.9924 1.66656C20.7081 1.66661 21.4165 1.8208 22.0676 2.11774L36.384 8.63434C36.9679 8.89583 37.4632 9.31889 37.8127 9.85504C38.1656 10.3963 38.3526 11.0283 38.3528 11.6744C38.3528 12.3207 38.1657 12.9542 37.8127 13.4957C37.4629 14.0323 36.9647 14.4549 36.3801 14.7164L36.3821 14.7183L22.0833 21.2154C21.4321 21.5123 20.7256 21.6684 20.01 21.6685C19.3834 21.6685 18.7626 21.5504 18.1809 21.3218L17.9348 21.2173L3.63501 14.7007C3.05205 14.4392 2.55446 14.0155 2.20532 13.48C1.85233 12.9386 1.66535 12.3051 1.66528 11.6588C1.66536 11.0127 1.85259 10.3797 2.20532 9.83844C2.55483 9.30239 3.05222 8.87825 3.63599 8.61676L17.9182 2.11774L18.1643 2.01324C18.7458 1.78473 19.366 1.66666 19.9924 1.66656ZM19.9924 4.99957C19.7544 4.99968 19.5187 5.05129 19.302 5.14996L19.3 5.15094L4.99829 11.6588L5.01782 11.6666L19.3167 18.1832C19.5338 18.2822 19.7714 18.3345 20.01 18.3345C20.2484 18.3345 20.4845 18.2821 20.7014 18.1832L35.0032 11.6832L35.0198 11.6744L35.0022 11.6685L20.6858 5.15094L20.6838 5.14996C20.467 5.0512 20.2307 4.99962 19.9924 4.99957Z" fill="white"/>
</svg>
