<svg width="40" height="40" viewBox="0 0 40 40" fill="none" xmlns="http://www.w3.org/2000/svg">
<path d="M24.9998 21.667C28.1108 21.6671 30.7242 23.7977 31.4597 26.6797C31.5272 26.6713 31.596 26.667 31.6658 26.667H33.3328C34.2531 26.667 34.9996 27.4127 34.9998 28.333C34.9998 29.2535 34.2532 30 33.3328 30H31.6658C31.5959 30 31.5273 29.9937 31.4597 29.9853C30.7248 32.868 28.1113 34.9999 24.9998 35C21.8933 35 19.2828 32.8754 18.5427 30H6.66577C5.74551 29.9997 4.99976 29.2533 4.99976 28.333C4.99994 27.4128 5.74563 26.6672 6.66577 26.667H18.5427C19.2827 23.7914 21.8932 21.667 24.9998 21.667ZM24.9998 24.6299C22.9544 24.6299 21.2958 26.2876 21.2957 28.333C21.2957 30.3785 22.9543 32.0371 24.9998 32.0371C27.0451 32.037 28.7029 30.3784 28.7029 28.333C28.7027 26.2877 27.045 24.63 24.9998 24.6299ZM14.9998 4.99997C18.111 5.00008 20.7244 7.13138 21.4597 10.0136C21.5273 10.0053 21.596 9.99999 21.6658 9.99997H33.3328C34.2532 9.99997 34.9998 10.7465 34.9998 11.667C34.9996 12.5873 34.2531 13.333 33.3328 13.333H21.6658C21.5959 13.333 21.5273 13.3267 21.4597 13.3183C20.7249 16.2012 18.1114 18.3329 14.9998 18.333C11.8932 18.333 9.28269 16.2085 8.54272 13.333H6.66577C5.74563 13.3327 4.99995 12.5871 4.99976 11.667C4.99976 10.7466 5.74551 10.0002 6.66577 9.99997H8.54272C9.28277 7.12456 11.8933 4.99997 14.9998 4.99997ZM14.9998 7.96286C12.9543 7.96286 11.2957 9.62146 11.2957 11.667C11.2958 13.7123 12.9544 15.3701 14.9998 15.3701C17.045 15.37 18.7027 13.7122 18.7029 11.667C18.7029 9.62154 17.0451 7.96299 14.9998 7.96286Z" fill="white"/>
</svg>
