<svg width="40" height="40" viewBox="0 0 40 40" fill="none" xmlns="http://www.w3.org/2000/svg">
<path d="M31.5237 3.33337C34.3639 3.33398 36.6658 5.6367 36.6663 8.47693V31.5238C36.6656 34.3639 34.3638 36.6658 31.5237 36.6664H8.47681C5.63658 36.6659 3.33386 34.364 3.33325 31.5238L3.33325 8.47693C3.33369 5.6366 5.63647 3.33381 8.47681 3.33337L31.5237 3.33337ZM16.9133 32.9633H31.5237C32.3183 32.9626 32.9625 32.3184 32.9631 31.5238V8.47693C32.9627 7.6822 32.3184 7.03809 31.5237 7.03748L16.9133 7.03748V32.9633ZM8.47681 7.03748C7.68197 7.03791 7.03779 7.68209 7.03735 8.47693L7.03735 31.5238C7.03796 32.3185 7.68208 32.9628 8.47681 32.9633H13.2102V7.03748H8.47681Z" fill="white"/>
</svg>
