<svg width="40" height="40" viewBox="0 0 40 40" fill="none" xmlns="http://www.w3.org/2000/svg">
<path d="M25.3567 3.33337C26.6695 3.35216 27.9211 3.88849 28.843 4.82263L28.844 4.82068L35.179 11.1556H35.177C36.1117 12.0777 36.6476 13.3306 36.6663 14.6439V31.6664C36.6663 32.9925 36.1391 34.2639 35.2014 35.2015C34.2637 36.1392 32.9923 36.6664 31.6663 36.6664H8.33325C7.00717 36.6664 5.73578 36.1392 4.7981 35.2015C3.86052 34.2639 3.33325 32.9924 3.33325 31.6664V8.33337C3.33325 7.00729 3.86041 5.7359 4.7981 4.79822C5.73578 3.86054 7.00717 3.33337 8.33325 3.33337H25.3567ZM8.33325 6.66638C7.89122 6.66638 7.4671 6.8421 7.15454 7.15466C6.84198 7.46722 6.66626 7.89135 6.66626 8.33337V31.6664C6.66626 32.1083 6.84208 32.5325 7.15454 32.8451C7.4671 33.1577 7.89123 33.3334 8.33325 33.3334H10.0002V23.3334C10.0002 22.4493 10.3517 21.602 10.9768 20.9769C11.6019 20.3518 12.4492 20.0004 13.3333 20.0004H26.6663C27.5503 20.0004 28.3986 20.3518 29.0237 20.9769C29.6486 21.602 30.0002 22.4495 30.0002 23.3334V33.3334H31.6663C32.1083 33.3334 32.5324 33.1577 32.845 32.8451C33.1575 32.5325 33.3333 32.1084 33.3333 31.6664V14.6908L33.3235 14.5267C33.2806 14.1479 33.1079 13.793 32.8333 13.5238L32.8206 13.5121V13.5111L26.4758 7.16638C26.2067 6.89189 25.8525 6.71912 25.4739 6.67615L25.3088 6.66638H13.3333V11.6664H25.0002C25.9206 11.6665 26.6663 12.413 26.6663 13.3334C26.6662 14.2537 25.9206 15.0002 25.0002 15.0004H13.3333C12.4494 15.0003 11.6019 14.6487 10.9768 14.0238C10.3517 13.3987 10.0002 12.5504 10.0002 11.6664V6.66638H8.33325ZM13.3333 33.3334H26.6663V23.3334H13.3333V33.3334Z" fill="white"/>
</svg>
