<svg width="40" height="40" viewBox="0 0 40 40" fill="none" xmlns="http://www.w3.org/2000/svg">
<path fill-rule="evenodd" clip-rule="evenodd" d="M28.841 5.45991C29.5073 4.82521 30.5605 4.8513 31.1955 5.51753C31.8301 6.18359 31.8063 7.23694 31.1408 7.87202L18.6896 19.7363C21.4749 22.9881 22.9717 27.3058 23.2746 31.666H36.6681C37.5884 31.6662 38.3341 32.4126 38.3341 33.333C38.3341 34.2533 37.5884 34.9998 36.6681 34.9999H4.94937C4.36222 34.9999 3.75411 34.9232 3.21207 34.6953C2.66261 34.464 2.03066 34.0021 1.77359 33.1894C1.52034 32.3885 1.76043 31.655 2.05484 31.1533C2.33167 30.6816 2.73303 30.2742 3.17203 29.9218L28.841 5.45991ZM6.17105 31.666H19.9328C19.6404 28.0297 18.3923 24.5844 16.2726 22.039L6.17105 31.666Z" fill="white"/>
</svg>
