<svg width="40" height="40" viewBox="0 0 40 40" fill="none" xmlns="http://www.w3.org/2000/svg">
<path d="M24.9988 33.2014C24.9988 35.2664 22.8256 36.6102 20.9787 35.6868L16.5337 33.4651C15.5928 32.9945 14.9988 32.0318 14.9988 30.9797V22.2069L5.35528 8.91593C3.84572 6.83472 5.33297 3.91919 7.90411 3.91919H32.0936C34.6647 3.91919 36.1519 6.83473 34.6424 8.91593L24.9988 22.2069V33.2014ZM18.3322 30.6363L21.6655 32.303V22.0279C21.6655 21.4419 21.8504 20.8697 22.1945 20.3954L31.7306 7.25252H8.26706L17.8032 20.3954C18.1473 20.8697 18.3322 21.4419 18.3322 22.0279V30.6363Z" fill="white"/>
</svg>
