<svg width="40" height="40" viewBox="0 0 40 40" fill="none" xmlns="http://www.w3.org/2000/svg">
<g clip-path="url(#clip0_3755_28017)">
<path d="M28.667 27C29.4494 27 30.084 27.6346 30.084 28.417V31.25H32.917C33.6994 31.25 34.334 31.8846 34.334 32.667C34.3339 33.4493 33.6993 34.083 32.917 34.083H30.084V36.917C30.0839 37.6993 29.4493 38.333 28.667 38.333C27.8847 38.3329 27.2501 37.6992 27.25 36.917V34.083H24.417C23.6347 34.0829 23.0001 33.4493 23 32.667C23 31.8846 23.6346 31.2501 24.417 31.25H27.25V28.417C27.25 27.6346 27.8847 27.0001 28.667 27ZM31.667 3.33301C32.9929 3.33312 34.2646 3.86027 35.2021 4.79785C36.1397 5.73544 36.6669 7.00707 36.667 8.33301V25C36.667 25.674 36.2604 26.282 35.6377 26.54C35.015 26.7978 34.2979 26.6553 33.8213 26.1787L28.667 21.0234L28.5449 20.915C28.2481 20.6763 27.8764 20.5451 27.4922 20.5469C27.0531 20.5491 26.6318 20.7247 26.3213 21.0352L14.0234 33.333H17.166C18.0865 33.333 18.833 34.0795 18.833 35C18.833 35.9205 18.0865 36.667 17.166 36.667H8.33301C7.00702 36.6669 5.73547 36.1398 4.79785 35.2021C3.86024 34.2645 3.33308 32.993 3.33301 31.667V8.33301C3.3331 7.00706 3.86026 5.73545 4.79785 4.79785C5.73547 3.86027 7.00704 3.33307 8.33301 3.33301H31.667ZM8.33301 6.66699C7.8911 6.66706 7.46777 6.84281 7.15527 7.15527C6.8428 7.46775 6.66709 7.89111 6.66699 8.33301V31.667C6.66707 32.1089 6.84278 32.5322 7.15527 32.8447C7.46777 33.1572 7.89108 33.3329 8.33301 33.333H9.30957L23.9648 18.6787L24.3291 18.3477C25.2126 17.623 26.323 17.2196 27.4756 17.2139C28.7924 17.2074 30.0584 17.721 30.999 18.6426L31.0127 18.6543V18.6553L33.333 20.9766V8.33301C33.3329 7.89112 33.1572 7.46775 32.8447 7.15527C32.5323 6.84281 32.1089 6.6671 31.667 6.66699H8.33301ZM15 10C17.7614 10 20 12.2386 20 15C20 17.7614 17.7614 20 15 20C12.2386 20 10 17.7614 10 15C10 12.2386 12.2386 10 15 10ZM15 13.333C14.0795 13.333 13.333 14.0795 13.333 15C13.333 15.9205 14.0795 16.667 15 16.667C15.9205 16.667 16.667 15.9205 16.667 15C16.667 14.0795 15.9205 13.333 15 13.333Z" fill="white"/>
</g>
<defs>
<clipPath id="clip0_3755_28017">
<rect width="40" height="40" fill="white"/>
</clipPath>
</defs>
</svg>
