<svg width="40" height="40" viewBox="0 0 40 40" fill="none" xmlns="http://www.w3.org/2000/svg">
<path d="M34.9984 20.0002C34.9984 11.7159 28.2826 5.0002 19.9984 5.0002C11.7141 5.0002 4.99837 11.7159 4.99837 20.0002C4.99837 28.2845 11.7141 35.0002 19.9984 35.0002C28.2826 35.0002 34.9984 28.2845 34.9984 20.0002ZM38.3317 20.0002C38.3317 30.1254 30.1236 38.3335 19.9984 38.3335C9.87315 38.3335 1.66504 30.1254 1.66504 20.0002C1.66504 9.87498 9.87315 1.66687 19.9984 1.66687C30.1236 1.66687 38.3317 9.87498 38.3317 20.0002Z" fill="#FFA661"/>
<path d="M25.4069 13.9045C26.0117 13.2108 27.0649 13.1387 27.7588 13.7434C28.4525 14.3481 28.5246 15.4014 27.92 16.0952L18.1202 27.342L10.975 20.1984C10.3241 19.5476 10.3241 18.4909 10.975 17.84C11.6257 17.1897 12.681 17.1897 13.3317 17.84L17.9509 22.4608L25.4069 13.9045Z" fill="#FFA661"/>
</svg>
