<svg width="40" height="40" viewBox="0 0 40 40" fill="none" xmlns="http://www.w3.org/2000/svg">
<path d="M33.6563 3.46063C34.0039 3.33934 34.3749 3.30429 34.7378 3.35855L34.8961 3.38814L35.0514 3.42809C35.3596 3.52017 35.6443 3.67742 35.8873 3.8882L36.0057 3.99768L36.1151 4.11456C36.3257 4.35735 36.4817 4.64256 36.5738 4.95046L36.6152 5.10729L36.6448 5.26559C36.6987 5.62751 36.6619 5.99729 36.5412 6.34413L36.5427 6.34561L26.6953 35.1302V35.1317C26.5449 35.57 26.2641 35.9523 25.8905 36.2265C25.5167 36.5008 25.0669 36.6541 24.6034 36.6659C24.1401 36.6777 23.6842 36.5476 23.297 36.2931C22.9096 36.0383 22.6086 35.6701 22.4359 35.2397L17.6188 23.2249L17.5552 23.0858C17.4842 22.9508 17.3928 22.8272 17.2844 22.7189C17.1397 22.5745 16.9668 22.4606 16.7769 22.3846V22.3831L4.76215 17.5659C4.33206 17.3933 3.96503 17.0934 3.71024 16.7064C3.45544 16.319 3.32554 15.862 3.33742 15.3985C3.34935 14.9351 3.50258 14.4866 3.77682 14.1128L3.88334 13.9767C4.14627 13.6703 4.48774 13.4397 4.87163 13.308V13.3065L33.6563 3.45915V3.46063ZM7.78323 15.5124L17.9013 19.5706H17.9028C18.4725 19.7987 18.9909 20.1402 19.4252 20.5737C19.8593 21.007 20.2007 21.5241 20.4298 22.0931L20.4312 22.0961L24.488 32.2172L33.1754 6.82644L7.78323 15.5124Z" fill="white"/>
<path d="M33.8584 4.00377C34.45 3.41244 35.4091 3.4122 36.0006 4.00377C36.5918 4.59533 36.5918 5.5545 36.0006 6.14605L19.4261 22.7191C18.8345 23.3103 17.8754 23.3103 17.2838 22.7191C16.6922 22.1274 16.6922 21.167 17.2838 20.5753L33.8584 4.00377Z" fill="white"/>
</svg>
