<svg width="176" height="41" viewBox="0 0 176 41" fill="none" xmlns="http://www.w3.org/2000/svg">
<path d="M164.736 35.2802C166.376 35.2802 167.573 35.0925 168.325 34.717C169.077 34.3073 169.453 33.6246 169.453 32.6687C169.453 31.7812 169.042 31.0472 168.222 30.4669C167.436 29.8866 166.12 29.2551 164.274 28.5723C163.146 28.1627 162.104 27.736 161.147 27.2922C160.224 26.8143 159.421 26.2681 158.737 25.6536C158.054 25.0392 157.507 24.3052 157.097 23.4518C156.721 22.5642 156.533 21.4889 156.533 20.2259C156.533 17.768 157.438 15.8393 159.25 14.4397C161.061 13.0059 163.522 12.2891 166.633 12.2891C168.205 12.2891 169.709 12.4427 171.144 12.7499C172.58 13.023 173.657 13.2961 174.374 13.5692L173.246 18.5873C172.563 18.2801 171.691 18.007 170.632 17.768C169.572 17.4949 168.342 17.3584 166.94 17.3584C165.676 17.3584 164.65 17.5803 163.864 18.024C163.078 18.4337 162.685 19.0823 162.685 19.9698C162.685 20.4136 162.753 20.8062 162.89 21.1476C163.061 21.4889 163.334 21.8132 163.71 22.1205C164.086 22.3936 164.582 22.6837 165.197 22.991C165.812 23.264 166.564 23.5542 167.453 23.8614C168.923 24.4076 170.17 24.9538 171.196 25.5C172.221 26.0121 173.058 26.6095 173.708 27.2922C174.391 27.9408 174.887 28.6918 175.195 29.5452C175.502 30.3986 175.656 31.4227 175.656 32.6175C175.656 35.1778 174.699 37.1236 172.785 38.4549C170.905 39.7521 168.205 40.4007 164.684 40.4007C162.326 40.4007 160.429 40.1959 158.994 39.7863C157.558 39.4108 156.55 39.1035 155.969 38.8646L157.045 33.6928C157.968 34.0684 159.062 34.4268 160.327 34.7682C161.625 35.1095 163.095 35.2802 164.736 35.2802Z" fill="#F9FAFB"/>
<path d="M132.914 26.3705C132.914 24.3906 133.221 22.5472 133.837 20.8403C134.452 19.0994 135.323 17.5973 136.451 16.3343C137.613 15.0712 139.015 14.0812 140.655 13.3644C142.296 12.6475 144.142 12.2891 146.193 12.2891C148.722 12.2891 151.114 12.7499 153.37 13.6716L152.037 18.7409C151.319 18.4337 150.499 18.1777 149.576 17.9728C148.688 17.768 147.731 17.6656 146.705 17.6656C144.278 17.6656 142.433 18.4337 141.168 19.9698C139.903 21.4719 139.271 23.6054 139.271 26.3705C139.271 29.0332 139.869 31.1497 141.066 32.7199C142.262 34.2561 144.278 35.0242 147.115 35.0242C148.175 35.0242 149.217 34.9218 150.243 34.717C151.268 34.5121 152.157 34.2561 152.909 33.9489L153.78 39.0694C153.097 39.4108 152.054 39.718 150.653 39.9911C149.286 40.2642 147.867 40.4007 146.398 40.4007C144.108 40.4007 142.108 40.0594 140.399 39.3766C138.724 38.6598 137.323 37.6869 136.195 36.4579C135.101 35.1949 134.281 33.7099 133.734 32.0031C133.187 30.2621 132.914 28.3846 132.914 26.3705Z" fill="#F9FAFB"/>
<path d="M127.051 39.7354H120.847V12.9551H127.051V39.7354ZM127.717 5.12066C127.717 6.28132 127.341 7.20301 126.589 7.88575C125.837 8.56848 124.949 8.90985 123.923 8.90985C122.864 8.90985 121.958 8.56848 121.206 7.88575C120.454 7.20301 120.078 6.28132 120.078 5.12066C120.078 3.92588 120.454 2.98712 121.206 2.30438C121.958 1.62164 122.864 1.28027 123.923 1.28027C124.949 1.28027 125.837 1.62164 126.589 2.30438C127.341 2.98712 127.717 3.92588 127.717 5.12066Z" fill="#F9FAFB"/>
<path d="M99.6227 5.88836L105.826 4.86426V12.9547H115.362V18.1264H105.826V29.0331C105.826 31.1838 106.168 32.7199 106.852 33.6416C107.535 34.5633 108.697 35.0241 110.338 35.0241C111.466 35.0241 112.457 34.9047 113.312 34.6657C114.2 34.4268 114.901 34.2049 115.414 34L116.439 38.9157C115.721 39.223 114.781 39.5302 113.619 39.8374C112.457 40.1788 111.09 40.3495 109.518 40.3495C107.604 40.3495 105.997 40.0935 104.698 39.5814C103.434 39.0694 102.425 38.3354 101.674 37.3796C100.922 36.3896 100.392 35.2119 100.084 33.8464C99.7766 32.4468 99.6227 30.8594 99.6227 29.0843V5.88836Z" fill="#F9FAFB"/>
<path d="M69.7178 26.4729C69.7178 24.1175 70.0596 22.0522 70.7432 20.2771C71.461 18.502 72.4009 17.0341 73.563 15.8734C74.7251 14.6786 76.0582 13.7911 77.5621 13.2108C79.066 12.5963 80.604 12.2891 82.1763 12.2891C85.8677 12.2891 88.7388 13.4326 90.7896 15.7198C92.8745 18.007 93.917 21.4207 93.917 25.9609C93.917 26.3022 93.8999 26.6948 93.8657 27.1386C93.8657 27.5482 93.8486 27.9237 93.8145 28.2651H76.1265C76.2974 30.4157 77.0494 32.0884 78.3824 33.2832C79.7495 34.4439 81.7149 35.0242 84.2783 35.0242C85.7823 35.0242 87.1494 34.8876 88.3799 34.6145C89.6445 34.3414 90.6357 34.0513 91.3535 33.7441L92.1738 38.8134C91.832 38.9841 91.3535 39.1718 90.7383 39.3766C90.1572 39.5473 89.4736 39.7009 88.6875 39.8375C87.9356 40.0082 87.1153 40.1447 86.2266 40.2471C85.3379 40.3495 84.4322 40.4007 83.5093 40.4007C81.1509 40.4007 79.1001 40.0594 77.357 39.3766C75.6138 38.6598 74.1783 37.6869 73.0503 36.4579C71.9224 35.1949 71.085 33.727 70.5381 32.0543C69.9913 30.3474 69.7178 28.487 69.7178 26.4729ZM87.7134 23.7078C87.7134 22.8544 87.5938 22.0522 87.3545 21.3012C87.1153 20.516 86.7564 19.8504 86.2778 19.3042C85.8335 18.7239 85.2696 18.2801 84.586 17.9728C83.9365 17.6315 83.1504 17.4608 82.2276 17.4608C81.2705 17.4608 80.4331 17.6485 79.7154 18.024C78.9976 18.3654 78.3824 18.8263 77.8697 19.4066C77.3912 19.9869 77.0152 20.6526 76.7417 21.4036C76.4683 22.1546 76.2803 22.9227 76.1778 23.7078H87.7134Z" fill="#F9FAFB"/>
<path d="M62.6623 0C64.0978 0 65.3625 0.136548 66.4562 0.409643C67.5499 0.648599 68.3703 0.870488 68.9171 1.07531L67.7379 6.19583C67.1569 5.92274 66.4733 5.70085 65.6872 5.53016C64.9352 5.35948 64.1149 5.27414 63.2262 5.27414C62.235 5.27414 61.3976 5.42775 60.714 5.73499C60.0304 6.00808 59.4836 6.40065 59.0734 6.91271C58.6633 7.42476 58.3727 8.05629 58.2018 8.8073C58.0309 9.52417 57.9455 10.3093 57.9455 11.1627V12.9549H67.6867V18.1267H57.9455V39.7353H51.7419V11.0603C51.7419 7.61251 52.6476 4.9157 54.4592 2.9699C56.2707 0.989967 59.0051 0 62.6623 0Z" fill="#F9FAFB"/>
<path d="M34.352 35.3826C36.2661 35.3826 37.7187 35.2802 38.7099 35.0754V28.2139C38.3681 28.1115 37.8725 28.0091 37.2231 27.9067C36.5737 27.8042 35.8559 27.753 35.0698 27.753C34.3862 27.753 33.6855 27.8042 32.9678 27.9067C32.2842 28.0091 31.6518 28.1968 31.0708 28.4699C30.5239 28.743 30.0796 29.1356 29.7378 29.6476C29.396 30.1255 29.2251 30.74 29.2251 31.491C29.2251 32.9589 29.6865 33.983 30.6094 34.5633C31.5322 35.1095 32.7798 35.3826 34.352 35.3826ZM33.8393 12.2891C35.8901 12.2891 37.6162 12.5451 39.0175 13.0571C40.4189 13.5692 41.5297 14.2861 42.3501 15.2078C43.2045 16.1295 43.8027 17.256 44.1445 18.5873C44.5205 19.8845 44.7084 21.3182 44.7084 22.8885V39.1206C43.7514 39.3254 42.2988 39.5644 40.3505 39.8375C38.4365 40.1447 36.2661 40.2983 33.8393 40.2983C32.2329 40.2983 30.7632 40.1447 29.4302 39.8375C28.0972 39.5302 26.9521 39.0353 25.9951 38.3525C25.0723 37.6698 24.3374 36.7822 23.7905 35.6899C23.2778 34.5975 23.0215 33.2491 23.0215 31.6446C23.0215 30.1085 23.312 28.8113 23.8931 27.753C24.5083 26.6948 25.3286 25.8414 26.354 25.1928C27.3794 24.51 28.5586 24.0321 29.8916 23.759C31.2588 23.4518 32.6772 23.2982 34.1469 23.2982C34.8305 23.2982 35.5483 23.3494 36.3003 23.4518C37.0522 23.5201 37.8554 23.6566 38.7099 23.8614V22.8373C38.7099 22.1205 38.6245 21.4377 38.4536 20.7891C38.2827 20.1405 37.9751 19.5773 37.5307 19.0994C37.1206 18.5873 36.5566 18.1947 35.8388 17.9216C35.1552 17.6485 34.2837 17.512 33.2241 17.512C31.7886 17.512 30.4726 17.6144 29.2764 17.8192C28.0801 18.024 27.1059 18.263 26.354 18.5361L25.585 13.518C26.3711 13.2449 27.5161 12.9718 29.02 12.6987C30.5239 12.4256 32.1303 12.2891 33.8393 12.2891Z" fill="#F9FAFB"/>
<path d="M8.76713 35.2802C10.4078 35.2802 11.604 35.0925 12.356 34.717C13.1079 34.3073 13.4839 33.6246 13.4839 32.6687C13.4839 31.7812 13.0738 31.0472 12.2535 30.4669C11.4673 29.8866 10.1514 29.2551 8.30571 28.5723C7.17778 28.1627 6.1353 27.736 5.17827 27.2922C4.25542 26.8143 3.4522 26.2681 2.76861 25.6536C2.08502 25.0392 1.53814 24.3052 1.12799 23.4518C0.752012 22.5642 0.564024 21.4889 0.564024 20.2259C0.564024 17.768 1.46978 15.8393 3.2813 14.4397C5.09282 13.0059 7.55375 12.2891 10.6641 12.2891C12.2364 12.2891 13.7403 12.4427 15.1758 12.7499C16.6113 13.023 17.688 13.2961 18.4058 13.5692L17.2778 18.5873C16.5943 18.2801 15.7227 18.007 14.6631 17.768C13.6035 17.4949 12.3731 17.3584 10.9717 17.3584C9.70707 17.3584 8.68168 17.5803 7.89555 18.024C7.10942 18.4337 6.71635 19.0823 6.71635 19.9698C6.71635 20.4136 6.78471 20.8062 6.92143 21.1476C7.09233 21.4889 7.36577 21.8132 7.74174 22.1205C8.11772 22.3936 8.61332 22.6837 9.22855 22.991C9.84379 23.264 10.5957 23.5542 11.4844 23.8614C12.9541 24.4076 14.2017 24.9538 15.2271 25.5C16.2525 26.0121 17.0899 26.6095 17.7393 27.2922C18.4229 27.9408 18.9185 28.6918 19.2261 29.5452C19.5337 30.3986 19.6875 31.4227 19.6875 32.6175C19.6875 35.1778 18.7305 37.1236 16.8164 38.4549C14.9365 39.7521 12.2364 40.4007 8.71586 40.4007C6.35747 40.4007 4.4605 40.1959 3.02496 39.7863C1.58941 39.4108 0.581114 39.1035 6.10352e-05 38.8646L1.07672 33.6928C1.99957 34.0684 3.09332 34.4268 4.35796 34.7682C5.65679 35.1095 7.12651 35.2802 8.76713 35.2802Z" fill="#F9FAFB"/>
</svg>
