<svg width="820" height="820" viewBox="0 0 820 820" fill="none" xmlns="http://www.w3.org/2000/svg">
<path d="M487.714 656.939L488.577 657.799C525.544 695.095 525.251 754.782 487.697 791.722L487.337 792.076C449.488 829.307 388.148 829.307 350.298 792.076L55.8941 504.248C82.8706 514.466 133.247 518.143 167.574 489.521L167.879 489.22C170.989 486.852 173.972 484.288 176.83 481.477L243.093 416.296L487.714 656.939ZM324.751 43.6277C295.402 81.0006 298.134 134.903 332.982 169.182L402.085 237.157L165.426 469.951C127.577 507.182 66.2369 507.182 28.3872 469.951C-9.4624 432.719 -9.46243 372.382 28.3872 335.15L324.751 43.6277ZM347.777 28.5242C385.285 -9.02555 446.625 -9.57349 484.816 27.3044L696.333 231.635C718.834 253.38 728.251 283.257 724.531 311.826L731.954 304.384L744.093 292.228L820 365.552L795.162 390.444L744.534 341.545L673.112 413.091L723.74 461.99L698.902 486.882L622.987 413.55L635.406 401.104L642.559 393.944C613.588 398.116 583.035 389.401 560.534 367.656L349.017 163.325C310.844 126.429 310.287 66.0916 347.777 28.5242ZM744.093 292.228L744.085 292.22H744.102L744.093 292.228Z" fill="#FF8E2B"/>
</svg>
